<svg
	data-device="iphone"
  role="presentation"
  xmlns="http://www.w3.org/2000/svg"
  width="250px"
  height="500px"
	viewBox="0 0 250 500"
>
<title>iphone</title>
<path d="M-10-13v526h271V-13H-10z M247,452.2C247,452.2,247,452.2,247,452.2c0,23.2-18.7,41.9-41.8,41.9H44.8
	c0,0,0,0-0.1,0C21.7,494,3,475.2,3,452.2V48.8c0,0,0,0,0-0.1C3,25.7,21.7,7,44.8,7h160.4c0,0,0,0,0.1,0C228.3,7,247,25.8,247,48.8
	V452.2z"/>
<path d="M206.9,1.5C206.9,1.5,206.8,1.5,206.9,1.5H43.2C19.6,1.5,0.5,20.6,0.5,44.2c0,0,0,0,0,0.1v411.6c0,23.6,19.1,42.7,42.6,42.7
	c0,0,0,0,0.1,0h163.6c23.6,0,42.7-19.1,42.7-42.7c0,0,0,0,0-0.1V44.2C249.5,20.6,230.4,1.5,206.9,1.5z M206.6,484.6h-161
	c-17.2,0-31.1-13.9-31.1-31.1V46.7c0-17.2,13.9-31.1,31.1-31.1h16.6v9.2c0,5,4,9,9,9h106.7c4.9,0,8.9-4,9-9v-9.2h19.8
	c17.2,0,31.1,13.9,31.1,31.1l0.1,406.7C237.7,470.7,223.8,484.6,206.6,484.6z"/>
<path d="M108,20.1h35c0.7,0,1.3,0.6,1.3,1.3v2.8c0,0.7-0.6,1.3-1.3,1.3h-35c-0.7,0-1.3-0.6-1.3-1.3v-2.8
	C106.7,20.7,107.3,20.1,108,20.1z"/>
</svg>
