<svg
  data-logo="tokens"
  xmlns="http://www.w3.org/2000/svg"
  aria-hidden="true"
  focusable="false"
  width="200px"
  height="200px"
  viewBox="0 0 512 512"
>
  <path d="M256,511A255,255,0,0,1,75.69,75.69,255,255,0,1,1,436.31,436.31,253.32,253.32,0,0,1,256,511Zm0-484.5C129.44,26.5,26.5,129.44,26.5,256S129.44,485.5,256,485.5,485.5,382.56,485.5,256,382.56,26.5,256,26.5Z"/>
  <path d="m322.49 122.99c-36.727 0-66.51 29.783-66.51 66.51 0 14.26 4.4961 27.482 12.145 38.31l-143.21 143.21c-2.5939 2.5939-2.5939 6.8106 0 9.4045 1.3036 1.3036 3.0062 1.9421 4.7089 1.9421 1.7026 0 3.4053-0.65179 4.7089-1.9421l15.244-15.244 21.895 21.895c1.3036 1.3036 3.0062 1.9421 4.7089 1.9421 1.7027 0 3.4053-0.6518 4.7089-1.9421 2.5939-2.5939 2.5939-6.8106 0-9.4045l-21.895-21.895 10.548-10.549 21.895 21.895c1.3036 1.3036 3.0062 1.9421 4.7089 1.9421 1.7027 0 3.4053-0.65179 4.7089-1.9421 2.5939-2.5939 2.5939-6.8106 0-9.4045l-21.895-21.895 97.943-97.943c11.905 11.24 27.961 18.131 45.626 18.131 36.727 0 66.51-29.783 66.51-66.51 0-36.727-29.783-66.51-66.51-66.51zm37.618 104.13c-10.056 10.056-23.412 15.59-37.618 15.59-14.207 0-27.575-5.5336-37.618-15.59-10.056-10.056-15.59-23.412-15.59-37.618 0-14.207 5.5336-27.575 15.59-37.618 10.056-10.056 23.412-15.59 37.618-15.59 14.207 0 27.575 5.5336 37.618 15.59 10.056 10.056 15.59 23.412 15.59 37.618 0 14.207-5.5336 27.575-15.59 37.618z"/>
</svg>
