<svg
  data-logo="tokens"
  xmlns="http://www.w3.org/2000/svg"
  aria-hidden="true"
  focusable="false"
  width="200px"
  height="200px"
  viewBox="0 0 20 20"
>
  <path class="a" d="M256,511A255,255,0,0,1,75.69,75.69,255,255,0,1,1,436.31,436.31,253.32,253.32,0,0,1,256,511Zm0-484.5C129.44,26.5,26.5,129.44,26.5,256S129.44,485.5,256,485.5,485.5,382.56,485.5,256,382.56,26.5,256,26.5Z"/><path class="a" d="M12.5 8h-5.5v-1h5.5c0.276 0 0.5-0.224 0.5-0.5s-0.224-0.5-0.5-0.5h-2.5v-0.5c0-0.276-0.224-0.5-0.5-0.5s-0.5 0.224-0.5 0.5v0.5h-2.5c-0.276 0-0.5 0.224-0.5 0.5v2c0 0.276 0.224 0.5 0.5 0.5h5.5v1h-5.5c-0.276 0-0.5 0.224-0.5 0.5s0.224 0.5 0.5 0.5h2.5v0.5c0 0.276 0.224 0.5 0.5 0.5s0.5-0.224 0.5-0.5v-0.5h2.5c0.276 0 0.5-0.224 0.5-0.5v-2c0-0.276-0.224-0.5-0.5-0.5z"/><path class="a" d="M16.107 4.527c-1.773-0.985-4.119-1.527-6.607-1.527s-4.834 0.542-6.607 1.527c-1.866 1.037-2.893 2.447-2.893 3.973v3c0 1.525 1.027 2.936 2.893 3.973 1.773 0.985 4.119 1.527 6.607 1.527s4.834-0.542 6.607-1.527c1.866-1.037 2.893-2.447 2.893-3.973v-3c0-1.525-1.027-2.936-2.893-3.973zM3.379 5.402c1.627-0.904 3.801-1.402 6.121-1.402s4.494 0.498 6.121 1.402c1.534 0.852 2.379 1.953 2.379 3.098s-0.845 2.246-2.379 3.098c-1.627 0.904-3.801 1.402-6.121 1.402s-4.494-0.498-6.121-1.402c-1.534-0.852-2.379-1.953-2.379-3.098s0.845-2.246 2.379-3.098zM18 11.5c0 1.146-0.845 2.246-2.379 3.098-1.627 0.904-3.801 1.402-6.121 1.402s-4.494-0.498-6.121-1.402c-1.534-0.852-2.379-1.953-2.379-3.098v-0.513c0.474 0.548 1.109 1.050 1.893 1.486 1.773 0.985 4.119 1.527 6.607 1.527s4.834-0.542 6.607-1.527c0.784-0.436 1.419-0.937 1.893-1.486v0.513z"/>
</svg>
