<svg
  data-logo="accoutrement"
  xmlns="http://www.w3.org/2000/svg"
  aria-hidden
  focusable="false"
  width="512"
  height="135"
  viewBox="0 0 512 134.51"
>
  <path d="M33.15,132.16l.27-3.42,4-.62c2.61-.46,2.61-2,2.07-5.13l-1.62-10.35H21.18l-2.25,5.94c-2.34,5.66-2,8.64.81,9.36l3.6.8.27,3.42H2.91l.27-3.42,3-.89c3.24-.9,4.23-2,7.65-9.18L31,80.33V77.09l10.53-2.43,9.18,49.86c.45,1.89.9,2.88,3.24,3.33l4.05.89.27,3.42Zm.45-47.51H33L22.89,108.59h14.4Z"/>
  <path d="M80.4,94.73c-.54,0-1.35.72-2,1.26-2.88,3-7.2,13.5-7.2,21.87,0,5.94,3.42,9.63,7.83,9.63,2.34,0,5.85-2,11.16-5.67l1.26,1.8c-4.59,5.66-9.09,9.9-15.75,9.9-8,0-13.14-6.4-13.14-14.58,0-13.32,10.26-28.71,23-28.71,6,0,10.62,3.6,10.62,8.28,0,3.24-2.34,5.85-5,5.85-3.06,0-4.41-1.89-4.41-4.32a6.5,6.5,0,0,1,.9-3.15C86.79,96.08,83,94.73,80.4,94.73Z"/>
  <path d="M116.76,94.73c-.54,0-1.35.72-2,1.26-2.88,3-7.2,13.5-7.2,21.87,0,5.94,3.42,9.63,7.83,9.63,2.34,0,5.85-2,11.16-5.67l1.26,1.8c-4.59,5.66-9.09,9.9-15.75,9.9-8,0-13.14-6.4-13.14-14.58,0-13.32,10.26-28.71,23-28.71,6,0,10.62,3.6,10.62,8.28,0,3.24-2.34,5.85-5,5.85-3.06,0-4.41-1.89-4.41-4.32a6.5,6.5,0,0,1,.9-3.15C123.15,96.08,119.37,94.73,116.76,94.73Z"/>
  <path d="M150.33,133.52c-9.81,0-14.85-7.47-14.85-18,0-12.33,9.18-25.29,21-25.29,9.81,0,14.76,7.47,14.76,17.91C171.21,120.56,162,133.52,150.33,133.52Zm6.12-39.69c-5.76,0-10,10.08-11.43,15.75a41.15,41.15,0,0,0-1.08,9.18c0,5.48,2,11.15,6.39,11.15,5.94,0,10-10.43,11.34-16.28a48.91,48.91,0,0,0,1.08-9.27C162.75,98.87,160.77,93.83,156.45,93.83Z"/>
  <path d="M188,90.23c2.07,0,7.56,2.16,7.56,3.69,0,2.16-2.52,9.81-4.68,16.47-1.44,4.59-3.24,9.72-3.24,12a4.21,4.21,0,0,0,4.14,3.78c2.79,0,7.2-7.2,14.31-21.78l2.79-13.14,9.18.18-3.51,13.32s-3.87,20.16-4.68,22.31l2.61.91,6.75-5,1.53,1.8c-2.52,4.32-7.83,8.82-12,8.82-2.07,0-7.29-1.71-7.29-3.33,0-2.53,4.32-17.46,5.31-21.06H206c-5,10.62-8.64,17.64-11.79,20.78a10.87,10.87,0,0,1-7.92,3.61,7,7,0,0,1-7-6.93c0-3.69,1.8-10.08,3.87-16.56,1.53-5,3.24-10.8,4-13.14l-2.61-.54-6.39,6.84-1.62-1.8C178.77,96.53,183.81,90.23,188,90.23Z"/>
  <path d="M235.47,79.16h8.28l-2.61,12.69h11.34l.27,4.77H240.24L233.67,127l2.52.9,6.84-5,1.53,1.71c-2.43,4.41-7.83,9-12,9-2.07,0-7.65-1.62-7.38-2.88l7-33.48-7.38-.54.27-3s8.28-3.24,8.28-3.15Z"/>
  <path d="M279.21,96.26c-3,2.43-10.53,17.55-13.5,24.3l-2.34,12-9.18-.28,3.24-13.31,4.59-22-2.61-.54L253,103.19l-1.62-1.8c2.16-4.86,7.2-11.16,11.43-11.16,2.07,0,7.74,1.44,7.74,3,0,2.61-4.32,17.82-5.76,22.32h1.26c2.34-6.48,7.29-17.64,10.53-21,2.25-3.24,3.86-4.5,7.38-4.5a6.11,6.11,0,0,1,6.11,6.48c0,3.6-2.34,6.21-5.13,6.21-3.23,0-5.21-2.43-4.5-6C280.46,96.71,279.48,96.08,279.21,96.26Z"/>
  <path d="M299,118.22c0,5.58,3.42,9.27,7.83,9.27,2.34,0,5.85-2,11.16-5.67l1.26,1.8c-4.59,5.66-9.09,9.9-15.75,9.9-8.1,0-13.14-6.4-13.14-14.58,0-13.68,10.35-28.71,22.5-28.71,6.48,0,10.35,3.78,10.35,8.64,0,6.3-6.93,8.91-24.21,17.73Zm.27-4.5c12.69-6.75,16.29-9.9,16.29-14.67,0-2.34-5-4-6.93-4a3.79,3.79,0,0,0-3,1c-2.16,2.16-5.31,9.09-6.66,17.64Z"/>
  <path d="M380.36,133.52c-2.07,0-7.29-1.71-7.29-3.24,0-2.16,2.61-10.26,4.77-16.92,1.44-4.68,3.24-10,3.24-12.24,0-1.8-2-3.51-4.14-3.51-2.79,0-7.2,7.2-14.22,21.78l-3.24,13.14-9.17-.28,4.86-17.09c1.53-5.13,3.68-11.79,3.68-14,0-1.8-2.06-3.51-4.14-3.51-2.88,0-7.28,7.2-14.21,21.78l-2.7,13.14-9.18-.28,3.24-13.31,4.59-22-2.61-.54-6.39,6.84-1.62-1.8c2.16-4.86,7.2-11.16,11.43-11.16,2.07,0,7.74,1.44,7.74,3,0,2.61-4.14,17.55-5.22,21.42h.81c5-10.62,8.45-17.64,11.7-20.79a10.69,10.69,0,0,1,7.83-3.6c3.86,0,6.2,2.79,6.2,6.93,0,3.6-3.42,14-4.32,17.46h.81C368,103.55,371.36,97,374.6,93.83a10.85,10.85,0,0,1,7.83-3.6,6.86,6.86,0,0,1,7.11,6.66c0,3.78-1.89,10.35-4,16.83-1.08,4-3.42,11.06-4.14,13.23l2.52.9,6.84-5,1.53,1.71C389.9,128.93,384.5,133.52,380.36,133.52Z"/>
  <path d="M405.74,118.22c0,5.58,3.42,9.27,7.83,9.27,2.34,0,5.85-2,11.16-5.67l1.26,1.8c-4.59,5.66-9.09,9.9-15.75,9.9-8.1,0-13.14-6.4-13.14-14.58,0-13.68,10.35-28.71,22.5-28.71,6.48,0,10.35,3.78,10.35,8.64,0,6.3-6.93,8.91-24.21,17.73Zm.27-4.5c12.69-6.75,16.29-9.9,16.29-14.67,0-2.34-5-4-6.93-4a3.79,3.79,0,0,0-3,1c-2.16,2.16-5.31,9.09-6.66,17.64Z"/>
  <path d="M464.78,133.52c-2.07,0-7.29-1.71-7.29-3.24,0-2.16,2.7-10.26,4.77-16.92,1.53-4.68,3.33-10,3.33-12.24,0-1.8-2.07-3.51-4.14-3.51-2.88,0-7.29,7.2-14.22,21.78l-2.7,13.14-9.18-.28,3.24-13.31,4.59-21.78-2.61-.45-6.39,6.48-1.62-1.8c2.16-4.86,7.11-11.16,11.34-11.16,2.07,0,7.83,1.44,7.83,3,0,2.61-4.14,17.55-5.22,21.42h.81C452.27,104,455.78,97,459,93.83a10.85,10.85,0,0,1,7.83-3.6A6.81,6.81,0,0,1,474,96.89c0,3.78-1.89,10.26-3.87,16.83L465.86,127l2.52.9,6.84-5,1.62,1.71C474.32,128.93,468.92,133.52,464.78,133.52Z"/>
  <path d="M492.68,79.16H501l-2.61,12.69h11.34l.27,4.77H497.45L490.88,127l2.52.9,6.84-5,1.53,1.71c-2.43,4.41-7.83,9-12,9-2.07,0-7.65-1.62-7.38-2.88l7-33.48-7.38-.54.27-3s8.28-3.24,8.28-3.15Z"/>
  <path d="M45,66.46A5.14,5.14,0,0,0,48.63,68h.12a5.12,5.12,0,0,0,3.72-1.72L67.23,49.84l15,16.45A5.22,5.22,0,0,0,86,68a5.16,5.16,0,0,0,3.67-1.53l4-4a5.16,5.16,0,0,0,0-7.3l-.21-.2h0l-17-15.45L78.76,37l.13,0A14.66,14.66,0,0,0,97.06,16.63a1.65,1.65,0,0,0-2.22-.7,1.73,1.73,0,0,0-.41.3l-7.35,7.35H83.84V20.33L91.19,13a1.65,1.65,0,0,0-.4-2.62A14.65,14.65,0,0,0,70.34,28.52l0,.14L67.5,31.25l-9.29-8.46a1.86,1.86,0,0,1-.16-2.64l.09-.1,8.52-8.52a1.65,1.65,0,0,0-1.18-2.82c-.15,0-3.79,0-7.75.23-7.49.44-9.29,1.27-10.13,2.11l-13,13a1.65,1.65,0,0,0-.49,1.16v2.07H32.06a1.65,1.65,0,0,0-1.17.48l-3.71,3.72a1.64,1.64,0,0,0,0,2.33l7.43,7.43a1.65,1.65,0,0,0,2.33,0l3.71-3.71a1.65,1.65,0,0,0,.48-1.17V34.29H43.2a1.64,1.64,0,0,0,1.16-.48l3-2.94a1.87,1.87,0,0,1,2.64,0,.94.94,0,0,1,.1.1l8,8.8L41.14,54.93a5.15,5.15,0,0,0-.44,7.26l.23.24Zm28.5-36.15a1.67,1.67,0,0,0,.38-1.95l.19-.1h0l-.19.09a11.2,11.2,0,0,1-1.15-5,11.35,11.35,0,0,1,14-11l.36.09L81,18.48a1.69,1.69,0,0,0-.48,1.17v5.58a1.66,1.66,0,0,0,1.65,1.65h5.57a1.65,1.65,0,0,0,1.17-.48L95,20.33l.08.36a11.36,11.36,0,0,1-16,12.89,1.63,1.63,0,0,0-2,.37l-3,3.33L70,33.49Zm-21-1.6A5.24,5.24,0,0,0,48.72,27h-.08A5.16,5.16,0,0,0,45,28.53L42.52,31h-3a1.65,1.65,0,0,0-1.65,1.65h0v3l-2.06,2.07-5.1-5.11,2.07-2.07h3a1.66,1.66,0,0,0,1.65-1.65v-3L49.93,13.4c.32-.18,1.89-.82,8.34-1.18.79-.05,1.63-.08,2.63-.12l.53,0L55.8,17.71a5.18,5.18,0,0,0,0,7.31l.22.2,3.4,3.1-3.8,3.8Zm5.31,5.86,4-4,.15.13L91.34,57.37A1.88,1.88,0,0,1,91.5,60l-.1.1-.36.36h0l-3.67,3.66a1.87,1.87,0,0,1-2.64,0,.47.47,0,0,1-.1-.1ZM43.36,57.39,60.27,42.17,65,47.4l-.12.14L50.08,64l0,.06a1.91,1.91,0,0,1-1.35.63h0a1.9,1.9,0,0,1-1.33-.57l-4-4a1.85,1.85,0,0,1,0-2.61l.12-.11Z"/>
  <path d="M167.61,2.46a2,2,0,0,0-2.29.71l-23.4,31V4.4a2,2,0,0,0-3.68-1.23L113.91,35.41V4.4a2,2,0,1,0-4.09,0V72.31a2,2,0,0,0,4.09,0v-31l24.34,32.24a2,2,0,0,0,3.67-1.23V42.54l23.41,31A2,2,0,0,0,169,72.31V4.4A2,2,0,0,0,167.61,2.46ZM137.83,66.21l-21-27.86,21-27.85Zm27.08,0-21-27.86,21-27.85Z"/>
  <path d="M211.38,16.31a7.09,7.09,0,1,1,5.13-8.61h0A7.1,7.1,0,0,1,211.38,16.31ZM208.76,6a3.54,3.54,0,1,0,4.31,2.55A3.52,3.52,0,0,0,208.76,6Z"/>
  <path d="M213.28,74.3a1.88,1.88,0,0,1-.67,0,1.77,1.77,0,0,1-1.52-2h0l2.36-17.76L201.54,47.5a1.77,1.77,0,0,1-.83-1.9l4.47-20.41-10.44,2.65-8.2,9.08a1.77,1.77,0,0,1-2.63-2.38l8.56-9.48a1.82,1.82,0,0,1,.88-.53l13.74-3.48a1.77,1.77,0,0,1,2.14,1.28,1.71,1.71,0,0,1,0,.81l-4.8,22,11.82,7a1.77,1.77,0,0,1,.85,1.75L214.6,72.82a1.75,1.75,0,0,1-1.32,1.48Z"/>
  <path d="M197.79,63.61l-15.45,3.92a1.78,1.78,0,0,1-.89-3.44h0l14.6-3.7L199.14,53a1.77,1.77,0,0,1,3.27,1.36h0L199,62.57A1.79,1.79,0,0,1,197.79,63.61Z"/>
  <path d="M232.06,33l-13.74,3.48a1.77,1.77,0,0,1-1.77-.56l-5.17-6a1.77,1.77,0,1,1,2.68-2.31l4.46,5.17,12.67-3.22a1.77,1.77,0,0,1,.87,3.44Z"/>
  <path d="M305.83,13.66h-1.89V11.77a5.71,5.71,0,0,0-5.69-5.69H245.2a5.7,5.7,0,0,0-5.68,5.69v7.58A5.68,5.68,0,0,0,245.2,25h53.06A5.69,5.69,0,0,0,304,19.35v-1.9h1.88a1.9,1.9,0,0,1,1.9,1.89v7.58a1.9,1.9,0,0,1-1.9,1.9H275.52a5.69,5.69,0,0,0-5.67,5.69v6a5.68,5.68,0,0,0-3.79,5.36V64.83a5.69,5.69,0,0,0,11.37.22V45.88a5.68,5.68,0,0,0-3.79-5.36v-6a1.9,1.9,0,0,1,1.89-1.9h30.3a5.7,5.7,0,0,0,5.69-5.68V19.35A5.71,5.71,0,0,0,305.83,13.66Zm-5.68,5.69a1.89,1.89,0,0,1-1.9,1.89H245.2a1.89,1.89,0,0,1-1.89-1.89V11.77a1.9,1.9,0,0,1,1.89-1.9h53.06a1.9,1.9,0,0,1,1.9,1.9ZM273.61,64.83a1.9,1.9,0,0,1-3.79,0V45.88a1.9,1.9,0,0,1,3.79-.13V64.83Z"/>
  <path d="M350.56,19.41H337.42l3.11-14.89A1.8,1.8,0,1,0,337,3.78l-3.27,15.63h-9.3a1.8,1.8,0,0,0,0,3.6H333l-9.68,46.23a1.79,1.79,0,0,0,.79,1.89l4.62,2.94a1.81,1.81,0,0,0,2.16-.17L342,64a1.8,1.8,0,1,0-2.35-2.73l-.05,0-10.12,9-2.42-1.54L336.66,23h13.89a1.8,1.8,0,1,0,0-3.6Z"/>
  <path d="M365.27,74.35a1.79,1.79,0,0,1-1.8-1.8V4.15a1.8,1.8,0,0,1,3.6,0h0v68.4a1.8,1.8,0,0,1-1.8,1.8Z"/>
  <path d="M404.87,34.75h-28.8a5.41,5.41,0,0,1-5.41-5.39V15a5.41,5.41,0,0,1,5.4-5.4h28.81a5.41,5.41,0,0,1,5.4,5.4V29.36A5.4,5.4,0,0,1,404.87,34.75Zm-28.8-21.59a1.8,1.8,0,0,0-1.8,1.79V29.36a1.8,1.8,0,0,0,1.8,1.8h28.8a1.8,1.8,0,0,0,1.8-1.8V15a1.8,1.8,0,0,0-1.8-1.79Z"/>
  <path d="M426.46,67.15H376.07a5.41,5.41,0,0,1-5.41-5.4V47.35a5.41,5.41,0,0,1,5.4-5.4h50.4a5.4,5.4,0,0,1,5.4,5.4v14.4A5.4,5.4,0,0,1,426.46,67.15Zm-50.39-21.6a1.81,1.81,0,0,0-1.8,1.8V61.76a1.81,1.81,0,0,0,1.8,1.8h50.39a1.8,1.8,0,0,0,1.8-1.8V47.35a1.8,1.8,0,0,0-1.8-1.8Z"/>
  <path d="M466.38,49.15h-7.2a1.8,1.8,0,0,1,0-3.6h7.2a1.8,1.8,0,0,1,0,3.6Z"/>
  <path d="M484.38,42a1.81,1.81,0,0,0-1.8,1.8v1.8H479a1.8,1.8,0,0,0,0,3.6h3.6V51a1.8,1.8,0,1,0,3.6,0h0v-7.2A1.81,1.81,0,0,0,484.38,42Z"/>
  <path d="M482.47,68.34l-15-42.09a9,9,0,0,0-2.87-16.52V6h1.8a1.8,1.8,0,1,0,0-3.6h-7.2a1.8,1.8,0,0,0,0,3.6H461V9.73a9,9,0,0,0-2.86,16.52l-15,42.09A1.88,1.88,0,0,0,443,69v3.59a1.8,1.8,0,0,0,3.6,0V69.26l16.2-45.36L479,69.26v3.29a1.8,1.8,0,0,0,3.6,0h0V69A1.83,1.83,0,0,0,482.47,68.34ZM462.78,16.76A1.79,1.79,0,0,0,461.09,18l-1.72,4.8A5.41,5.41,0,1,1,467,22a5.82,5.82,0,0,1-.78.79L464.47,18a1.79,1.79,0,0,0-1.69-1.19Z"/>
</svg>
