<svg
  data-logo="ratios"
  xmlns="http://www.w3.org/2000/svg"
  aria-hidden="true"
  focusable="false"
  width="200px"
  height="200px"
  viewBox="0 0 200 200"
>
  <path
    d="M99.82,200C44.69,200,0,155.31,0,100.17,0,73.7,10.52,48.31,29.24,29.59c38.79-39.18,101.99-39.49,141.17-.7,39.18,38.79,39.49,101.99,.7,141.17-.23,.24-.47,.47-.7,.7-18.68,18.78-44.1,29.31-70.59,29.24Zm0-189.67C50.28,10.33,9.98,50.63,9.98,100.18s40.3,89.84,89.84,89.84,89.84-40.3,89.84-89.84S149.37,10.33,99.82,10.33Z" />
  <g>
    <path
      d="M160.28,121.47h.01l-19.07-76.27c-.36-1.44-1.66-2.41-3.08-2.41H61.94c-.18,0-.37,0-.56,.04-.21,.03-.42,.09-.62,.16-.55,.2-1,.54-1.35,.97-.2,.24-.36,.5-.48,.79-.07,.17-.12,.34-.17,.51l-19.06,76.21c-.13,.51-.12,1.04,0,1.54h0c.1,.4,1.07,4.03,4.26,7.68,2.97,3.39,8.49,7.44,17.89,7.44s14.91-4.05,17.89-7.44c3.19-3.65,4.17-7.28,4.26-7.68h0c.13-.5,.13-1.03,0-1.54l-18.08-72.33h68.13l-18.08,72.33c-.13,.51-.12,1.04,0,1.54h0c.1,.4,1.07,4.03,4.26,7.68,2.97,3.39,8.49,7.44,17.89,7.44s14.91-4.05,17.89-7.44c3.19-3.65,4.17-7.28,4.26-7.68h0c.13-.5,.13-1.03,0-1.54Zm-98.41,10.31h0c-7.72,0-11.85-3.45-13.97-6.36h27.95c-2.12,2.91-6.25,6.36-13.97,6.36Zm15-12.71h-30l15-59.99,15,59.99Zm61.27,12.71h0c-7.72,0-11.85-3.45-13.97-6.36h27.95c-2.12,2.91-6.25,6.36-13.97,6.36Zm-15-12.71l15-59.98,15,59.98h-29.99Z" />
    <path
      d="M138.14,150.85h-34.72l6.1-79.21c.03-.42-.02-.85-.15-1.25l-6.36-19.07c-.43-1.3-1.65-2.17-3.01-2.17s-2.58,.88-3.01,2.17l-6.36,19.07c-.13,.4-.18,.83-.15,1.25l6.1,79.21H61.86c-1.75,0-3.18,1.42-3.18,3.18s1.42,3.18,3.18,3.18h76.27c1.75,0,3.18-1.42,3.18-3.18s-1.42-3.18-3.18-3.18Zm-38.15-38.26l-3.14-40.79,3.14-9.41,3.14,9.41-3.14,40.79Z" />
  </g>
</svg>
