<svg
  data-logo="adobe"
  xmlns="http://www.w3.org/2000/svg"
  aria-hidden="true"
  focusable="false"
  width="520px"
  height="135px"
  viewBox="0 0 520 135.2"
>
  <path d="M0 .1C.5 0 .9 0 1.4 0H56.6c-.2.7-.4 1.1-.5 1.5C37.5 45.6 19 89.7.6 133.8c-.2.4-.4.7-.6 1.1V.1z"/>
  <path d="M89.1 135.2l-5.7-14.1c-1.6-3.9-3.2-7.9-4.7-11.9-.4-1-.9-1.4-2-1.4-7.7.1-15.4 0-23.1 0h-1.8C60 88.4 68.2 69.2 76.5 49.7c1.3 3 2.4 5.7 3.5 8.4 10.6 25.2 21.3 50.4 31.9 75.6.2.5.3.9.5 1.4-7.7.1-15.5.1-23.3.1z"/>
  <path d="M152.7 134.3C134 89.6 115.3 44.9 96.6.1h56.3v134.1c-.1 0-.1.1-.2.1z"/>
  <path d="M423.2 50.4c4.1-1 8.1-1.3 12.1-1.1 13.1.6 23.3 9.6 25.2 22.6 1.5 10.2-.7 19.5-7.9 27.2-5.3 5.6-11.9 8.6-19.4 9.8-8.4 1.4-16.6.5-24.7-1.7-1.2-.3-1.6-.9-1.6-2.1V27.3c0-1.2.4-1.5 1.5-1.5 4.4.1 8.8.1 13.2 0 1.2 0 1.6.3 1.6 1.5v22c-.1.2 0 .5 0 1.1zm-.1 29.2v14.7c0 .9.2 1.4 1.2 1.4 1.3 0 2.6.2 3.8.2 7.5-.1 13.3-4.4 15.4-11.2 1.1-3.8 1.2-7.7.3-11.5-1.4-5.6-4.9-9.2-10.7-10-2.8-.4-5.7.1-8.6.2-1.1 0-1.5.5-1.5 1.7.2 4.9.1 9.7.1 14.5z"/>
  <path d="M314.2 49.2v-1.5-20.5c0-1.2.3-1.7 1.6-1.7 4.4.1 8.8 0 13.2 0 .4 0 .8 0 1.4.1v68.8c0 2.9.3 5.8.4 8.8 0 .5-.4 1.3-.7 1.5-11.2 4.5-22.6 6.4-34.5 3-10.9-3.2-17.7-12-18.9-23.2-.7-7.3.2-14.2 4-20.5 5-8.1 12.5-12.6 21.7-14.2 3.3-.6 6.6-.4 10-.6h1.8zm0 29.9V64.6c0-1.2-.4-1.7-1.5-1.7-1.5 0-2.9-.2-4.4-.1-7 .3-12.6 4.5-14.4 10.9-1.3 4.7-1.1 9.3.8 13.8 1.3 3.2 3.6 5.5 6.8 6.8 3.7 1.5 7.5 1.7 11.5 1 1-.2 1.2-.6 1.2-1.6V79.1z"/>
  <path d="M238 31.9h8.5c.9 0 1.4.2 1.7 1.1 8.7 24.5 17.4 49.1 26.1 73.6.5 1.5.5 1.6-1.2 1.6h-13.9c-1.1 0-1.7-.4-2-1.4-1.7-5.2-3.5-10.3-5.2-15.4-.3-1-.7-1.4-1.8-1.4-8.2.1-16.3 0-24.5 0-.9 0-1.3.3-1.6 1.2-1.6 5.1-3.3 10.3-4.9 15.4-.4 1.2-1 1.7-2.3 1.6-3.9-.1-7.8 0-11.7 0-2.2 0-2.4-.2-1.6-2.4 3.2-9.4 6.5-18.7 9.8-28.1 4.4-12.8 8.9-25.5 13.3-38.3.7-2 .8-4.2 1.1-6.3.1-.9.4-1.3 1.4-1.3 2.9.1 5.9.1 8.8.1zm0 13.9c-3.1 10-6.1 19.8-9.1 29.6h18.3c-3.1-10-6.1-19.8-9.2-29.6z"/>
  <path d="M397.4 79.1c-.1 6.6-1.5 12.7-5.1 18.2-5.1 7.6-12.3 11.4-21.3 12-4.3.3-8.5-.1-12.6-1.5-7.4-2.5-12.6-7.3-15.7-14.4-3.8-8.8-4-17.9-.4-26.8 4.3-10.7 14.1-17.3 25.7-17.4 6-.1 11.7.9 16.8 4.2 7.2 4.7 10.9 11.6 12.3 19.9.1 1.9.2 3.8.3 5.8zm-16.6-.1c0-3.1-.5-6.4-1.9-9.5-1.9-4.2-5.2-6.5-9.8-6.8-4.8-.3-8.4 1.9-10.5 6.1-1.1 2.3-1.9 5-2.2 7.6-.6 4.9-.1 9.8 2.6 14.2 2.3 3.8 5.9 5.6 10.3 5.4 4.3-.2 7.3-2.5 9.2-6.2 1.8-3.3 2.3-6.8 2.3-10.8z"/>
  <path d="M483.9 83.5c.2 3.3 1.5 6.1 3.8 8.2 3.2 2.8 7.1 3.7 11.2 3.9 5.4.3 10.6-.5 15.6-2.5.2-.1.4-.2.6-.2.1 0 .2 0 .4.1 0 4 0 8-.1 12 0 .4-.7.9-1.1 1.2-3.9 1.8-8 2.7-12.2 3-5.3.4-10.5.3-15.7-1.2-9-2.6-14.9-8.4-17.6-17.3-3-9.9-2.2-19.6 3.1-28.6 5-8.5 12.8-12.7 22.6-13 5.1-.2 10 .7 14.4 3.4 6.7 4.1 10.1 10.4 10.9 18 .4 3.6-.1 7.4-.2 11.1 0 .9-.5 1.4-1.5 1.4-3 .1-5.9.4-8.9.4-7.9.1-15.9 0-23.8 0-.4.1-.9.1-1.5.1zm20.9-11.4c.1-3.6-1.1-6.4-3.9-8.3-3.6-2.5-7.6-2.5-11.4-.5-3.5 1.8-5.1 5-5.8 8.8h21.1z"/>
</svg>
