<?xml version="1.0" encoding="utf-8"?>
<!-- Generator: Adobe Illustrator 25.0.0, SVG Export Plug-In . SVG Version: 6.00 Build 0)  -->
<svg version="1.1" id="Layer_1" focusable="false" xmlns="http://www.w3.org/2000/svg" xmlns:xlink="http://www.w3.org/1999/xlink"
	 x="0px" y="0px" viewBox="0 0 520 135.2" style="enable-background:new 0 0 520 135.2;" xml:space="preserve">
<g>
	<path d="M0,0.1C0.5,0,0.9,0,1.4,0c17.8,0,35.6,0,53.4,0c0.5,0,1.1,0,1.8,0c-0.2,0.7-0.4,1.1-0.5,1.5C37.5,45.6,19,89.7,0.6,133.8
		c-0.2,0.4-0.4,0.7-0.6,1.1C0,90,0,45,0,0.1z"/>
	<path d="M89.1,135.2c-1.9-4.7-3.8-9.4-5.7-14.1c-1.6-3.9-3.2-7.9-4.7-11.9c-0.4-1-0.9-1.4-2-1.4c-7.7,0.1-15.4,0-23.1,0
		c-0.5,0-1,0-1.8,0c8.2-19.4,16.4-38.6,24.7-58.1c1.3,3,2.4,5.7,3.5,8.4c10.6,25.2,21.3,50.4,31.9,75.6c0.2,0.5,0.3,0.9,0.5,1.4
		C104.7,135.2,96.9,135.2,89.1,135.2z"/>
	<path d="M152.7,134.3C134,89.6,115.3,44.9,96.6,0.1c18.8,0,37.5,0,56.3,0c0,44.7,0,89.4,0,134.1
		C152.8,134.2,152.8,134.3,152.7,134.3z"/>
	<path d="M423.2,50.4c4.1-1,8.1-1.3,12.1-1.1c13.1,0.6,23.3,9.6,25.2,22.6c1.5,10.2-0.7,19.5-7.9,27.2c-5.3,5.6-11.9,8.6-19.4,9.8
		c-8.4,1.4-16.6,0.5-24.7-1.7c-1.2-0.3-1.6-0.9-1.6-2.1c0-25.9,0-51.9,0-77.8c0-1.2,0.4-1.5,1.5-1.5c4.4,0.1,8.8,0.1,13.2,0
		c1.2,0,1.6,0.3,1.6,1.5c0,7.3,0,14.6,0,22C423.1,49.5,423.2,49.8,423.2,50.4z M423.1,79.6c0,4.9,0,9.8,0,14.7
		c0,0.9,0.2,1.4,1.2,1.4c1.3,0,2.6,0.2,3.8,0.2c7.5-0.1,13.3-4.4,15.4-11.2c1.1-3.8,1.2-7.7,0.3-11.5c-1.4-5.6-4.9-9.2-10.7-10
		c-2.8-0.4-5.7,0.1-8.6,0.2c-1.1,0-1.5,0.5-1.5,1.7C423.2,70,423.1,74.8,423.1,79.6z"/>
	<path d="M314.2,49.2c0-0.6,0-1,0-1.5c0-6.8,0-13.6,0-20.5c0-1.2,0.3-1.7,1.6-1.7c4.4,0.1,8.8,0,13.2,0c0.4,0,0.8,0,1.4,0.1
		c0,0.6,0,1.2,0,1.8c0,22.3,0,44.7,0,67c0,2.9,0.3,5.8,0.4,8.8c0,0.5-0.4,1.3-0.7,1.5c-11.2,4.5-22.6,6.4-34.5,3
		c-10.9-3.2-17.7-12-18.9-23.2c-0.7-7.3,0.2-14.2,4-20.5c5-8.1,12.5-12.6,21.7-14.2c3.3-0.6,6.6-0.4,10-0.6
		C313,49.2,313.5,49.2,314.2,49.2z M314.2,79.1c0-4.8,0-9.7,0-14.5c0-1.2-0.4-1.7-1.5-1.7c-1.5,0-2.9-0.2-4.4-0.1
		c-7,0.3-12.6,4.5-14.4,10.9c-1.3,4.7-1.1,9.3,0.8,13.8c1.3,3.2,3.6,5.5,6.8,6.8c3.7,1.5,7.5,1.7,11.5,1c1-0.2,1.2-0.6,1.2-1.6
		C314.2,88.8,314.2,83.9,314.2,79.1z"/>
	<path d="M238,31.9c2.8,0,5.7,0,8.5,0c0.9,0,1.4,0.2,1.7,1.1c8.7,24.5,17.4,49.1,26.1,73.6c0.5,1.5,0.5,1.6-1.2,1.6
		c-4.6,0-9.3,0-13.9,0c-1.1,0-1.7-0.4-2-1.4c-1.7-5.2-3.5-10.3-5.2-15.4c-0.3-1-0.7-1.4-1.8-1.4c-8.2,0.1-16.3,0-24.5,0
		c-0.9,0-1.3,0.3-1.6,1.2c-1.6,5.1-3.3,10.3-4.9,15.4c-0.4,1.2-1,1.7-2.3,1.6c-3.9-0.1-7.8,0-11.7,0c-2.2,0-2.4-0.2-1.6-2.4
		c3.2-9.4,6.5-18.7,9.8-28.1c4.4-12.8,8.9-25.5,13.3-38.3c0.7-2,0.8-4.2,1.1-6.3c0.1-0.9,0.4-1.3,1.4-1.3
		C232.1,31.9,235.1,31.9,238,31.9z M238,45.8c-3.1,10-6.1,19.8-9.1,29.6c6.1,0,12.1,0,18.3,0C244.1,65.4,241.1,55.6,238,45.8z"/>
	<path d="M397.4,79.1c-0.1,6.6-1.5,12.7-5.1,18.2c-5.1,7.6-12.3,11.4-21.3,12c-4.3,0.3-8.5-0.1-12.6-1.5
		c-7.4-2.5-12.6-7.3-15.7-14.4c-3.8-8.8-4-17.9-0.4-26.8c4.3-10.7,14.1-17.3,25.7-17.4c6-0.1,11.7,0.9,16.8,4.2
		c7.2,4.7,10.9,11.6,12.3,19.9C397.2,75.2,397.3,77.1,397.4,79.1z M380.8,79c0-3.1-0.5-6.4-1.9-9.5c-1.9-4.2-5.2-6.5-9.8-6.8
		c-4.8-0.3-8.4,1.9-10.5,6.1c-1.1,2.3-1.9,5-2.2,7.6c-0.6,4.9-0.1,9.8,2.6,14.2c2.3,3.8,5.9,5.6,10.3,5.4c4.3-0.2,7.3-2.5,9.2-6.2
		C380.3,86.5,380.8,83,380.8,79z"/>
	<path d="M483.9,83.5c0.2,3.3,1.5,6.1,3.8,8.2c3.2,2.8,7.1,3.7,11.2,3.9c5.4,0.3,10.6-0.5,15.6-2.5c0.2-0.1,0.4-0.2,0.6-0.2
		c0.1,0,0.2,0,0.4,0.1c0,4,0,8-0.1,12c0,0.4-0.7,0.9-1.1,1.2c-3.9,1.8-8,2.7-12.2,3c-5.3,0.4-10.5,0.3-15.7-1.2
		c-9-2.6-14.9-8.4-17.6-17.3c-3-9.9-2.2-19.6,3.1-28.6c5-8.5,12.8-12.7,22.6-13c5.1-0.2,10,0.7,14.4,3.4c6.7,4.1,10.1,10.4,10.9,18
		c0.4,3.6-0.1,7.4-0.2,11.1c0,0.9-0.5,1.4-1.5,1.4c-3,0.1-5.9,0.4-8.9,0.4c-7.9,0.1-15.9,0-23.8,0C485,83.5,484.5,83.5,483.9,83.5z
		 M504.8,72.1c0.1-3.6-1.1-6.4-3.9-8.3c-3.6-2.5-7.6-2.5-11.4-0.5c-3.5,1.8-5.1,5-5.8,8.8C490.9,72.1,497.8,72.1,504.8,72.1z"/>
</g>
</svg>
