<svg
  data-logo="aunalytics"
  xmlns="http://www.w3.org/2000/svg"
  aria-hidden
  focusable="false"
  width="520"
  height="134"
  viewBox="0 0 520 134"
>
  <path d="M40.05,70.86c-.19-3.14,0-5.73-.56-8.19-1-4.74-4.1-7.54-8.85-8.61-6-1.35-11.8-.35-17.6,1.11-1,.25-2,.6-3.47,1.06L7.7,46.84c9.15-2.77,18-4.22,27-2.26C44.34,46.66,50,53,50.53,63c.52,8.85.3,17.75.37,26.63,0,4.35,0,8.71,0,13.36H40.83L40.38,98,37.5,99.83a26,26,0,0,1-24,2.9C5.93,100.08,1.63,93.92,1.45,86c-.18-7.38,3.82-13.6,11-16.65,7.65-3.25,15.38-2.4,23.08,0C36.83,69.76,38.12,70.21,40.05,70.86Zm-.2,9.6c-6.66-4-13.41-6-20.9-3.93a8.9,8.9,0,0,0-7,8.67,9,9,0,0,0,6.4,9.13c6.5,2.22,16,1.46,21.46-6.28Z"/>
  <path d="M231.35,70.77a53,53,0,0,0,0-6.83c-.75-5.46-4-8.71-9.4-9.92-5.86-1.31-11.55-.29-17.22,1.11-1.1.27-2.17.65-3.73,1.12-.58-3.25-1.11-6.21-1.69-9.43,10-3,19.71-4.56,29.59-1.54,8.25,2.52,12.7,8.83,13.08,16.95.62,13.48.17,27,.17,40.79h-9.68c-.13-1.68-.27-3.28-.35-4.35-4.39,1.76-8.63,3.89-13.13,5.13-5.23,1.45-10.52.55-15.47-1.71-6.93-3.17-10.45-8.77-10.55-16.2S196.35,73,203,69.81c7.92-3.85,16-3,24.13-.42C228.44,69.81,229.75,70.25,231.35,70.77Zm.05,9.67c-6.71-3.9-13.43-6-20.89-3.92-4.5,1.25-7,4.6-7.06,9a9,9,0,0,0,6.66,8.9c6.69,2.16,15.33,1.3,21.29-6.17Z"/>
  <path d="M140.61,103.05H129.83V45.14h10l.5,7.78c1.65-1.26,2.83-2.2,4-3.08,6.29-4.54,13.14-6.93,21.05-5.85,8.94,1.21,14.74,7,15.5,16,.32,3.84.26,7.72.27,11.58,0,9,0,18,0,27v4.41H170.12V68.18c0-.9,0-1.81,0-2.71-.26-9.74-5.57-14.31-16.48-11.58-5.15,1.29-9.16,4.58-13,8.59Z"/>
  <path d="M293.15,45.05c5.82,13.6,11.58,27.06,17.66,41.25,6-14.23,11.67-27.69,17.39-41.26h12c-13.79,29.45-27.45,58.61-41.16,87.9H287.87l17.37-35.35c-8.06-17.27-16.19-34.71-24.5-52.54Z"/>
  <path d="M466.66,90l3.6,8c-12.51,9.33-32.72,8.48-43.72-3.41-10.47-11.3-10.35-29.7.38-41.16,11.68-12.48,31.87-12,43.3-3.33-.81,1.57-1.63,3.17-2.48,4.75-.54,1-1.15,2-1.62,2.81-4.17-1.34-8.11-3-12.22-3.83-11.37-2.36-21.19,3.76-23.74,14.47C427.31,80.21,433.29,91,444.64,94c6.11,1.62,12,.5,17.75-2C463.68,91.42,464.94,90.8,466.66,90Z"/>
  <path d="M258.79,1.66h10.75V103H258.79Z"/>
  <path d="M478.49,96.62,484,88.94c1.4.93,2.64,1.8,3.93,2.61,3.78,2.37,7.78,4,12.38,3.68,4.4-.29,7.31-2.32,8.16-5.82.95-3.88-.27-6.57-4.36-8.89-2.23-1.27-4.66-2.18-7-3.26-2.57-1.2-5.23-2.24-7.67-3.66-9.14-5.31-10.59-16.27-3.28-23.91,4.32-4.51,9.84-6.11,15.82-6a30,30,0,0,1,16.56,5.67c-1.58,2.67-3.11,5.28-4.76,8.06-1.94-1-3.57-2-5.29-2.84-3.72-1.76-7.59-2.52-11.64-1.2-2.63.86-4.44,2.49-4.92,5.38a5.8,5.8,0,0,0,3.26,6.41c2.36,1.31,4.85,2.39,7.29,3.55,2.67,1.28,5.48,2.33,8,3.83,9.75,5.8,11.31,17.33,3.55,25.63a19.23,19.23,0,0,1-14.92,6.14A32.54,32.54,0,0,1,478.49,96.62Z"/>
  <path d="M348.13,45l6.47-.33V33.81l10.78-7.94V44.73h17.15v9.65H365.59v5.45c0,8.88,0,17.77,0,26.65,0,5.4,2.32,7.76,7.7,8,1.92.09,3.85,0,6.08,0,.28,1.38.63,2.71.8,4.07s.18,2.8.27,4.5c-5.91,1.55-11.72,2.22-17.4-.23-6.34-2.73-8.1-8.38-8.23-14.57-.21-9.65-.08-19.31-.09-29V54.51h-11Z"/>
  <path d="M83.92,103.24l2.16-.74c12-4.17,18-12.57,18.06-25.33,0-9.38,0-18.77,0-28.16V45H115a10.3,10.3,0,0,1,.36,1.86q0,17-.13,33.94c0,11.41-6.09,22.35-23.4,23.4-2.61.16-5.26-.17-7.89-.27Z"/>
  <path d="M406.65,45.08V103H396.13V45.08Z"/>
  <path d="M85.85,96.84c-12.44,5.81-21-.8-21.83-14.07-.56-9.48-.15-19-.17-28.54v-9H74.34c.06,1.28.17,2.62.17,4,0,9.26.19,18.53,0,27.78C74.25,85.73,77.08,92.6,85.85,96.84Z"/>
  <path d="M396,36V26h10.66V36Z"/>
</svg>
