<?xml version="1.0" encoding="UTF-8"?>
<svg id="Layer_1" xmlns="http://www.w3.org/2000/svg" version="1.1" viewBox="0 0 307 100">
  <!-- Generator: Adobe Illustrator 29.5.1, SVG Export Plug-In . SVG Version: 2.1.0 Build 141)  -->
  <g>
    <path d="M84.3,39.9c-.8,0-1.8.2-3,.6-2.1.7-9.2,4.5-17.5,9.2-1.2-1.9-3-3.6-5.5-5.3,3.9-2,7.6-4.4,11.2-7.2,3.6-2.8,6.8-5.9,9.4-9.3,2.7-3.4,4.5-6.8,5.4-10.2.5-1.8.8-3.4.8-4.8,0-3.8-1.6-6.6-4.7-8.3-3.2-1.8-7.4-2.7-12.9-2.7s-8.5.4-13.3,1.3-9.8,2.1-14.8,3.7c-5,1.6-9.9,3.5-14.5,5.6-4.7,2.1-8.9,4.5-12.7,7C4.6,24.5.9,29,.9,33.3s.5,1.9,1.5,1.9,1.1-.2,1.6-.6c.5-.4.8-1,.9-1.8.2-2.4,2-5,5.2-7.8,3.2-2.7,7.4-5.4,12.7-8.1,5.2-2.6,11-4.9,17.2-6.9,9.3-2.9,17.5-4.4,24.4-4.4s8.3.8,11,2.3,4.1,4,4.1,7.2-.2,2.2-.6,4c-.8,2.8-2.4,5.8-4.9,8.9-2.5,3.2-5.4,6.2-8.6,8.9-3.2,2.8-6.4,4.9-9.4,6.4-2.6-.9-5.4-1.4-8.4-1.4-4.4,0-9,.8-13.7,2.5-1.3.4-2.9,1.3-5,2.5-2.1,1.3-3.9,2.6-5.5,4.2-1.6,1.5-2.5,2.9-2.5,4s1.3,2.3,3.8,2.8c.8.2,2.2,0,4.4-.6,2.1-.6,4.7-1.5,7.6-2.6,2.9-1.2,6-2.5,9.3-4s6.4-3,9.5-4.6c2.9,1.3,4.4,3.2,4.7,5.5-13.5,7.7-28.7,16.7-31,18.4-4.9,3.4-7.5,5.8-9.5,7.9-2.1,2.3-3.1,4.3-3.1,5.9s1,2.4,3,2.4,4.1-.5,7.1-1.4c2.9-.9,6.2-2.2,9.7-3.8,3.5-1.6,7-3.4,10.6-5.5s6.8-4.4,9.7-6.8c5.9-4.9,8.8-9.6,8.8-14.2s-.1-1.6-.3-2.4c9.4-5.5,17.9-10.4,19.4-10.8,1-.2,1.5-.6,1.5-1s-.5-.6-1.5-.6h0ZM44.4,49.6c-2.7,1.2-5.2,2.3-7.5,3.2-3.6,1.4-6.1,2.1-7.4,2.1s-.7,0-1-.2c-.5-.4-.8-.8-.8-1.3,0-1.1.9-2.1,2.6-2.9.9-.4,2-.9,3.1-1.5,1.1-.6,2.4-1.2,3.7-1.8h.1c3.4-1.5,6.9-2.3,10.3-2.3s1.8,0,2.7.1c.9,0,1.7.2,2.3.4-2.9,1.5-5.6,2.9-8.2,4.1h0ZM56.8,60.6c-2.2,2.9-5.2,5.9-8.8,8.9-3.6,3-7.4,5.7-11.5,8-6.1,3.6-10.7,5.4-13.6,5.4s-2-.3-2-1c0-1.2,2.1-3.3,6.4-6.4,2.7-1.9,6.2-4.6,9.6-6.5,1.9-1.1,12.2-7.3,22.7-13.5-.5,1.6-1.5,3.3-2.9,5.2h0Z"/>
    <path d="M22,46.1c4.2-8.5,9-16.9,14.8-24.5,1-1.2,3.1-3.6,2-5.2-.8-1.1-2.6-.9-3.8-.9-1.7.1-3.1,1.6-4.2,2.7-1.2,1.2-2.3,2.5-3,4.1-.5,1.1-.8,1.8-.7,2.1,0,.4.3.6.7.6l.7-.2c-.4,0-1.2,2-1.5,2.4-.5.8-.9,1.5-1.4,2.3-.3.5-3,5.8-3.9,8-3.9,8.5-8.3,17.1-11.7,25.9-1.6,4-2.7,7.9-2.9,12.3,0,1.8.2,5,1.8,6.2,0,0,.1,0,.2.1,1.4.9,2.7-.2,2.4-1.8-1.7-9.7,8.8-30.8,10.4-34h0Z"/>
  </g>
  <path d="M83.9,56.5c-1,0-1.4-.8-1.4-2.5s.3-2.8,1-4.1c1.7-3.2,3.2-6.4,4.6-9.6,1-1.9,1.9-3.8,2.7-5.5s1.6-3.4,2.4-4.9c.4-.4.9-.7,1.3-.7,1,0,1.2.4.9,1.3-.2.5-.3,1.1-.6,1.8s-.6,1.5-.9,2.5c-1.2,3.1-1.9,5.3-2.1,6.5,2.1-1.8,4.2-3.5,6.3-5.1,2.2-1.6,4.2-2.9,6.1-3.9,1.9-1,3.5-1.5,4.8-1.5s1.8.5,1.8,1.4-.4,1.7-1.1,2.6c-.7.9-1.5,1.4-2.2,1.4s-.7-.1-.9-.3c-.2,0-.7-.1-1.3-.1-2.4,0-4.8,1.1-7.4,3.4-2.7,2.3-5.2,5-7.4,8.2-2.2,3.2-3.8,6-4.9,8.3-.5.5-1.1.8-1.8.8h0Z"/>
  <path d="M114.9,55.4c-1.5,0-2.9-.4-4.1-1.2-1.9-1.5-2.9-3.7-2.9-6.6s1-6.1,3.1-9.4,5.2-6.4,9.4-9.2c.7-.5,1.7-.8,3-.8s3.1.4,4.4,1.3c1.3.9,1.8,2,1.5,3.4-.5,2.3-1.6,4.3-3.4,6.1s-3.8,3.3-6.1,4.7c-2.3,1.4-4.7,2.7-7.1,3.9,0,.2-.1.4-.2.7s0,.4,0,.7c0,1,.3,1.9,1.1,2.7.7.8,1.7,1.2,2.9,1.2s1.8-.2,2.4-.4c1.2-.4,2.2-.8,2.9-1.2s1.7-.9,2.7-1.7c1-.7,2.4-1.8,4.2-3.3.8-.6,1.3-.9,1.4-.9.4,0,.6.3.4,1-.7,1.2-2,2.5-3.8,3.9-1.8,1.4-3.8,2.6-6,3.6s-4.1,1.5-5.9,1.5h0ZM113.4,44.7c.6,0,1.8-.6,3.6-1.8s3.6-2.5,5.2-3.9c2.8-2.6,4.2-4.6,4.2-6s-.1-.7-.3-1c-.2-.4-.6-.5-1-.5-1.4,0-3.8,1.7-7.1,5-2.3,2.2-3.8,4.9-4.6,8.2h0Z"/>
  <path d="M130.1,57.8c-.5,0-.8-.4-.8-1.3s.2-1.6.5-2.7c.3-1,.7-2,1.2-2.9.7-1.2,1.6-3.5,3-6.6,1.5-3.5,2.8-6.2,3.9-8.3s2-3.7,3-4.8c1-1.2,1.8-1.9,2.4-1.9s.7.2.9.7.3,1,.3,1.6,0,1-.2,1.1c-.6.6-1.4,1.6-2.3,3-1,1.4-1.8,2.8-2.6,4.2-1.5,2.9-2.3,5-2.3,6.4s0,.3,0,.4c0,.2,0,.3.2.4.9-.4,1.7-.9,2.4-1.3.7-.4,1.6-1.1,2.5-1.9l6.7-6.2c.7-.7,1.4-1.2,2-1.7.6-.4,1.1-.8,1.4-1.1.7-.5,1.4-.8,2.1-.8s1.3.4,2.1,1.1c.4.4.6,1.4.6,3v2.8c0,.3,0,.6,0,.8,0,.3,0,.5,0,.8,0,1,.1,1.8.4,2.5s.6,1,1.2,1,.5-.2.9-.5l3.1-3.6c2.6-3,4.6-5.2,6-6.6,1.4-1.4,3-2.3,4.7-2.9.2,0,.4-.1.6-.2.2,0,.4,0,.5,0,.7,0,1.2.2,1.7.7.5.4.6,1,.4,1.8-.3,1.2-.7,2.5-1.2,4-.5,1.5-.9,2.7-1.3,3.6-.9,1.8-1.3,3.2-1.3,4.2s.3,1.1.8,1.3,1.1.4,1.7.4c.6,0,.8.2.8.4,1.5-.5,2.6-.8,3.3-.8s.9.2.6.7-1,1-2,1.7-2,1.2-3.1,1.7-2.1.7-3,.7c-1.8,0-2.8-1-2.8-3s.1-2,.4-2.9c1-3.8,1.5-6.2,1.5-7.3s-.3-1.7-.9-1.7c-1.3,0-4.2,2.7-8.5,7.9-.4.5-.9,1.1-1.5,1.7-.6.6-1.2,1.2-1.8,1.8-.9.8-1.7,1.7-2.5,2.5-.4.4-1,.7-1.8.7-1.5,0-2.4-.5-2.5-1.7,0-1.2-.1-2.2-.2-2.9,0-.8,0-1.3,0-1.6-.1-1.9-.3-3.2-.3-3.9s-.4-1-1-1-2.6,1.2-5.5,3.5c-4,3.2-7.6,6.7-10.9,10.6-1.4,1.3-2.5,2-3.2,2h0Z"/>
  <path d="M180.4,64.5c-.4,0-.6-.3-.6-1s0-.3,0-.6c0-.3,0-.5.2-.8l4.7-11.9,5.6-13.9c-.9,0-2.2,0-3.9,0-1.7.1-3.1.3-4.3.5-.4,0-.8.1-1.1.2-.3,0-.5,0-.6,0-.6,0-1-.3-1.2-.8,0-.4.5-.8,1.2-1.2.4-.2.8-.3,1.3-.4.5-.1,1.1-.2,1.9-.4.8-.2,1.5-.3,2.1-.3.6,0,1.1-.2,1.4-.2.4,0,.7-.2,1.1-.2.4,0,.8-.2,1.3-.2.4,0,.9-.2,1.4-.2s1.1-.2,1.6-.3c.6-.8,1.5-2.2,2.6-4.3s2.7-4.8,4.5-8.2c1.5-2.7,2.7-4.9,3.6-6.4s1.6-2.6,1.9-3.1c.7-.9,1.4-1.3,2.3-1.3s.7.2.7.6-.2.6-.6,1.4c-.4.7-1.2,2.1-2.2,4.1-1,2-2.1,4.2-3.3,6.5-1.2,2.4-2.2,4.6-3.2,6.6-1,2.1-1.6,3.6-2,4.5.4,0,.8-.1,1.3-.1h1.8c.8,0,1.6,0,2.3,0s1.3,0,1.8.2c1,.2,1.5.5,1.5.9s-.3.4-1,.8c-.4.2-1.1.3-2.1.4-1,.2-2.4.3-4.1.4-.4,0-.9,0-1.4,0-.5,0-1.1,0-1.7.2-2.2,3.6-5.2,9.6-9.1,18-1.4,2.8-2.5,5-3.2,6.5-.7,1.5-1.2,2.5-1.3,2.8-.7.9-1.2,1.3-1.8,1.3h0Z"/>
  <path d="M227.4,38.7h-.4c-.5,0-1,0-1.5.1-.5,0-1,.2-1.5.2-.5,0-.9.1-1.3.1s-.6,0-.7.1c0-.4.1-.7.2-1s0-.5,0-.7c0-1-.2-1.8-.7-2.5-.4-.8-1.2-1.4-2.3-1.8-1.1-.4-2.3-.6-3.7-.6-2.4,0-4.2.4-5.3,1.3-2.9,2.1-5.5,4.6-7.8,7.5-2.2,2.8-3.7,5.8-4.5,8.8,0,.5-.1,1-.2,1.3,0,.4,0,.6,0,.8,0,2.6,1.4,3.9,4.3,3.9s2.3-.2,3.4-.4c1.9-.4,3.9-1.4,6.1-2.9,2.2-1.5,4.1-3.3,6-5.3,1.8-2.1,3.1-4.1,3.8-6.2l3.8-.4c1-.2,1.9-.5,2.5-1.2s.5-.9-.3-.9h0ZM218,43.2c-.4.5-.7,1-1.1,1.4-1.2,1.3-2.5,2.6-4,3.8-1.5,1.2-2.9,2.1-4.2,2.8-1.4.7-2.4,1-3.1,1s-1.6-.2-2.2-.7c-.6-.4-.9-1.1-.8-2.1.4-1.8,1.4-4,3-6.6,3.2,0,6.9-.4,11-1l2.6-.3c-.4.6-.9,1.2-1.2,1.7h0ZM220.1,39.4c-.8,0-1.5.1-2.1.2-.6,0-1.2,0-1.6,0-3.1,0-5.4-.3-6.9-.8,1.2-1.1,2.4-2,3.6-2.7,1.1-.7,2.3-1,3.4-1s1.6.2,2.2.5c1.1.5,1.7,1.4,1.7,2.8s0,.8-.1,1h0Z"/>
  <path d="M248.5,57.1c-1.5-.2-2.6-.8-3.1-1.6s-.8-2-.8-3.5,0-1,.2-1.8.2-1.8.4-3v-.9c0-1-.2-1.6-.6-1.8,0,0-.3-.1-.6-.1-.5,0-1.5.5-2.9,1.4,0,0-.5.4-1.2,1-.7.6-1.8,1.5-3.2,2.7-4.1,3.6-6.8,5.2-8.3,4.8-1.5-.4-2.3-1.4-2.3-3.1s.6-3.6,1.8-5.8c1-2.1,2.1-4.1,3.5-6s2.5-3.2,3.3-3.8c.6-.4,1.1-.5,1.4-.5s.7.2,1,.4c.1.2.2.4.2.7s-.2.6-.6,1c-.7.7-1.4,1.9-2.1,3.4-.7,1.5-1,2.8-1,4s0,.3,0,.5c0,.2,0,.5.2.8.4.2.8.3,1.2.3.9,0,2.1-.4,3.6-1.3.6-.4,1.4-.9,2.4-1.6,1-.7,2.3-1.6,3.8-2.7.6-.4,1.2-.7,2-.7s1.5.3,2,.8c.6.5.8,1.3.8,2.3s0,.3,0,.6c0,.3,0,.6-.2.9-.1.6-.3,1.1-.4,1.7-.1.5-.3,1-.3,1.5,0,.3-.1.7-.1,1.2v1.6c0,1.6.8,2.4,2.5,2.4s1.5-.1,2.3-.4c.8-.3,1.3-.6,1.7-.9,3.5-3.1,7-7.1,10.4-12v-1.3c-.2-.7,0-1.5.3-2.2s.8-1.4,1.4-2.2c.2-.3.5-.4.9-.4s.7.2,1,.5.5.8.5,1.3-.1.8-.3,1.2c-.4.8-1.1,2-2.1,3.5s-2.1,3.1-3.3,4.9-2.5,3.4-3.8,5c-1.2,1.5-2.4,2.8-3.4,3.6h0c-1.2,1.2-2.7,2.1-4.3,2.7-1.6.6-3,.9-4.1.7h0Z"/>
  <path d="M268.8,56c-1.3,0-2-.5-2-1.5s.2-1.5.7-2.5c.5-1,1-2,1.5-3,1.4-2.5,2.7-4.9,3.9-7.3s2.3-4.8,3.4-7.5c.5-1.2,1.3-1.8,2.3-1.8s1.4.7,1,2c-.4,1.1-.9,2.1-1.3,3-2.1,4.2-3.1,7-3.1,8.5s.2,1.1.7,1.2c1-.8,1.8-1.4,2.3-1.8.5-.4.8-.6.9-.7,1-.8,2.2-1.8,3.5-2.8,1.3-1.1,2.7-2.3,4.2-3.7,2.4-2.2,4.5-3.3,6.1-3.3s2.8,1.8,2.5,5.4c0,1.4,0,2.8,0,4.1,0,.3.1.7.1,1.3v1.9c0,.7.4,1.1,1.3,1.1s2-.3,2.9-.9l2.4-1.7,2.4-1.5c.1,0,.4-.1.8-.1s.4.3,0,1c-4.6,5.7-8.5,8.6-11.5,8.6s-1.2-.1-1.8-.3c-.5-.2-.9-.9-1.1-1.9s-.4-2.2-.4-3.5c0-1.2,0-2.2,0-2.9v-3.6c.1-1.5-.3-2.3-1.1-2.3-1.9,0-6.6,3.9-14.1,11.8-.6.7-1.5,1.7-2.8,3s-2.5,1.9-3.8,1.9h0Z"/>
  <path d="M73.8,97.9c-2.4,0-4.6-.6-6.5-1.7s-3.4-2.7-4.5-4.7-1.6-4.3-1.6-6.9.5-4.9,1.6-6.9,2.5-3.6,4.4-4.7,4-1.7,6.4-1.7,3,.3,4.4.8,2.7,1.3,3.8,2.3c1.1,1,2,2.1,2.6,3.4l-2.7,1.4c-.5-1-1.2-1.9-2-2.7-.9-.8-1.8-1.3-2.9-1.8-1.1-.4-2.2-.6-3.3-.6-1.8,0-3.4.4-4.8,1.3-1.4.9-2.5,2.1-3.3,3.7s-1.2,3.4-1.2,5.4.4,3.9,1.2,5.5c.8,1.6,1.9,2.8,3.4,3.7s3.1,1.3,4.9,1.3,2.3-.2,3.3-.7c1.1-.5,2-1.1,2.8-2,.8-.8,1.5-1.8,2-2.9l2.7,1.4c-.6,1.3-1.5,2.6-2.6,3.6-1.1,1.1-2.4,1.9-3.8,2.5s-2.9.9-4.5.9h0Z"/>
  <path d="M110.1,97.5h3.3l-10.5-25.7h-3.2l-10.5,25.7h3.3l2.9-7.3h11.7s2.9,7.3,2.9,7.3ZM96.5,87.4l4.8-11.8,4.8,11.8h-9.5Z"/>
  <path d="M136,86.5c-.7-.9-1.6-1.6-2.7-2.1.9-.5,1.6-1.2,2.1-1.9.7-1,1.1-2.3,1.1-3.7s-.3-2.8-1-3.8c-.7-1-1.7-1.8-2.9-2.4s-2.8-.8-4.5-.8h-5.9s-2.2,0-2.2,0v25.7h9.2c1.7,0,3.1-.3,4.4-.8s2.1-1.3,2.8-2.4,1-2.3,1-3.8-.4-2.9-1.3-4h0ZM131.9,75.5c.9.8,1.4,1.8,1.4,3.2s-.4,2.4-1.2,3.2c-.8.8-1.9,1.1-3.4,1.1h-5.8v-8.6h5c1.7,0,3,.3,4,1.1h0ZM132.8,93.6c-.9.8-2.2,1.2-3.8,1.2h-6v-8.9h2.7c0,0,2.5,0,2.5,0,1.9,0,3.4.4,4.4,1.2s1.6,2,1.6,3.4-.5,2.4-1.4,3.2h0Z"/>
  <path d="M145.1,97.5v-25.7h3.1v25.7h-3.1Z"/>
  <polygon points="176.4 71.8 176.4 92.5 161 71.8 157.9 71.8 157.9 97.5 161 97.5 161 76.7 176.4 97.5 179.5 97.5 179.5 71.8 176.4 71.8"/>
  <polygon points="192.2 94.7 192.2 85.7 203.2 85.7 203.2 82.9 192.2 82.9 192.2 74.6 204.3 74.6 204.3 71.8 192.2 71.8 191.9 71.8 189.1 71.8 189.1 97.5 191.9 97.5 192.2 97.5 204.4 97.5 204.4 94.7 192.2 94.7"/>
  <polygon points="230.1 71.8 210.6 71.8 210.6 74.6 218.8 74.6 218.8 97.5 221.9 97.5 221.9 74.6 230.1 74.6 230.1 71.8"/>
  <path d="M254.6,97.5l-6.3-10.8c.3-.1.6-.2.9-.4,1.4-.7,2.4-1.6,3.2-2.8.8-1.2,1.2-2.5,1.2-4.1s-.4-2.9-1.1-4.1c-.7-1.2-1.7-2.1-3-2.8-1.3-.7-2.8-1-4.4-1h-5.4s-2.9,0-2.9,0v25.7h3.1v-10.1h4.9c.2,0,.4,0,.6,0l5.9,10.1h3.4,0ZM239.8,84.5v-9.9h5.2c1.6,0,2.9.5,3.9,1.4s1.5,2.1,1.5,3.6-.2,1.8-.7,2.6-1.1,1.3-1.8,1.8c-.7.4-1.6.6-2.5.6h-5.7Z"/>
  <polygon points="280.9 71.8 277.4 71.8 270.1 83.6 263 71.8 259.4 71.8 268.6 86.8 268.6 97.5 271.7 97.5 271.7 86.8 280.9 71.8"/>
</svg>