<svg
  data-logo="cascading-colors"
  xmlns="http://www.w3.org/2000/svg"
  aria-hidden="true"
  focusable="false"
  width="530px"
  height="155px"
  viewBox="0 0 530 155"
>
  <path d="M58.66,55.46A13.3,13.3,0,1,1,72,42.16a13.29,13.29,0,0,1-13.34,13.3Zm0-17.73a4.44,4.44,0,1,0,4.43,4.45v0a4.43,4.43,0,0,0-4.43-4.43Z"/>
  <path d="M32.07,82.06A13.3,13.3,0,1,1,45.36,68.75h0A13.31,13.31,0,0,1,32.07,82.06Zm0-17.73a4.43,4.43,0,1,0,4.43,4.43,4.43,4.43,0,0,0-4.43-4.43Z"/>
  <path d="M94.12,46.6a13.3,13.3,0,1,1,13.3-13.3A13.29,13.29,0,0,1,94.12,46.6Zm0-17.73a4.43,4.43,0,1,0,4.43,4.43A4.43,4.43,0,0,0,94.12,28.87Z"/>
  <path d="M90.05,153c-23.54,0-45.7-7.75-62.41-21.82a75.78,75.78,0,0,1-19.16-24c-9-18.25-7.77-40.3,0-59.18A75.72,75.72,0,0,1,27.64,24.09C44.34,10,66.5,2.27,90.05,2.27s45.7,7.75,62.41,21.82A75.72,75.72,0,0,1,171.62,48a65.58,65.58,0,0,1,7.09,29.59c0,16.42-7.32,22.27-14.16,22.27-5.72,0-11.6-4-16.15-11-2.87-4.41-5.91-6.84-8.54-6.84a5.09,5.09,0,0,0-2.65.81c-5,3-2,11,.16,15.57,7.11,14.66,7.69,27.46,1.7,37-7.27,11.62-23.76,17.5-49,17.5ZM89.69,11C45.69,11,9.9,40.86,9.9,77.53S45.69,144,89.69,144c12.11,0,21.93-1.41,29.19-4.19,5.75-2.21,9.9-5.28,12.32-9.15C136.62,122,133,110.41,129,102.2c-8.51-17.55-.56-24.75,3.26-27a13.91,13.91,0,0,1,7.21-2.07c4.06,0,10.12,1.89,16,10.87,3.34,5.13,6.79,7,8.72,7,3.16,0,5.29-5.39,5.29-13.4,0-36.74-35.82-66.6-79.81-66.6Z"/>
  <path d="M98.55,126.38a17.73,17.73,0,1,1,17.73-17.73A17.73,17.73,0,0,1,98.55,126.38Zm0-26.59a8.87,8.87,0,1,0,8.87,8.87h0A8.89,8.89,0,0,0,98.55,99.79Z"/>
  <path d="M232.73,66.49l-4.65-.94a35.09,35.09,0,0,1-12,2.18c-15.19,0-22.64-8.84-22.64-21.87a29.94,29.94,0,0,1,8.84-20.63A27.66,27.66,0,0,1,222,16.93a38.52,38.52,0,0,1,11.71,1.94l6.67-1.78L238,34.38h-5.35l-1.78-11.17a13.54,13.54,0,0,0-8.14-2.48c-9.93,0-17.92,11.56-17.92,26.14,0,6.28,1.71,11,4.81,14a11.18,11.18,0,0,0,8,3A16.62,16.62,0,0,0,225.06,62l5.43-11.56h5.89Z"/>
  <path d="M269.26,36.16l2.09-6h8l-4.66,14L270.57,61.6l2.1.7,5.74-4,1.31,1.7c-2.32,3.88-6.82,7.76-10.85,7.76-1.94,0-7-1.79-7-3.18,0-1.55,2.71-8.69,4.34-13.57h-.77c-6,10-9.47,16.67-14.89,16.67-4.89,0-8.77-3.65-8.77-10.47,0-7.75,4.11-16.44,9.31-21.64,3.18-3.17,7.13-5.35,10.78-5.35,4,0,5.89,2.8,6.74,6ZM259.1,35a3.27,3.27,0,0,0-2.56,1.24c-3.1,3.1-6.13,12.25-6.13,18.46,0,3.88,1.55,6.12,4,6.12,2.94,0,5.66-4.57,11.4-13.72l1.74-6.1C265.77,38,261.81,35,259.1,35Z"/>
  <path d="M305.94,41.59a4,4,0,0,1-4.11-3.88c0-.1,0-.2,0-.3a4.07,4.07,0,0,1,.46-1.87,16.91,16.91,0,0,0-6.36-1.93c-1.47.93-3.1,3.33-3.18,4.42-.15,2.4,3.65,5.42,6.13,7.91,4,3.87,7.83,7.13,7.6,11.24-.23,6.36-7.37,10.47-14.35,10.47-5.5,0-11.47-1.63-11.47-6.83a4.46,4.46,0,0,1,4.08-4.8c.21,0,.43,0,.65,0a3.93,3.93,0,0,1,4,3.9,2.62,2.62,0,0,1,0,.28,4.34,4.34,0,0,1-.46,1.87,22,22,0,0,0,7.36,2c1.24-.85,2.95-3.26,3-4.81.15-2.24-3.18-4.88-6.13-7.6-4.19-3.8-7.75-7.13-7.6-11.24.31-6.9,7.37-10.31,13.8-10.31,5.66,0,11.17,1.47,11.17,6.59C310.51,39.73,308.73,41.59,305.94,41.59Z"/>
  <path d="M329.28,34.54a2.87,2.87,0,0,0-1.48.93c-2.4,2.32-6.12,10.93-6.12,18.14,0,5,2.87,8.3,6.82,8.3,1.71,0,5.2-1.94,9.85-5.12l1.24,1.63c-3.72,4.89-8.3,9.23-14.58,9.23-7.6,0-12.1-5.74-12.1-13,0-11.4,9.31-24.5,21-24.5,5.43,0,9.69,3.25,9.69,7.75,0,3.26-2.32,5.66-4.88,5.66A3.94,3.94,0,0,1,334.45,40a3.86,3.86,0,0,1,0-.68,6.71,6.71,0,0,1,.93-3.11A13.73,13.73,0,0,0,329.28,34.54Z"/>
  <path d="M372.94,36.16l2.09-6h8l-4.66,14L374.25,61.6l2.1.7,5.74-4,1.32,1.7c-2.33,3.88-6.83,7.76-10.86,7.76-1.94,0-7-1.79-7-3.18,0-1.55,2.71-8.69,4.34-13.57h-.77c-6,10-9.46,16.67-14.89,16.67-4.89,0-8.77-3.65-8.77-10.47,0-7.75,4.12-16.44,9.31-21.64,3.18-3.17,7.14-5.35,10.78-5.35,3.95,0,5.89,2.8,6.75,6ZM362.78,35a3.27,3.27,0,0,0-2.56,1.24c-3.1,3.1-6.13,12.25-6.13,18.46,0,3.88,1.55,6.12,4,6.12,2.94,0,5.66-4.57,11.4-13.72l1.74-6.1C369.45,38,365.49,35,362.78,35Z"/>
  <path d="M413.49,67.73c-1.93,0-6.74-2.56-6.74-4s2.48-7.91,4.11-12.79h-.78c-6,10-9.46,16.67-14.89,16.67-4.88,0-8.76-3.65-8.76-10.47,0-7.75,4.11-16.44,9.31-21.64,3.18-3.17,7.13-5.35,10.78-5.35,4,0,5.27,2.8,6.2,6h.62l2.71-12.87c.31-1.39-.07-2.25-.93-2.63l-4.42-2.1.47-2.17,15.9-4-8.53,34.27-3.34,15,2.09.7,5.74-4,1.32,1.7C422,63.85,417.53,67.73,413.49,67.73ZM403.72,35a3.27,3.27,0,0,0-2.56,1.24c-3.1,3.1-6.12,12.25-6.12,18.46,0,3.88,1.55,6.12,3.95,6.12,2.95,0,5.66-4.57,11.4-13.72l1.79-6.1C410.39,38,406.44,35,403.72,35Z"/>
  <path d="M435.13,67.73c-1.94,0-7.21-2.18-6.9-3.26l7.44-28.07-2.32-.47-5,5.59-1.55-1.71c1.94-4.27,6.05-9.69,10.08-9.69,1.94,0,8.06,2,7.67,3.25L436.76,61.6l2.09.7,5.74-4,1.32,1.7C443.58,63.85,439.16,67.73,435.13,67.73ZM443.58,25a4.93,4.93,0,0,1-5.11-4.76,3.23,3.23,0,0,1,0-.44c0-3.8,2.56-6.82,5.27-6.82a5,5,0,0,1,5.13,4.87c0,.13,0,.27,0,.4C448.86,22.05,446.3,25,443.58,25Z"/>
  <path d="M477.55,67.73c-1.94,0-6.9-1.79-6.9-3.26,0-1.71,2.09-7.91,4.34-14.66,1.16-3.72,2.56-7.91,2.56-9.77,0-1.55-1.78-2.71-3.57-2.71-2.56,0-5.81,5.58-11.55,17.6l-2.56,11.71-9.38.08,2.87-11.63,3.8-18.46L455,36.09l-5.11,5.43-1.55-1.71c2-4.27,6-9.69,10.08-9.69,1.93,0,7.6,1.31,7.6,2.79,0,2.56-3.42,14.58-4.27,17.52h.85c3.57-7.83,6.67-14.19,9.39-16.9a10.67,10.67,0,0,1,7.44-3.41c4,0,6.82,2.63,6.82,6.2,0,3.41-1.78,9.15-3.56,14.66L479.18,61.6l2.09.7,5.74-4,1.32,1.7C486,63.85,481.58,67.73,477.55,67.73Z"/>
  <path d="M518,36.24l-.08.78a9.36,9.36,0,0,1,4,7.68c0,7.44-7.21,12.25-14.66,12.25a21.65,21.65,0,0,1-5.43-.78A3.68,3.68,0,0,0,499,59.35c0,1.94,2.64,2.87,6.36,4.11l3.57,1c7.21,2.17,12,4.81,12,10.62S513.76,86.8,500.12,86.8c-9.15,0-15.44-3.33-15.44-9.15,0-4.73,5.51-7.75,10.71-9.15v-.62a6,6,0,0,1-3.34-5.12c0-3.49,2.79-6,7.06-7.36v-.62a11.46,11.46,0,0,1-5.51-9.7c0-8.76,7.52-15,16.44-15a35.68,35.68,0,0,1,9.23,1.55l9.77-.16-1.94,7ZM505.54,72.07a77.52,77.52,0,0,1-7.83-2.79c-3.41,1.63-5.66,4-5.66,6.9,0,3.88,4.73,6.82,12.1,6.82,5.66,0,9.85-2.17,9.85-5C514,75.56,511.36,74,505.54,72.07Zm2.95-37.69a3.37,3.37,0,0,0-2.48.85c-2.64,2.64-4.27,8.77-4.19,12.72a8.22,8.22,0,0,0,1.71,5,3.57,3.57,0,0,0,2.4,1,5.76,5.76,0,0,0,4.27-2c2.94-2.87,4-9.15,4-13,0-2.32-3.07-4.57-5.71-4.57Z"/>
  <path d="M232.73,135.76l-4.65-.93a35.32,35.32,0,0,1-12,2.17c-15.19,0-22.64-8.84-22.64-21.87a30,30,0,0,1,8.84-20.63A27.65,27.65,0,0,1,222,86.21a38.51,38.51,0,0,1,11.71,1.93l6.67-1.78L238,103.65h-5.35l-1.78-11.16A13.53,13.53,0,0,0,222.73,90c-9.93,0-17.92,11.55-17.92,26.13,0,6.28,1.71,11,4.81,14a11.27,11.27,0,0,0,8,3,16.62,16.62,0,0,0,7.44-1.86l5.43-11.56h5.89Z"/>
  <path d="M256.23,136.92c-8.84,0-13.73-6.51-13.73-15.74,0-10.93,8.14-21.79,18.77-21.79,8.84,0,13.65,6.51,13.65,15.82C274.92,126.07,266.93,136.92,256.23,136.92Zm5-33.81c-4.58,0-8.07,7.91-9.31,13.57a36.91,36.91,0,0,0-1,7.83c0,4.58,1.79,8.77,5.2,8.77,4.81,0,8.14-8.22,9.38-14a41.25,41.25,0,0,0,.93-7.83c0-4.62-1.67-8.34-5.16-8.34Z"/>
  <path d="M286.24,137c-1.94,0-7.06-2.17-6.83-3.26l8.53-41.18c.31-1.31,0-2.24-.93-2.63l-4.42-2.1.47-2.17,15.51-4-10.7,49.16,2.17.7,5.66-4,1.39,1.63C294.77,133.12,290.27,137,286.24,137Z"/>
  <path d="M314.7,136.92c-8.84,0-13.73-6.51-13.73-15.74,0-10.93,8.14-21.79,18.77-21.79,8.84,0,13.65,6.51,13.65,15.82C333.39,126.07,325.4,136.92,314.7,136.92Zm5-33.81c-4.58,0-8.07,7.91-9.31,13.57a36.91,36.91,0,0,0-1,7.83c0,4.58,1.79,8.77,5.2,8.77,4.81,0,8.14-8.22,9.38-14a41.25,41.25,0,0,0,.93-7.83c0-4.62-1.67-8.34-5.16-8.34Z"/>
  <path d="M361.69,105.2c-1.63,1.4-9.69,16.76-11.48,20.63l-1.86,10.08L339,136l2.87-11.63,3.8-18.69-2.25-.47-5,5.59-1.63-1.71c2-4.26,6-9.69,10.16-9.69,1.94,0,7.52,1.32,7.52,2.79,0,2.56-3.65,15-5,19.08h1.08c1.32-3.65,6.21-14.35,8.15-16.21,2.32-4.19,3.87-5.82,7.67-5.82,3.18,0,6,2.25,6,6.36,0,3.42-2.32,5.9-5,5.9-3.1,0-5.19-2.48-4.26-5.9C363.09,105.59,361.85,105.05,361.69,105.2Z"/>
  <path d="M395.73,110.87a4,4,0,0,1-4.11-3.88c0-.11,0-.21,0-.31a4.14,4.14,0,0,1,.47-1.86,16.93,16.93,0,0,0-6.36-1.94c-1.47.93-3.1,3.33-3.18,4.42-.15,2.4,3.65,5.43,6.13,7.91,4,3.88,7.83,7.13,7.6,11.24-.24,6.36-7.37,10.47-14.35,10.47-5.5,0-11.48-1.63-11.48-6.82a4.45,4.45,0,0,1,4.09-4.8,4.56,4.56,0,0,1,.64,0,3.94,3.94,0,0,1,4,3.85c0,.11,0,.23,0,.34a4.45,4.45,0,0,1-.47,1.86,22,22,0,0,0,7.37,2c1.24-.85,2.95-3.25,3-4.8.15-2.25-3.18-4.89-6.13-7.6-4.19-3.8-7.76-7.14-7.6-11.25.31-6.9,7.37-10.31,13.8-10.31,5.66,0,11.17,1.47,11.17,6.59C400.31,109,398.53,110.87,395.73,110.87Z"/>
</svg>
