<svg
  data-logo="CFO"
  xmlns="http://www.w3.org/2000/svg"
  aria-hidden
  focusable="false"
  width="520"
  height="102"
  viewBox="0 0 347.56 67.61"
>
  <path d="M34.16,55.69c-11.54,0-17.94-8.39-17.94-20,0-11.09,7.57-20,18-20,5,0,9.46,2.16,13.25,5.31l7-11.26C47.86,5.48,41.82,3.05,34.16,3.05,15.68,3.05.72,17.29.72,35.68c0,19,13.79,32.62,32.81,32.62A35.58,35.58,0,0,0,55.7,60.64L47.41,50.19A19.69,19.69,0,0,1,34.16,55.69Z" transform="translate(-0.72 -0.7)"/><polygon points="63.18 66.53 77.78 66.53 77.78 41.65 99.33 41.65 99.33 29.57 77.78 29.57 77.78 15.51 99.33 15.51 99.33 3.43 63.18 3.43 63.18 66.53"/><path d="M205.78,49.72a14.92,14.92,0,0,0-3.26-2c-1.19-.55-2.39-1-3.58-1.47-1-.33-1.87-.67-2.76-1a16.43,16.43,0,0,1-2.33-1.08,5.79,5.79,0,0,1-1.61-1.32,2.84,2.84,0,0,1-.61-1.83,3.51,3.51,0,0,1,1.26-2.75,5.75,5.75,0,0,1,3.9-1.12,9.89,9.89,0,0,1,4,.83,20.5,20.5,0,0,1,3.76,2.18l3.79-5a24.57,24.57,0,0,0-5.08-2.94,16.25,16.25,0,0,0-6.59-1.29c-4,0-7.09,1-9.39,2.94a9.52,9.52,0,0,0-3.43,7.59,7.72,7.72,0,0,0,.89,3.83A10.44,10.44,0,0,0,187,48.07a14,14,0,0,0,3.19,2.08c1.19.57,2.36,1.08,3.51,1.51l2.72,1.11A15.83,15.83,0,0,1,198.87,54a6.29,6.29,0,0,1,1.72,1.47,3,3,0,0,1,.64,1.89,3.84,3.84,0,0,1-1.36,3,6.33,6.33,0,0,1-4.22,1.18,12.27,12.27,0,0,1-5.05-1,22.27,22.27,0,0,1-4.7-2.9L182,62.9a23,23,0,0,0,6.12,3.47,19.29,19.29,0,0,0,7.2,1.4,18.64,18.64,0,0,0,5.87-.86,12.71,12.71,0,0,0,4.3-2.33,9.63,9.63,0,0,0,2.61-3.43,10.19,10.19,0,0,0,.9-4.27,8.86,8.86,0,0,0-3.26-7.16Z" transform="translate(-0.72 -0.7)"/><path d="M235.61,30.88a12.05,12.05,0,0,0-6.34,1.62,28.92,28.92,0,0,0-4.9,3.68l.28-6.8v-13h-8.23V66.91h8.23V42.34a26.57,26.57,0,0,1,4-3.26A7.41,7.41,0,0,1,232.68,38a4.84,4.84,0,0,1,4.22,1.8q1.29,1.78,1.29,6.15v21h8.24V44.85q0-6.74-2.58-10.35T235.61,30.88Z" transform="translate(-0.72 -0.7)"/><path d="M270.71,30.88a22.22,22.22,0,0,0-7.84,1.36,35.76,35.76,0,0,0-6.56,3.23l3,5.51a31.86,31.86,0,0,1,4.76-2.43,13.52,13.52,0,0,1,5.13-1,7.17,7.17,0,0,1,3,.54,5,5,0,0,1,1.93,1.51,6.44,6.44,0,0,1,1.11,2.22,9.35,9.35,0,0,1,.36,2.61q-10.81,1.21-15.76,4.3a9.75,9.75,0,0,0-4.94,8.74,10,10,0,0,0,2.9,7.48,10.34,10.34,0,0,0,7.56,2.83,12.67,12.67,0,0,0,5.83-1.36A25.41,25.41,0,0,0,276.22,63h.22l.64,3.87h6.74V46.07q0-7.38-3.23-11.28T270.71,30.88Zm4.87,26.58a18.76,18.76,0,0,1-3.72,2.86,7.93,7.93,0,0,1-3.94,1,5.75,5.75,0,0,1-3.62-1.07,4.07,4.07,0,0,1-1.4-3.44,4.86,4.86,0,0,1,.65-2.43,5.68,5.68,0,0,1,2.11-2,16.6,16.6,0,0,1,3.9-1.62,37.91,37.91,0,0,1,6-1.14Z" transform="translate(-0.72 -0.7)"/><path d="M306,32.71A14.73,14.73,0,0,0,301.51,38h-.29l-.57-6.23h-6.81V66.91h8.24V45.42A12.49,12.49,0,0,1,306,39.8a7.7,7.7,0,0,1,4.37-1.61,11.58,11.58,0,0,1,1.93.14,16,16,0,0,1,1.72.43l1.44-7.16A9.9,9.9,0,0,0,306,32.71Z" transform="translate(-0.72 -0.7)"/><path d="M348.28,47.57a23.2,23.2,0,0,0-.93-6.73,15.1,15.1,0,0,0-2.76-5.3A12.27,12.27,0,0,0,340,32.1a15.29,15.29,0,0,0-6.3-1.22,14.86,14.86,0,0,0-6,1.29,16.12,16.12,0,0,0-5.19,3.66,17.82,17.82,0,0,0-3.62,5.8,21,21,0,0,0-1.36,7.73,21.09,21.09,0,0,0,1.33,7.77,16.44,16.44,0,0,0,3.69,5.77,16.1,16.1,0,0,0,5.51,3.62,18.36,18.36,0,0,0,6.81,1.25,19.56,19.56,0,0,0,6.44-1.07A25.67,25.67,0,0,0,346.92,64l-2.79-5.16a19.26,19.26,0,0,1-3.91,1.9,13,13,0,0,1-4.26.68,9.9,9.9,0,0,1-7-2.58,11.58,11.58,0,0,1-3.33-7.38h22.34A16.47,16.47,0,0,0,348.28,47.57ZM325.5,46.21a10.85,10.85,0,0,1,2.94-6.7A7.75,7.75,0,0,1,334,37.26a6.3,6.3,0,0,1,5.4,2.36,10.87,10.87,0,0,1,1.76,6.59Z" transform="translate(-0.72 -0.7)"/><path d="M173.21,11.89A33.88,33.88,0,0,0,159.78.7l-3.57,6.15a34.09,34.09,0,0,0-15.79-3.8c-18.84,0-33.26,14.6-33.26,32.63S121.58,68.3,140.42,68.3s33.26-14.6,33.26-32.62a32.69,32.69,0,0,0-1.18-8.74l6.31-1.62A33.81,33.81,0,0,0,173.21,11.89Zm-15,23.79c0,11.17-7.48,20-17.76,20s-17.75-8.84-17.75-20,7.48-20,17.75-20a16.55,16.55,0,0,1,9.11,2.68l-9.89,17,18-4.63A23.18,23.18,0,0,1,158.18,35.68Z" transform="translate(-0.72 -0.7)"/>
</svg>
