<?xml version="1.0" encoding="UTF-8"?>
<svg id="Layer_1" data-name="Layer 1" xmlns="http://www.w3.org/2000/svg" viewBox="0 0 267.86 86.85">
  <defs>
    <style>
      .cls-1 {
        fill: #305869;
      }
    </style>
  </defs>
  <path class="cls-1" d="m113.61,44.75c0,12.77-9.99,22.18-22.25,22.18s-22.25-9.41-22.25-22.18,9.99-22.18,22.25-22.18,22.25,9.32,22.25,22.18Zm-9.74,0c0-7.98-5.79-13.44-12.51-13.44s-12.51,5.46-12.51,13.44,5.79,13.44,12.51,13.44,12.51-5.55,12.51-13.44Z"/>
  <path class="cls-1" d="m161.61,44.75c0,12.77-9.99,22.18-22.25,22.18s-22.25-9.41-22.25-22.18,9.99-22.18,22.25-22.18,22.25,9.32,22.25,22.18Zm-9.74,0c0-7.98-5.79-13.44-12.51-13.44s-12.51,5.46-12.51,13.44,5.79,13.44,12.51,13.44,12.51-5.55,12.51-13.44Z"/>
  <path class="cls-1" d="m207.44,23.91v40.11c0,16.21-9.4,22.83-20.51,22.83-10.46,0-16.75-7.12-19.13-12.94l8.25-3.49c1.47,3.57,5.07,7.79,10.87,7.79,7.11,0,11.52-4.46,11.52-12.87v-3.16h-.33c-2.12,2.66-6.21,4.99-11.36,4.99-10.79,0-20.68-9.56-20.68-21.86s9.89-22.03,20.68-22.03c5.15,0,9.23,2.33,11.36,4.91h.33v-4h9v-.28Zm-8.39,20.92c0-7.81-5.21-13.52-11.84-13.52s-12.35,5.71-12.35,13.52,5.63,13.36,12.35,13.36,11.84-5.63,11.84-13.36Z"/>
  <path class="cls-1" d="m223.44.19v65h-10V.19h10Z"/>
  <path class="cls-1" d="m259.88,52.05l7.56,5.04c-2.44,3.61-8.32,9.83-18.48,9.83-12.6,0-22.01-9.74-22.01-22.18,0-13.19,9.49-22.18,20.92-22.18s17.14,9.16,18.98,14.11l1.01,2.52-29.65,12.28c2.27,4.45,5.8,6.72,10.75,6.72s8.4-2.44,10.92-6.14h0Zm-23.27-7.98l19.82-8.23c-1.09-2.77-4.37-4.7-8.23-4.7-4.95,0-11.84,4.37-11.59,12.93Z"/>
  <path class="cls-1" d="m33.44,39.2v-9.01h30.36c.3,1.57.45,3.43.45,5.44,0,6.76-1.85,15.12-7.8,21.07-4.46,4.65-9.88,7.62-16.61,8.74C20.72,68.63,2.25,55.74.19,36.47-1.93,16.74,14.13,0,33.45,0c10.05,0,17.21,3.94,22.6,9.09l-6.36,6.36c-2.88-2.7-6.52-4.95-11.15-5.92-14.29-2.99-28.14,7.83-28.72,22.42-.55,13.74,10.02,24.99,23.63,24.99,8.61,0,13.51-3.46,16.65-6.6,2.55-2.55,4.22-6.19,4.88-11.15h-21.53Z"/>
</svg>