<svg
  data-logo="oddbird"
  xmlns="http://www.w3.org/2000/svg"
  aria-hidden="true"
  focusable="false"
  width="200px"
  height="112px"
  viewBox="0 0 134.7 74.7"
>
<path class="logomark" d="M125,13.3c-4.2-1.9-16.1-7.3-21.6-5.4c-3.7,1.2-8,10.4-10.9,13c-0.3,0.2-0.7,0.6-1.1,0.9C83.6,7,68.5-1.3,58.4,1.4
	c-6.8,1.9-13.1,9.8-16,19.9c-5-3-7.5-7.9-11.9-12.4c-3.4-3.5-8-2.1-12-0.2c-7.9,3.6-18.3,9-18,17.5c4.6-3.3,9.1-2.3,10.6,3.7
	c0.3,1.1,2.9-4,5.9-5.1c3.5-1.3,7.4,1.9,8.1,5.4c0.2,0.7,3.2-3.9,6.3-2.3c2.2,1,3.5,5.6,4.3,5.2c2.2-1.4,3.7-3.1,5.3-4.4
	c-0.6,5.2-0.2,10.7,1.3,16.2c0.1,0.3,0.2,0.7,0.2,0.9C43.8,36,49.2,28,55.3,26.3c8.5-2.4,22.1,6.4,26.2,20.8
	c3,10.7,0.9,21.3-4.6,27.1c0.7-0.1,1.3-0.2,2-0.4c14.4-4.1,21.6-23.6,16-43.5c-0.1-0.4-0.2-0.8-0.3-1.1c3.5,1.9,5.2,5,5.3,4.5
	c1.3-6.2,8.7-6.3,13.5-1.9c0.4,0.4,0.7-4.7,2.5-5.4c3-1.1,6.3,0.6,9.4,2.4c0.6,0.3,0.4-2.4,0.3-2.8c-0.2-1.3-0.1-2.8,1.4-3.2
	c2.3-0.7,5,0.6,7,1C133.4,18.9,128.9,15.1,125,13.3L125,13.3z"/>
</svg>
