<?xml version="1.0" encoding="UTF-8"?>
<svg xmlns="http://www.w3.org/2000/svg" viewBox="0 0 511.81 63.45">
  <defs>
    <style>
      .cls-1 {
        fill: none;
      }
    </style>
  </defs>
  <g id="Layer_1" data-name="Layer 1" focusable="false">
    <path d="m189.58,20.15c-4.01-2.39-9.56-4.01-14.33-4.01-9.08,0-14.71,5.92-14.71,15.38s5.06,15.67,14.71,15.67c5.54,0,10.51-1.62,15.19-4.4l4.11,16.15c-4.59,2.39-13.19,4.01-20.26,4.01-19.97,0-32.68-10.41-32.68-31.05,0-19.4,12.52-31.53,33.44-31.53,7.55,0,14.52,1.72,20.16,4.2l-5.64,15.57Z"/>
    <path class="cls-1" d="m220.73,62.96c-13.85,0-24.75-8.03-24.75-23.6s11.56-23.98,25.42-23.98,24.75,8.31,24.75,23.6-11.56,23.98-25.42,23.98Zm.29-34.3c-4.59,0-6.97,3.92-6.97,10.61s2.39,10.32,7.07,10.32,6.98-3.82,6.98-10.51-2.39-10.42-7.07-10.42Z"/>
    <path d="m279.97,61.53v-25.61c0-4.2-2.1-5.54-4.87-5.54-2.58,0-4.68,1.24-6.21,2.67v28.47h-18.25V17.96l18.25-2.1v7.64c3.82-4.78,9.17-8.12,15.19-8.12,8.89,0,14.14,5.92,14.14,15.38v30.77h-18.25Z"/>
    <path d="m325.08,62.96c-12.33,0-18.92-4.68-18.25-17.39l.67-13.09-6.31-1.43.29-11.66,6.31-2.2.19-10.42h17.68v10.89h9.84l-.29,13.76h-10.99l-.38,11.47c-.19,4.11,2.39,5.64,5.93,5.64,1.43,0,3.06-.29,4.68-.86l1.91,13.85c-3.53.96-6.12,1.43-11.27,1.43Z"/>
    <path d="m358.82,61.53h-18.25V18.05l18.25-2.2v5.92c2.29-4.3,5.64-6.4,9.84-6.4,2.1,0,4.59.38,6.98,1.62l-3.44,15.86c-1.34-.57-3.06-1.05-4.87-1.05-3.25,0-6.21,1.24-8.5,5.16v24.56Z"/>
    <path d="m374.8,39.84c0-15.48,10.89-24.37,22.26-24.37,3.25,0,8.03,1.05,10.41,2.39l16.91-2.01v30.58c0,2.77.67,2.96,3.25,3.34l-1.91,12.52c-10.99,1.62-16.34-1.15-19.01-6.5-3.53,3.92-7.45,7.07-13.19,7.07-10.32,0-18.73-8.5-18.73-23.03Zm26.09-11.47c-4.97,0-7.93,3.92-7.93,10.41s3.25,10.03,7.36,10.03c2.77,0,4.4-.96,5.83-2.48v-16.72c-1.24-.67-3.06-1.24-5.26-1.24Z"/>
    <path d="m451.52,62.96c-6.59,0-15.67-1.43-20.73-3.92l3.34-12.32c5.92,2.77,12.23,4.3,17.68,4.3,3.44,0,4.59-.86,4.59-2.29,0-1.53-1.05-2.29-6.12-3.25-12.42-2.1-18.82-6.4-18.82-15.38,0-8.5,7.36-14.71,21.5-14.71,6.4,0,15.57,1.91,20.06,4.11l-3.44,12.23c-5.73-2.77-12.23-4.4-16.63-4.4-3.06,0-4.3.67-4.3,2.2s1.72,2.1,6.4,3.06c12.52,2.48,18.44,6.21,18.44,15.38,0,7.93-7.17,15-21.98,15Z"/>
    <path d="m500.54,62.96c-12.33,0-18.92-4.68-18.25-17.39l.67-13.09-6.31-1.43.29-11.66,6.31-2.2.19-10.42h17.68v10.89h9.84l-.29,13.76h-10.99l-.38,11.47c-.19,4.11,2.39,5.64,5.93,5.64,1.43,0,3.06-.29,4.68-.86l1.91,13.85c-3.53.96-6.12,1.43-11.27,1.43Z"/>
    <path d="m45.95,54.33c-5.12,5.29-12.17,8.47-20.46,8.47C10.5,62.8,0,52.13,0,37.22c0-8.47,2.82-16.32,8.03-22.23,5.29-6,12.79-9.79,21.87-9.79,14.99,0,25.49,10.67,25.49,25.58,0,9.09-3.44,17.55-9.44,23.55Zm-6.35-41.19c-2.47-2.47-5.73-3.97-10.23-3.97-13.5,0-18.52,19.14-18.52,29.9,0,6,1.23,11.91,4.94,15.61,2.47,2.47,5.73,3.97,10.32,3.97,13.41,0,18.43-19.05,18.52-29.81,0-5.91-1.32-12-5.03-15.7Z"/>
    <path d="m85.99,62.8c-2.03,0-7.14-2.12-7.14-3.62,0-1.41,2.65-9.09,4.67-15.44h-.79c-6.7,12.08-10.76,19.05-16.49,19.05-5.03,0-9.17-3.97-9.17-11.38,0-9.17,4.59-19.32,10.23-24.96,3.53-3.53,7.85-6.17,12.08-6.17s5.56,3.26,6.53,6.53h.62l3.09-15.17c.26-1.32,0-2.21-.79-2.56l-5.29-2.38.44-2.38L100.37,0l-9.17,37.75-4.15,18.61,2.56.88,6.7-4.94,1.5,1.68c-2.38,4.32-7.76,8.82-11.82,8.82Zm-10.41-37.66c-1.23,0-2.03.53-2.91,1.5-3.18,3.18-7.23,14.91-7.23,22.49,0,4.41,1.68,6.79,4.5,6.79,3.18,0,6.26-4.67,13.58-17.2l1.76-6.53c-1.94-3.26-6.26-7.06-9.7-7.06Z"/>
    <path d="m129.21,62.8c-2.03,0-7.14-2.12-7.14-3.62,0-1.41,2.65-9.09,4.67-15.44h-.79c-6.7,12.08-10.76,19.05-16.49,19.05-5.03,0-9.17-3.97-9.17-11.38,0-9.17,4.59-19.32,10.23-24.96,3.53-3.53,7.85-6.17,12.08-6.17s5.56,3.26,6.53,6.53h.62l3.09-15.17c.26-1.32,0-2.21-.79-2.56l-5.29-2.38.44-2.38,16.41-4.32-9.17,37.75-4.15,18.61,2.56.88,6.7-4.94,1.5,1.68c-2.38,4.32-7.76,8.82-11.82,8.82Zm-10.41-37.66c-1.23,0-2.03.53-2.91,1.5-3.18,3.18-7.23,14.91-7.23,22.49,0,4.41,1.68,6.79,4.5,6.79,3.18,0,6.26-4.67,13.58-17.2l1.76-6.53c-1.94-3.26-6.26-7.06-9.7-7.06Z"/>
    <g>
      <path d="m220.79,63.45c-15.33,0-25.24-9.46-25.24-24.09,0-12.18,8.01-24.48,25.91-24.48,15.33,0,25.24,9.46,25.24,24.09s-10.65,24.48-25.91,24.48Zm.67-47.58c-12.41,0-24.92,7.26-24.92,23.49,0,14.04,9.52,23.11,24.25,23.11s24.92-9.66,24.92-23.49-9.52-23.11-24.26-23.11Zm-.29,34.21c-4.88,0-7.56-3.84-7.56-10.81s2.65-11.1,7.47-11.1,7.56,3.87,7.56,10.91-2.65,11-7.47,11Zm-.1-20.93c-5.64,0-6.48,6.34-6.48,10.11,0,4.48,1.14,9.83,6.58,9.83s6.48-5.45,6.48-10.02-1.14-9.92-6.58-9.92Z"/>
      <path d="m221.12,49.53c-4.65-.03-7.02-3.75-7.02-10.32s2.39-10.61,6.98-10.61c.02,0,.03,0,.05,0v-13.27c-13.7.14-25.08,8.52-25.08,23.97s10.89,23.6,24.75,23.6c.11,0,.22-.01.34-.01v-13.37Z"/>
    </g>
  </g>
</svg>