<svg
  data-logo="phamaly"
  xmlns="http://www.w3.org/2000/svg"
  aria-hidden
  focusable="false"
  width="520"
  height="190"
  viewBox="0 0 396 144"
>
  <path d="M319.84,104.53l-4.44-7.91h-4.85l7,12.43v5.6H322V109l7.13-12.38h-4.95Zm-215.47-4h5.84v14.15h4.42V100.5h5.84V96.62h-16.1ZM91,96.62l-7.54,18h4.76l1.27-3.28H97l1.26,3.28H103l-7.54-18Zm0,10.93,2.28-5.92,2.32,5.92ZM257.19,96.62h-8.88v18h4.44v-5.51H257c4.17,0,6.81-2.51,6.81-6.3S261.26,96.62,257.19,96.62Zm-.51,8.8h-3.93v-5h3.93a2.51,2.51,0,1,1,0,5ZM22.3,100.5h5.84v14.15h4.41V100.5h5.84V96.62H22.3Zm47.6,6.94h8.75v-3.61H69.9v-3.39h9.53V96.62h-14v18H79.51v-3.82H69.9Zm-14.69-3.79H47.62v-7H43.18v18h4.44v-7.13h7.59v7.13h4.41v-18H55.21Zm246.46,3.74-9.12-10.77h-3.69v18h4.44V104.21l9.13,10.44h3.66v-18h-4.42ZM206.9,96.22a9.42,9.42,0,1,0,9.6,9.44A9.44,9.44,0,0,0,206.9,96.22Zm0,14.77a5.36,5.36,0,1,1,5.16-5.33A5.13,5.13,0,0,1,206.9,111Zm25.21-2.93-6.05-11.44H221.7v18H226V105l5.09,9.66h2l5.06-9.61v9.61h4.31v-18h-4.33Zm-91.25-5.55c0-3.52-2.58-5.89-6.48-5.89h-9.13v18h4.44v-6.19H131l5.43,6.19h5.36l-5.65-6.4A5.66,5.66,0,0,0,140.86,102.51Zm-7,2.24h-4.2v-4.33h4.2c1.59,0,2.61.86,2.61,2.15S135.48,104.75,133.89,104.75ZM183.62,111a5.38,5.38,0,0,1,0-10.74,4.54,4.54,0,0,1,4.71,3.88l4.36-1c-.86-4.28-4.63-6.91-9.07-6.91a9.42,9.42,0,1,0,0,18.84c4.63,0,8.26-2.64,9.1-7.16l-4.36-.86A4.65,4.65,0,0,1,183.62,111Zm-33-3.58h8.74v-3.61h-8.74v-3.39h9.52V96.62h-14v18h14v-3.82h-9.6ZM272.53,96.62l-7.54,18h4.77l1.26-3.28h7.59l1.27,3.28h4.73l-7.53-18Zm0,10.93,2.29-5.92,2.31,5.92Zm8.31-51.82c-11.5,0-17.93,5.49-17.93,13.9s6.43,14.08,16,14.08a19,19,0,0,0,12.87-4.46v3.17H305V55.13c0-11-7.63-17.08-19.73-17.08-10.3,0-17.85,5.24-19.74,13.56l13,2.66c.68-3.77,3.09-5.4,7.21-5.4a5.74,5.74,0,0,1,6.09,6v.86Zm11,9.7c0,4.81-4.29,8-9,8-3.61,0-6-1.72-6-4.46s2.15-4.46,5.58-4.46h9.44Zm-34.48,17V55.47c0-10.46-7.3-17.42-16.48-17.42a18.57,18.57,0,0,0-15.27,7.3c-2.92-4.72-8.07-7.3-14.08-7.3-5.58,0-9.78,2-12.7,5.24V39.34H185.09V82.42h13.73V61.31c0-7.21,3.26-10.9,8.24-10.9,4.12,0,7.29,3.09,7.29,8v24h13.73V61.31c0-7.21,3.35-10.9,8.41-10.9,4,0,7.21,3.09,7.21,8v24ZM116.6,58.91V82.42h13.64V56c0-10.81-6.69-17.94-16.65-17.94a18,18,0,0,0-13.3,5.41V25.05H86.56V82.42h13.73v-20c0-8.33,3.52-12,8.84-12C113.59,50.41,116.6,53.84,116.6,58.91ZM326,25.05H312.27V82.42H326ZM177.94,82.42V55.13c0-11-7.64-17.08-19.74-17.08-10.3,0-17.85,5.24-19.74,13.56l13,2.66c.69-3.77,3.09-5.4,7.21-5.4a5.74,5.74,0,0,1,6.09,6v.86h-11c-11.5,0-17.94,5.49-17.94,13.9s6.44,14.08,16,14.08a19,19,0,0,0,12.87-4.46v3.17Zm-22.23-9c-3.6,0-6-1.72-6-4.46s2.15-4.46,5.58-4.46h9.44v.94C164.72,70.24,160.43,73.41,155.71,73.41Zm211.72-34-10.9,25.15L346.32,39.39H331.56L349.41,81.1l-7,16.05H357.3l24.89-57.76ZM36.49,68.07H54.9A25.49,25.49,0,0,0,73.09,60.9,20.19,20.19,0,0,0,79.3,46.6c0-11.79-11-21.44-24.52-21.52H22.19V82.32h14.3ZM36.43,39.4H57.86a7.17,7.17,0,0,1,0,14.34H55.54c-.23,0-.44,0-.67,0H36.49v0h-.06Z"/>
</svg>
