<svg
  data-logo="salesforce"
  xmlns="http://www.w3.org/2000/svg"
  aria-hidden="true"
  focusable="false"
  width="520px"
  height="128px"
  viewBox="0 0 401.4 98.7"
>
  <path d="M4.3,67.8a32.73,32.73,0,0,0,6,1.75,33.13,33.13,0,0,0,6.45.65,19.14,19.14,0,0,0,4.4-.5,11.47,11.47,0,0,0,3.65-1.5,8.35,8.35,0,0,0,2.5-2.45,5.84,5.84,0,0,0,.95-3.25,6.55,6.55,0,0,0-.75-3.3,7,7,0,0,0-2-2.2,13,13,0,0,0-2.9-1.55C21.45,55,20.27,54.6,19,54.2l-3.5-1.3q-6.4-2.4-9.3-5.4a11.17,11.17,0,0,1-2.9-8.1A13.29,13.29,0,0,1,8.15,28.6q4.85-4,14.25-4a38.91,38.91,0,0,1,7.65.75A46.75,46.75,0,0,1,36.6,27.1a23.45,23.45,0,0,1-.75,4,23.65,23.65,0,0,1-1.35,3.7,53.07,53.07,0,0,0-5.25-1.55,27.37,27.37,0,0,0-6.55-.75,15.57,15.57,0,0,0-6.55,1.3,4.65,4.65,0,0,0-2.85,4.6,5.64,5.64,0,0,0,.7,2.9,6.61,6.61,0,0,0,1.9,2.05,12.54,12.54,0,0,0,2.75,1.45c1,.4,2.15.8,3.35,1.2l4.4,1.5A32.45,32.45,0,0,1,31,49.4a13.32,13.32,0,0,1,3.7,2.75,12.71,12.71,0,0,1,2.5,4,16.51,16.51,0,0,1-.55,12.4,14.9,14.9,0,0,1-4.25,5.2A20.47,20.47,0,0,1,25.7,77.1a29.16,29.16,0,0,1-8.6,1.2,48.11,48.11,0,0,1-8.4-.65A42.82,42.82,0,0,1,2,75.9a20,20,0,0,1,.85-4.05C3.28,70.48,3.77,69.13,4.3,67.8Z" transform="translate(-2 -2.8)"/><path d="M72.8,43.3c0-3.93-1-6.67-3-8.2s-4.9-2.3-8.7-2.3a36.53,36.53,0,0,0-6.55.55A50.15,50.15,0,0,0,48.6,34.8a15.53,15.53,0,0,1-1.9-7.9,46.08,46.08,0,0,1,7.5-1.7,54.47,54.47,0,0,1,7.9-.6q10,0,15.2,4.55T82.5,43.7V75.8Q79,76.6,74,77.45a60.52,60.52,0,0,1-10.2.85A39.9,39.9,0,0,1,55,77.4a18.06,18.06,0,0,1-6.7-2.9A13.34,13.34,0,0,1,44,69.4a17.12,17.12,0,0,1-1.5-7.5A15.29,15.29,0,0,1,49,49a21.24,21.24,0,0,1,6.9-3.2,31.39,31.39,0,0,1,8.2-1q3.2,0,5.25.15c1.36.1,2.51.22,3.45.35Zm0,9.7c-1-.13-2.27-.27-3.8-.4s-2.84-.2-3.9-.2q-6.21,0-9.45,2.3c-2.17,1.53-3.25,3.87-3.25,7a8.54,8.54,0,0,0,1.1,4.7A7.58,7.58,0,0,0,56.25,69a9.42,9.42,0,0,0,3.65,1.1c1.33.13,2.6.2,3.8.2a46,46,0,0,0,4.75-.25,29.63,29.63,0,0,0,4.35-.75Z" transform="translate(-2 -2.8)"/><path d="M92.2,3.8c.73-.13,1.55-.23,2.45-.3s1.71-.1,2.45-.1,1.55,0,2.45.1,1.71.17,2.45.3V61.6a15.1,15.1,0,0,0,.5,4.4,5.82,5.82,0,0,0,1.35,2.45,3.93,3.93,0,0,0,2,1.1,11.24,11.24,0,0,0,2.45.25c.6,0,1.28,0,2-.1a13.92,13.92,0,0,0,2-.3,30.46,30.46,0,0,1,.9,7.6,13.34,13.34,0,0,1-3.4.65c-1.34.1-2.57.15-3.7.15a19.76,19.76,0,0,1-5.4-.7,11.52,11.52,0,0,1-4.4-2.3,10.79,10.79,0,0,1-3-4.3,17.69,17.69,0,0,1-1.1-6.7Z" transform="translate(-2 -2.8)"/><path d="M124.6,53.9q.2,8.4,4.35,12.3t12.25,3.9a36.73,36.73,0,0,0,13.5-2.5,15.47,15.47,0,0,1,1.3,3.65,24.29,24.29,0,0,1,.6,4.25,33.9,33.9,0,0,1-7.25,2.1,50,50,0,0,1-8.75.7,33,33,0,0,1-12-2,21.48,21.48,0,0,1-8.25-5.5,21.8,21.8,0,0,1-4.75-8.4,35.88,35.88,0,0,1-1.5-10.65,37.61,37.61,0,0,1,1.45-10.65,23.85,23.85,0,0,1,4.45-8.6,21.44,21.44,0,0,1,7.55-5.8A25,25,0,0,1,138.3,24.6a22.49,22.49,0,0,1,9.3,1.8,19,19,0,0,1,6.7,5,21.59,21.59,0,0,1,4.1,7.5,30.79,30.79,0,0,1,1.4,9.45c0,.93,0,1.92-.1,3s-.14,1.92-.2,2.65ZM150,46.5a18.85,18.85,0,0,0-.75-5.35,13.73,13.73,0,0,0-2.2-4.45,10.73,10.73,0,0,0-3.7-3.05A11.6,11.6,0,0,0,138,32.5q-6.1,0-9.35,3.7t-4,10.3Z" transform="translate(-2 -2.8)"/><path d="M166.9,67.8a34.22,34.22,0,0,0,12.4,2.4,19.14,19.14,0,0,0,4.4-.5,11.57,11.57,0,0,0,3.65-1.5,8.47,8.47,0,0,0,2.5-2.45,5.84,5.84,0,0,0,1-3.25,6.55,6.55,0,0,0-.75-3.3,7,7,0,0,0-2-2.2,13.26,13.26,0,0,0-2.9-1.55c-1.1-.43-2.29-.85-3.55-1.25l-3.5-1.3q-6.4-2.4-9.3-5.4a11.13,11.13,0,0,1-2.9-8.1,13.26,13.26,0,0,1,4.85-10.8q4.84-4,14.25-4a38.91,38.91,0,0,1,7.65.75,46.75,46.75,0,0,1,6.55,1.75,25.57,25.57,0,0,1-.75,4,23.65,23.65,0,0,1-1.35,3.7,53.07,53.07,0,0,0-5.25-1.55,27.43,27.43,0,0,0-6.55-.75,15.57,15.57,0,0,0-6.55,1.3,4.65,4.65,0,0,0-2.85,4.6,5.64,5.64,0,0,0,.7,2.9,6.49,6.49,0,0,0,1.9,2.05,12.32,12.32,0,0,0,2.75,1.45c1,.4,2.15.8,3.35,1.2l4.4,1.5a33,33,0,0,1,4.55,1.9,13.47,13.47,0,0,1,3.7,2.75,12.89,12.89,0,0,1,2.5,4,16.51,16.51,0,0,1-.55,12.4,14.9,14.9,0,0,1-4.25,5.2,20.57,20.57,0,0,1-6.65,3.35,29.16,29.16,0,0,1-8.6,1.2,48.11,48.11,0,0,1-8.4-.65,42.53,42.53,0,0,1-6.7-1.75,19.39,19.39,0,0,1,.85-4.05C165.88,70.48,166.36,69.13,166.9,67.8Z" transform="translate(-2 -2.8)"/><path d="M218,33.7h-8.3a28.2,28.2,0,0,1,.25-3.85A19,19,0,0,1,211,25.8h8.3l.5-2.9q1.69-10.09,6.65-15.1t14-5a25.54,25.54,0,0,1,4.5.35,30.44,30.44,0,0,1,3.5.85,37,37,0,0,1-1.25,4.35A33.57,33.57,0,0,1,245.5,12a22.83,22.83,0,0,0-2.3-.7,11.66,11.66,0,0,0-2.8-.3,12.19,12.19,0,0,0-3.8.55,7.57,7.57,0,0,0-3,1.9,11.44,11.44,0,0,0-2.35,3.7,26.45,26.45,0,0,0-1.6,6,9.19,9.19,0,0,0-.3,1.35,12.78,12.78,0,0,1-.3,1.35h12.3a29.51,29.51,0,0,1-.25,3.9,20.36,20.36,0,0,1-1.05,4H227.7L220,77.4a64.47,64.47,0,0,1-2.95,11.3,23.22,23.22,0,0,1-4.35,7.45,15.06,15.06,0,0,1-6,4.1,23.71,23.71,0,0,1-8.05,1.25,24.62,24.62,0,0,1-4.2-.35,17.31,17.31,0,0,1-3.5-1,29.41,29.41,0,0,1,1-4.15,20.46,20.46,0,0,1,1.6-3.65,12.52,12.52,0,0,0,2.25.65,12.67,12.67,0,0,0,2.55.25,13.46,13.46,0,0,0,4.15-.6,6.81,6.81,0,0,0,3.25-2.4,18.3,18.3,0,0,0,2.55-5,54,54,0,0,0,2.05-8.45Z" transform="translate(-2 -2.8)"/><path d="M256.5,78.3q-9.3,0-14-5.15T237.8,58.6a42.4,42.4,0,0,1,1.7-11.55,34.81,34.81,0,0,1,5.25-11,29.88,29.88,0,0,1,8.9-8.2A23.84,23.84,0,0,1,266.3,24.6q9.39,0,14.1,5.2t4.7,14.6A42.64,42.64,0,0,1,283.4,56a35.87,35.87,0,0,1-5.2,11,28.64,28.64,0,0,1-8.9,8.15A24.69,24.69,0,0,1,256.5,78.3Zm1-7.9a12.92,12.92,0,0,0,8.05-2.55A19.79,19.79,0,0,0,271,61.4,32.55,32.55,0,0,0,274.1,53a40.31,40.31,0,0,0,1-8.55q0-5.7-2.55-8.7a9,9,0,0,0-7.25-3,12.54,12.54,0,0,0-8,2.6,20.54,20.54,0,0,0-5.4,6.5,31.07,31.07,0,0,0-3.05,8.45,41,41,0,0,0-.95,8.45c0,3.8.81,6.7,2.45,8.7S254.36,70.4,257.5,70.4Z" transform="translate(-2 -2.8)"/><path d="M287.69,77.1q1.11-6.3,2.46-13.3t2.5-13.55q1.14-6.55,2-12a63.49,63.49,0,0,0,.8-8.65c0-.87,0-1.55,0-2.05s-.12-1.12-.25-1.85a17,17,0,0,1,2.4-.25c.86,0,1.66-.05,2.4-.05s1.41,0,2.25.05a14.58,14.58,0,0,1,2.25.25,12.28,12.28,0,0,1,.29,1.75,25.37,25.37,0,0,1,.11,2.65,35.06,35.06,0,0,1-.3,4.5,29.67,29.67,0,0,1,2.85-3.4,22.07,22.07,0,0,1,3.45-2.9,16.07,16.07,0,0,1,4.2-2.05,16.36,16.36,0,0,1,5.1-.75,16.07,16.07,0,0,1,1.75.1,8,8,0,0,1,1.55.3,25.65,25.65,0,0,1-.46,4.55,12.28,12.28,0,0,1-1.54,4.35,11.33,11.33,0,0,0-1.25-.2,14.54,14.54,0,0,0-12.5,4.7q-4.15,4.8-6,14.8l-4.09,23a29.12,29.12,0,0,1-4.1.3H291Z" transform="translate(-2 -2.8)"/><path d="M352.49,68.1a12.06,12.06,0,0,1,1.25,3.35,19.3,19.3,0,0,1,.45,4.45,29.48,29.48,0,0,1-6.7,1.8,44.51,44.51,0,0,1-6.89.6q-11,0-16.2-5.4t-5.21-15.1a38.2,38.2,0,0,1,2-11.95,33.22,33.22,0,0,1,5.79-10.7,29.58,29.58,0,0,1,9.41-7.65,27.17,27.17,0,0,1,12.75-2.9,32.07,32.07,0,0,1,6.3.6,36.6,36.6,0,0,1,5.2,1.4,17.56,17.56,0,0,1-.8,4.15,15.8,15.8,0,0,1-1.81,4,31.16,31.16,0,0,0-4.34-1.35,21.54,21.54,0,0,0-5-.55,16.34,16.34,0,0,0-8.5,2.15,19.44,19.44,0,0,0-6,5.6,24.58,24.58,0,0,0-3.54,7.75,32.69,32.69,0,0,0-1.16,8.5q0,6.8,3.36,10t9.25,3.25a29.41,29.41,0,0,0,5.14-.45A26.05,26.05,0,0,0,352.49,68.1Z" transform="translate(-2 -2.8)"/><path d="M369.9,56.7q.3,6.7,3.4,10.1t9.6,3.4a29.86,29.86,0,0,0,7.6-1,66.16,66.16,0,0,0,6.5-2,11,11,0,0,1,1.3,3.6,23,23,0,0,1,.4,4.2,23.71,23.71,0,0,1-3.65,1.3q-2.16.6-4.5,1c-1.57.3-3.15.53-4.75.7a41.86,41.86,0,0,1-4.4.25,28,28,0,0,1-9.95-1.55,17.21,17.21,0,0,1-6.6-4.3,16.45,16.45,0,0,1-3.7-6.5A27.59,27.59,0,0,1,360,57.8a36.68,36.68,0,0,1,2.05-12A34,34,0,0,1,368,35.1a30.56,30.56,0,0,1,9.2-7.6,24.68,24.68,0,0,1,12-2.9q6.6,0,10.45,3.25a10.78,10.78,0,0,1,3.85,8.65,13.59,13.59,0,0,1-2.15,7.65,18.42,18.42,0,0,1-5.95,5.55,37.78,37.78,0,0,1-8.95,3.8,84.73,84.73,0,0,1-11.25,2.4Zm6.3-8.4a57,57,0,0,0,8.45-2,23.38,23.38,0,0,0,5.35-2.5,8.45,8.45,0,0,0,2.8-2.85,6.94,6.94,0,0,0,.8-3.3,4.86,4.86,0,0,0-1.6-3.75,6.61,6.61,0,0,0-4.6-1.45,12.22,12.22,0,0,0-5.9,1.45,18.19,18.19,0,0,0-4.85,3.8,22.87,22.87,0,0,0-3.65,5.4,31.17,31.17,0,0,0-2.3,6.25Z" transform="translate(-2 -2.8)"/>
</svg>
