<svg
  data-logo="mozilla"
  role="img"
  xmlns="http://www.w3.org/2000/svg"
  width="520"
  height="167"
  viewBox="0 0 578.55 185.54"
>
<title  id="second-measurelogoID">Second Measure</title>
<path d="M500.4,206.6c-1.2,0-2.3,0.1-3.4,0.3L399.1,35.4c2.9-3.3,4.6-7.5,4.6-11.9c0-9.9-8-17.9-17.8-17.9c-9.9,0-17.9,8-17.9,17.8
	c0,4.8,1.9,9.4,5.4,12.8L267.1,253.6c-5.2-0.6-10.3,1-14.2,4.5l-94.4-51.8c0.2-1,0.3-2.1,0.3-3.2c0-9.9-8-17.9-17.8-17.9
	c-9.9,0-17.9,8-17.9,17.8c0,0.6,0,1.3,0.1,1.9L30.9,247c-3.4-3.6-8.1-5.7-13-5.7c-9.9,0-17.9,8-17.9,17.9C0,269,8,277,17.9,277
	c9.9,0,17.9-8,17.9-17.9c0-0.6,0-1.2-0.1-1.8l92.3-41.9c6.7,7.2,17.9,7.6,25.1,0.9l94.3,51.7c-1.8,9.7,4.6,19,14.3,20.8
	c9.7,1.8,19-4.6,20.8-14.3c1.1-5.9-0.8-12-5.2-16.2L383.5,41.2c1.9,0.3,3.9,0.2,5.8-0.2l97.9,171.6c-2.9,3.3-4.6,7.5-4.6,11.9
	c0,9.9,8,17.9,17.9,17.9c9.9,0,17.9-8,17.9-17.9S510.3,206.6,500.4,206.6"/>
<path d="M501.8,323c-0.8,0-1.7,0.1-2.5,0.2l-99.3-193c6.9-7,6.8-18.3-0.2-25.2s-18.3-6.8-25.2,0.2c-3.3,3.3-5.1,7.8-5.1,12.5
	c0,0.9,0.1,1.7,0.2,2.6l-92.2,46.9c-3.3-3.3-7.9-5.2-12.6-5.2c-5,0-9.5,2-12.7,5.3l-91.8-45.6c1.5-9.8-5.3-18.8-15-20.3
	c-9.8-1.5-18.8,5.3-20.3,15c-0.1,0.9-0.2,1.8-0.2,2.8c0,4.5,1.7,8.6,4.5,11.8L22.6,323.4c-9.7-1.8-19,4.7-20.8,14.4
	c-1.8,9.7,4.7,19,14.4,20.8c9.7,1.8,19-4.7,20.8-14.4c0.2-1.1,0.3-2.1,0.3-3.2c0-4.7-1.8-8.9-4.7-12.1l106.5-192.3
	c5.9,1.2,12-0.6,16.2-4.8l91.9,45.7c-1.4,9.8,5.5,18.8,15.2,20.1c9.8,1.4,18.8-5.5,20.1-15.2c0.1-0.9,0.2-1.7,0.2-2.6
	c0-0.9-0.1-1.7-0.2-2.5l92.2-46.9c3.3,3.3,7.8,5.2,12.5,5.2c0.9,0,1.8-0.1,2.6-0.2l99.2,193c-7,7-7,18.3,0,25.2c7,7,18.3,7,25.2,0
	c7-7,7-18.3,0-25.2C511,324.9,506.5,323,501.8,323"/>
</svg>
