<svg
  data-logo="slide-deck"
  xmlns="http://www.w3.org/2000/svg"
  aria-hidden="true"
  focusable="false"
  width="500"
  height="54.7px"
  viewBox="0 0 500 54.7"
>
  <path d="M30.91 44.39 24.58 54.7 0 38.92V27.99l24.59-15.58L31 22.57 14.42 33.24v.32l16.5 10.83ZM91.89 0 86.4 11.89H74.75c-1.55 0-2.77.34-3.66 1.02-.89.68-1.34 1.6-1.34 2.74 0 1.66 2 2.98 6.01 3.96.83.21 1.45.37 1.88.48 2.86.75 5.09 2.25 6.69 4.5 1.6 2.26 2.4 5.03 2.4 8.31 0 2.46-.52 4.91-1.56 7.35s-2.43 4.53-4.16 6.27c-1.63 1.55-3.32 2.84-5.07 3.86-1.75 1.03-3.84 1.94-6.27 2.74-1.04.32-2.66.57-4.85.74-2.19.17-4.81.26-7.85.26H33.34l5.41-11.89h17.86c2.62 0 4.66-.15 6.15-.44s2.69-.77 3.62-1.44c1.23-.88 2.18-1.9 2.84-3.06.67-1.16 1-2.33 1-3.5 0-1.87-1.52-3.28-4.56-4.24-.67-.21-1.2-.39-1.6-.52-3.36-1.17-5.76-2.67-7.19-4.48-1.43-1.82-2.14-4.28-2.14-7.41 0-5.02 1.55-9.13 4.64-12.33C62.47 1.61 66.47 0 71.38 0h20.5ZM124.37 0l-19.18 42.25h14.62l-5.45 11.89H84.13L108.71 0h15.66ZM160.6 0l-24.59 54.14h-15.66L144.95 0h15.66ZM205.57 9.37l-16.74 36.88c-1.34 2.99-3 5.05-5.01 6.19s-5.15 1.7-9.45 1.7h-28.59l15.5-34.04h15.5l-9.93 22.14h4.28c1.44 0 2.56-.25 3.36-.76s1.51-1.4 2.12-2.68l10.57-23.3a2.804 2.804 0 0 0 .32-1.28c0-.69-.27-1.25-.82-1.68-.55-.43-1.26-.64-2.14-.64h-19.58L170.37.01h28.39c2.4 0 4.3.53 5.69 1.6 1.39 1.07 2.08 2.51 2.08 4.32 0 .45-.08.97-.24 1.54-.16.57-.4 1.21-.72 1.9ZM195.16 54.14l15.5-34.04h29.43l-5.41 11.89h-13.77l-4.69 10.25h13.77l-5.41 11.89h-29.43ZM249.18 0l-5.41 11.89h-29.43L219.75 0h29.43ZM242.81 32.84l5.81-12.57h23.71l-5.73 12.57h-23.79ZM328.98 9.37l-16.74 36.88c-1.33 2.99-3 5.05-5.01 6.19s-5.15 1.7-9.45 1.7h-28.59l15.5-34.04h15.5l-9.93 22.14h4.28c1.44 0 2.56-.25 3.36-.76s1.51-1.4 2.12-2.68l10.57-23.3a2.804 2.804 0 0 0 .32-1.28c0-.69-.27-1.25-.82-1.68-.55-.43-1.26-.64-2.14-.64h-19.58L293.78.01h28.39c2.4 0 4.3.53 5.69 1.6 1.39 1.07 2.08 2.51 2.08 4.32 0 .45-.08.97-.24 1.54-.16.57-.4 1.21-.72 1.9ZM318.57 54.14l15.5-34.04h29.43l-5.41 11.89h-13.77l-4.69 10.25h13.77l-5.41 11.89h-29.43ZM372.59 0l-5.41 11.89h-29.43L343.16 0h29.43ZM401.3 42.25l-1.8 4c-1.33 3.02-2.96 5.09-4.89 6.21s-5.1 1.68-9.53 1.68h-16.34c-2.38 0-4.25-.53-5.63-1.58s-2.06-2.49-2.06-4.3c0-.53.07-1.09.22-1.66s.37-1.17.66-1.78L378.67 7.9c1.33-2.99 2.97-5.05 4.91-6.19 1.94-1.13 5.11-1.7 9.51-1.7h15.1c2.43 0 4.32.53 5.69 1.6 1.36 1.07 2.04 2.54 2.04 4.4 0 .45-.08.97-.24 1.54-.16.57-.39 1.18-.68 1.82l-1.12 2.52h-17.42c-1.36 0-2.5.29-3.4.86-.91.57-1.6 1.44-2.08 2.58l-2.04 4.77-8.45 18.54c-.11.21-.19.43-.24.64-.05.21-.08.44-.08.68 0 .67.26 1.21.78 1.64s1.22.64 2.1.64h18.26ZM418.72 20.1h17.54c2.32 0 4.42.71 6.31 2.12 1.88 1.42 3.53 3.52 4.95 6.33l12.61 25.59h-15.58l-8.13-17.54-.16-.36c-1.33-2.83-3.08-4.24-5.25-4.24h-1.96l-10.09 22.14H403.3l15.42-34.04Zm19.1-8.45 6.73-6.73c2.16-2.11 4.07-3.46 5.73-4.04 1.66-.59 3.76-.88 6.33-.88h11.13l-5.41 11.89h-39.84L427.9 0h15.66l-5.73 11.65ZM500 38.92 475.41 54.7l-6.29-10.43 16.5-10.71v-.32l-16.58-10.63 6.37-10.19L500 28v10.93Z"/>
</svg>
