<svg
  data-logo="slide-deck"
  xmlns="http://www.w3.org/2000/svg"
  aria-hidden="true"
  focusable="false"
  width="500"
  height="127px"
  viewBox="0 0 500 127"
>
  <path d="m76.97 0-7.21 15.64H54.44c-2.04 0-3.64.45-4.82 1.34-1.18.9-1.76 2.1-1.76 3.61 0 2.18 2.63 3.91 7.9 5.21 1.09.28 1.91.49 2.47.63 3.76.98 6.69 2.96 8.79 5.92 2.11 2.97 3.16 6.61 3.16 10.92 0 3.23-.68 6.45-2.05 9.66s-3.19 5.96-5.48 8.24c-2.14 2.04-4.36 3.73-6.66 5.08s-5.05 2.55-8.24 3.61c-1.37.42-3.49.75-6.37.97-2.88.23-6.32.34-10.32.34H0l7.11-15.64h23.48c3.44 0 6.13-.19 8.08-.58 1.95-.39 3.54-1.02 4.76-1.9 1.61-1.16 2.86-2.5 3.74-4.03.88-1.53 1.32-3.06 1.32-4.61 0-2.46-2-4.32-6-5.58-.88-.28-1.58-.51-2.11-.68-4.42-1.54-7.57-3.51-9.45-5.9-1.88-2.39-2.82-5.63-2.82-9.74 0-6.6 2.04-12 6.11-16.22 4.07-4.21 9.34-6.32 15.79-6.32h26.96ZM119.67 0 94.45 55.55h19.22l-7.16 15.64H66.76L99.09 0h20.59ZM167.32 0l-32.33 71.18H114.4L146.73 0h20.59ZM226.45 12.32l-22.01 48.49c-1.76 3.93-3.95 6.64-6.58 8.13-2.63 1.49-6.77 2.24-12.43 2.24h-37.59l20.38-44.75h20.38l-13.06 29.12h5.63c1.9 0 3.37-.33 4.42-1 1.05-.67 1.98-1.84 2.79-3.53l13.9-30.64c.14-.28.24-.56.32-.84.07-.28.11-.56.11-.84 0-.91-.36-1.65-1.08-2.21-.72-.56-1.66-.84-2.82-.84h-25.75L180.17.01h37.33c3.16 0 5.65.7 7.48 2.11 1.82 1.4 2.74 3.3 2.74 5.69 0 .6-.11 1.27-.32 2.03-.21.76-.53 1.59-.95 2.5ZM212.76 71.18l20.38-44.75h38.7l-7.11 15.64h-18.11l-6.16 13.48h18.11l-7.11 15.64h-38.7ZM283.78 0l-7.11 15.64h-38.7L245.08 0h38.7ZM317.57 67.87l-22.01 48.49c-1.75 3.93-3.95 6.64-6.58 8.13s-6.77 2.24-12.43 2.24h-37.59l20.37-44.75h20.38l-13.06 29.12h5.63c1.9 0 3.37-.33 4.42-1s1.98-1.84 2.79-3.53l13.9-30.64c.14-.28.25-.56.32-.84.07-.28.11-.56.11-.84 0-.91-.36-1.65-1.08-2.21-.72-.56-1.66-.84-2.82-.84h-25.75l7.11-15.64h37.33c3.16 0 5.65.7 7.48 2.11 1.83 1.4 2.74 3.3 2.74 5.69 0 .6-.11 1.27-.32 2.03-.21.76-.53 1.59-.95 2.5ZM303.88 126.74l20.38-44.75h38.7l-7.11 15.64h-18.11l-6.16 13.48h18.11l-7.11 15.64h-38.7Zm71.02-71.19-7.11 15.64h-38.7l7.11-15.64h38.7ZM412.65 111.1l-2.37 5.26c-1.75 3.97-3.9 6.69-6.42 8.16s-6.7 2.21-12.53 2.21h-21.48c-3.12 0-5.59-.69-7.4-2.08-1.81-1.39-2.71-3.27-2.71-5.66 0-.7.1-1.43.29-2.18.19-.75.48-1.54.87-2.34l22.01-48.54c1.75-3.93 3.9-6.64 6.45-8.13 2.54-1.49 6.71-2.24 12.5-2.24h19.85c3.19 0 5.69.7 7.48 2.11 1.79 1.4 2.69 3.34 2.69 5.79 0 .6-.11 1.27-.32 2.03-.21.76-.51 1.55-.9 2.4l-1.47 3.32h-22.9c-1.79 0-3.28.38-4.48 1.13-1.19.76-2.11 1.89-2.74 3.4l-2.69 6.27-11.11 24.38a3.698 3.698 0 0 0-.43 1.74c0 .88.34 1.6 1.03 2.16s1.61.84 2.76.84h24.01ZM435.56 81.98h23.06c3.05 0 5.82.93 8.29 2.79 2.47 1.86 4.64 4.63 6.5 8.32l16.58 33.64h-20.48l-10.69-23.06-.21-.47c-1.75-3.72-4.05-5.58-6.9-5.58h-2.58l-13.27 29.12h-20.59l20.27-44.75Zm25.11-11.11 8.85-8.85c2.84-2.77 5.35-4.55 7.53-5.32 2.18-.77 4.95-1.16 8.32-1.16h14.64l-7.11 15.64h-52.39l7.11-15.64h20.59l-7.53 15.32Z"/>
</svg>
