<svg
  data-logo="tegy"
  aria-labelledby="tegylogoID"
  role="img"
  xmlns="http://www.w3.org/2000/svg"
  width="520"
  height="267"
  viewBox="0 0 517.67 268.46"
>
  <title id="tegylogoID">Tegy</title>
  <path d="M193.7,109.36H147.93a2.54,2.54,0,0,1-1.86-.81,2.59,2.59,0,0,1-.66-1.92c2-25.85,9.85-36.87,26.14-36.87,24.13,0,24.54,26.54,24.68,35.26v1.81A2.53,2.53,0,0,1,193.7,109.36Zm-43-5.06h40.47c-.46-20.37-6.53-29.49-19.61-29.49C160.8,74.81,153.11,79.92,150.69,104.3Z" transform="translate(-1.3 -1.54)"/><path d="M90.35,167.53c-14.44,0-16.11-12.56-16.11-22V79.67a2.53,2.53,0,0,1,2.53-2.53h26.86a2.52,2.52,0,0,1,2.29,3.59c-5.63,12.19-8.61,26.83-8.61,42.34,0,14.46,2.39,27.45,7.1,38.61a2.53,2.53,0,0,1-1.36,3.32A32.75,32.75,0,0,1,90.35,167.53Zm-11-85.34v63.33c0,15.65,5.7,17,11,17a27.67,27.67,0,0,0,8.41-1.29c-4.32-11.22-6.51-24-6.51-38.12a109,109,0,0,1,7.52-40.88Z" transform="translate(-1.3 -1.54)"/><path d="M364.42,77.6a2.51,2.51,0,0,1-1.95-.92c-4.5-5.45-11.33-10-20.89-13.87A2.52,2.52,0,0,1,340,60a2.55,2.55,0,0,1,2.49-2.05c6.17,0,12-.23,17.19-.69a2.53,2.53,0,0,1,2.65,1.81l4.47,15.3a2.54,2.54,0,0,1-1.24,3A2.6,2.6,0,0,1,364.42,77.6ZM353.15,62.76a55.72,55.72,0,0,1,6.22,4.07l-1.28-4.37C356.49,62.58,354.84,62.68,353.15,62.76Z" transform="translate(-1.3 -1.54)"/><path d="M302.66,122.35c-14.71,0-23.49-10-23.49-26.74,0-15.77,8.89-25.56,23.2-25.56,15.81,0,23.49,8.17,23.49,25C325.86,117.61,313.24,122.35,302.66,122.35Zm-.29-47.24c-11.36,0-18.15,7.66-18.15,20.5,0,14,6.55,21.69,18.44,21.69,12.21,0,18.14-7.29,18.14-22.28C320.8,81.06,315.29,75.11,302.37,75.11Z" transform="translate(-1.3 -1.54)"/><path d="M382.07,231.72a2.53,2.53,0,0,1-2.4-3.33A45,45,0,0,0,381.93,214c0-26-23.91-43.53-59.48-43.53h-23c-8.18,0-19.06-1.15-19.06-11.1,0-3.67,2-7.13,5.55-9.48a2.53,2.53,0,0,1,1.93-.37,79,79,0,0,0,16.9,1.42c38.08,0,64.34-19.3,65.34-48a2.53,2.53,0,0,1,4.95-.62l28.16,96.19H419.3a2.53,2.53,0,0,1,2.31,3.54c-7.64,17.47-18.23,25.5-39.05,29.63A2.09,2.09,0,0,1,382.07,231.72Zm-94.16-77a6.22,6.22,0,0,0-2.51,4.68c0,1.81,0,6,14,6h23C361.05,165.43,387,185,387,214a51.24,51.24,0,0,1-1.34,11.8c15.08-3.65,23.42-9.9,29.67-22.26h-14a2.52,2.52,0,0,1-2.42-1.82l-25.47-87C366.56,139.85,340.48,156,304.73,156A88.07,88.07,0,0,1,287.91,154.71Z" transform="translate(-1.3 -1.54)"/><path d="M374.41,270a2.54,2.54,0,0,1-2.5-2.14l-2.55-16.55c-14.91,12.05-38.84,18.39-69.65,18.39-56,0-79.9-16.12-79.9-53.9a2.53,2.53,0,0,1,2.53-2.53h47a2.53,2.53,0,0,1,2.53,2.53c0,10.12,2.9,14.89,29.37,14.89,27.88,0,27.88-9,27.88-12.83,0-9.62-10.62-11.05-17-11.05H289.67c-31.42,0-44.54-10.09-49.86-19.92a100,100,0,0,1-63.24,22c-20.39,0-37.55-4.59-51.13-13.66a3.2,3.2,0,0,1-.27.22c-14.21,9.91-33.25,13.44-46.33,13.44-37.93,0-57.16-21.11-57.16-62.76V82.19H3.83A2.53,2.53,0,0,1,1.3,79.67v-36a2.53,2.53,0,0,1,2.53-2.53H21.68V10.27a2.53,2.53,0,0,1,2.23-2.51l52.56-6.2A2.53,2.53,0,0,1,79.3,4.07v37h33.2A2.54,2.54,0,0,1,115,44l-2.5,16.93c13.9-16.49,33.81-25.14,58.17-25.14,28,0,50.41,11.1,63.6,31.38,11.39-20,35.36-31.38,66.62-31.38C335,37,356,25.55,374.54,13.75a2.53,2.53,0,0,1,3.77,1.38l8.12,26H411a2.53,2.53,0,0,1,2.48,2l21.61,112.57L459.94,43.1a2.53,2.53,0,0,1,2.47-2h54a2.53,2.53,0,0,1,2.41,3.28l-49,157.39c-13.36,43.83-44.55,66.15-95.33,68.22Zm-3.26-26.18a2.73,2.73,0,0,1,.8.13,2.54,2.54,0,0,1,1.7,2l2.91,18.88c47-2.53,76-23.66,88.45-64.55L513,46.17H464.44l-27,122.63a2.53,2.53,0,0,1-2.47,2h0a2.52,2.52,0,0,1-2.45-2.05L408.94,46.17H384.57a2.51,2.51,0,0,1-2.41-1.78l-7.7-24.62C356.58,30.92,334.5,42,300.8,40.85c-31.2,0-54.57,11.87-64.05,32.57a2.53,2.53,0,0,1-4.5.18c-12-21.42-33.31-32.75-61.58-32.75-26.39,0-47.15,10.79-60,31.2A2.53,2.53,0,0,1,106,70.33l3.56-24.16H76.77a2.53,2.53,0,0,1-2.53-2.53V6.92l-47.5,5.6V43.64a2.53,2.53,0,0,1-2.53,2.53H6.36v31H24.21a2.53,2.53,0,0,1,2.53,2.53v66.44c0,38.83,17,57.71,52.1,57.71,11.74,0,28.55-3,41.57-11.3l-1.19-2.24a2.53,2.53,0,0,1,3.85-3.14c13.4,11.07,31.41,16.68,53.5,16.68A94.91,94.91,0,0,0,236,183.45l-18.38-25c-13.49,9-24.37,12.94-36,12.94-10.81,0-18.45-2.13-24-6.7-6.48-5.3-10.35-14.08-11.84-26.83a2.56,2.56,0,0,1,.63-2,2.52,2.52,0,0,1,1.89-.85h93.88c0-.69.09-1.4.13-2.13a2.53,2.53,0,0,1,4.2-1.73A68.53,68.53,0,0,0,259.56,140a2.52,2.52,0,0,1,1.34,2.18,2.56,2.56,0,0,1-1.25,2.23C248.57,151,241.41,162.18,241.41,173c0,18.28,17.59,28.77,48.26,28.77h22.44c7.23,0,12.83,1.54,16.64,4.58a14.21,14.21,0,0,1,5.38,11.53c0,12.2-10.47,17.89-32.94,17.89-24.87,0-33.44-4.14-34.34-17.43H224.91c.46,15,5.07,25.43,14.41,32.69,11.82,9.18,31.57,13.64,60.39,13.64,32.05,0,56.14-7,69.68-20.11A2.51,2.51,0,0,1,371.15,243.82ZM218.21,152.44a2.54,2.54,0,0,1,2,1l16.21,22.06c-.08-.92-.11-1.77-.11-2.55,0-11.32,6.62-22.93,17.16-30.55a76,76,0,0,1-6.55-4.35,2.52,2.52,0,0,1-2.47,2H151.12c3.33,21.77,14.19,26.25,30.47,26.25,11.13,0,21.65-4,35.18-13.43A2.48,2.48,0,0,1,218.21,152.44Zm163.86,79.28a2.53,2.53,0,0,1-2.4-3.33A45,45,0,0,0,381.93,214c0-26-23.91-43.53-59.48-43.53h-23c-8.18,0-19.06-1.15-19.06-11.1,0-3.67,2-7.13,5.55-9.48a2.53,2.53,0,0,1,1.93-.37,79,79,0,0,0,16.9,1.42c38.08,0,64.34-19.3,65.34-48a2.53,2.53,0,0,1,4.95-.62l28.16,96.19H419.3a2.53,2.53,0,0,1,2.31,3.54c-7.64,17.47-18.23,25.5-39.05,29.63A2.09,2.09,0,0,1,382.07,231.72Zm-94.16-77a6.22,6.22,0,0,0-2.51,4.68c0,1.81,0,6,14,6h23C361.05,165.43,387,185,387,214a51.24,51.24,0,0,1-1.34,11.8c15.08-3.65,23.42-9.9,29.67-22.26h-14a2.52,2.52,0,0,1-2.42-1.82l-25.47-87C366.56,139.85,340.48,156,304.73,156A88.07,88.07,0,0,1,287.91,154.71ZM90.35,167.53c-14.44,0-16.11-12.56-16.11-22V79.67a2.53,2.53,0,0,1,2.53-2.53h26.86a2.52,2.52,0,0,1,2.29,3.59c-5.63,12.19-8.61,26.83-8.61,42.34,0,14.46,2.39,27.45,7.1,38.61a2.53,2.53,0,0,1-1.36,3.32A32.75,32.75,0,0,1,90.35,167.53Zm-11-85.34v63.33c0,8.2.85,17,11,17a27.67,27.67,0,0,0,8.41-1.29c-4.32-11.22-6.51-24-6.51-38.12a109,109,0,0,1,7.52-40.88Zm223.36,40.16c-14.71,0-23.49-10-23.49-26.74,0-15.77,8.89-25.56,23.2-25.56,15.81,0,23.49,8.17,23.49,25C325.86,117.61,313.24,122.35,302.66,122.35Zm-.29-47.24c-11.36,0-18.15,7.66-18.15,20.5,0,14,6.55,21.69,18.44,21.69,12.21,0,18.14-7.29,18.14-22.28C320.8,81.06,315.29,75.11,302.37,75.11ZM193.7,109.36H147.93a2.54,2.54,0,0,1-1.86-.81,2.59,2.59,0,0,1-.66-1.92c2-25.85,9.85-36.87,26.14-36.87,24.13,0,24.54,26.54,24.68,35.26v1.81A2.53,2.53,0,0,1,193.7,109.36Zm-43-5.06h40.47c-.46-20.37-6.53-29.49-19.61-29.49C160.8,74.81,153.11,79.92,150.69,104.3ZM364.42,77.6a2.51,2.51,0,0,1-1.95-.92c-4.5-5.45-11.33-10-20.89-13.87A2.52,2.52,0,0,1,340,60a2.55,2.55,0,0,1,2.49-2.05c6.17,0,12-.23,17.19-.69a2.53,2.53,0,0,1,2.65,1.81l4.47,15.3a2.54,2.54,0,0,1-1.24,3A2.6,2.6,0,0,1,364.42,77.6ZM353.15,62.76a55.72,55.72,0,0,1,6.22,4.07l-1.28-4.37C356.49,62.58,354.84,62.68,353.15,62.76Z" transform="translate(-1.3 -1.54)"/>
</svg>
