<svg
  data-logo="tegy"
  aria-labelledby="tegylogoID"
  role="img"
  xmlns="http://www.w3.org/2000/svg"
  width="520"
  height="267"
  viewBox="0 0 194.97 100"
>
  <title id="tegylogoID">Tegy Time</title>
  <path d="M111.74,85.89c-4.45,0-7.1-2.6-7.1-7.5V62.49H100V58.94h4.6V53l4.6-.55v6.5h6.25l-.5,3.55h-5.75v15.7c0,2.65.85,3.9,3.15,3.9a6.44,6.44,0,0,0,3.5-1.15l1.75,3.15A10,10,0,0,1,111.74,85.89Z" transform="translate(-0.51 -1)"/><path d="M126.64,49.44a3.23,3.23,0,1,1-3.25-3.15A3.06,3.06,0,0,1,126.64,49.44Zm-5.5,35.85V58.94h4.6V85.29Z" transform="translate(-0.51 -1)"/><path d="M167.59,66.39v18.9H163V67c0-4-1.7-5.1-3.7-5.1-2.85,0-4.4,1.85-6.2,4.65v18.7h-4.6V67c0-4-1.7-5.1-3.7-5.1-2.85,0-4.45,1.85-6.2,4.65v18.7H134V58.94h3.95l.4,3.85c1.75-2.65,4.15-4.45,7.6-4.45a6.64,6.64,0,0,1,6.65,4.75c1.9-2.85,4.3-4.75,7.85-4.75C164.74,58.34,167.59,61.44,167.59,66.39Z" transform="translate(-0.51 -1)"/><path d="M195.39,73.69h-16.8c.45,6.1,3.3,8.45,7.1,8.45a11.09,11.09,0,0,0,6.85-2.3l2,2.75a14.36,14.36,0,0,1-9.2,3.3c-7.35,0-11.65-5.15-11.65-13.5s4.15-14,10.95-14c7.1,0,10.85,4.95,10.85,13C195.49,72.24,195.44,73.09,195.39,73.69ZM190.94,70c0-5.15-2.05-8-6.2-8-3.5,0-5.8,2.45-6.15,8.3h12.35Z" transform="translate(-0.51 -1)"/><path d="M61.77,68.58c2.75,0,4.18-1.68,4.18-5C66,60.39,64.58,59,61.71,59c-2.51,0-4.18,1.68-4.18,4.67,0,3.28,1.73,4.9,4.24,4.9Z" transform="translate(-0.51 -1)"/><path d="M3.66,53.73V47L14.3,45.72v8h7.23l-.81,5.5c2.46-4.32,6.8-7.15,13-7.15,6.58,0,11.44,3,13.7,8.52,1.49-5.43,6.75-8.52,14-8.52,6.88.23,11.24-2,15.18-4.55l1.76,5.62h5.72l4.84,25.22,5.55-25.22h6.05V1H.51V53.73Z" transform="translate(-0.51 -1)"/><path d="M74.89,60.4l-1.18-4a38,38,0,0,1-3.87.17,9.72,9.72,0,0,1,5,3.84ZM85.73,85H82.09l-6.2-21.16c0,.31,0,.63,0,.95,0,6.1-5.26,10.59-13.75,10.59a15.89,15.89,0,0,1-3.53-.31,1.85,1.85,0,0,0-.9,1.5c0,.78.36,1.73,3.35,1.73h4.67c7.71,0,12.55,3.89,12.55,9.33a9.44,9.44,0,0,1-.51,3.14c4.5-.82,6.48-2.47,7.92-5.77Z" transform="translate(-0.51 -1)"/><path d="M95.48,85c-2.57,8.42-8.54,13-18.83,13.45l-.71-4.59c-2.7,2.88-7.67,4.53-14.77,4.53-12.55,0-15.66-4.18-15.66-10.4H55c0,2.57,1.07,3.53,6.45,3.53,5.15,0,6.16-1.5,6.16-3.11s-1.08-2.75-3.95-2.75H59.13c-7.35,0-10.27-2.87-10.27-6.34a7.55,7.55,0,0,1,3.94-6.21,12.12,12.12,0,0,1-4-3.26c0,.79-.11,1.63-.15,2.31H29.12c.6,5.14,3.05,6.34,6.76,6.34,2.45,0,4.66-.9,7.4-2.81l4.3,5.86A19.77,19.77,0,0,1,34.86,86.1c-5.6,0-9.75-1.76-12.49-4.75l1.43,2.7a16.68,16.68,0,0,1-9.08,2.62c-7.53,0-11.06-4.24-11.06-12.19V61H.51v40h100V68.84Z" transform="translate(-0.51 -1)"/><path d="M14.3,61V74.34c0,3,1,4,2.75,4a6.17,6.17,0,0,0,2.88-.71,20.36,20.36,0,0,1-1.62-8.35A21.14,21.14,0,0,1,19.85,61Zm14.77,4.92h9.26v-.36C38.27,61.76,37.26,59,33.85,59c-2.81,0-4.37,1.67-4.78,7Z" transform="translate(-0.51 -1)"/>
</svg>
