<svg
  data-icon="winging-it-mark"
  xmlns="http://www.w3.org/2000/svg"
  aria-hidden="true"
  focusable="false"
  viewBox="0 0 431.3 569.01"
  width="300px"
  height="375px"
>
  <path data-name="winging-it-mark" d="m429.43,111.29c-1.79-1.03-4.82-.87-7.88-.21-.91-32.75-.63-65.39,1.16-98.11.42-.27.84-.54,1.26-.81,3.91-2.55,2.73-4.49-.91-5.29.08-1.37.15-2.74.24-4.11.31-4.87-11.57-2.59-11.84,1.45-.09,1.44-.16,2.88-.25,4.32-2.05.79-3.94,1.74-5.42,2.71-100.03,65.31-208.39,116.82-311.58,176.74-20.63,11.98-41.18,24.43-62.2,35.9-1.51-4.05-11.69-1.85-11.7,2.33,0,1.31-.01,2.62-.02,3.92-5.19,2.7-10.4,5.33-15.66,7.86-3.13,1.5-6.96,4.03-2.84,6.36,3.91,2.21,13.03-1.27,16.55-2.97.64-.31,1.27-.63,1.91-.94-.17,30.77-.42,61.54.25,92.31,0,.32.06.62.14.89-.59.26-1.17.53-1.75.79-3.31,1.45-6.83,4.31-2.76,6.66,2.75,1.59,7.6.47,11.62-.92l393.79,228.83v-120.59l-292.99-162.42c3.02-1.81,6.04-3.62,9.07-5.42,28.32-16.9,57.4-31.64,86.51-47.02,42.55-22.47,83.88-47.43,125.55-71.45,20.81-12,41.62-24.01,62.49-35.91,3.44.61,9.82-1.57,9.7-4.97,0-.18,0-.35-.02-.53,1.61-.91,3.22-1.83,4.83-2.75,3.05-1.73,7.03-4.19,2.76-6.66Zm-19.66,4.64c-1.73.98-3.46,1.97-5.19,2.95.81-.61,1.35-1.32,1.46-2.09,3.62-25.39.63-51.29,3.73-76.71-.79,25.27-.74,50.52,0,75.85Zm.76-95.18c-.25,5.03-.46,10.06-.63,15.09-1.93-2.64-13.31-.21-13.81,3.34-2.56,17.96-1.84,36.17-2.27,54.29-7.31-15.76-12.99-32.51-18.79-48.5-.28-.77-1.05-1.23-2.1-1.45,12.64-7.41,25.21-14.96,37.61-22.77Zm-49.19,63.16c-1.85-4.61-3.45-9.3-5.1-14.02-2.06-5.91-2.52-10.37-9.64-9.64-1.25.13-3.43.63-5.24,1.5,6.46-3.69,12.91-7.4,19.35-11.12-.78,11.09-.27,22.19.62,33.29Zm-21.26-21.43c-.83.57-1.47,1.24-1.69,2.03-1.31,4.61-.67,10.41-.74,15.14-.12,8.34-.12,16.68-.23,25.02-2.25-9.03-4.5-18.06-6.75-27.09-.96-3.84-13.58-.26-14.13,3-3.81,22.39-9.1,44.43-15.82,66.07-4.79-16.25-8.9-32.74-12.02-49.34-.49-2.61-6.2-1.81-10.22-.07,18.42-10.27,36.8-20.61,55.11-31.06,2.16-1.24,4.33-2.47,6.49-3.71Zm-70.09,133.74c-18.46,10.58-36.9,21.24-55.61,31.37-24.64,13.35-49.89,25.24-74.15,39.39-35.7,20.83-70.6,43.36-107.91,61.25-.61-31.24-.33-62.48-.17-93.72,40.85-20.87,79.71-45.79,118.75-67.12,41.73-22.79,83.46-45.57,125-68.71-.72.54-1.21,1.1-1.34,1.64-5.24,21.73-10.48,43.47-15.72,65.2-2.47-11.67-4.28-23.52-6.27-35.2-.72-4.23-13.05.28-14.14,3-6.9,17.35-11.64,35.37-16.55,53.34-3.59-15.1-7.18-30.2-10.77-45.29-.96-4.03-13.26-.04-14.14,3-6.48,22.66-12.97,45.31-19.45,67.97-2.05-7.96-3.68-16.04-4.84-24.25-.54-3.77-13.57-.25-14.14,3-2,11.56-3.99,23.12-5.99,34.68-.83-2.53-1.66-5.07-2.49-7.6-2.45-7.47-4.9-14.94-7.35-22.41-.98-2.98-1.53-7.63-3.9-9.92-4.76-4.61-15.62-.88-18.72,4.24-1.5,2.48-2.06,6.01-2.94,8.74-4.82,15.01-9.64,30.01-14.46,45.02-.31.98-.63,1.96-.94,2.93-1.2-10.19-2.4-20.38-3.59-30.57-.48-4.09-13.13.18-14.14,3-5.54,15.56-10.01,31.4-13.65,47.44-3.5-13.21-7.22-26.37-11.31-39.43-1.17-3.72-13.8-.37-14.14,3-2.83,28.71-3.87,57.51-3.05,86.35.09,3.25,14.32.82,14.19-3.8-.4-14.11-.36-28.21.13-42.29,2.74,10.33,5.37,20.69,7.75,31.11.87,3.8,13.67.28,14.13-3,2.24-15.98,5.5-31.73,9.56-47.28,1.15,9.76,2.3,19.53,3.44,29.29.47,4.01,13.2-.08,14.14-3,4.78-14.88,9.56-29.77,14.34-44.65,3.25-10.11,6.49-20.22,9.74-30.32.03-.11.07-.22.11-.33,2.36,7.2,4.73,14.41,7.09,21.61,3.59,10.96,7.19,21.91,10.78,32.87,1.25,3.8,13.56.32,14.14-3,1.59-9.19,3.17-18.38,4.76-27.57,1.25,4.05,2.6,8.08,4.09,12.07,1.46,3.93,13.21.21,14.13-3,6.18-21.59,12.36-43.18,18.54-64.77,3.57,15,7.14,30,10.7,44.99.97,4.1,13.17-.04,14.14-3,5.61-17.31,9.89-35.03,15-52.48,2.18,11.95,4.8,23.81,9.05,35.14,1.44,3.85,13.34.29,14.14-3,5-20.72,9.99-41.44,14.99-62.16,3.46,13.73,7.43,27.34,11.91,40.7,1.38,4.11,13.04,0,14.14-3,6.76-18.6,12.29-37.54,16.85-56.73,3.12,12.5,6.23,25.01,9.35,37.51,1.13,4.55,12.76-.6,14.13-3,5.89-10.3,3.98-27.93,4.2-39.27.05-2.67.05-5.34.08-8.01,2.9,6.7,5.63,13.49,8.19,20.32,1.7,4.53,4.57,10.02,4.74,14.95.12,3.35,14.13.71,14.19-3.8.18-13.3-1.24-26.64-2.5-39.97,4.47,10.51,9.5,20.73,15.65,30.1,1.39,2.12,7.05,1.79,10.78.16-44.35,25.21-88.42,50.9-132.68,76.27Z"/>
</svg>
