<?xml version="1.0" standalone="no"?>
<!DOCTYPE svg PUBLIC "-//W3C//DTD SVG 20010904//EN"
 "http://www.w3.org/TR/2001/REC-SVG-20010904/DTD/svg10.dtd">
<svg version="1.0" xmlns="http://www.w3.org/2000/svg"
 width="512.000000pt" height="512.000000pt" viewBox="0 0 512.000000 512.000000"
 preserveAspectRatio="xMidYMid meet">
<metadata>
Created by potrace 1.14, written by Peter Selinger 2001-2017
</metadata>
<g transform="translate(0.000000,512.000000) scale(0.100000,-0.100000)"
fill="#ff8b3d" stroke="none">
<path d="M34.96,217.47c1.05,3.67,16.78-20.45,33.04-12.06,11.54,5.24,18.36,29.37,22.55,27.27,11.54-7.34,19.4-16.26,27.8-23.08-3.15,27.27-1.05,56.12,6.82,84.96.52,1.57,1.05,3.67,1.05,4.72,6.82-51.4,35.14-93.35,67.13-102.27,44.58-12.59,115.9,33.56,137.41,109.09,15.73,56.12,4.72,111.71-24.12,142.13,3.67-.52,6.82-1.05,10.49-2.1,75.52-21.5,113.28-123.77,83.91-228.14-.52-2.1-1.05-4.2-1.57-5.77,18.36,9.96,27.27,26.22,27.8,23.6,6.82-32.52,45.63-33.04,70.8-9.96,2.1,2.1,3.67-24.65,13.11-28.32.28-.1.56-.19.84-.28v-87.64c-24.04-8.37-50.39-14.63-66.39-9.1-19.4,6.29-41.96,54.54-57.17,68.18-1.57,1.05-3.67,3.15-5.77,4.72-40.91-77.62-120.1-121.15-173.07-106.99-35.66,9.96-68.7,51.4-83.91,104.37-26.22-15.73-39.33-41.43-62.41-65.03-17.83-18.36-41.96-11.01-62.93-1.05-.11.05-.23.11-.35.16v82.77c16.06-.72,31.79,13.96,34.96,29.83Z"/>
</g>
</svg>
