<svg
  data-icon="twitter-circle"
  version="1.1"
  xmlns="http://www.w3.org/2000/svg"
  aria-hidden="true"
  focusable="false"
  width="20px"
  height="20px"
  viewBox="0 0 20 20"
>
  <path d="M10 0C4.5 0 0 4.5 0 10c0 2.8 1.2 5.3 3 7.2 1.3-.1 2.6-.6 3.6-1.3-1.4 0-2.6-1-3-2.2.2 0 .4.1.6.1.3 0 .6 0 .8-.1-1.5-.3-2.6-1.6-2.6-3.1.4.2.9.4 1.5.4-.9-.8-1.4-1.8-1.4-2.9 0-.6.2-1.1.4-1.6 1.6 1.9 3.9 3.2 6.6 3.4 0-.3-.1-.6-.1-.8 0-1.8 1.4-3.2 3.2-3.2.9 0 1.8.4 2.3 1 .7-.1 1.4-.4 2-.8-.2.7-.7 1.4-1.4 1.8.6-.1 1.3-.2 1.8-.5-.3.6-.8 1.2-1.4 1.6v.4c0 4.2-3.2 9.1-9.1 9.1-.8 0-1.6-.1-2.4-.3C6 19.4 7.9 20 10 20c5.5 0 10-4.5 10-10S15.5 0 10 0z"/>
</svg>
