<svg
  data-icon="private-eye"
  xmlns="http://www.w3.org/2000/svg"
  aria-hidden="true"
  focusable="false"
  width="20px"
  height="20px"
  viewBox="0 0 33 22"
>
  <path d="M32.3868 10.8113C32.311 10.7257 30.4797 8.70562 27.6173 6.6613C26.6492 5.96911 25.6778 5.3592 24.7114 4.83158L27.4947 2.26288C27.8222 1.96115 27.8432 1.44967 27.5398 1.12212C27.2365 0.794582 26.7266 0.773607 26.3991 1.07695L23.1672 4.06033C22.9671 3.96997 22.7671 3.88284 22.567 3.79894C20.4614 2.92119 18.4058 2.47586 16.4583 2.47586C14.5107 2.47586 12.4551 2.92119 10.3495 3.79894C8.68759 4.49113 6.98857 5.4544 5.29922 6.65969C2.43686 8.70401 0.605521 10.7257 0.529687 10.8096C0.253776 11.1162 0.253776 11.5825 0.529687 11.8891C0.605521 11.9746 2.43686 13.9947 5.29922 16.039C6.26733 16.7312 7.23866 17.3411 8.20515 17.8687L5.42185 20.4374C5.09431 20.7392 5.07333 21.2507 5.37667 21.5782C5.53641 21.7508 5.75262 21.838 5.97044 21.838C6.16568 21.838 6.36252 21.767 6.51742 21.6234L9.74928 18.64C9.94936 18.7304 10.1494 18.8175 10.3495 18.9014C12.4551 19.7791 14.5107 20.2245 16.4583 20.2245C18.4058 20.2245 20.4614 19.7791 22.567 18.9014C24.2289 18.2092 25.9279 17.2459 27.6173 16.0406C30.4797 13.9963 32.311 11.9746 32.3868 11.8907C32.6627 11.5841 32.6627 11.1178 32.3868 10.8113ZM22.9123 9.73665C22.9123 13.2961 20.0177 16.1907 16.4583 16.1907C15.311 16.1907 14.2348 15.889 13.3006 15.363L22.3234 7.03402C22.7074 7.86821 22.9139 8.78629 22.9139 9.73504L22.9123 9.73665ZM20.6114 4.79609C20.9196 5.05586 21.1987 5.33984 21.4505 5.64318L11.984 14.3819C10.7642 13.2073 10.0042 11.5583 10.0042 9.73504C10.0042 7.81819 10.8416 6.02719 12.3051 4.79447C13.6314 4.36205 15.0335 4.08776 16.4583 4.08776C17.883 4.08776 19.2851 4.36205 20.6114 4.79447V4.79609ZM6.26571 14.7482C4.39888 13.4187 2.97093 12.073 2.24969 11.3502C2.97093 10.6273 4.39888 9.28326 6.26571 7.95211C7.12087 7.3422 8.13093 6.69357 9.25071 6.10464C8.69082 7.21474 8.39071 8.4523 8.39071 9.73665C8.39071 11.981 9.31202 14.0141 10.7964 15.4775L9.4653 16.707C8.26001 16.089 7.17573 15.3952 6.26571 14.7482ZM26.6508 14.7482C24.1773 16.5102 20.4017 18.611 16.4583 18.611C14.5769 18.611 12.7327 18.1317 11.0498 17.4395L12.0663 16.5005C13.3313 17.3234 14.8383 17.8042 16.4566 17.8042C20.9051 17.8042 24.5242 14.1851 24.5242 9.73665C24.5242 8.4523 24.2241 7.21474 23.6642 6.10464C24.784 6.69357 25.794 7.34382 26.6492 7.95211C28.516 9.28164 29.944 10.6273 30.6652 11.3502C29.944 12.073 28.5176 13.4171 26.6508 14.7482Z"/>
</svg>
