<svg
  data-icon="mail-open"
  xmlns="http://www.w3.org/2000/svg"
  aria-hidden="true"
  focusable="false"
  width="20px"
  height="20px"
  viewBox="0 0 32 28"
>
  <path d="M29.6426 7.80478L17.8423 0.593192C17.3504 0.292237 16.7097 0.127197 16.0398 0.127197C15.3699 0.127197 14.7292 0.292237 14.2373 0.593192L2.43697 7.80478C1.42893 8.42125 0.668457 9.77554 0.668457 10.9567V25.519C0.668457 26.8571 1.75739 27.9461 3.09551 27.9461H28.9841C30.3222 27.9461 31.4111 26.8571 31.4111 25.519V10.9567C31.4111 9.77554 30.6507 8.42125 29.6426 7.80478ZM3.27997 9.18496L15.0803 1.97338C15.3182 1.82775 15.6676 1.74361 16.0398 1.74361C16.4119 1.74361 16.7598 1.82775 16.9993 1.97338L28.7996 9.18496C29.0504 9.33867 29.2915 9.61536 29.4727 9.92764L16.9378 18.2848C16.4686 18.5971 15.6126 18.5971 15.1434 18.2848L2.60848 9.92764C2.7897 9.61374 3.03079 9.33706 3.28158 9.18496H3.27997ZM28.9841 26.3281H3.09551C2.64893 26.3281 2.28649 25.9656 2.28649 25.519V11.6589L14.2454 19.631C14.7486 19.9659 15.3942 20.1342 16.0398 20.1342C16.6854 20.1342 17.331 19.9659 17.8342 19.631L29.7931 11.6589V25.519C29.7931 25.9656 29.4307 26.3281 28.9841 26.3281Z"/>
</svg>
