<svg
  data-icon="quote"
  aria-labelledby="quoteiconID"
  role="img"
  xmlns="http://www.w3.org/2000/svg"
  width="20px"
  height="20px"
  viewBox="0 0 98 98"
>
  <title id="quoteiconID">quote</title>
  <path d="M90.46,22.37C78.38,31.05,73.22,39.87,73.22,47c0,7.75,5.42,11.81,14.32,12.59,0,8.32-5.22,13.94-13.94,13.94-9.68,0-15.29-7.17-15.29-18.2C58.31,42,67.13,28,85.31,16a49,49,0,1,0,5.15,6.33ZM43.59,59.63c0,8.32-5.22,13.94-13.94,13.94-9.68,0-15.29-7.17-15.29-18.2,0-13.75,9.1-28.08,28.46-40.28l4.65,6.59c-12.78,8.9-18.2,18-18.2,25.36C29.27,54.79,34.49,58.85,43.59,59.63Z" transform="translate(-1 -1)"/>
</svg>
