<svg
  data-icon="tools"
  role="img"
  xmlns="http://www.w3.org/2000/svg"
  width="20px"
  height="20px"
  viewBox="0 0 20 20"
>
  <title>tools</title>
<path d="M18.596 14.457l-4.535-4.122 0.53-0.59c0.448 0.169 0.92 0.255 1.408 0.255 2.206 0 4-1.794 4-4 0-0.639-0.155-1.275-0.447-1.839-0.073-0.142-0.21-0.24-0.367-0.264s-0.317 0.028-0.43 0.141l-1.962 1.962h-0.793v-0.793l1.962-1.962c0.113-0.113 0.165-0.272 0.141-0.43s-0.122-0.294-0.264-0.367c-0.564-0.293-1.2-0.447-1.839-0.447-2.206 0-4 1.794-4 4 0 0.488 0.086 0.96 0.255 1.408l-0.71 0.639-2.468-2.244c-0.095-0.086-0.148-0.201-0.151-0.325s0.045-0.241 0.136-0.332l2.293-2.293c0.143-0.143 0.186-0.358 0.108-0.545s-0.26-0.309-0.462-0.309c-0.041 0-1.027 0.001-2.092 0.063-2.034 0.12-2.53 0.351-2.762 0.583l-3.5 3.5c-0.094 0.094-0.146 0.221-0.146 0.354v0.5h-0.5c-0.133 0-0.26 0.053-0.354 0.146l-1 1c-0.195 0.195-0.195 0.512 0 0.707l2 2c0.195 0.195 0.512 0.195 0.707 0l1-1c0.094-0.094 0.146-0.221 0.146-0.354v-0.5h0.5c0.133 0 0.26-0.053 0.354-0.146l0.793-0.793c0.088-0.088 0.202-0.136 0.321-0.136 0.127 0 0.246 0.054 0.335 0.151l2.117 2.329-4.511 4.054c-0.301 0.27-0.472 0.639-0.483 1.038s0.141 0.777 0.427 1.063l1.086 1.086c0.277 0.277 0.639 0.428 1.023 0.428 0.013 0 0.026-0 0.039-0.001 0.399-0.011 0.768-0.182 1.038-0.483l3.933-4.376 3.984 4.382c0.277 0.304 0.669 0.479 1.075 0.479 0.387 0 0.752-0.152 1.028-0.429l1.086-1.086c0.286-0.286 0.438-0.663 0.428-1.062s-0.179-0.769-0.478-1.041zM13.305 7.319c-0.203-0.413-0.305-0.857-0.305-1.319 0-1.654 1.346-3 3-3 0.243 0 0.479 0.028 0.709 0.084l-1.563 1.563c-0.094 0.094-0.146 0.221-0.146 0.354v1.5c0 0.276 0.224 0.5 0.5 0.5h1.5c0.133 0 0.26-0.053 0.354-0.146l1.563-1.563c0.056 0.23 0.084 0.467 0.084 0.709 0 1.654-1.346 3-3 3-0.463 0-0.907-0.103-1.319-0.305-0.201-0.099-0.443-0.052-0.592 0.115l-0.767 0.853-1.034-0.94 0.902-0.811c0.166-0.15 0.213-0.391 0.115-0.592zM6.467 6.925c-0.387 0-0.752 0.152-1.028 0.429l-0.646 0.646h-0.793c-0.276 0-0.5 0.224-0.5 0.5v0.793l-0.5 0.5-1.293-1.293 0.5-0.5h0.793c0.276 0 0.5-0.224 0.5-0.5v-0.793l3.34-3.34c0.063-0.036 0.46-0.213 2.223-0.311 0.244-0.014 0.483-0.024 0.706-0.032l-1.415 1.415c-0.286 0.286-0.438 0.663-0.428 1.062s0.179 0.769 0.478 1.041l0.872 0.793-0.94 0.94-0.793-0.872c-0.277-0.304-0.669-0.479-1.075-0.479zM6.797 16.922c-0.085 0.095-0.199 0.149-0.321 0.152s-0.239-0.045-0.329-0.135l-1.086-1.086c-0.090-0.090-0.138-0.207-0.135-0.329s0.057-0.236 0.152-0.321l4.515-4.058 1.205 1.325-4.001 4.451zM17.939 15.854l-1.086 1.086c-0.088 0.088-0.202 0.136-0.321 0.136-0.127 0-0.246-0.054-0.335-0.151l-7.188-7.907 1.008-1.008 7.907 7.188c0.095 0.086 0.148 0.201 0.151 0.325s-0.045 0.241-0.136 0.332z"></path>
</svg>
