<svg
  data-icon="wand"
  xmlns="http://www.w3.org/2000/svg"
  aria-hidden="true"
  focusable="false"
  width="32"
  height="33"
  viewBox="0 0 32 33"
>
  <path d="M19.6914 12.0391C19.2349 12.0391 18.8643 11.6686 18.8643 11.212C18.8643 8.93258 17.0084 7.07661 14.7289 7.07661C14.2724 7.07661 13.9019 6.70608 13.9019 6.24953C13.9019 5.79298 14.2724 5.42245 14.7289 5.42245C17.0084 5.42245 18.8643 3.56648 18.8643 1.28704C18.8643 0.830493 19.2349 0.459961 19.6914 0.459961C20.148 0.459961 20.5185 0.830493 20.5185 1.28704C20.5185 3.56648 22.3745 5.42245 24.6539 5.42245C25.1105 5.42245 25.481 5.79298 25.481 6.24953C25.481 6.70608 25.1105 7.07661 24.6539 7.07661C22.3745 7.07661 20.5185 8.93258 20.5185 11.212C20.5185 11.6686 20.148 12.0391 19.6914 12.0391ZM17.7081 6.24953C18.5186 6.73916 19.2018 7.42068 19.6914 8.23287C20.1811 7.42233 20.8626 6.73916 21.6748 6.24953C20.8642 5.7599 20.1811 5.07838 19.6914 4.26619C19.2018 5.07673 18.5203 5.7599 17.7081 6.24953Z"/>
  <path d="M3.1497 17.0016C2.69315 17.0016 2.32262 16.631 2.32262 16.1745C2.32262 15.7179 1.95209 15.3474 1.49554 15.3474C1.03899 15.3474 0.668457 14.9769 0.668457 14.5203C0.668457 14.0638 1.03899 13.6932 1.49554 13.6932C1.95209 13.6932 2.32262 13.3227 2.32262 12.8661C2.32262 12.4096 2.69315 12.0391 3.1497 12.0391C3.60625 12.0391 3.97678 12.4096 3.97678 12.8661C3.97678 13.3227 4.34731 13.6932 4.80386 13.6932C5.26041 13.6932 5.63094 14.0638 5.63094 14.5203C5.63094 14.9769 5.26041 15.3474 4.80386 15.3474C4.34731 15.3474 3.97678 15.7179 3.97678 16.1745C3.97678 16.631 3.60625 17.0016 3.1497 17.0016Z"/>
  <path d="M30.6866 26.8253L13.1757 9.31437C12.7075 8.84624 12.0856 8.58984 11.4206 8.58984C10.7556 8.58984 10.1337 8.84789 9.66554 9.31437L8.6962 10.2837C8.22808 10.7518 7.97168 11.3738 7.97168 12.0388C7.97168 12.7037 8.22973 13.3257 8.6962 13.7938L26.2072 31.3048C26.6753 31.7729 27.2973 32.0293 27.9622 32.0293C28.6272 32.0293 29.2492 31.7713 29.7173 31.3048L30.6866 30.3355C31.1548 29.8673 31.4112 29.2454 31.4112 28.5804C31.4112 27.9154 31.1531 27.2935 30.6866 26.8253ZM9.86735 11.4532L10.8367 10.4839C10.9922 10.3284 11.199 10.244 11.4223 10.244C11.6456 10.244 11.8523 10.33 12.0078 10.4839L14.3882 12.8642L12.2493 15.003L9.869 12.6227C9.54644 12.3001 9.54479 11.7758 9.86735 11.4532ZM29.5155 29.166L28.5462 30.1353C28.3907 30.2908 28.1839 30.3752 27.9622 30.3752C27.7406 30.3752 27.5322 30.2892 27.3783 30.1353L13.4188 16.1758L15.5577 14.037L29.5171 27.9965C29.8397 28.319 29.8397 28.8434 29.5171 29.166H29.5155Z"/>
  <path d="M6.45816 8.73077C6.00161 8.73077 5.63108 8.36024 5.63108 7.90369C5.63108 6.5357 4.51783 5.42245 3.14984 5.42245C2.69329 5.42245 2.32275 5.05192 2.32275 4.59537C2.32275 4.13882 2.69329 3.76829 3.14984 3.76829C4.51783 3.76829 5.63108 2.65503 5.63108 1.28704C5.63108 0.830493 6.00161 0.459961 6.45816 0.459961C6.91471 0.459961 7.28524 0.830493 7.28524 1.28704C7.28524 2.65503 8.39849 3.76829 9.76649 3.76829C10.223 3.76829 10.5936 4.13882 10.5936 4.59537C10.5936 5.05192 10.223 5.42245 9.76649 5.42245C8.39849 5.42245 7.28524 6.5357 7.28524 7.90369C7.28524 8.36024 6.91471 8.73077 6.45816 8.73077ZM5.62777 4.59537C5.94206 4.83191 6.22162 5.11147 6.45816 5.42576C6.69471 5.11147 6.97426 4.83191 7.28855 4.59537C6.97426 4.35882 6.69471 4.07927 6.45816 3.76498C6.22162 4.07927 5.94206 4.35882 5.62777 4.59537Z"/>
  <path d="M6.45816 25.2718C6.00161 25.2718 5.63108 24.9013 5.63108 24.4447C5.63108 23.0767 4.51783 21.9635 3.14984 21.9635C2.69329 21.9635 2.32275 21.5929 2.32275 21.1364C2.32275 20.6798 2.69329 20.3093 3.14984 20.3093C4.51783 20.3093 5.63108 19.1961 5.63108 17.8281C5.63108 17.3715 6.00161 17.001 6.45816 17.001C6.91471 17.001 7.28524 17.3715 7.28524 17.8281C7.28524 19.1961 8.39849 20.3093 9.76649 20.3093C10.223 20.3093 10.5936 20.6798 10.5936 21.1364C10.5936 21.5929 10.223 21.9635 9.76649 21.9635C8.39849 21.9635 7.28524 23.0767 7.28524 24.4447C7.28524 24.9013 6.91471 25.2718 6.45816 25.2718ZM5.62777 21.1364C5.94206 21.3729 6.22162 21.6525 6.45816 21.9668C6.69471 21.6525 6.97426 21.3729 7.28855 21.1364C6.97426 20.8998 6.69471 20.6203 6.45816 20.306C6.22162 20.6203 5.94206 20.8998 5.62777 21.1364Z"/>
</svg>
