<svg
  data-icon="winging-it"
  xmlns="http://www.w3.org/2000/svg"
  aria-hidden="true"
  focusable="false"
  viewBox="0 0 435.3 583.17"
>
  <path d="m210.07,246.25c5.66-2.96,11.32-5.93,16.99-8.92,31.41-16.59,62.64-34.82,92.85-52.44,10.73-6.26,21.83-12.74,32.77-19.04l9.15-5.27c17.27-9.96,35.13-20.25,52.75-30.3,3.05.25,7.02-.94,9.22-2.85,1.42-1.24,1.92-2.52,2.04-3.55l3.83-2.18c2.85-1.61,5.63-3.41,5.64-6.09,0-1.58-.96-2.94-2.86-4.04h0c-1.63-.94-3.95-1.22-6.94-.84-.86-33-.48-63.99,1.17-94.61l.41-.26c2.51-1.64,3.62-3.39,3.28-5.21-.19-1.04-.92-2.35-3.2-3.22,0-.07,0-.15.01-.22.04-.77.08-1.53.13-2.3.13-2.08-1.17-4.6-5.27-4.87-4.14-.27-10.29,1.96-10.55,6.06-.05.82-.1,1.65-.14,2.47-.01.2-.02.4-.03.61-1.7.73-3.27,1.55-4.59,2.41-61.98,40.47-128.28,76.23-192.39,110.82-39.28,21.19-79.89,43.1-119.1,65.87-6.04,3.51-12.08,7.06-18.12,10.61-13.86,8.15-28.18,16.57-42.51,24.43-1.55-1.36-4.09-1.89-7.03-1.36-3.59.64-7.22,2.83-7.24,6.27v2.72c-5.14,2.66-9.91,5.05-14.55,7.28-3.86,1.86-5.7,3.71-5.77,5.84-.04,1.11.42,2.71,2.81,4.06,4.81,2.72,14.22-1.03,17.43-2.46l-.02,4.12c-.16,27.75-.32,56.44.28,84.67-.14.06-.27.12-.41.18-2.09.92-5.61,2.91-5.78,5.92-.06,1.18.37,2.88,2.82,4.29,1.32.76,2.98,1.11,5.02,1.03l408.39,237.31v-136.88l-291.02-161.33,1.12-.67c22.77-13.59,46.49-26.02,69.43-38.04Zm-167.1,95.52l85.99-46.65,287.58,159.42v104.31L42.97,341.77Zm218.08-183.57c-1.15-6.15-2.17-12.33-3.18-18.37-.44-2.62-.87-5.24-1.31-7.84-.15-.89-.85-3.01-4.1-3.35-4.25-.45-12.58,2.72-13.87,5.95-5.97,15-10.38,30.7-14.56,46l-8.96-37.67c-.2-.84-.96-2.66-3.83-3.13,20.86-11.44,41.82-22.98,62.57-34.53l-12.77,52.94Zm-81.34,48.29c-1.23-5.56-2.25-11.14-3.04-16.67-.14-.99-.92-3.28-5.12-3.35-.05,0-.1,0-.15,0-4.12,0-12.14,2.39-12.82,6.29l-4.62,26.77-7.34-22.37c-.23-.71-.45-1.56-.68-2.47-.74-2.9-1.57-6.18-3.73-8.27-1.79-1.74-4.36-2.65-7.36-2.65-.67,0-1.36.05-2.06.14-.83.11-1.66.27-2.47.49,7.86-4.52,15.75-8.98,23.56-13.25l4.13-2.25c12.71-6.94,25.56-13.96,38.47-21.03l-16.78,58.62Zm-59.31-15.42c-1.2,1.98-1.85,4.45-2.42,6.63-.24.91-.46,1.76-.71,2.54l-12.58,39.19-2.52-21.42c-.08-.7-.61-3.02-3.97-3.4-4-.46-12.78,2.44-14.04,5.97-4.49,12.6-8.47,26-11.89,39.93-3.12-11.46-6.18-21.94-9.28-31.85-.33-1.04-1.31-2.59-4.25-2.96,15.78-8.71,31.31-17.8,46.49-26.69,5.42-3.17,10.9-6.38,16.41-9.58-.48.53-.9,1.08-1.25,1.65Zm-78.5,127.59c.03,1.13.67,2.11,1.76,2.7.71.38,1.63.6,2.67.68-3.34,1.71-6.69,3.39-10.05,5.03-.47-26.47-.32-53.32-.17-79.33l.05-10.01c2.9-1.49,5.79-3,8.68-4.52-2.75,28.45-3.75,57.19-2.95,85.45Zm17.98-31.78c1.56,6.16,2.91,11.79,4.14,17.18.29,1.27,1.46,3.38,6.03,3.19,1.48-.06,3.42-.41,5.32-1.02-5.06,2.89-10.16,5.74-15.28,8.53,0,0,0-.01,0-.02-.26-9.26-.33-18.58-.21-27.86Zm22.21,14.01c1.66-11.83,3.97-24.04,6.88-36.42l2.16,18.39c.08.71.63,3.06,4.12,3.4,4.16.4,12.77-2.48,13.91-6.02l22.29-69.44,15.95,48.62c.28.85,1.01,2.07,2.92,2.67-3.04,1.7-6.07,3.42-9.07,5.17-9.43,5.5-18.96,11.22-28.18,16.74-10.51,6.3-21.17,12.69-31.97,18.94.53-.62.89-1.31.99-2.05Zm86.71-64.4c.53,1.53,1.07,3.02,1.62,4.5.44,1.18,1.81,3.15,6.01,2.98,4.19-.16,10.92-2.64,11.92-6.14l16.44-57.43,8.94,37.57c.22.93,1.13,3.1,4.84,3.25,4.15.17,12.02-2.62,13.15-6.1,3.46-10.68,6.46-21.67,9.36-32.29,1.1-4.01,2.21-8.11,3.36-12.2,1.77,8.63,4.1,18.03,7.56,27.24.46,1.22,1.88,3.22,6.38,2.95,4.18-.25,10.71-2.6,11.57-6.18l13.12-54.4c3.02,11.29,6.35,22.4,9.94,33.11.38,1.14,1.57,3.05,5.25,3.1,4.15.07,11.42-2.64,12.66-6.05,5.64-15.52,10.67-31.99,14.99-49.08l7.39,29.66c.45,1.79,1.88,2.98,3.94,3.26,4.33.59,12.33-3.06,13.88-5.76,4.93-8.63,4.7-21.88,4.51-32.52-.04-2.13-.07-4.17-.07-6.06,1.52,3.73,2.99,7.52,4.42,11.33.41,1.1.89,2.26,1.39,3.45,1.46,3.51,3.11,7.48,3.23,10.87.04,1.05.65,3.45,5.5,3.44.27,0,.56-.02.87-.04-15.64,8.98-31.23,17.97-46.51,26.79-17.5,10.1-35.59,20.54-53.41,30.75l-6.51,3.73c-16.01,9.19-32.57,18.68-49.06,27.62-9.59,5.2-19.45,10.26-28.98,15.16-6.81,3.5-13.73,7.05-20.64,10.7l2.97-17.2Zm191.72-164.21l-.36-1.05c-.24-.69-.46-1.35-.66-1.99-1.2-3.69-2.44-7.49-6.52-8.68,2.52-1.45,5.04-2.9,7.56-4.35-.25,5.52-.2,10.96-.01,16.07Zm-22.89,5.51c.03,1.35.06,2.62.04,3.82-.04,3.1-.07,6.19-.09,9.29l-2.95-11.82c-.3-1.21-1.41-3.18-5.45-3.18-.16,0-.33,0-.5,0-1,.04-2.25.22-3.56.54,3.9-2.21,7.72-4.39,11.48-6.53l1.25-.71c-.35,2.84-.28,5.84-.22,8.58Zm-21.04,4.45c-3.38,19.87-8.02,39.81-13.8,59.35-4.14-14.68-7.53-29-10.1-42.66-.21-1.12-.91-2.05-1.98-2.62-.15-.08-.31-.15-.48-.22,9.39-5.25,18.28-10.25,26.8-15.06-.22.38-.37.78-.44,1.2Zm64.79,21.22c3.52,7.32,7.07,13.65,10.86,19.43.68,1.04,1.81,1.69,3.15,2.05-4.22,2.41-8.44,4.82-12.67,7.24.02-.16.03-.32.03-.49.13-9.39-.54-18.89-1.38-28.23Zm28.64-68.61c-2.61-.39-5.59.28-6.41.49-2.09.52-7,2.11-7.49,5.56-1.91,13.41-2.01,27.11-2.11,40.35-.01,1.68-.02,3.37-.04,5.08-4.49-10.62-8.42-21.58-12.25-32.25-.94-2.61-1.87-5.21-2.8-7.79-.07-.2-.17-.41-.29-.62,11.66-6.86,22.1-13.17,31.74-19.19-.13,2.79-.24,5.59-.35,8.38Z"/>
</svg>
