<svg data-name="oddcontrast-logos" xmlns="http://www.w3.org/2000/svg" viewBox="0 0 1414.11 51.6" width="1414.11" height="51.6">
  <defs>
    <style>
      /* Make sure to have no line breaks; markdown will add paragraph tags */
      .oddcontrast-logo-text {
        fill: var(--text);
      }
      .oddcontrast-logo-stroke {
        stroke: var(--text);
        stroke-miterlimit: 10;
        stroke-width: 1px;
      }
      .oddcontrast-logo-lime {
        fill: #88e5b2;
      }
      .oddcontrast-logo-raspberry {
        fill: #ad3b6a;
      }
      .oddcontrast-logo-blue {
        fill: #375dbc;
      }
      .oddcontrast-logo-green {
        fill: #55b67f;
      }
      .oddcontrast-logo-plum {
        fill: #92278f;
      }
      .oddcontrast-logo-orange {
        fill: #f1592a;
      }
    </style>
  </defs>
  <g id="oddcontrast-logo">
    <path class="oddcontrast-logo-text" d="M914.41,38.9c-1.22.45-2.52.68-3.82.7-2.89,0-5-1.25-4.84-4.6l.25-9.37h9l.23-11.23h-8V5.5h-14.43l-.16,8.5-5.15,1.82-.23,9.52,5.15,1.17-.55,10.69c-.55,10.38,4.84,14.2,14.9,14.2v-.02c3.12.08,6.22-.31,9.21-1.17l-1.56-11.31Z"/>
    <path class="text" d="M869.62,26.62c-3.83-.78-5.23-1.26-5.23-2.5s1.01-1.79,3.51-1.79c3.57,0,8.89,1.33,13.57,3.59l2.81-10c-3.67-1.79-11.15-3.35-16.38-3.35-11.55,0-17.55,5.06-17.55,12,0,7.33,5.23,10.84,15.37,12.56,4.14.78,5,1.48,5,2.65s-.93,1.87-3.74,1.87c-5-.13-9.92-1.33-14.43-3.51l-2.73,10.06c4.14,2.03,11.55,3.2,16.93,3.2l-.07.03c12.09,0,17.94-5.78,17.94-12.25,0-7.49-4.78-10.56-15-12.56Z"/>
    <path class="text" d="M844.63,37.94V12.94l-13.81,1.64c-2.67-1.24-5.56-1.9-8.5-1.95-9.28,0-18.17,7.25-18.17,19.89,0,11.86,6.84,18.8,15.29,18.84,4.68,0,7.87-2.57,10.76-5.77,2.18,4.36,6.52,6.63,15.52,5.3l1.56-10.22c-2.1-.31-2.65-.47-2.65-2.73ZM829.73,37.85c-1.2,1.36-2.95,2.1-4.76,2-3.35,0-6-2.89-6-8.19s2.41-8.5,6.47-8.5h0c1.49-.01,2.96.33,4.29,1.01v13.68Z"/>
    <path class="text" d="M799.08,12.61c-3.4,0-6.13,1.72-8,5.23v-4.84l-14.93,1.74v35.49h14.87v-19.94c1.87-3.21,4.29-4.21,6.94-4.21,1.38.02,2.74.31,4,.86l2.81-13c-1.76-.9-3.71-1.35-5.69-1.33Z"/>
    <path class="text" d="M767.36,39.6c-2.89,0-5-1.25-4.84-4.6l.25-9.37h9l.23-11.23h-8V5.5h-14.43l-.16,8.5-5.18,1.82-.23,9.52,5.15,1.17-.52,10.69c-.54,10.38,4.84,14.2,14.9,14.2v-.02c3.12.08,6.22-.31,9.21-1.17l-1.56-11.31c-1.23.45-2.52.68-3.82.7Z"/>
    <path class="text" d="M730.05,12.55c-4.91,0-9.28,2.73-12.4,6.63v-6.24l-14.9,1.72v35.56h14.9v-23.22c1.34-1.35,3.15-2.14,5.05-2.2,2.28,0,4,1.09,4,4.52v20.91h14.89v-25.12c0-7.72-4.29-12.56-11.54-12.56h0Z"/>
    <path class="oddcontrast-logo-orange oddcontrast-logo-stroke" d="M678.94,12.55c-.09,0-.18,0-.27.01v10.84c3.79.03,5.72,3.06,5.72,8.5s-1.87,8.58-5.69,8.58h-.03v10.91c11.18-.12,20.48-7.19,20.48-19.57s-8.9-19.27-20.21-19.27h0Z"/>
    <path class="oddcontrast-logo-plum oddcontrast-logo-stroke" d="M672.93,32.06c0-5.46,1.95-8.66,5.69-8.66h.05v-10.84c-11.19.11-20.48,6.95-20.48,19.57s8.89,19.27,20.2,19.27c.09,0,.19,0,.28,0v-10.91c-3.8-.02-5.74-2.97-5.74-8.42Z"/>
    <path class="text" d="M656.44,46.06v2.31c-3.84,1.85-10.49,3.02-16.02,3.02-16.3,0-26.68-8.5-26.68-25.35,0-15.83,10.22-25.74,27.3-25.74,5.66,0,11.27,1.17,16.46,3.43l-4.6,12.71h0c-3.56-2.05-7.59-3.18-11.7-3.27-7.41,0-12,4.84-12,12.56s4.13,12.79,12,12.79c4.38-.04,8.67-1.28,12.4-3.59l2.83,11.13h0ZM656.44,46.06v2.31c.18-.09.36-.17.52-.26,0,0-.52-2.05-.52-2.05Z"/>
    <path class="text"  d="M606.58,46.72l-2.09-.72,3.38-15.18,7.49-30.82-13.39,3.53-.36,1.94,4.32,1.94c.65.29.87,1.01.65,2.09l-2.52,12.43h-.5c-.79-2.67-1.88-5.33-5.33-5.33s-6.98,2.12-9.86,5c-5.17,5.55-8.14,12.8-8.35,20.38,0,6.05,3.39,9.29,7.49,9.29,4.64,0,7.99-5.68,13.46-15.6h.65c-1.66,5.18-3.82,11.33-3.82,12.6s4.17,3,5.83,3v.02c3.3,0,7.7-3.67,9.64-7.2l-1.22-1.37s-5.47,4-5.47,4ZM601.61,31.64c-5.98,10.18-8.5,14-11.09,14-2.3,0-3.67-1.94-3.67-5.54,0-6.19,3.3-15.77,5.92-18.36.56-.76,1.44-1.21,2.38-1.22l-.02.03c2.81,0,6.34,3.1,7.92,5.76,0,0-1.44,5.33-1.44,5.33Z"/>
    <path class="text" d="M571.3,46.72l-2.09-.72,3.38-15.18,7.49-30.82-13.39,3.53-.36,1.94,4.32,1.94c.65.29.87,1.01.65,2.09l-2.52,12.43h-.5c-.79-2.67-1.88-5.33-5.33-5.33s-6.98,2.12-9.86,5c-5.18,5.56-8.15,12.81-8.35,20.4,0,6,3.41,9.27,7.49,9.22,4.68,0,7.99-5.68,13.46-15.55h.65c-1.66,5.18-3.82,11.33-3.82,12.6s4.17,3,5.83,3v.02c3.3,0,7.7-3.67,9.64-7.2l-1.22-1.37s-5.47,4-5.47,4ZM566.33,31.64c-5.98,10.18-8.5,14-11.09,14-2.3,0-3.67-1.94-3.67-5.54,0-6.19,3.31-15.77,5.9-18.36.56-.76,1.44-1.21,2.38-1.22v.03c2.81,0,6.34,3.1,7.92,5.76,0,0-1.44,5.33-1.44,5.33Z"/>
    <path class="text"  d="M522.56,4.24c-6.84-.09-13.37,2.84-17.86,8-4.32,5.05-6.65,11.5-6.55,18.15,0,12.17,8.57,20.88,20.81,20.88,6.28.1,12.33-2.4,16.71-6.91,5.01-5.14,7.78-12.06,7.7-19.24,0-12.17-8.57-20.88-20.81-20.88ZM519.44,47.89c-3.14.14-6.19-1.03-8.42-3.24-3-3.03-4-7.85-4-12.75,0-8.78,4.13-24.41,15.13-24.41,3.11-.13,6.13,1.05,8.34,3.24,3.02,3.03,4.1,8,4.07,12.82-.12,8.79-4.18,24.34-15.12,24.34Z"/>
  </g>
  <g id="oddcontrast-logo-2" data-name="oddcontrast-logo">
    <path d="M416.26,38.9c-1.22.45-2.52.68-3.82.7-2.89,0-5-1.25-4.84-4.6l.25-9.37h9l.23-11.23h-8V5.5h-14.43l-.16,8.5-5.15,1.82-.23,9.52,5.15,1.17-.55,10.69c-.55,10.38,4.84,14.2,14.9,14.2v-.02c3.12.08,6.22-.31,9.21-1.17l-1.56-11.31Z"/>
    <path d="M371.47,26.62c-3.83-.78-5.23-1.26-5.23-2.5s1.01-1.79,3.51-1.79c3.57,0,8.89,1.33,13.57,3.59l2.81-10c-3.67-1.79-11.15-3.35-16.38-3.35-11.55,0-17.55,5.06-17.55,12,0,7.33,5.23,10.84,15.37,12.56,4.14.78,5,1.48,5,2.65s-.93,1.87-3.74,1.87c-5-.13-9.92-1.33-14.43-3.51l-2.73,10.06c4.14,2.03,11.55,3.2,16.93,3.2l-.07.03c12.09,0,17.94-5.78,17.94-12.25,0-7.49-4.78-10.56-15-12.56Z"/>
    <path d="M346.48,37.94V12.94l-13.81,1.64c-2.67-1.24-5.56-1.9-8.5-1.95-9.28,0-18.17,7.25-18.17,19.89,0,11.86,6.84,18.8,15.29,18.84,4.68,0,7.87-2.57,10.76-5.77,2.18,4.36,6.52,6.63,15.52,5.3l1.56-10.22c-2.1-.31-2.65-.47-2.65-2.73ZM331.58,37.85c-1.2,1.36-2.95,2.1-4.76,2-3.35,0-6-2.89-6-8.19s2.41-8.5,6.47-8.5h0c1.49-.01,2.96.33,4.29,1.01v13.68Z"/>
    <path d="M300.93,12.61c-3.4,0-6.13,1.72-8,5.23v-4.84l-14.93,1.74v35.49h14.87v-19.94c1.87-3.21,4.29-4.21,6.94-4.21,1.38.02,2.74.31,4,.86l2.81-13c-1.76-.9-3.71-1.35-5.69-1.33Z"/>
    <path d="M269.21,39.6c-2.89,0-5-1.25-4.84-4.6l.25-9.37h9l.23-11.23h-8V5.5h-14.43l-.16,8.5-5.18,1.82-.23,9.52,5.15,1.17-.52,10.69c-.54,10.38,4.84,14.2,14.9,14.2v-.02c3.12.08,6.22-.31,9.21-1.17l-1.56-11.31c-1.23.45-2.52.68-3.82.7Z"/>
    <path d="M231.9,12.55c-4.91,0-9.28,2.73-12.4,6.63v-6.24l-14.9,1.72v35.56h14.9v-23.22c1.34-1.35,3.15-2.14,5.05-2.2,2.28,0,4,1.09,4,4.52v20.91h14.89v-25.12c0-7.72-4.29-12.56-11.54-12.56h0Z"/>
    <path class="oddcontrast-logo-lime oddcontrast-logo-stroke" d="M180.79,12.55c-.09,0-.18,0-.27.01v10.84c3.79.03,5.72,3.06,5.72,8.5s-1.87,8.58-5.69,8.58h-.03v10.91c11.18-.12,20.48-7.19,20.48-19.57s-8.9-19.27-20.21-19.27h0Z"/>
    <path class="oddcontrast-logo-raspberry oddcontrast-logo-stroke" d="M174.78,32.06c0-5.46,1.95-8.66,5.69-8.66h.05v-10.84c-11.19.11-20.48,6.95-20.48,19.57s8.89,19.27,20.2,19.27c.09,0,.19,0,.28,0v-10.91c-3.8-.02-5.74-2.97-5.74-8.42Z"/>
    <path d="M158.29,46.06v2.31c-3.84,1.85-10.49,3.02-16.02,3.02-16.3,0-26.68-8.5-26.68-25.35,0-15.83,10.22-25.74,27.3-25.74,5.66,0,11.27,1.17,16.46,3.43l-4.6,12.71h0c-3.56-2.05-7.59-3.18-11.7-3.27-7.41,0-12,4.84-12,12.56s4.13,12.79,12,12.79c4.38-.04,8.67-1.28,12.4-3.59l2.83,11.13h0ZM158.29,46.06v2.31c.18-.09.36-.17.52-.26,0,0-.52-2.05-.52-2.05Z"/>
    <path d="M108.43,46.72l-2.09-.72,3.38-15.18L117.21,0l-13.39,3.53-.36,1.94,4.32,1.94c.65.29.87,1.01.65,2.09l-2.52,12.43h-.5c-.79-2.67-1.88-5.33-5.33-5.33s-6.98,2.12-9.86,5c-5.17,5.55-8.14,12.8-8.35,20.38,0,6.05,3.39,9.29,7.49,9.29,4.64,0,7.99-5.68,13.46-15.6h.65c-1.66,5.18-3.82,11.33-3.82,12.6s4.17,3,5.83,3v.02c3.3,0,7.7-3.67,9.64-7.2l-1.22-1.37s-5.47,4-5.47,4ZM103.46,31.64c-5.98,10.18-8.5,14-11.09,14-2.3,0-3.67-1.94-3.67-5.54,0-6.19,3.3-15.77,5.92-18.36.56-.76,1.44-1.21,2.38-1.22l-.02.03c2.81,0,6.34,3.1,7.92,5.76,0,0-1.44,5.33-1.44,5.33Z"/>
    <path d="M73.15,46.72l-2.09-.72,3.38-15.18L81.93,0l-13.39,3.53-.36,1.94,4.32,1.94c.65.29.87,1.01.65,2.09l-2.52,12.43h-.5c-.79-2.67-1.88-5.33-5.33-5.33s-6.98,2.12-9.86,5c-5.18,5.56-8.15,12.81-8.35,20.4,0,6,3.41,9.27,7.49,9.22,4.68,0,7.99-5.68,13.46-15.55h.65c-1.66,5.18-3.82,11.33-3.82,12.6s4.17,3,5.83,3v.02c3.3,0,7.7-3.67,9.64-7.2l-1.22-1.37s-5.47,4-5.47,4ZM68.18,31.64c-5.98,10.18-8.5,14-11.09,14-2.3,0-3.67-1.94-3.67-5.54,0-6.19,3.31-15.77,5.9-18.36.56-.76,1.44-1.21,2.38-1.22v.03c2.81,0,6.34,3.1,7.92,5.76,0,0-1.44,5.33-1.44,5.33Z"/>
    <path d="M24.41,4.24c-6.84-.09-13.37,2.84-17.86,8C2.23,17.29-.1,23.74,0,30.39,0,42.56,8.57,51.27,20.81,51.27c6.28.1,12.33-2.4,16.71-6.91,5.01-5.14,7.78-12.06,7.7-19.24,0-12.17-8.57-20.88-20.81-20.88ZM21.29,47.89c-3.14.14-6.19-1.03-8.42-3.24-3-3.03-4-7.85-4-12.75,0-8.78,4.13-24.41,15.13-24.41,3.11-.13,6.13,1.05,8.34,3.24,3.02,3.03,4.1,8,4.07,12.82-.12,8.79-4.18,24.34-15.12,24.34Z"/>
  </g>
  <g id="oddcontrast-logo-3" data-name="oddcontrast-logo">
    <path d="M1412.55,38.9c-1.22.45-2.52.68-3.82.7-2.89,0-5-1.25-4.84-4.6l.25-9.37h9l.23-11.23h-8V5.5h-14.43l-.16,8.5-5.15,1.82-.23,9.52,5.15,1.17-.55,10.69c-.55,10.38,4.84,14.2,14.9,14.2v-.02c3.12.08,6.22-.31,9.21-1.17l-1.56-11.31Z"/>
    <path d="M1367.76,26.62c-3.83-.78-5.23-1.26-5.23-2.5s1.01-1.79,3.51-1.79c3.57,0,8.89,1.33,13.57,3.59l2.81-10c-3.67-1.79-11.15-3.35-16.38-3.35-11.55,0-17.55,5.06-17.55,12,0,7.33,5.23,10.84,15.37,12.56,4.14.78,5,1.48,5,2.65s-.93,1.87-3.74,1.87c-5-.13-9.92-1.33-14.43-3.51l-2.73,10.06c4.14,2.03,11.55,3.2,16.93,3.2l-.07.03c12.09,0,17.94-5.78,17.94-12.25,0-7.49-4.78-10.56-15-12.56Z"/>
    <path d="M1342.77,37.94V12.94l-13.81,1.64c-2.67-1.24-5.56-1.9-8.5-1.95-9.28,0-18.17,7.25-18.17,19.89,0,11.86,6.84,18.8,15.29,18.84,4.68,0,7.87-2.57,10.76-5.77,2.18,4.36,6.52,6.63,15.52,5.3l1.56-10.22c-2.1-.31-2.65-.47-2.65-2.73ZM1327.87,37.85c-1.2,1.36-2.95,2.1-4.76,2-3.35,0-6-2.89-6-8.19s2.41-8.5,6.47-8.5h0c1.49-.01,2.96.33,4.29,1.01v13.68Z"/>
    <path d="M1297.22,12.61c-3.4,0-6.13,1.72-8,5.23v-4.84l-14.93,1.74v35.49h14.87v-19.94c1.87-3.21,4.29-4.21,6.94-4.21,1.38.02,2.74.31,4,.86l2.81-13c-1.76-.9-3.71-1.35-5.69-1.33Z"/>
    <path d="M1265.5,39.6c-2.89,0-5-1.25-4.84-4.6l.25-9.37h9l.23-11.23h-8V5.5h-14.43l-.16,8.5-5.18,1.82-.23,9.52,5.15,1.17-.52,10.69c-.54,10.38,4.84,14.2,14.9,14.2v-.02c3.12.08,6.22-.31,9.21-1.17l-1.56-11.31c-1.23.45-2.52.68-3.82.7Z"/>
    <path d="M1228.19,12.55c-4.91,0-9.28,2.73-12.4,6.63v-6.24l-14.9,1.72v35.56h14.9v-23.22c1.34-1.35,3.15-2.14,5.05-2.2,2.28,0,4,1.09,4,4.52v20.91h14.89v-25.12c0-7.72-4.29-12.56-11.54-12.56h0Z"/>
    <path id="logo-o-right-3" class="oddcontrast-logo-blue oddcontrast-logo-stroke" d="M1177.08,12.55c-.09,0-.18,0-.27.01v10.84c3.79.03,5.72,3.06,5.72,8.5s-1.87,8.58-5.69,8.58h-.03v10.91c11.18-.12,20.48-7.19,20.48-19.57s-8.9-19.27-20.21-19.27h0Z"/>
    <path id="logo-o-left-3" class="oddcontrast-logo-green oddcontrast-logo-stroke" d="M1171.07,32.06c0-5.46,1.95-8.66,5.69-8.66h.05v-10.84c-11.19.11-20.48,6.95-20.48,19.57s8.89,19.27,20.2,19.27c.09,0,.19,0,.28,0v-10.91c-3.8-.02-5.74-2.97-5.74-8.42Z"/>
    <path d="M1154.58,46.06v2.31c-3.84,1.85-10.49,3.02-16.02,3.02-16.3,0-26.68-8.5-26.68-25.35,0-15.83,10.22-25.74,27.3-25.74,5.66,0,11.27,1.17,16.46,3.43l-4.6,12.71h0c-3.56-2.05-7.59-3.18-11.7-3.27-7.41,0-12,4.84-12,12.56s4.13,12.79,12,12.79c4.38-.04,8.67-1.28,12.4-3.59l2.83,11.13h0ZM1154.58,46.06v2.31c.18-.09.36-.17.52-.26,0,0-.52-2.05-.52-2.05Z"/>
    <path d="M1104.72,46.72l-2.09-.72,3.38-15.18,7.49-30.82-13.39,3.53-.36,1.94,4.32,1.94c.65.29.87,1.01.65,2.09l-2.52,12.43h-.5c-.79-2.67-1.88-5.33-5.33-5.33s-6.98,2.12-9.86,5c-5.17,5.55-8.14,12.8-8.35,20.38,0,6.05,3.39,9.29,7.49,9.29,4.64,0,7.99-5.68,13.46-15.6h.65c-1.66,5.18-3.82,11.33-3.82,12.6s4.17,3,5.83,3v.02c3.3,0,7.7-3.67,9.64-7.2l-1.22-1.37s-5.47,4-5.47,4ZM1099.75,31.64c-5.98,10.18-8.5,14-11.09,14-2.3,0-3.67-1.94-3.67-5.54,0-6.19,3.3-15.77,5.92-18.36.56-.76,1.44-1.21,2.38-1.22l-.02.03c2.81,0,6.34,3.1,7.92,5.76,0,0-1.44,5.33-1.44,5.33Z"/>
    <path d="M1069.44,46.72l-2.09-.72,3.38-15.18,7.49-30.82-13.39,3.53-.36,1.94,4.32,1.94c.65.29.87,1.01.65,2.09l-2.52,12.43h-.5c-.79-2.67-1.88-5.33-5.33-5.33s-6.98,2.12-9.86,5c-5.18,5.56-8.15,12.81-8.35,20.4,0,6,3.41,9.27,7.49,9.22,4.68,0,7.99-5.68,13.46-15.55h.65c-1.66,5.18-3.82,11.33-3.82,12.6s4.17,3,5.83,3v.02c3.3,0,7.7-3.67,9.64-7.2l-1.22-1.37s-5.47,4-5.47,4ZM1064.47,31.64c-5.98,10.18-8.5,14-11.09,14-2.3,0-3.67-1.94-3.67-5.54,0-6.19,3.31-15.77,5.9-18.36.56-.76,1.44-1.21,2.38-1.22v.03c2.81,0,6.34,3.1,7.92,5.76,0,0-1.44,5.33-1.44,5.33Z"/>
    <path d="M1020.7,4.24c-6.84-.09-13.37,2.84-17.86,8-4.32,5.05-6.65,11.5-6.55,18.15,0,12.17,8.57,20.88,20.81,20.88,6.28.1,12.33-2.4,16.71-6.91,5.01-5.14,7.78-12.06,7.7-19.24,0-12.17-8.57-20.88-20.81-20.88ZM1017.58,47.89c-3.14.14-6.19-1.03-8.42-3.24-3-3.03-4-7.85-4-12.75,0-8.78,4.13-24.41,15.13-24.41,3.11-.13,6.13,1.05,8.34,3.24,3.02,3.03,4.1,8,4.07,12.82-.12,8.79-4.18,24.34-15.12,24.34Z"/>
  </g>
</svg>
