<svg
  data-face="carl"
  xmlns="http://www.w3.org/2000/svg"
  aria-hidden="true"
  focusable="false"
  viewBox="0 0 500 500"
  width="250px"
  height="250px"
><path d="M159,170.13c-3.91-3.12-13.65,10-10.06,13.47,3.22,3.14,4-3.46,4.43-4.07,1.17-1.82,1.09,2.73,3.21,3.18,4.58,1,5.6-6.8,9.24-4.09,1.7,1.27,1.28,4.64,3.37,5.23,4.85,1.36,8.2-4.92,10.8-3.49,1.31.73,1.37,2.2,2.27,3.19,3.73,4,9-1.08,13.56-.36,6.6,1.06,15.73,12.63,14.91,8.66s-8.28-10.19-13-11.79c-4.91-1.64-11.12,2.12-13.23-.08-1.34-1.39-1.76-3.18-3.14-3.78-3-1.31-9.23,4.36-10.72,2.72-2.19-2.39-1-4.31-3.76-4.8-3.79-.67-6.66,3.89-8.31,2.76C156.26,175.32,160.73,171.54,159,170.13Z"/><path d="M195.36,199.68c-3.88-1.85-6.75-5.59-10.22-6.18-5.28-.91-9.18,2.14-13.62,4-1.58.65-5.15-.07-5.3,2.62,2.12.18,4,1.16,5.86.47l.06,0-.07.18a6.84,6.84,0,0,0,1.19,4.62c.07.1.16.18.23.27-.15-.09-.31-.17-.46-.27-1.49-.76-2.23-2.19-4.47-2.52,1.42,11.23,33.57,10.31,38.31,1.43C204.16,201.17,199.75,201.78,195.36,199.68ZM186,207.91h0a5.68,5.68,0,0,0,.65-.34c2.12-1.44,2.27-4.66,1.89-6.25a6.16,6.16,0,0,0-1.73-2.89c1.29.49,2.7,1.12,4.33,1.87,2.93,1.21,7.58,3.5,8.2,3.56C205.49,204.53,194.76,207.85,186,207.91Z"/><path d="M147.21,280.08c.18-2.54,4.66-3.13,7.24-4.95,10.3-7.23,1.68-16.29-8.52-19,1.83-3.19,5.11-.46,7.25.42,5.09,2.08,10.56,4,14.08,7.58,4.92,5,5.29,14.64,10.21,20.46s11.22,7.22,15.69,13.72c.87,1.25,5.68,7.17,3.48,8.12s-2.95-4.37-5.36-6.59c-1.48-1.37-11.87-8.5-15.8-13-7-8.1-13-25.77-13.51-18.9-.59,7.73-6.79,11.83-14.76,12.14"/><path d="M135.7,271.42c.7-1.91,4.37,1.45,4.06-1.34-.23-2.07-8.08,1.59-12,1.74-3.52.14,5.89-5.76,11.77-5.35,2.93.21,7.85,2.16,7.67,4.95C146.93,275.66,133.79,276.7,135.7,271.42Z"/><path d="M173.21,319.66c-10.43-1.38-24.53-5.18-36.23-2.47-2.78.64-6.13,2.16-9.44,1.52-3-.57-4.14-3.56-7.18-4.82-3.56-1.48-3.64.06-7.18-1.67,3.87-1.36,5.26-4.33,10.21-4.13,3.78.15,7.63,5.2,12.4,4.88,18.4-1.21,27.66,5.13,24.52.51-4.22-6.22-18-2.37-25.23-4.13-4.68-1.15-8.3-6.21-12.54-5.43-4.77.87-12.36,5.2-14.42,9.05,3.22,3.06,6.89.65,11.39,2.57,3,1.29,4.51,6.8,8,7.32,3.65.54,7.7-2.21,11.28-2.7,8.51-1.18,14.63-1.52,21.52-.74.73.09,4,.62,4.77.79-5,2.05-12.4,9.55-15.73,10.25-3.51.74-8-2.39-13.7-2.09-5.89.31-9.9,3.25-12.85.79a24.23,24.23,0,0,1-5.27-7.56c-.65-1.29-2.59-1.7-1.58,1,1.23,3.26.88,8.65,4.92,11.29,3.56,2.33,8.5-.16,13.51-.67,6.56-.67,14.72,2.12,17.44,0s13.81-10.52,17.38-11.69C170.71,321,175.31,319.92,173.21,319.66Z"/><path d="M149.77,356.92c-3,.92-7-1.47-11.94-2.24-5.93-.92-9.16.38-13.2,1.69,4-10.54,22.05-7.14,25.14.55"/><path d="M464,365.13c-15.92-8.68-83.12-10-79-20.3,5.34-13.47,15.19-21.47,24-30.43,9.67-9.86,29.46-20.46,30.32-37.06.89-17.14-13.12-34.28-21.77-42.8-9.78-9.63-40.24-26.6-37.76-31.35,5-9.48,12.68-52,11.84-65.43-.51-8-7.84-21-10.82-28.37-3.21-7.9-.91-16-3-24-4.46-16.88-8.8-25.1-19.38-35.94C336.69,27.33,306.32,10,270.6,6.26,245.84,3.65,199,10.08,181.33,16c-38.48,12.9-73.14,33.18-89.53,82.93A13.77,13.77,0,0,0,97,115.15c-5.81,20.44-10.21,41-14.54,62.86,1.62,1.18,2.41,4.91,2.78,7.3-12.83.37-22.61,5.67-25.41,14.38,1.25.8,3.47-1.23,4.71-.28-.21,18.06,9.23,24.09,25.19,26.51-.17,14.14-1.84,29.12-.91,44.83.69,11.79,3.77,25.48,5.91,39.13,1.88,12,2.41,20,4.54,32.52-16.38-1.61-45.55,6.68-56.19,13.13s-4,8.5,3.07,3.34c8.93-6.49,27.38-11.47,42.9-11.93,3.27-.09,11.39,2.36,12.5,2.1,3.34,18.84,8.87,35.87,21.86,44.51,2,1.35,10.81,5.47,14.58,5.47,5.09,0-2.41,10.83-.18,12.17,27,14.39,47.73,46.87,87.76,49,14.25.77,44.29-5.7,48.6-7,3.57-1.08-1.89,10.07-1.89,10.07-5.9,16.14-5.55,19,1,7.13,6.22-11.19,22.06-50.88,12.15-45.84-6.37,3.25-8.23,2.76-2.69-5.21,1.8-2.59,8-12.94,11.11-39.05,3-25.67.83-43.6,13.65-60.17,3.5-4.52,14.5-25.94,14.5-34.08,3.67-3.55,7.13-4.7,9.61-10.74,6.36-15.52,29.36-31.76,31.17-48.83,1.5-14.22-4.71-26.32-12.79-30.1-7-3.26-15.56-.21-20.88,2.07a42.75,42.75,0,0,0-5.12,2.44c-6.51,9.81-17.78,7-17.54,9.25,2.66,25.79-4.87,11.91-5.59,15.9-1.88,10.44-5.77,27-5.77,20.94,0-4.66,1.79-18.55-1.43-19.43-3.63-1-8.82,5.86-10.25,8.07-2.32,3.62-5.12,9.6-5.34,5.87-.49-8.57,8.44-23.85,7.49-29.15-.55-3.07,2.35-4,5.95-4.38s7.93-1.31,9.47-4.15c-6.5-1.07-11.21-1.15-17.09-1.61.38-7.16,2.74-14.88,2.44-23.11-.21-5.63-22.11-23.58-19.83-31.76.91-3.28,13.82-13.6,6.67-14.29-24.13-2.33-49.65-6.52-68.3-17.76-9.51-5.73-22-17-24.78-19.55-3.8-3.54-17.28-10.57-16.13-14.48,1.75-6,12.39-15.75,10.22-20.83-5-11.78,7.39-11.3,12-12.69,1.89-.57,12.47-6.29,10.27-7.35-1.9-.93-10.37,1.14-15,3-3.81,1.53-14.11,5.47-13.1,9.22C172.27,67,160.19,82,153.61,82.3c-11,.42-20.22,2.82-32.86,6.48s-19.32,11.93-18.66,6.48c.35-2.84,14.56-41.09,47.57-57.75,25.83-13,52.19-21.48,76.08-24.31,16.06-1.9,46.07,1.05,62.08,5,39.84,9.91,75.09,31.4,84.37,72.7,1.59,7.11-.91,21.43,1.9,28.28,3.59,8.75,12.45,13.07,11,25.23-2.53,21-5.48,50.59-13,59.28-11.27,13.09,2,8.58,4.51,9.55,7.95,3.12,39.72,24.11,49.12,37,5.17,7.1,10.87,23.87.58,37.51-8,10.55-25.11,25.54-34.78,35.11-16.38,16.22-19.67,39.77-20.43,55.25-1.46,29.7,39.18,83.84,21.14,46.23-3.33-6.93-10.22-19.37-12.18-27.17-4.88-19.35-3.46-41.68,1.46-40.59,20.67,4.59,67.05,4.9,81.25,12.63,7.79,4.24,17.9,24.81,19.16,18C482.58,383.79,471.92,369.46,464,365.13ZM90.2,221.52c-16.24-1-23-6-23.12-22.64,7.13-.54,20.94-1.74,19.94-5.83-.4-1.62-6.62-.25-9.27.38-3.45.81-7,.41-10.57,1.21.72-2.59,2.84-3.36,5.46-4.44,4.19-1.74,8.29-1.27,14-1.17C91.22,198.4,90.77,207.23,90.2,221.52Zm0-43.2c-1.61-3.67,4,2.24,6.23,1.56.67-.21-.59-1.24.58-2.49.64-.68,3.42.78,7.77,2.61a51.39,51.39,0,0,0-8.27,1.13c-1.66.31-5.06.39-4.69,2.47,11-1.57,37.13-8.22,30.68,11.48-8.22-7.17-19-9.4-34.52-9.83a13.19,13.19,0,0,1-.85-4.12c-.06-1.93,1.24-.47,3,.05C91,181.43,90.9,179.94,90.19,178.32Zm23.1-1.71c1.74-.06.94.55,2.74,3.2-2.25.25-4.44-.37-8.31.07.91-.76-1-1.14.58-2.67,1.28-1.28,2.32,1.62,3.86,1.23S112.26,176.65,113.29,176.61Zm-20.2,26.56c.65-1.08,2.52,2.21,4,2.46,7.69,1.27,16.53-2.9,21.86-5l1.42-.65c-2.44,12.5-11.07,19.93-26.4,21.87A125.78,125.78,0,0,0,93.09,203.17Zm12.28-1.84c1-.86,2.46-4.25.24-6.59l-.21-.13h.09c4.77,0,10.69-.51,12.74,2.19-4.71,3.68-12.34,4.81-13.15,4.9l-.31,0C105,201.6,105.18,201.48,105.37,201.33Zm-13.11-9.28c.21,1.23,1.79,1.76,3.07,2.08a14.94,14.94,0,0,0,2,.34,3.77,3.77,0,0,0-.39.26c-.88.69-1.27,2.13-1.18,3.82A3.72,3.72,0,0,0,97,201.42c.06.05.08.08.08.1a.91.91,0,0,0,.17.09l-.2,0a28.72,28.72,0,0,1-3.15-1.07c-1.66-4.44-4-6.51-5.11-11.48,9.55-.18,16.52.44,23.43,2.82C106.37,192.4,97.62,189.94,92.26,192.05ZM275.8,229.69c-2.14,7.27-2.71,17.18.1,20.29,8.28,0,7.05-9.64,14-10.9.62,8.91-.15,16.65-1,26-.32,3.68-.07,8.12,1.86,10.41,2.34-7.37,6.05-12.69,7.68-19.79,1.43-6.27,4.4-25.37,8.35-22.25,4.17,3.3,6-10.61,3.77-19.27-.58-2.27,10.58-.38,14.35-8,8-2.24,13.16-10.24,23.11-6.58,8.36,3.07,12.8,13.49,11.77,25.52-1.39,16.27-19.94,28.7-29.49,40.78-3.92,5-5.31,11.66-8.91,16.16-7.7,9.6-24.86,4.34-23.31-7.09.55-4.06,2.42-4.65,4.19-8.15-3.33,0-7,3.51-7.67,6.59a13.83,13.83,0,0,0-.1,5.46C286.62,292.78,277,314,268.17,328.25c-2.45,3.94-9,14.4-9.32,17.8-.14,1.64.29,4.81,1.71-.41,11.13-12,19.9-30.48,27.32-45.71,2.34-4.81,9.8-8,12.08-13,3.33,2.26,5.11,4.9,9.6,4.17,2.71-.44,1.67,8.37-2.79,16.67a169.58,169.58,0,0,0-19.33,65.4c-2.13,23.1-3.6,38.21-15.8,51.19-3.72,4-4.52,13.73,6.23,8.48,4.67-2.28,2.19,10.3-1.11,12.86-2.55,2-10.6,4.27-12.79,4.63-10.08,1.67-20.9,3.09-31.53,2.89-44-.84-62.89-28-90.86-43.43-3.44-2.45,4.82-10.39,7.49-10.39,19,0,39.89-4.31,49.4-11.86,2.36-1.88,4.35-6.82,3.28-10.18-2.63,2.5-3.46,5.07-6,7-13.4,10.33-51.5,16.05-69.69,4.6-13.81-8.71-19.45-33.22-23.44-56.19-4.07-23.49-9.48-45.77-10.42-66.33-.66-14.48,1.27-28.24,1.57-40.83,12.94-.8,21.86-10,23.38-11.59,2.7-2.82-2.21,14.29-5.92,23.61-3.45,8.69-9.07,19-8.25,28.91.68,8.18,12,12.32,14,12.58,4.78.63-5.4,10.17-2.3,10.41,3.55.27,6.19-5,7.28-8,.78-2.12,3.06-1,5.2-.21,2.3.88,8.63,1.31,6.39,0-11.72-6.85-28.32-3.84-26.39-21.88,1-9.5,7.15-18.08,10.06-29.07,3.07-11.56,3.44-22.94,7-31.51,4.09-.18,9.15-2,13.63-1.65a13.56,13.56,0,0,1,5.76,2.48,13.66,13.66,0,0,0-2.67,11.07c2.36,13.4,20.66,23,38.1,23.74,17,.72,33.18-7.06,33-24,18.94,7.81,47.13-.27,66.9-3C281.07,213.74,277.9,222.55,275.8,229.69ZM148.71,197.54c4.57-3.08,11.67-4.28,19.8-4.87,16.24-1.16,47.8,2.25,39.43,24.33-6.32,16.66-38.77,16.65-54.33,5.08-4.9-3.64-11.08-10.45-10-17,2.27,2.12,3.75,5.57,7.3,4.55C153.37,208.9,148.43,203,148.71,197.54ZM103,105.05c8-9.76,53.1-20.32,60-13.38,47.07,47.66,92.92,43,102.39,47.6,4.28,2.07-9.64,7.52-4.53,14.75,4.32,6.11,17,19.88,18.11,25.36,1.86,8.89,1,15.48-.93,25.29-20.3,2.24-48.44,9-66.46-.11-2.23-9.74-19.67-16.15-36.7-16-11.66.08-21.49,1.58-27.73,7.47a27.41,27.41,0,0,1-3.62-2c-4-2.74-13.27.44-18.89,1.06.18-4.1.88-5.94-.42-9a32.78,32.78,0,0,0-4-6.36c-2.76-3.69-5.2-10.51-9.77-10-1.47.18-.73,2.63-2,3.2-1.57.69-3.86-2.65-4.3-.67-.13.62.21,2.51-.46,2.83-1.64.79-6.35-2.07-9.89-2.56-1.8-.26-.31,3.36-.9,3-1.46-.79-4.3-.21-5.7-1.05,2.57-18.1,8.65-36.86,12.36-53.6.35-1.59,1.35-4,.8-5.75C101.66,113.3,102,107.7,103,105.05Z"/><path d="M317.7,259.9l-1.62-1.66c-1.8-4.81-.51-17.12,4.11-21.87a6,6,0,0,1,6.25-1.54l.47.14.13.45a11.34,11.34,0,0,1,0,5.37l-.18.58-.61,0-1.45.12a19.84,19.84,0,0,1-5.49.05c-1.61,5,.5,8.91,1.52,12.67,4.71-2.17,14.76-10.67,16.39-14.27,2.61-5.76,4.13-13.14.8-17.22-2-2.39-3-4.18-6.32-3.59l-2-.81c4-.71,9.06-.15,11.43,2.75,4.19,5.13,2.36,14.58-.18,20.19-2,4.31-18.36,17.32-22.46,18.39Z"/><path d="M218.05,494.51c-25.36,0-42.38-15.62-60.38-33.12-2.73-2.65-22-18.8-17.16-20.49s23.75,21.35,28,25c15.86,13.88,32,18.38,52.76,18.06,5.95-.1,30.69-4.78,30.22.19C251.09,488.15,221.67,494.51,218.05,494.51Z"/><path class="eyes" d="M178.66,205.66a3.42,3.42,0,0,0,2.91.35c1.31-.74,1.53-1.57,2.14-2.94a3.18,3.18,0,0,0,.25-2.2,1.6,1.6,0,0,0-1-1.09,2,2,0,0,0-1.87.69c-.43,1,1,2.23-1.21,2.58-1.83.28-.6-3.11-1.65-3.49a1.46,1.46,0,0,0-1.85,1.31A5.12,5.12,0,0,0,178.66,205.66Z"/><path class="eyes" d="M100,200.72a2.35,2.35,0,0,0,2,.33c.89-.49,1-1.07,1.46-2a2.28,2.28,0,0,0,.17-1.54,1.25,1.25,0,0,0-.65-.8,1.34,1.34,0,0,0-1.29.44c-.3.66.72,1.6-.83,1.78-1.25.15-.41-2.21-1.14-2.51a1,1,0,0,0-1.27.87A3.84,3.84,0,0,0,100,200.72Z"/></svg>
