<svg
  data-face="claudina"
  xmlns="http://www.w3.org/2000/svg"
  aria-hidden="true"
  focusable="false"
  viewBox="0 0 500 500"
  width="500px"
  height="500px"
><path d="M156.76 130.96c5.79-4.34 11-5.38 21.5-7.65.85-.18 3.82-.82 4.12-.88 1.69-.36 3.04-.66 4.38-.97 3.45-.79 8.47-3.03 11.62-3.98 3.94-1.19 6.21-1.76 14.91-6.89s18.1-6.6 27.23-3.98c9.69 2.78 20.58 12.45 34.85 26.08.98.93 2.27 1.66 3.45 2.73.97.88 2.08 1.99 3.33 3.09 11.16 9.86 12.76 11.57 14.65 14.58 2.27 3.63 3.8 8.52 4.44 14.67.38 3.62.22 6.55.28 12.66.06 5.2.08 7.47.48 8.96 12.87 47.35 8.65 111.67-14.09 145.89-5.21 7.84-8.43 11.37-15.66 16.44-2.1 1.48-5.9 2.88-8.38 5.73-2.34 2.69-3.7 4.69-5.89 6.46-11.41 9.23-17.71 15.63-31.88 15.15-9.13-.31-19.59-4.02-31.39-8.69-8.34-3.3-15.63-7-26.06-12.52-2.78-1.47-22.99-13.47-27.91-15.94-6.56-3.29-13.09-9.21-16.68-19.5-2.43-6.96-3.73-13.25-4.96-21.53-.3-2.01-1.63-13.76-1.75-14.52-2.29-14.06-3.74-21.03-4.26-29.81-.17-2.86.04-4.82.04-7.51 0-1.66-.3-3.81-.32-6.57-.06-9.86 0-13.85.42-18.97.57-6.85 1.56-13.19 3.7-19.65 1.02-3.08 3.28-6.93 6.48-12.39.47-.8 7.25-11.47 9.25-14.42 2.44-3.6 2.42-6.93 4.69-13.96.13-.41.25-.78.5-1.57 3.31-10.33 4.2-15.79 7.68-20.29 3.42-4.39 7.79-7.67 11.23-10.25zm-20.31 28.87c-.25.79-.37 1.16-.5 1.57-2.23 6.97-2.7 9.55-4.79 13.38-.73 1.35-2.63 4.15-3.93 6.31-.39.66-2.82 4.68-3.53 5.88-.55.93-1.06 1.78-1.53 2.59-3.25 5.57-7.23 9.06-8.29 12.28-2.18 6.6-2.72 13.78-3.29 20.77-.43 5.21.18 8.54.25 18.48.02 2.77.65 11.77.82 14.67.52 8.87 1.44 16.83 3.67 31.01.51 3.22 1.5 12.66 1.8 14.67 1.24 8.4 2.16 15.02 4.63 22.12 3.71 10.66 9.21 17.42 16.2 20.94 4.88 2.46 25.86 13.67 28.66 15.16 10.45 5.56 19.75 10.28 28.14 13.62 11.93 4.75 22.01 8.19 31.33 8.51 14.63.49 23.08-5.47 34.29-16.01 3.47-3.26 5.92-7.52 10.02-9.73 8.19-4.43 14.54-11.98 19.85-20.01 22.99-34.77 26.4-100.77 13.44-148.68-.35-1.3-.44-3.15-.5-8.18-.07-6.18.96-9.18.57-12.87-.66-6.39-1.3-11.15-3.71-15.03-2.01-3.23-5.23-4.65-16.59-14.73-1.24-1.1-10.59-8.75-11.56-9.68-14.44-13.86-18.16-19.99-28.17-22.88-9.57-2.76-17.13-4.56-29.85 2.44-5.96 3.28-20.12 12.13-37.55 15.19-10.73 1.88-13.06 1.67-19.06 6.19-3.56 2.68-12.05 8-15.54 12.53-3.64 4.71-1.92 8.95-5.28 19.49z"/>
  <path d="M289.5 345.9c-.38 3.4-.84 12.97-.84 16.73 0 .3.68 5.89.75 6.41.56 4.14.53 12.81.42 13.84l2.1-4.71c-.73 1.5-.46-7.5-.36-8.7.06-.64-.14-8.74-.14-8.92 0-3.68-.03-10.68.72-15.26 1.09-6.67-.4-9.07 1.35-15.28l-4.01 5.71c1.45.68.51 5.73.01 10.18zM143.05 358.74c.37 2.48.73 5.47 1.3 8.64.24 1.3 1.53 7.64 1.55 7.78 1.95 10.69 2.2 16.91 2.2 26.54l1.95 5.41c0-9.73-.73-23.73-2.7-34.5-.03-.14-.81-4.4-1.05-5.7-.57-3.15-.49-5.67-.85-8.13-.76-5.1.1-7.67.1-11.32l-3.32-1.75c.02 3.74.06 7.86.82 13.03z"/>
  <path d="M309.87 324.75c.74-3.33 2.91-16.35 3.51-18.77.44.01 4.35.5 5.56-.44s1.49-3.7 2.09-7.5c.45-2.88.82-4.01 1.91-5.1-.01.01.26 0 .97.09 1.71.2 3.5.24 4-.76.95-1.9-1.28-3.67-4.12-5.42-.42-.26-2.11-1.2-.44-1.02 3.5.33 5.99.19 6.46-1.72.18-.71-.78-1.09-1.77-4.44-.13-.44-.23-.8-.32-1.14-.42-1.56-.58-2.67-.47-3.41.11-.67.4-.9 1.25-.8 1.15.13 2.59-.11 2.78-1.06.11-.55-.61-1.2-.87-2.38-.27-1.21-.27-1.69-.12-1.83-.02.02.23.1.89.52 1.74 1.11 3.36 2.28 4.06 1.23.12-1.13-1.17-7.4-1.19-8.07-.07-2.03-1.65-6.47.22-8.27 1.87-1.81 9.53-6.12 5.78-8.25-3.75-2.13 7.66-9.06 5.32-13.32-.47-.86-.91-1.16-2.27-2.18-.67-.49-.95-.69-1.31-.95.1.07-.63-.45-.79-.56-.34-.11-.34-.11-.71.68.42-.32 1.13-.62 2.57-1.12.81-.28.99-.35 1.16-.41 1.61-.59 3.5-.98 3.73-1.72.36-1.12-1.81-1.8-4.03-2.48-1.33-.27-1.52-.32-1.72-.41.72.66 2.41.38 2.97.26 2.36-.47 3.72-1.08 4.08-2.34.33-1.15.02-2.05-.85-2.56-.56-.33-.44-1.55-.35-1.57 2.85-.87 4.45-1.74 4.87-3.21.21-.72-.03-1.35-.6-1.93-.29-.3-1.56-1.29-1.71-1.43-2.33-2.03-3.03-4.9-.03-10.05.83-1.43 4.28-1.54 4.49-1.81.49-.61.14-1.19-.46-1.51-.14-.08-2.86-.82-3.5-1.01-1.62-.49.09-1.7-.03-1.64 4.12-2.14 6.34-3.94 5.17-6.27-.55-1.11-2.05-1.12-4.27-1.49-1.94-.32-3.06-.94-2.16-2.65.89-1.71 4.17-7.45 4.28-9.69.14-2.99-3.09-8.41-2.15-9.7.94-1.29 3.33-3.63 3.55-4.49 1.29-5.16.34-9.38-1.64-13.1-.49-.92-1.83-2.99-1.83-3.02 0-.06.08-.43 1.48-6.73.55-2.47 2.27-4.53 2.52-5.73.15-.72-3.12-1.77-1.68-2.99 1.44-1.21 2.49-5.85.91-8.12-.56-.8-5.55-.01-6.65-.3-2.57-.68-4.27-1.51-4.69-2.36-.53-1.06-.4-2.28.43-6.08.26-1.2.41-1.93.53-2.72.71-4.52 1.97-8.93-1.44-10.97-1.42-.85-5.05.51-8.19 1.07-3.28.59-4.24-.57-3.61-1.11.53-.45 2.84-2.3 3.03-2.53 1.13-1.41 4.01-6.97 4.01-8.22 0-1.06-.79-1.24-3.21-.24-.79.32-2.88.58-3.11-2-.23-2.58-2.68-12.18-8.97-20.14-6.28-7.95-16.24-17.52-19.35-19.84-.58-.44-.72-1.43-.65-4.09.09-4.02.7-7.45-1.23-8.28-1.75-.75-3.82 1.77-5.5 4.12-.97 1.35-.65-4.04-1.63-4.59-3.64-2.02-7.57-3.93-11.06-8.24-1.73-2.14-7.9-13.11-10.53-13.22-2.62-.11-2.63 2.44-4.2 5.67-.28.57-.03-5-.44-5.97-.59-1.38-3.1.58-5.81 1.07-.64.12-1.31.27-2.01.45-.73.19-.92.24-2.11.6-.33-.85-.34-.92-.34-1.09-.05-.9.06-2.33-.23-2.68-.56-.68-1.45.27-2.24.98-.35.31-1.5 2.06-2.68 2.08-1.18.02-2.38-3.99-8.15-3.73-3.36.15-5.51 1.94-7.47 1.48-.53-.13-1.04-.28-1.54-.47-1.9-.71-2.49-2.04-3.46-3.33-1.42-1.9-4.45-4.16-5.68-3.74-1.23.42-1.36.81-1.65 1.53-.16.4-.74 2.5-.74 2.49-.44 1.48-1.4 1.58-1.95 1.68-.56.09-1.6-1.06-2.58-1.73-1.93-1.31-3.49-3.93-3.59-4.03-1.09-1.09-2.28-.55-3.69.63-.56.47-1.54 2.17-2.23 2.98-.27.31-.58 1.23-2.08 2.08-1.5.86-6.07-3.84-7.83-3.35-1.73.54-2.77 1.11-4.49.64-.4-.11-.89-.8-1.58-2.21-.03-.06-.41-.86-.52-1.09-.2-.41-.37-.72-.54-.99-.42-.65-.85-1.02-1.46-1.02-.33 0-1.72 1.26-2.1 1.54-.98.71-1.93 1.16-2.76 1.23-.92-.06-5.22-1.08-6.26-1.3-1.29-.28-2.47-.52-3.6-.72-5.76-1.01-10.33-1.58-11.32.4-.24.48.96 1.49 1.35 2.06.42.56.69.91.77 1.02.75 1.02.85 1.33.91 1.28-.46.46-1.35.46-3.44.07-2.53-.47-4.78-.95-5.75-.39-1.28.75-.36 1.63-7.09 9.42-.24.28-.47.54-.69.79-3.32 3.82-5.47 6.08-7.02 7.24-.17.13-1.81-.02-5.32-.52-5.85-.84-7.95-1.66-8.3-.27-.34 1.35.11 3.09-.15 3.87-.8 2.35-1.43 2.95-3.55 3.61-.46.14-6.54.52-7.82.98-1.25.45-8.98 15.46-10.58 18.66-.46.84-2.53 1.33-3.75 1.71.14-.04-6.12 1.81-8.09 2.44-6.33 2-11.81 4.27-13.38 6-1.18 1.88 2.7 8.23 2.45 8.84-1.12 2.79-3.09 5.14-7.6 10.46-6.23 7.36-8.9 10.07-8.9 14.46-3.51.92-4.42 3.98-4.75 8.34-.04.49.29 5.61-.21 6.26-.09.12-6.12-1.7-6.02-.72.1.98 2.32 4.04 2.76 4.44.93.88 1.73 2.13 1.46 2.88-.2.56-.38 1.1-.55 1.61-.75 2.41-1.68 4.24-1.14 5.19.27.41 1.3.48 1.83.76.71.35 1.19.58 1.33.64.8.38 1.28.66 1.56.93-.35 1.08-1.1 1.74-2.43 2.68-.05.04-1.05.74-1.33.94-.5.36-2.98 1.34-3.3 1.63-1.99 1.86-.82 2.7 2.58 4.4 1.03.52 2.97 2.68 2.29 3.81-.52.86-.85 1.79-1.09 2.91-.11.5-.17.84-.32 1.8-.3 1.91-.52 2.72-1.08 3.5-.3.42-.79.84-1.89 1.64-1.28.95-4.58 1.98-5.01 2.5-.73.87 4.82 3.85 5.87 4.71.7.58 4.96 4.87 5.71 7.11s.4 2.41-.44 2.31c-1.27-.14-2.09-.5-2.63-.17-.69.42-2.16 2.68-2.26 4.04-.22 3.05 2.05 3.91 3.65 6.46.18.29.95 1.48 1.15 1.79 1.65 2.64 2.5 4.91 2.82 8.44.34 3.74.46 8.61-.82 8.65-1.28.04-2.63-.67-3.13-.89-1.01-.43-2.92-.54-3.16.43-.69 2.76.71 5.84 2.65 8.38 1.9 2.48 2.41 4.05 2 6.75-.1.67-.16 1.07-.21 1.5-.43 3.27-.71 6.35.31 8.1.95 1.62 2.49 1.45 4.54 2.21 1.89.69 2.5 1 3.09 1.59.85.85.68 1.37-.57 2.59-1.12 1.09-1.18 1.16-1.41 1.66-.4.89-.02 1.71 1 2.29.34.19.71 2.48.49 3.25-.06.19-.49 1.7-.62 2.17-.41 1.48-2.98 5.32-3.19 6.47-.62 3.32.86 4.73 2.09 6.59 2.93 4.4 7.12 6.9 14.07 10.38.9.45 1 2.25-1.15 7.72-2.99 7.53-3.88 9.36-3.31 10.65.51 1.14 1.81 1.23 2.99 1.55.28.08.37.1 1 .21 1.17.9 1.17 1.67.95 3.18-.36 2.33-.37 3.2.13 4.2.78.44 5.56 1 5.39 4.28-.19 3.71-.03 8.3.57 9.49 1.46 2.92 3.03 4.33 8.03 19.52.29.89.55 1.67.8 2.42.69 2.06 1.72 1.92 3.09 1.24 1.09-.61 2.45 1.6 2.45 2.39 0 1.04.57 1.72 1.51 1.42.41-.13.76-.39 1.4-.96.63-.56 1.43 4.06 1.83 5.76.95 4.07 1.21 7.61 2.58 8.76 1.36 1.15 3.76-1.04 5.27-2.08 1.51-1.04 3.29-1.26 4.63-1.27 1.39-.01 5.57 1.33 6.77 2.24.49.37-1.62-1.24-2.04-2.55-.42-1.3-2.72-1.81-4.51-1.8-1.61.01-3.31-.34-5.4.59-2.84 1.26-4.92-.53-5.79-4.25-.39-1.66-.85-7.02-.97-7.5-.23-.91-1.56-.44-2.23-.02-.28.17-.45.31-1.07.87-.54.49-.6-1.44-.9-2.37-.47-1.5-1.09-3.52-2.16-2.56-1.84 1.65-3.49.05-3.78-.83-5.05-15.35-5.92-17.85-7.43-20.88-.42-.84-.46-2.01-.31-4.98.21-4.18.42-5.9-.81-7.13-.55-.55-1.29-1.31-2.78-1.4-.65-.04-1.77-.04-2.63-.03-.27-.18-.4-.36-.14-2.08.31-2.09 1.14-3.89.64-4.91-.34-.68-1.61-.35-2.72-.56-1.64-.4-1.4-3.84.83-9.46 2.98-7.56 2.85-10.26.7-11.33-6.73-3.37-10.48-6.16-13.23-10.29-.96-1.44-1.09-3.65-.54-6.61.2-1.1.48-2.24.89-3.68.13-.47.56-1.97.62-2.17.23-.8 1.05-2.07 1.16-2.56.33-1.55-.41-1.72-1.37-2.05-.43-.14-1.16-1.05-.28-1.9 1.79-1.74 5.83-2.9 4.17-4.56-.8-.8-3.76-1.88-5.41-2.49-2.18-.81-3.02-.98-3.75-2.23-.8-1.37-2.31-3.17-1.92-6.12.05-.42.11-.81.21-1.48.43-2.86.53-3.87.4-5.12-.19-.93-.47-1.48-.93-2.14-.17-.24-.36-.49-.62-.83.14.17-.5-.64-.65-.84-1.68-2.2-.83-4.94-.09-4.49.77.48 2.09 1.33 1.88 1.19.58.37.82.51 1.01.58.79.26 1.34-.25 1.6-1.07.17-.54.27-1.32.3-2.36.06-1.93 1.31-4.62.97-8.42-.34-3.8-2.67-6.49-4.45-9.32-.2-.32-.97-1.51-1.15-1.79-1.44-2.29-1.95-3.95-1.76-6.63.06-.91.67-1.44 1.52-1.34.98.11 5.07.34 5.04-.12-.24-.94-6.39-9.87-8.98-12.07-.26-.22-.26-.22-.96-.8-1.01-.84-1.54-1.3-2.11-1.87.44-.9.82-1.21 1.98-2.06 1.24-.91 3.17-.77 3.61-1.38.75-1.05-.36-2.63-.02-4.78.14-.92.2-1.24.3-1.71.21-.97 1.13-2.41 1.55-3.11 1.13-1.88-.24-4.08-2.1-5.01-2.52-1.26-2.69-1.83-1.58-2.87.26-.25.6-.51 1.05-.84.27-.19 1.25-.89 1.31-.93 1.48-1.05 4.96-2.32 5.57-3.24.55-.82-3.99-2.58-4.93-3.03-1.54-.74-1.71-.83-1.8-.96-.22-.39-.01-1.83.59-3.77.15-.49.33-1.01.52-1.55.26-.73.54-1.43.85-2.21.42-.89-.44-1.9-.61-2.75-.29-.36.8-.52 1.35-1.24.76-1.02.95-2.21 1.12-5.35.05-.94.07-1.25.1-1.73.29-3.79 1.11-5.72 3.22-6.43.78-.02 1.23.2 1.52-.03.33-.27.16-.88.16-1.4 0-3.86 2.06-7.13 8.02-14.19 4.63-5.47 8.23-7.14 9.44-10.16.39-.97-2.04-7.59-1.69-8.21 1.57-1.79 3.71-4.44 9.73-6.34 1.96-.62 13.12-2.8 13.42-3.41 1.34-2.69 8.37-17.36 10.55-18.46 2.19-1.1 7.5-1.59 7.99-1.74 2.59-.8 1.86-1.92 2.82-4.75.28-.83.64-2.56 1.84-2.89 1.2-.34 2.54-.06 4.58.23 5.16.74 6.94 3.99 7.67 3.45 1.67-1.25 7.13-10.5 7.38-10.78 6.34-7.34 6.11-7.49 7.15-8.09.5-.29 10.37.99 11.36 0 .75-.75-.63-4.49-.67-4.55 0-1.26 7.56.11 8.83.39.94.21 5.67 1.61 6.14 1.68 2.04-.08 3.16-.88 4.59-1.07 1.43-.19 3.1 2.36 4.13 2.64 2.02.55 2.72.81 4.13.36 1.69-.49 8.13 4.9 8.93 4.5.35-.18 1.07-2.87 1.61-3.5.2-.23 1.12-1.35 1.37-1.65.63-.75 1.75-.2 3.45-.22 1.69-.02 8 6.64 8.51 6.57 1.22-.18 1.76-4.33 2.39-6.42.02-.08.46-1.4 1.48-1.77 1.03-.38 2.54 1.1 3.78 2.76 1.13 1.52 2.03 2.25 4.23 3.07.56.21 1.14.38 1.73.52 2.14.51 3.97.87 7.46.71 5.17-.24 6.46.79 7.59 3.05.45.9 1.55-.07 2.27-.67.36-.3.68-.68 1.28-1.49.64-.86 2.04 4.06 2.86 3.81 1.16-.35 1.82-2.88 2.52-3.06.67-.17 1.3-.32 1.9-.42 1.95-.36 3.22-.25 3.38.11.28.65.32 1.78.17 3.59-.25 2.74-.28 3.29-.23 3.97.07.96.25 3.36 1.17 3.02.4-.14 1.97-2.95 2.32-3.61.27-.52 3.39-4.28 4.55-4.11 1.16.17 6.11 6.4 8.15 8.92 3.6 4.45 8.21 8.69 8.43 10.03.22 1.34 2.45 3.66 2.49 4.09.09.9.73 1.45 1.66 1.15.83-.28 1.41-.88 2.35-2.18 1.5-2.09 4.23-.49 4.17 2.4-.09 3.78-1.44 5.83-.25 6.72 2.96 2.22 12.95 10.75 18.9 18.85 8.03 10.94 11.64 19.35 9.05 22.81-.42.56-.57 1.12.15 1.51.34.18.62.14 1.11-.01.26-.08.57-.2 1.01-.38.2-.08 1.01-.42 1.21-.5 1.5-.59 2.36 2.14 1.16 4.15-.86 1.45-2.54 2.43-2.95 2.76-.98.8-1.82 1.63-2.16 2.07-.6.78-.79 1.53-.01 2.05 1.38.92 2.75.87 6.22.24 3.01-.54 4.3-.57 5.27.01 2.76 1.65 3.43 4.12 2.81 8.08-.12.75-.26 1.46-.51 2.63-.93 4.26-2.94 6.66-2.17 8.19.7 1.4 4.55 1.29 7.56 2.08 1.14.3 2.61.46 3.97.92.97.33 2.1 3.38 1.47 4.16-.45.55-1.54 1.1-2.67.91-.44-.07-3.1.69-2.48 1.68.63.99 4.6 2.33 4.46 3.03-.24 1.19-.66 2.93-.96 5.11-.3 2.17-3.24 6.24-2.97 7.21.31 1.12 3.18 2.6 3.45 3.11 1.81 3.4.7 12.17-1.09 14.67-.94 1.32-1.84 1.83-2.29 2.42-.8 1.05-1.04 1.96-.12 2.57 2.62 1.75 2.67 2.76 2.88 6.77.22 4.01-4.87 9.71-4.58 11.6.3 1.89 1.86 1.98 4.34 2.39 1.76.29 2.03 3.16-1.28 4.87.13-.07-1.32.68-1.69.88-.63.33-1.43.59-1.84.86-.67.45-.53 1.47-.07 1.82 1.15.55 2.23.44 3.08.7 1.88.55-1.12 2.28-1.52 3.07-2.99 5.99-2.27 9.4.62 11.92.22.2.96 2.54-1.35 3.24-.01 0-3.13.87-3.73 1.11-.63.25-1.01.49-1.17.94-.25.68.16 1.16.87 1.51.5.25 1.82-.03 2.34 1.48.52 1.51-5.33 1.66-5.62 1.87-.84.61.41 1.75 1.21 2.15.37.19.67.26 1.31.37 1.5.4 2.07.64 2.37.84.1-.14-.49.18-1.51.55-.68.24-.84.3-1.14.4-1.61.56-4.94.43-4.42 1.41.5 1.14 3.06 2.39 2.96 2.31.36.25.63.45.9.65 1.39 1.03 2.09 1.65 2.13 1.76.71 1.89-4.75 8.19-7.89 10.06-.49.29-1.89 1.46-1.78 2.12.76.85.94.95 1.23 1.09 1.36.68 1.76.95 1.85 1.1.85 1.36-4.17 5.09-5.15 6.19-.98 1.1-.3.78-.07 7.66.02.67.71 6.35.7 6.27.02.51.03.86.04 1.1.02-.21-.18-.33-.73-.68-1.45-.91-2.45-1.75-3.21-.99-.69.69-.41 2.1-.07 3.67.25 1.12.3 1.47.25 1.71-2.11-.14-4.57.02-4.81 1.51-.16 1.02 1.45 2.92 1.93 4.68.1.36.2.72.33 1.18.77 2.59.89 3.09.82 3.35-.21.85-1.1 1.08-3.15.89-3.1-.33-3.77-.32-4.44.35-.46.46-.34 1.02.04 1.44.18.2.44.4.82.64.33.21 1.93 1.13 2.33 1.38 2.17 1.34 2.46 3.1 1.69 3.01-1.65-.21-2.77-.42-3.28.09-1.4 1.4-1.38 3.32-1.86 6.44-.54 3.46-1.11 4.79-3.02 5.94-.08.05-.44.13-1.12.24-2.32.37-4.13-.37-4.34.46-.62 2.47-1.99 16.87-2.72 20.16-3.33 15.04-12.08 20.34-16.01 19.28-3.93-1.06-.83 3.89 2.56 3.87 3.25.09 11.36-6.94 14.88-22.82z"/>
  <path d="M101.85 241.38c-2.33 1.88-2.98 5.55-4.26 10.01-.46 1.59-4.42 14.41-4.73 16.07-.6 3.31-.77 6.16-.28 8.53.36 1.76 1.88 2.77 3.57 5.69.32.56.44.77.61 1.05.8 1.4 1.29 2.41 1.63 3.4.42 1.21.51 2.26.53 4.68.03 2.8.15 4.04.76 5.56 1.07 2.66 11.62 12.78 13.8 11.51 1.08-.63 1.33-3.52 2.14-5.55.3-.74 2.47-1.55 2.5-1.61l-.72-3.81c-.04.1-3.09 2.63-3.37 3.33-.68 1.71-1.27 4.35-1.94 4.73-.34.2-2.78-1.3-5.54-3.66-2.59-2.21-4.4-4.84-4.67-5.51-.52-1.29-.69-2.3-.71-4.91-.02-2.59.4-3.9-.09-5.32-.38-1.09-2.08-2.11-2.92-3.59-.17-.29-.29-.5-.61-1.07-1.61-2.78-2.22-4.04-2.54-5.59-.44-2.14-.33-4.72.24-7.85.29-1.61.68-3.26 1.26-5.45.06-.22.8-2.95.99-3.69-.03.1 1.19-4.98 1.64-6.52 1.2-4.18 2.96-6.2 4.97-7.83.58-.47 7.02 1.51 7.23 2.35l-.04-2.78c-.47-1.86-7.86-3.46-9.45-2.17z"/>
  <path d="M101.84 264.11c.01 1.58.64 2.49 1.75 3.14.2.12.24.45-.11.57-2.1.75-3.84 1.32-3.84 5.12 0 .78 1.86 2.54 2.8 4.85.07.18.15.37.23.57.23.55 1.03 2.44 1.17 2.79.16.39.85 2 1.6 1.59.52-.27.32-.78.3-.87-.02-.1-.05-.21-.1-.34-.08-.22-.19-.52-.36-.93-.15-.36-.95-2.25-1.17-2.8-.08-.19-.16-.38-.23-.56-.84-2.07-1.31-3.47-1.31-3.96 0-3.23.13-3.55 1.46-4.03.32-.11 4.16-.52 3.01-2.06-.19-.26-1.14-.51-1.57-.71-.12-.06-.12-.06-.24-.11-.72-.33-.69-.32-.82-.4-.47-.27-.53-.5-.49-1.56.01-.27.02-.42.02-.59 0-5.82-.18-8.93 3.03-8.89 2.47.03 3.65-2.97 1.92-3.49-5.38-1.62-7.08 8.75-7.05 12.67z"/>
  <path d="M106.29 273.4c.11.14 4.89 2.74 4.26 4.33-.28.7-.61 1.02-1.1 1.21-.17.07-1.42-.01-1.88.12-1.8.5-1.15 1.53-.57 3.97.3 1.25.7 2.19 1.59 3.98l.2.4c1.46 2.93 1.86 4.57 1.32 7.13-.04.19-.88 1.12-1.69 1.73-.77.58-1.07.64-1.06.66-.43-.73-.55-1.85-.41-3.35.06-.58 1.4.11 1.61-.46 1-2.64-2.64-4.79-3.26-1.75-.16.8-.23 1.46-.29 2.08-.17 1.78-.02 3.16.61 4.22.84 1.42 2.7 2.07 4.32.87 1.12-.83 2.71-2.53 2.85-3.19.62-2.93-.6-5.37-2.19-8.57l-.2-.4c-.85-1.69-1.21-2.55-1.48-3.66-.4-1.67-.34-1.78.45-1.99.56-.15.65-.18.93-.29.97-.39 1.67-1.06 2.11-2.17.88-2.22-3.07-6.92-3.18-7.06-.96-1.2-4.02.84-2.94 2.19zM310.28 259.96c.35 0 4.85-2.37 5.71-1.5.89.89.72 2.34.48 4.49-.14 1.17-1.51 4.93-.37 9.07 1.02 3.69-.53 7.68-1.26 9.24-.44.93-2.28 3.05-2.34 3.11-1.9 2.07-3.33 2.49-3.64 4.34-.25 1.49.09 3.23-.01 5.79-.04.95.2 4.93-.9 7.87-.88 2.34-5.55 7.07-6.34 4.85l-.3 3.43c1.2 3.38 1.75 1.8 4.19-.44 1.78-1.63 2.98-4.71 3.92-7.31.69-1.9 1.01-3.77 1.15-6.26.03-.54-.26-8.09 3.2-11.36 1.38-1.3 2.71-2.31 3.23-3.43.85-1.83 2.48-6.75 1.64-9.61-.22-.75-.93-1.66-.88-3.74.07-2.97 1.07-5 1.19-6.11.31-2.74-.35-6.35-1.57-6.85-2.05-.83-6.53.61-6.89.75-1.71.65-.21 3.67-.21 3.67z"/>
  <path d="M312.01 272.29c.72.08 1.56 1.65-.94 5.41-2.51 3.75-.27 3.14.97 2.25 1.23-.89 3.23-8.78 1.26-10.44-1.12-.94-2.84-.12-4.31 1.42-1.08 1.12-.67 1.23-.67 1.88 0 0 1.36 1.69 2.22 1.07.85-.62.82-1.66 1.47-1.59zM312.45 362.53c6.06-.24 12.09-.46 15.57-.56 16.36-.43 27.67-2.4 38.63-.25 3.92.77 7.99 1.89 12.97 3.51 2.08.68 3.65 1.21 7.54 2.55 20.39 7.03 27.62 6.93 33.24 7.64 5.63.72-1.01-2.57-4.47-2.77-7.26-.41-6.83.09-26.92-6.84-3.91-1.35-6.34-2.32-8.43-3-5.05-1.64-10.06-3.56-14.06-4.35-11.1-2.17-22.56-1.27-39.04-.83-3.49.09-6.41.2-12.48.44-11.09.43-18.7-.97-24.5-.97l-.07 7.5c5.99-1.4 10.91-1.64 22.02-2.07zM72.05 373.5c-29.68 8.26-41.04 11.52-58.39 12.24-17.36.72-18.69 1.7-.99 1.22 17.7-.48 30.03-3.69 59.82-11.99 8.35-2.33 53.33-9.31 71.92-9.31l-.74-5.53c-18.79 0-61.36 10.52-71.62 13.37z"/>
  <path d="M160.8 435.46c1.09 2.22 3.23 6.36 3.76 7.46 7.79 15.99 9.85 20.09 13.53 34.4 2.47 4.42 2.16 1.84 1.48-.35-1.54-5.43-6.27-20.04-14.11-36.14-.53-1.1-1.57-4.94-2.62-7.34-12.38-28.47-13.05-31.05-14.04-47.06-.48-7.76-5.17-31.43-5.65-23.51-.15 2.46 1.44 8.72 1.99 18.51.92 16.43 2.29 26.71 15.66 54.03zM283.26 390.3c-2.14 4.64-5.98 15.99-9.46 23.49-1.16 2.51-1.75 3.77-2.33 5.01-6.87 14.81-11.51 22.12-15.75 31.62-.26.59-2.58 10.43-3.78 13.46-1.99 5.04-4.32 7.21-5.5 10.57-3.3 9.34.11 4.92 1.15 1.02 1.08-4.06 4.39-4.38 6.45-9.58 1.22-3.08 3.45-12.8 3.69-13.32 4.23-9.49 17.85-34.43 19.01-36.94 3.49-7.51 4.24-15.03 12.71-28.61 5.74-9.2 3.5-12 2.02-18.91l-2.69-9.46c1.94 15.72-4.37 29.15-5.52 31.65zM190.43 295.4c6.73-3.54 18.48-5.58 29.17-5.89 3.53-.1 6.18 1.81 9.2 2.09 3.02.29 5.12-1.9 8.1-1.66 4.06.32 12.86 3.39 16.77 5.67.43.25 15.19 8.38 16.45 8.55 1.25.17 1.64.59 1.76-.02.12-.61-.52-.66-1.84-1.18-1.67-.65-15.42-9.1-15.86-9.36-4.07-2.38-14.13-5.87-17.24-6.51-4.05-.83-7.29 1.37-8.97 1.23-1.68-.14-3.59-1.7-7.41-1.53-10.64.49-22.87 2.47-29.51 6.08-2.06 1.12-10.71 7.22-14.66 7.42-1.1.06-.91 1.22.18 1.11 5.88-.58 12.07-5.06 13.86-6z"/>
  <path d="M190.42 301.28c12.17-1.16 17.36-1.4 23.35-.57 2.19.3 10.75 3.36 13.18 3.31 2.38-.05 8.86-2.53 11.54-2.67 4.77-.25 7.84.31 15.54 1.8 9.19 1.78 13.83 1.51 17.86.58l-1.83-.57c-3.92.47-6.7.54-15.69-1.21-7.83-1.52-10.74-2.04-17.04-2.03-3.92.01-8.04 1.38-10.55 1.36-2.51-.02-10.4-1.94-12.18-2.16-6.86-.82-9.96-.79-22.25.38-1.65.16-15.43 2.07-17.22 2.05-.87-.01-1.32.09-1.44.39s.31.52.84.51c3.68-.03 14.23-1.01 15.89-1.17z"/>
  <path d="M191.85 308.53c4.16 2.49 13.1 8.21 16.14 8.98 4.25 1.09 7.2.67 10.7.31.38-.04 7.75-.82 10.72-.73 1.22.04 12.19 1.31 15.15.83 3.14-.51 5.93-2.33 8.81-4.21.53-.35 7.05-4.17 7.35-4.33.25-.13 7.96-4.28 9.21-6.42l-2.61.35c-.72 1.25-7.03 4.99-7.28 5.12-.3.16-6.93 3.57-7.51 3.94-2.7 1.75-5.43 2.26-8.37 2.73-2.81.45-12.78-1.05-14.02-1.09-3.06-.09-11.14 1.07-11.51 1.1-3.32.34-6.09 1.28-10.17.24-2.82-.72-12.51-5.7-15.68-8.15-3.78-2.92-12.29-4.82-14.11-6.68l-3.03.74c2.75.92 12.3 4.93 16.21 7.27zM235.18 337.79c4.01.7 5.74 2.59 5.55 6.69-.1 2.14 1.47 1.09 1.62-.16.44-3.61-1.02-7.47-5.72-8.29-3.44-.6-9.22 1.01-16.41.69-1.52-.07-2.19.91.28 1.43 2.47.51 11.51-.91 14.68-.36zM254.23 183.36c.05.38.09 1.78.55 2.57.57.99 2.52 2.36 3.41 2.13.89-.23.81-1.89.88-3.12.11-2 3.5.66 4.88 2.22 1.31 1.48 3.29 1.92 4.36.68.58-.67.66-1.7.99-2.96.42-1.65 2.06-1.04 2.93 1.11.53 1.31 1.01 1.99 1.62 2.31.99.51 1.88.08 3.81-1.33.59-.43 2.25-1.16 3.46-1.2 1.21-.04 4.19 1.3 4.37 1.39.35.17 1.61.8 2.65.81 2.67.02 1.18-.17-1.13-1.34-1.58-.8-2.99-2.38-5-2.94s-4.26 1.36-5.29 2.1c-1.29.93-2.64.58-3.06-.38-.13-.28-.97-2.91-1.35-3.48-.64-.96-1.8-1.55-2.71-1.04-1.08.62-1.53 2.3-1.77 3.68-.56 3.25-3.14 1.38-4.18.27-.23-.24-1.81-2.31-2.84-2.91-1.14-.67-2.19-.23-2.81.62-.41.56-.79 2.69-1.42 1.76-.14-.21-.09-.98-.37-1.82-.38-1.12-2.18-.75-1.98.87zM194.39 179.1c-.36-.39-.09-1.49-.03-1.77.07-.31.12-.54.14-.7.02-.11.03-.19.03-.27 0-.08 0-.08-.02-.22-.04-.24-.04-.24-.68-.57-1.36-.17-2.5.59-3.85 2.08-.22.24-.43.63-1.2 1.37-.77.74-.85-.56-.82-.78.29-1.9.54-2.91.09-3.47-.75-.95-2.19.02-4.16 1.45-.09.07-.17.12-.33.24-.99.73-1.98 1.61-2.58 1.12-.6-.49-.17-2.93-3.97-2.77-5.49.23-10.08 1.65-15.14 4.6-3.88 2.27-2.95 3.32 1.41.63 4.35-2.68 9.74-3.88 13.71-3.09.5.1.8.46 1.43.91l.28.2c1.08.76 1.9 1.79 3.12 1.61.97-.15 1.55-1.24 2.73-2.11.18-.13.25-.18.34-.25.78-.56 1.73-.56 1.53.72-.03.23-.06.38-.08.53-.21 1.48-.18 2.37.31 3.07.39.57 1.09.64 1.65.28.28-.18.52-.44.83-.84.08-.1.16-.21.26-.35.45-.62 1.32-1.67 1.51-1.88 1.02-1.12 1.31.85 1.25 1.1-.4 1.84-.57 3.04-.45 3.72.14.79.93 1.61 1.76 1.1.41-.25 1.08-.75 1.69-1.66.27-.4 1.99-2.88 1.8-4.7-.19-1.79-2.14 1.15-2.56.7zM258 209.72c-2.17 1.41-5.2 4.9-7.44 8.08-.63.9-4.32-1.16-2.28-2.62 4.59-3.28 6.62-5.37 8.89-6.83 5.72-3.7 9.85-5.55 18.95-2.62 1.83.59 5.42 3.42 8.33 5.72.58.46 1.19.96 1.89 1.53 0 0 3.3 2.76 4.13 3.43 1.38 1.11 2.93 2.06 2.83 2.55-.1.5-2.95.86-4.41-.32-.84-.68-4.88-5.36-5.45-5.81-2.77-2.19-4.23-2.79-5.78-3.33-2.73-.95-1.67.34-1.12 1.38 1.24 2.33.2 6.52-.47 7.69-.67 1.18-.72 1.51.33 1.45 2.2-.14 3.81-.37 4.82-.57 5.84-1.17 5.85-1.1 6.01-3.07 0 0 3.67.69 5.71 1.98 2.04 1.28 3.81 2.57.95 1.98-2.87-.59-7.57.05-13.19 1.17-.99.2-1.49.31-3.71.81-6.56 1.49-10.05 1.92-14.75 1.41-1.57-.17-3.06-.94-5.68-2.68-.24-.16-.24-.16-.49-.33-1.33-.89-4.66-2.69-5.77-2.8-2.09-.19 2.71-3.62 2.71-3.62-.21 1.68.38 2.49 3.83 4.8l.48.32c2.42 1.61 3.1 1.45 5.47 1.67 2.83.27-.82-1.92-1.15-4.59-.42-3.36.56-6.81 2.27-8.21.53-.45-3.45-.16-5.91 1.43z"/>
  <path d="M252.98 206.31c.36-.18 1.77-.91 2.12-1.09 5.43-2.76 11.03-4.31 16.08-3.6 5.15.72 11.94 4.72 15.22 7.59.13.11 3.65 3.39 6.01 4.65 2.36 1.26 4.02.91 2.42-.24s-4.85-3.44-7.42-5.94c-3.23-3.14-11.61-7.42-17.04-8.17-5.43-.76-10.28 1.4-15.97 4.29-.35.18-1.76.91-2.12 1.09-.79.4-1.42.32-2.07.8-.65.48-.22 1.81.37 1.94.59.13 1.59-.9 2.4-1.32zM152.5 210.5c-.82.55-1.58 1.68.21 2.64 0 0-9.61 2.03-5.47-.85 4.15-2.88 9.58-6.86 13.86-8.84 5.85-2.71 11.59-4.07 16.04-2.32 1.77.7 3.91 2.2 7.6 4.56 5.22 3.34 8.82 5.19 10.82 5.36l-.05.71c-3.38 0-6.09-1.15-11.61-4.33-1.06-.61-3.02-1.23-3.9-1.57.93.74 1.69 3.68 1.02 6.06-.62 2.17-1.74 3.78-3.14 4.84 6.17-.99 14.11-2.33 13.52-6.14 0 0 7.9.03 5.33 1.82-1.04.72-1.89.93-2.05 1.03-3.23 2.09-14.52 6.36-20.03 6.52-3.54.1-7.04-1.06-11.93-2.66-4.31-1.41-8.92-3.67-12.87-3.09-1.87.27-3.66-.21-3.68-.48-.02-.28 1.94-.34 4.02-.52l.65-.06c4.39-.42 6.7.26 10.32.86 1.47.25 3.82.66 5.03.96-1.28-1.4-1.69-2.48-1.92-4.27-.25-1.91.1-4.51 1.82-5.65-3.95.38-5.93.23-13.59 5.42z"/>
  <path d="M160.49 199.42c3.99-2.59 6.29-3.55 8.91-3.86 6.18-.75 11.43.68 15.54 2.58 1.36.63 5.39 3.52 6.21 3.98 1.5.83 2.13 1.31 4.03 1.39 1.9.09 1.86-1.98.5-2.11-1.36-.13-2.33-.36-3.66-1.09-.78-.43-4.61-3.09-6.31-3.93-4.29-2.11-9.74-3.26-16.2-2.48-2.9.35-5.55 1.5-9.85 4.19-2.78 1.75-6.31 4.03-8.5 4.45-2.19.42-2.21 1.84.61 1.33 2.83-.52 5.98-2.67 8.72-4.45z"/>
  <path id="SVGID_1_" d="M248.51 261.86c-.53 2.83-5.6 4.7-8.2 3.15-.21-.13-1.04-1.05-1.2-2.16-.15-1.09.31-2.46-.98-2.9-1.74-.59-4.52-.15-6.35.74-.83.41-1.35.87-2.18 1.81-.13.15-2.57 2.38-5.3 2.49-2.97.11-5.3-1.04-6.18-3.33-1.32-3.45-7.86-4.03-9.13-2.59-.6.68-.49 1.37-.25 2.16.04.13.15 1.62-.19 2.14-1.54 2.37-8.42 1.04-9.89-1.37-5.42-8.87 2.49-14.63 7.45-13.21 3.5 1 3.45-2.38.4-2.92-7.16-1.26-15 8.78-9.22 17.18 2.41 3.5 11.26 4.43 13.47 1.03.67-1.03 3.76-3.03 5.54-.66 1.3 1.72 4.7 3.32 8.28 3.19 3.16-.12 3.65-1.17 7.12-2.21 2.44-.73 4.16 1.14 5.17 1.74 3.37 2.01 11.62.96 12.58-2.33 3-10.27-2.99-21.2-10.19-19.09-2.33.69-4.11 3.97 1.15 2.4 5.26-1.59 9.84 5.48 8.1 14.74z"/>
  <path d="M267.03 218.59c.53.33 2.69.81 3.9.06 1.8-1.11 2.14-2.18 3.02-3.97.45-.91.7-1.92.44-2.79-.17-.58-.6-1.09-1.23-1.25-.63-.16-2.25.51-2.55 1.11-.63 1.26 1.29 2.66-1.75 3.39-2.47.59-.66-3.81-2.07-4.15-1.29-.31-2.33.83-2.54 1.87-.47 2.27.66 4.39 2.78 5.73zM170.43 214.83c.6.37 3.07.86 4.47-.01 2.08-1.29 2.48-2.51 3.51-4.55.52-1.04.83-2.18.54-3.17-.19-.66-.67-1.22-1.39-1.39-.72-.16-2.59.63-2.94 1.31-.74 1.44 1.44 2.99-2.05 3.87-2.84.72-.71-4.3-2.32-4.65-1.47-.32-2.68.99-2.94 2.17-.56 2.57.71 4.95 3.12 6.42z" class="eyes"/>
</svg>
