<svg
  data-face="davidh"
  xmlns="http://www.w3.org/2000/svg"
  aria-hidden="true"
  focusable="false"
  viewBox="0 0 500 500"
  width="500px"
  height="500px"
><path d="M264.36,201.66c-1.17,3.17,2.92-.19,4-.14,5.48,1.37,4.7-4.83.11-5.67-16.2-5.58-15.33,13.21-26.18,3.75-14-25.15-32.64,7.81-6.59-4.42C247.69,216.44,253.09,193.47,264.36,201.66Z"/><path d="M307.53,226.13c4.24,9.42,6.74,15.2,7.18,14.48,1-1.58-2.45-16.47-3.3-19.33-5-1.65-10.88-2.85-14.14-6.06-.73-.73-4.91-4.73-2.86-1C296.7,218.37,302.23,222.88,307.53,226.13Z"/><path d="M176.91,223.23c.66-9.27,19.23-14.32,21.68-17.24.75-.9.15-8.41,1.83-10.65-.18-3.73-3.79,3.39-5.5,6.68a4.87,4.87,0,0,1-2.17,2.16c-7.25,3.61-16.35,10.09-17.49,19A.83.83,0,0,0,176.91,223.23Z"/><path d="M277.81,257c-12.15,3.1-14.45,10.15-26.39,11.75-8.1.19-16.75-3.37-24.89-1.33-2.39.59-6.12-.2-9.71-2.77-1-.74-3.29-.75-2.4.16,3.42,3.49,10.33,7.29,12.92,6.69,8.53-2,15.78,1.63,24.36,1.38,12-1.44,17.22-12.32,29.1-15.56C281.83,257,281.65,256.3,277.81,257Z"/><path d="M239.22,225a1.45,1.45,0,0,0-.85,0c-4.14,1.21-24.54,2.45-20.71,6.85,8.34-2.73,15.61-2.69,22.42-2.25,1.36.09,2.8,1.21,4.14,1.41s4.51-.63,5.85-.31c9.35,2.18,16.36,5,26.62,11.35,3.81-1.72-9.35-7.15-11-9-5.1-3.83-10.66-5.43-16.66-6.81-1.15-.26-3.38.49-4.5.24A52.14,52.14,0,0,1,239.22,225Z"/><path d="M361.22,211.55c-.54-4.24,2.39-7.23,3.49-10.9h0c.48-1.91-.18-2.74-.82-3.1-11.14-.93-7.21,10.1-6.7,16.51C355.8,224.25,361.54,213.68,361.22,211.55Z"/><path d="M350.93,233.85c-.53,2-2.65,4.55-.08,5.82,1.08-4,4-7.59,4.5-12.29.21-2.13.54-2.35-.61-4.35C352.46,219.05,353.2,232.11,350.93,233.85Z"/><path d="M270.37,135.83c-6.35,16.28,2.35,37.15,15.09,45.72,36.5,26.61,74.09-16.25,53.34-48.28C321,119.07,284.94,115.46,270.37,135.83Zm69,29.07c-14.86,42-77.23,16.25-67.88-25C280.54,113,356.84,119.91,339.37,164.9Z"/><path d="M176.77,108c-14.56,9.11-15.61,31.11-8.29,44.66,21.74,37.74,81.94,16.11,70.75-28.73C227.62,103.94,196.44,100.3,176.77,108Zm-9.59,20.34c3.56-33.85,57.67-24.31,69.73-2.13C247.74,179.59,161,186.47,167.18,128.32Z"/><path d="M402.57,388.65c-14.38-4-28-16-43.31-15.25-4.53,1.53-5.92-3.53-11.7-3.73-4.3-.52-.52-7.15-1.21-10.42-2.61-12.28-18.28-23.16-30.58-24.53-.89-4-.36-15.3-.71-19.4,2.54-1.22,5.95-1.88,5.48-5.9,1-.09,2.78.38,3.11-1.29-1.41-4.88,2.36-3.68,1.71-10.48,1-5.34,9.09-4.27,6.55-11.13-.52-1.39,5.29-.28,5.26-2-1.82-8.57,2.95-9.12,2.73-14.69-.77-2.11,3.36-3.78,1-5.8,2.48-.7,4.31-1,3.57-3.05.52-2.09,5.26-3.64,2.84-5.88,3.34-2.82,2.7-2.9,1.51-3.87-.76-.62-.31-1.18.58-1.61,7.23-3.45,11.82-21.64,15.58-32.21,5.11-8.64,11.82-39.42-10-25.05C374.62,144.64,372.69,81.42,337,41.76,312.4,16.58,292,2,255.17,8.61c-41.26,2.84-89.94,53.93-93,96.69-2.41.9-7.27.93-7.88,3.83-1.63,11.31-.2,26.54,2.49,37,.44,1.47,2.16,6,2.12,6.18a10.49,10.49,0,0,1-2.57,5.14c-10.15-2.62-14.52,8.34-11.07,15.8,3.49,11.83.53,26.53.5,38.13-1.54.65-.05,2.3.75,3.21a2,2,0,0,1,.45,2c-.47,1.51-1.31,3-.43,4.35.27.41.21,2.95.53,3.35,2.71,1.4,0,1.18-.07,3.12,1.18,2.61.15,3.09-.77,5.17,1.72,2.65.14,1.32.23,3.88,2.75,1.26.61,2.26.36,4.49a7.69,7.69,0,0,1-1,3,1.2,1.2,0,0,0,0,1.42,1.77,1.77,0,0,1,0,2.1c-.4.52,0,1.15.3,1.73,2.72,1.27-.29,2.38,1.62,4a1.15,1.15,0,0,1,.21,1.54c-2.95,4,1.12,1.13-.57,5.71,0,1.33,1,1.67,1.34,2.41-.48,1-.38,2.6.92,2.9.72.5-.87,2.12.57,2.74-1.11,1.07-.18,2.07.53,2.81a1.8,1.8,0,0,1,.48,1.83c-.5,1.53-.89,3.49.84,3.27,1.53-.07-1.07,2.69.23,3.43,1.07.57,2.38-.14,1.85,1.23-.78,2.53,1.72,4.78.48,5.29s-2.41,3.43.61,2.77a.66.66,0,0,1,.73.95c-3.14,6.51,4.46.92,1.83,5.22-2.26,3.75,2.29,2.58,3.95,3.41-.12,1.32.72,2.84,1.86,2.82a1.28,1.28,0,0,1,1.37,1.28c-.1,2.05-1.3,4.49.94,5.36-1,1.3,1.14,3.27,2.16,3.82a.74.74,0,0,1,.36.89c-.73,2.48.61,6.09,2.65,3,.6,8.63.89,17.35.65,26.05a1.91,1.91,0,0,0-1.33,0c-16.2,7-24.83,22.66-24.22,38.81-27.08,18.32-53.9,21.52-83.74,34.46-11.06,3.47-27.32,10.2-34.76,15.54s1,3.78,13.78-2.62c18.36-9.18,38.79-13.45,58.2-19.34,5.77-2.48,42.73-14.33,46.62-12.38,3.41,1.7,7.12,9.65,10.95,16.53,9,16.2,17.43,29.94,21.79,46.43.56,2.1-.93,9.78,1,8.78,19-9.88,21.83-18,13.6-28.77-2.4-3.14-.92-4.76,3-1.15,3.67,3,2.3,4.59,3.44,10.56.89,4.63,1.52,13,4.82,15.61,11.64,9.12,12.92,16.9,13.78,18.13,2.77,4,4.2,22.72,7.05,13.85s-7.2-28.24-9.15-30c-4.89-4.32-10.05-6.17-11.54-12.35-.2-.81-2.54-11.32-4-15.79-2.58-4-3.8-4.45-7.05-7.49-4.44-3.58-4.82-12.95-7.87-5.95s-3.59,9.4,3.82,16.49c6.22,5.95,3.12,15.45-3.1,18.44-2,1-3.45-.25-4-2.43-4.53-19.41-20.64-36.52-26.35-56.15-5.51-14.53-6.14-34.35,3.05-47.7.88-1.27,8.52-8.55,12.11-8.83A153.8,153.8,0,0,1,170,363.62a1.07,1.07,0,0,1-2.08.14c-1.26-4.32-.51-5.9,1.1-9.15.48-.95-.61-2.38-1.43-1.67-10,18.45,11.21,41.32,21.29,54.83,5.47,3.77,6.91,9.54,9.3,15,2.83,5.44,6.78,11.08,10,16.25,5,5.18-1.07,16.49,2,17,4.93-.45,14.85,3.06,19,5.21a98.58,98.58,0,0,1,12,7.73c12.69,7.7-8.42-12.31-12-13.32-2.44-1.28-11.11-2.63-13.22-3.24-1.53-.45-2.39-3.59-2.08-5.15,2.6-13.07-11.07-20.25-13.54-32.38-4.54-16.78-22.5-23.44-27.23-40.73,5.89-17.39,3.06-45,3.84-45.71,1-.9.91-1.22,1.57-.75a1.42,1.42,0,0,1,.57,1.39c-.46,2.82-.51,6.24,3,3.4a5.3,5.3,0,0,0,1.21,3.52,1.83,1.83,0,0,1,.45,1.53c-.5,2.69.65,3,2.44,1a.87.87,0,0,1,1.53.42c.42,2.34,1.35,3.94,4.53,3.27.37,1-.12,5.16,2.4,3.86,0,2,2.07,4.43,3.43,3.33a1.39,1.39,0,0,1,1.64-.15c1.54,1.05,3.63,1.11,4.91-1.37.68,2.35,2.52,2.92,3.65,1.12,1.27,1.14,3,4.33,4.36,2.86a3.93,3.93,0,0,1,2.7-1.15,2.16,2.16,0,0,0,1.78-1c2.23-.76,5.85,10,7.81,4.54.88,1.74,2.89-.25,4.1-.65,2.71.28,4.09,3.08,7.28,2.31a4.34,4.34,0,0,1,3.57.85c2.28,2.09,2.9,2.91,6.45.32,3.64-3.83,4.4,6,7.85,1.91,1.13-1.48,1.83-.65,3.1-.59s1.55-1,2.35.26c3.55,4.4,3.71-4.69,6.5-3.36,2.29,1.54,4.51-1.9,6.16-2.9,2,2.46,3.82.43,4.56-2,2.39,5.43,5.34-2.47,8.44-3.23,1.43,3.7,4.22.15,4.9-2.37a1.36,1.36,0,0,1,1.47-1c4.74.57-.49-6.5,2.59-5.73,3.61,1.45,2.92-3.19,4.45-4.59,2.4.33,2.76-1.57,2.67-3.88a1.11,1.11,0,0,1,1.36-1.13c3.44.72,1.35-3.4,3.79-5.23.6-.52,1.44-.33,2.45-.55,1.32-.29,1.58.92,1.62,2.26.1,3.73.37,8.29.31,9.56.15,9,1,29.5,10.85,34.68-2.64,10.32-5.4,21.86-12.16,32-12.11,18.17-28.06,30.42-32.58,40.41-1.24,2.73-9.42,8.44-11.27,10-3.52,3.06-13,18.06-25.13,29-1.14,1-4.33,9-4.86,13.2a.86.86,0,0,0,1.67.39c2.12-6.85,10.2-14.81,11.95-16.57,2.77-2.77,17.91-23.3,30.24-29.42a2.94,2.94,0,0,0,1.18-1c8.36-12.71,17.7-25.56,27.9-36.6,9.89-10.7,14.32-30,19.11-41.75,2-6.19,8.71-13.95,1.46-18.85-.8-.7-2.91,2.62-2.15,3.38,3.86,2.76,2,2.87.4,6.1-1.77,3.61-4.22,2.17-6.1-1.38a44,44,0,0,1-4.72-13.58c-1-4.72,2.31-6,6.69-3.93,15.6,7.27,20.24,17.27,17.29,34.79,12.84,15.11,3.75,36.75-5.18,51.65-5,7.29-10.3,15.25-12.91,23.83-.92,2.71-2.46,6-5.21,6.89C307,450,302.48,444.36,313,433.26c6.19-6.55,1.11-11-4.34-11.94-10.6,7.95-4.49,15.58-20.59,21.26-6.56,14.14-8,12.44-14.5,16.53-2.63,1.65-19.3,20.36-20.15,27.6-.16,1.36-3.47,9.55.59,7.7,7.09-3.24-2.11.08,10-16,2.46-3.27,8.23-13.57,12.63-15.15,22-8.48,7.91-14.52,16.31-18.78,11-5.56,10.81-8.81,13.9-15.47.73-1.55,7-2.77,3.26,1.37C298.19,441.58,308.38,459,321,466c3.93-1.14,3.11-10.85,4.25-14.17,11.1-20.8,31.3-36.44,26.07-63-.7-3.35,5.06-5.76,8.19-6.28,16.41-2.7,26.81,9,42.1,13.11,19.5,5,41.78,6.72,62,12.61,20.44,5.95,16.81.81-5-5.25C440,397.8,420.59,394.35,402.57,388.65ZM366.76,196.56c.68,7.4-12.51,48.87-18.55,50.18,1.34-2.34-3.31-2.61-1.12-4.26,2.09-2.6-.68-6.59,1.25-9.37a6.43,6.43,0,0,0,0-5.74c2.93-2.86,2.6-7.34,2.16-11.12,0-.06,0-.13,0-.19a40.49,40.49,0,0,0,1.7-4.2c1.25-4,1.77-9.31,3.36-12.68C354.86,192.68,366,189.86,366.76,196.56ZM280.7,15.63c56.52,13.46,87.18,84.67,82.8,123.64-.68,2.92-1.32,3.34-1.29-1.89-.86-1.55-1-2.41-5.44-3.66a34.1,34.1,0,0,1-11.59-3.56c.3-2.75-1.35-4.27-1.65-5.06-4.38-2.11,1.69-5.84-4.65-5-.48.07-1.55-1.37-1.44-1.84.42-1.77-2-3-4.17-1.64-2.23-1.57.94-6.39-4.88-3.15-3.81.06,2.3-9.55-6-3.79-4.94,1.47-1.86-2.49-2.24-3.77-.55-1.86-2.67-2.08-5.15,1.25-.53.58-1.62-.22-1.76-1.74-.94-6.3-5.54,3.26-7.71,1.2,1.91-9.65-5.19,1-7.57-.81,1.08-5.27-3.76-3.72-7.39,1.76-1.48-2.28-3.67,4.79-2.39,5.55.37,1.59,5.25-5.86,6.3-4.36-1.39,8.55,5.15,1,7.54-.7-2.19,7.32,3.4,3.73,6.6,1.48,1.23-.68-.75,4.13,1.06,5.07,1.8,1.09,4.83-3.67,6.4-1.93-2.68,7.1,4.53,0,6.94,2-2,4.34,2.72,3.59,5.51,2.39a.88.88,0,0,1,1.21.89,2.29,2.29,0,0,0,3.33,2.38.31.31,0,0,1,.39.43c-.74,1.55,1.06,2.86,3.46,2.17,2.43.11,1.09,4.5.45,4-14.39-11.55-32.32-13.72-51.91-10.36-9.36,1.77-14.27,10.51-20.79,7.61a74.24,74.24,0,0,0-18.82-2.24c-15.2-17-20.89-25.13-57.27-21.44-.53,0-.45-.53-.29-.87,2.23-2.67,2.71-1.12,5.77-.37,2.68-.91,1.44-5.73,5.4-1.59,1.28,1.33,4.12.73,2.83-2.93.72-1.91,4.3,1.73,5.6,1.31.77-.59.93-.93.45-1.94-.17-.37,1-.5,2,.88,1.74,2.48,2.16,2.45,2.56,2.42.95-.23,2.14-2.86,3.27-1.72,3.13,5,3.66,2.31,3.19-.7a.48.48,0,0,1,.87-.34c2.49,3.91,5.44,8.62,4.86,2.94-.14-.64.87-.7,1.31,0,1.59,1.44,1.31,3.88,3.2,4.07,2.36-.16-1.45-12.49-7.27-11.22-1.06,6.85-2.78-3.47-5.45-2.26-.59.27-.73,1.15-.83,2a.88.88,0,0,1-1.42.58c-1.26-1-3.26-2.35-3.34-.77.61,4.52-5.4-2.65-6.19.23a1.3,1.3,0,0,1-1.91.71c-7.55-4.38,1,5.48-7.24,1a1.53,1.53,0,0,0-1.91.36c-3.36,4,.15,2.31-6.23,2.12-2,.33-1.84,4.53-2.67,4.5-4.83-.17-4.31,1.34-5,2.4a72.66,72.66,0,0,0-9.78,1.9C175.21,49.3,231.28,7.73,280.7,15.63Zm-124.18,98c.12-7,17.48-6.13,23.29-8.86,36.94-5.64,50.95.22,63.86,22.3,7.23-.5,19.31-1.68,25.48,3.4,15.63-15.29,39-12.77,55.54-7.8,12.56,4.59,18.06,13.3,31.46,14.06,3.63.55,2.51,4.85,4,10.86,2.51,10.46.26,18.66-2.2,27.47a1.11,1.11,0,0,1-2.18-.19q0-.66-.06-1.2a1.11,1.11,0,0,1,.64-1.07c4.53-1.86,2.62-27.44.59-30.21-1.95-.79-1.26,3-3,2.65-8.71-2-3.68,15.34-13.43,30.82-16.06,29.79-65.07,18.18-72.82-14.15-3.3-12.52-2.09-18.13-.36-28a.82.82,0,0,0-1.57-.48c-6.11-4-15-3.42-20.91.27-1.88,14.91-8.38,28.92-21.34,36.88-23.11,16.14-61.67-.17-61.12-31.37-2-3.45,1.4-19.78-4.83-15.88-.88,3.86.61,8.54,1.64,11.38a62.21,62.21,0,0,1,1,9.13c0,.57-.12,2.64-.27,2.22C156.07,135,155.53,125.36,156.52,113.64Zm-8.24,51.85.07.73C148.29,166.28,148.29,165.71,148.28,165.49Zm.15-.49c.09-2.92,2.28-4,4.74-4.53,1.82-.42,2.63.69,2.46,2.55-.3,3.38,2.64,6.17,5-2.7,1.37-5.23,2.07-5,4.83,0,9.72,17.61,35,21.63,51.38,16.46-8.12,8.64-6.88,20.75,5.56,25.16,1.09.62,14.32.29,10-2.39-6,1.91-12.66.29-15.94-6-7.11-16.79,19.76-22.6,25.29-38.37,4.29-7.52,1-17.13,10-21.65,22.64-3.22,2,16.15,18.73,40,.06,1.61,9.69,12.44,11.88,13.71,6.55,13.83-5.15,21.5-17.67,18.07,4.16,8.63,26.7.41,23.14-12.05-.36-1.95.66-2.75,2.49-2,42.13,18,57.1-19.92,60.35-36.05,1.81-8.93,7.79-9.76,5.37,9.52-10.22,2.49.36,30.71-5,41-2.85,2.15-8.46,12.67-6,16.13.24,3.64-2,9.68-2.47,4.58-.21-2.45-3.19.61-2.5-1.54.31-6.13-7-.9-7.23,3.16-2.92,1.78-8.72-.61-7.94,5.48.49,2.79-3.93-1.79-5.13,1.46-.33,1.32-1.56,5.37.31,6.65-3,3.47-1.34,4.06.23,6.54-1.73-.81-2.91.92-3.77,1.5-2.13-2.48-3.59-1-6,2.54-1.61-3,.47-7.81-2.78-10.23-1.94-4.36-1.68-14.43-7.77-13.75-.26-2.11-1.94-2.54-4.26-1.77-1.65.54-2.71-3.68-4.82-2.6-1.1.41-1.8-1.23-2.49-2-1.95-2.94-6.15.94-9.89-1.82-2.05-2.44-4.38-2.92-7-4.63-.62-1.28-1-3.64-4.16-2.07-.47.24-2.25-.74-3.16-1.87-6.2-6.47-12.76-4.22-17.92-3.82-1.61,2.72,3.68,6.67,1.81,10.09-.58,1.06.05,3.18,1.38,2.24,1.24,1.39,1.54,1.57,2.93,1.5,1.93-.68,2.32,2.41,3.86,2.91a27.62,27.62,0,0,1,14,6.49c.93,4.25,1.62,1.87,4.33,3.08,11.38,1.47,1.81,8.49,7.22,8.2,4.37,2.63.22,7.78,7.18,4.81a.76.76,0,0,1,.93,1c-.47,1.67,1.24,3.31,3.46,4.37-.58,1.47-2.37,4.23-.06,4.41-.56,1.23.29,2.28,1.68,2.61,1.18,1.38-2.68,4.61-.25,5.83,1,.69-.59,1.95.28,2.9a.53.53,0,0,1-.14.68c-.93.54.28,2.1-.71,2.35-7,.71-1.2,3.32-2.93,5.27-4.26.07-3.33,6-7.11,7-3.22.42-1.18,4.57-3.34,4.66-7-1,4.12,5.76.81,7.47-4.58.29-3,1.19-3,4.34-1.51,2.53-4.65,0-3.16,5.91.18,2.46-2.91,3-2.93,5.82-11.83-5.87-8.57,9.11-13,.33-2.46-4.09-4.26-5.54-5.34-1.29-6.71-3-1.31,9.77-7.16,1.24-3-9.3-2-3.89-9.19-4.35-6.67-.43-2.4-14,4.07-11.37-.09,4.95,4.41,2.8,4.49-1.2,1.77-.74,1.57,5.11,5,.27,4.14,2.36,8,1.07,8-5.86,1.46-2.51,5.54.14,1.46-6.07-1.75-1.17,1.9-6.05-1-4.64a1.31,1.31,0,0,1-1.76-.41c-1.35-2.4-3.79,1.06-5.29-.71-2.35-3.44-6.2-.36-9.26-1.74-3.37-2.27-4.57-1.74-5.77,3.76-1.8-5.87-6.21-6.13-9.24-1.49-2.5-7.52-5.31,1.55-9.7-5.9-2-1.11-2.88,2.55-4.34,1.17-3.37-3.73-7.68,6.61-2.07,6.23,3.53-.53,2.73,5.24,5.41,4.76.72-.55,2.39,3,1.58,2.88-5.36.63-3.17,7,.91,6,8.21,3.31-.36,3.73-2.18,8-1.71,2.66-5.82,1.75-8.39,2.65-4.77.76-.14-12.73-4.23-10.82,0-3.69-3-2.93-5.86-1,1.18-2.12.64-12.87-2.63-12.76,4.07-1.31-1.07-5.67-2.74-5.07-1.06-1-.76-3.1-2-3.48-2.81-2-.26-2-2.23-4.68a2.23,2.23,0,0,1,.73-3.29c1.85-1,3.06-1.52,2-5,5.54-1.27-3-4.69,1.68-9.4,2.72,1.63,5.12-.51,2.72-3.13,1.23.18,3.13-.89,2-2.47a1.14,1.14,0,0,0,1.28-.63c2.38,1.78,9.6,9.65,12.41,11.19,20.65,5.71,56.42,11,73.19-3.3-13.18-3.53-33.84-17.55-42.83-12.1-3.19,2.06-6.34-2.65-11.3-1.94-8.88-1-35.27,11.3-33.09-3.3,2.13,1.38,2.57-1.61,3-3,2,1.55,3.08-.78,3.54-2.53,2.22,3.65,5,1.65,7.12-2.07.74,1.42,2.58.66,2.15-1.16,1.39,2.1,3.41,1.21,3.53-.92,1,.86,2-.37,2.25-1.41,1.53.46,4.6,1.46,5.57-1.32a2.06,2.06,0,0,0,4-.31,2.16,2.16,0,0,0,3.2-.24c.78-1,1.2.66,2.15.71,1.67,0,5.87.85,5-1.68.49.45,1.38.7,1.84.12.39.27,1.55,1.12,1.83.68.43-2.5.74-8.63-1.9-10.23.32-2-2.49-1.59-3.35-3.27-.89-1.17-3.3-3-4.49-1.59-1.38-1.25-2.74-1.16-3.38,1a1.93,1.93,0,0,0-3.19,0c-.64-1.58-2-.77-2.74.36-1.16.22-3-.75-4,.11-.23,2.34-2.81,1.63-3.43,3.89-1.57.41-4.06-2-5.37,1.21-4.76-5-4.47,2.61-6.59,4.18-1,.78-4.47-4.07-5.39.35-.43,2.06-3.53-4.11-4.8-1.9-1.78-1.45-3,1.44-4,2.26-3.13-.85-1.42,3.62-2.6,2.73-3.72-2.82-4.35,1.64-5.28,3.59-1.89-.57-4.65-.15-2.93,2.13-1.84,1.69-5.4.49-6.88,2-2.74,3.3.93,3.9.64,6.68-1,3.24.61,7.71-3.1,8.8-3.62-9,3.17-8.47-3.57-12.78,7-5-2-2.91,2.13-7.33,3.07-4.08,5-17.41-.79-17.79-1.38,1.52-2.91,1.42-3.36-.19s-4.95,2.78-6.42,2.47c.21-1.07,0-2.7-1.36-3.11-1.26-2.16,1-6.35-1.57-5.31C152.11,185.27,160.78,164.31,148.43,165Zm60.19,78.63c11.17,2.57,19.19-4.69,29.58.59,2.19.93,2.39,1.6,5.41.12,12.89-4.33,19,.6,30.69,4.29,1.68.53,3.82,1.18,4.32,3.43.29,1.31-5.19,1.82-8.09,2.52-10.89,2.65-20.54-1-31.14-1.33-14-.48-18.46,3.14-31.21-8.43C207.25,244,206.26,243.2,208.62,243.63Zm-55.9-40.53c-.77.43-1.33,1.49-2.15,2a16.94,16.94,0,0,1-1-10.39c2.42-8.36-2-23.94.9-25.47.89-.48,3.48-.14,2.82,5.22C152.15,183.72,150.19,193.8,152.72,203.1Z"/><path d="M184.24,452.71c5,1.63,10.13-5.26,4-8.25C182.73,442.13,179.22,449.51,184.24,452.71Z"/><path d="M311.88,447.89c5.55,5.15,15.77-4.49,6.32-8C312.68,436.78,309.23,444.4,311.88,447.89Z"/><path d="M261.17,378.2v.05c-1.26,9.59-7.13,24.23-6.47,37.27.24,4.82,6,10.82,7.63,14.26a.59.59,0,0,0,1.12-.28c-1.22-15.89-1.88-37.17,1.87-53.88C268.29,363,261.34,371.64,261.17,378.2Z"/><path d="M232.64,446.77c-.76-13.72-3.75-28.85-5.83-41.9a.32.32,0,0,0-.64,0c-.69,4.14-3.81,9.09-3.14,13.38,1.51,9.75,7.47,19.05,7,28.53C230,447.83,232.66,447.85,232.64,446.77Z"/><path d="M329.71,143.62c-6.28-5.53-13.82-10.07-20.3-10.9-7.72-1-15.36,2.69-22.35,7.63a.83.83,0,0,0,.69,1.51c5-4.63,13.41-6.82,21.87-5.73,9.62,1.23,19.12,8.43,24.3,17.65C339.07,152.44,331.48,145.36,329.71,143.62Z"/><path d="M331.06,158.47c-8.29-2.54-18.19-23.64-33.41-13.32-2.11,2.76-12.38,2.71-10.51,6.77,12,.07,15.1,8.41,30.64,7.42C320,160.35,337.46,161.06,331.06,158.47Zm-31.85-5.71c-.71-.37-3.68-1.6-4.41-1.86s-1-1-.14-1.36c.67-.3,3.16-1.06,3.8-1.38a.25.25,0,0,1,.35.3c-.29,1.1.23,2.53.56,3.62C299.4,152.19,299.31,152.81,299.21,152.76Zm13.88,3.61a6.19,6.19,0,0,0,2.41-5.67c0-.58,1.14.39,1.54.8,1.68,1.76,4,2.24,4.43,3.74.55,2.24-4.62,1.73-8.06,1.54C313.12,156.77,312.86,156.55,313.09,156.37Z"/><path d="M209.57,117.58c-8.55-4.53-27.92,6.81-23.9,10.14,13-14.74,30-4.15,42.1,5.59C230.33,130.51,212.83,119.81,209.57,117.58Z"/><path d="M225.16,137.72c-8.79-3-20.06-17.72-29.69-10.56-3.56,2.08-5.66,8.07-9.67,9.29-3.74.62-4.48,4.72.58,4.54,6.39,1.59,14.44,1.75,21.74.78a36.32,36.32,0,0,0,18.51-2C228.62,138.91,227.41,137.69,225.16,137.72Zm-36.47.95a.65.65,0,0,1-.21-1.2,11.94,11.94,0,0,0,4.05-3.49.63.63,0,0,1,1.12.44,6.16,6.16,0,0,0,1.09,4.08.71.71,0,0,1-.66,1.09A46.46,46.46,0,0,1,188.69,138.67Zm29.54.47a20.82,20.82,0,0,1-7.47.29c-.72-.09-1.4-.63-1-1.2a5.7,5.7,0,0,0,1.39-5c-.1-.58,1.88,0,2.32.34,2.3,1.44,3.65,2.86,6,4.38C220.51,138.56,219.37,138.94,218.23,139.14Z"/><path d="M352.06,143.12a1.17,1.17,0,0,1-.26,0l-2.47-.82a.83.83,0,0,1,.16-1.61c.28,0,.58-.07.87-.12h0a.83.83,0,0,1-.62-.58,1,1,0,0,1,0-.48h-.3a.82.82,0,0,1-.82-.82.81.81,0,0,1,.81-.83,14.27,14.27,0,0,1,3.21.31.82.82,0,0,1,.48,1.32l1.29.28a.82.82,0,0,1,.65.76.83.83,0,0,1-.56.83,15.46,15.46,0,0,1-1.77.49.8.8,0,0,1,.11.74A.81.81,0,0,1,352.06,143.12Z"/><path d="M233.54,181.57c-4.41-.82-.67-5.48-.5-7.74.16-2,2.14-4.88,2.72-2.54.8,3.19.11,5.22-1.14,6.29C232.9,179.05,235.36,181.31,233.54,181.57Z"/><path class="eyes" d="M302.33,151c.38,2.54,3.53,2.91,6.13,3.22a3.58,3.58,0,0,0,3.63-2c.89-1.81,1.11-3,.29-4.26-1.6-.8-3.6-1.21-3.62.87-.13,2.32-2.61,1.76-2.33-.82.05-.45-.56-.72-1-.82C302.76,146.58,301.89,147.94,302.33,151Z"/><path class="eyes" d="M196.6,135.27c.66,4.3,4.91,2.93,8,2.61,4.82-1.4,3.57-8.85-1.1-7.26-2.14,1,.2,5.47-2.74,5-.87-.46-1.09-.85-.92-1.76C201.38,128.62,194.67,130.85,196.6,135.27Z"/></svg>
