<svg
  data-face="ed"
  xmlns="http://www.w3.org/2000/svg"
  aria-hidden="true"
  focusable="false"
  viewBox="0 0 500 500"
  width="500px"
  height="500px"
><path d="M352,123.72c4.27-.83,5.94-.81,9.72-2.75a2.21,2.21,0,0,1,3.16,2.4c-1.38,7.22-2,16.22,4.55,16.53,2.25-3.67-2.55-10.24.06-16.52,1.3-6.43,3.58-10.73-2.87-8.18,1.21-4.12-3.29-8.41-2-3.87-1,4.3-15.91,10.15-19.94,11.19C325.34,127.54,346.29,124.82,352,123.72Z"/><path d="M348.55,227.52c.24-1.61-2.87-2-4.78-2.06a.72.72,0,0,1-.56-.28c-1.79-2.46-1.72-9.43-6.21-4.68-.52.6-1.36.19-1.41-.6-.44-10.79-7.93,4.66-11.45-2.26-2.13-7.49-9.64,5.15-12.85-1-2.22-5.88-4.57-2.82-7.52.09a3.83,3.83,0,0,1-5.56-.2c-2.77-3.1-3.55,1.63-5.8,2.64a.74.74,0,0,1-.92-.32c-2.55-4-4.1.41-6.26,1a.76.76,0,0,1-.76-.24c-4.09-4.5-12.39-.52-5.71,3.31,5.78,3.36,1.73,14.62,8.44,4.55a.8.8,0,0,1,.22-.23c3.34-2.24,7.33,4.25,9.35-1.88a.79.79,0,0,1,.71-.55c2.4-.08,4.81,2.51,7.07-1.74a.81.81,0,0,1,.36-.35c4.88-2.23,6.6,7.59,13.45-.63a.75.75,0,0,1,1.07-.11c2.44,2.13,4.29,8.17,9.78,3.31a.79.79,0,0,1,1.33.56c.33,5.91,5.44,1.19,7.78,2.13a.7.7,0,0,1,.35.37c2.39,5,5.44-2.37,8.88,8.37a1.42,1.42,0,0,0,.08.18C353.13,245.76,352.2,230,348.55,227.52Z"/><path d="M174.21,223.42c3.53-3.71,16.14,1.86,16.41-2,.77-4.22,4.48,2.68,6.92.65,1.67-5.29,4.19-.28,7.61-.9,3.81,2.62,3.85,3.11,6.95,1.42,3,.32,6.44-2.08,8.8.58.89,3.14,5.66,3.41,8.34,2.81,8,6.75,4.12.38,12.5,1.31,9.78,2.59,6.45-5.62.25-5.77a1.15,1.15,0,0,1-1.13-1.25c.34-2.95-3.67-1.55-4.27-3.44-.44-5.86-4.91,1.75-6.89-.74-1.11-3.55-3.92-1-6.07-1.57-1.79-2.49-4.52.94-5.88-.94-3.91-9.05-4.18,3.57-7.51,1.07-.8-1.92-1.42-4.1-2.89-5.34-2.87-1.22-2.32,3.56-4.63,2.19-3.73-3.94-5.12-2.2-7.92-.84-8.21-4.25-7.11,3.59-12.58,3.69-5-1.69-4.72,1.36-6.82,3.5-5.61-.65-6.66,2.07-8.06,5.37-2.46.31-6.22-.12-5.17,2-3.45,6.67.59,11.38,5.33,4.25C169.17,227.05,176.45,228.13,174.21,223.42Z"/><path d="M197.8,453.1a2.12,2.12,0,0,0-3-.2c56.41,63.23,148.57-1.66,138.59-80.95A.68.68,0,0,0,332,372C329.94,443.16,267,505.73,197.8,453.1Z"/><path d="M155,393.72c-6.65-16.32-6.75-21.42-6.62-33.05s-4.61-11.43-3.65-8c-1.92,40.21,4.28,49.83,21.13,66.42C182.56,435.24,154.85,398.47,155,393.72Z"/><path d="M481.13,417.6c-10-21.76-13-32.34-45.13-41-32.51-12-63.32-33-95.37-41.09-2.78,3.52-2.67,1.68-4.65,6,.15-.12-3.4,5.16-3.23,5,20.18,2.7,46.3,13.83,66.55,21.27,18.72,10,45.15,16.4,63.37,29.22C467.11,397.85,498.2,460.34,481.13,417.6Z"/><path d="M387.67,170.62c1.88-8.65-4.22-16.84-4.31-24.29,4.14,1,3.16-4.61,2.57-7,6-.25,2.33-6.85.11-12.36,7.52-8.57-7.63-16.85-9.93-24.46,4.92-16,2.7-28.19-11.94-40.41-3.81-4.94-10.66-6.39-13.78-11.14-5.57-16.68-22.39-7.26-31.81-15.33-16.31-14-42.33-15.76-63.33-12.89-92-4.15-155.06,105-128.66,187.84-11,16.2,8.4,39.47.25,57.9-4.94,8.06,1.46,18.28,9.51,19.77,2.79-.86,5-1.81,6.25,2.6,2.5,8.69,2.51,27.72,5,34.16C112,350.62,15.42,376.18,21.13,392.81,34.56,381.93,53.93,376,71,370.36c24.65-10.56,49.63-23.17,75.34-29.71,1-.25,4.93.14,5.52,1,1.51,2.19,2,3.68,3.12,4.61,2.93,2.52,2.53,6.84,2.38,10.7C155.8,397.57,197.55,447.73,232,459.8c48.44,16.15,90.67-47,90.36-90.29,0-2.28.52-6.82-.6-11.24-.34-1.34-4.52,9-5.44,10.17,1.87,5.9,1.43,18.09-1.05,23.33-39.11,105.08-131.59,61-152.63-23.6-1.87-7.52,1.08-9.43,2.2-7.72.17-.25,1.84-15.15-6.08-16.74-5.63-1.12-10.5-24.6-10.69-24.7-6.28-20.8-1.86-44.79-6.76-63.49-2-14.89-3.5-13.28,4-26.49,1.82-11.16,9.89-43.06,13.58-29.48,5.24,19.29,8.51-5.26,11.64-16-1.31,4.74,5.25,4.06,4.5.15,10.21-35.53,58.57-26.11,84.8-39.61,7.72-.28-30.24,16.55-2.24,9.32,9.27-2.4,23.68-12.29,31.89-12.54-3.45,4.79,18.77,2.74,15.54,6.15-3.43,3.62,6.81,4.39,14.42,5.08,2.77,2.44-6.26,2,.92,4.16-43.65,13.41,17.68,14.6,24.26,2.42-5.44,10.07,7.14,51.49,10.19,87.33-1.41,12.36-2.92,27.85-5.22,42.78,1.61,2.68,2.76,5.83,4.71,8.18,0-.06,0-.12,0-.19,11.26-2.4,5.54-19.8,6.12-28.26.14-6.23,8.09-19.28,1.61-23.69,8.85-19.4,19.53-32.41,21.77-54.64C391.66,189.17,387.11,177.49,387.67,170.62ZM136.72,278.68c-8.07-3.48-9.59-2.24-4.78-11.86,1.83-3.66.48-8.7-.4-15.19-.69-5.14-4.51-18.14-4.87-26.28a2,2,0,0,1,4-.69c1.19,3.82-.65,9.73,2.06,14.66s1.59,14.72,1.71,14.93C138.49,259.55,136.75,272,136.72,278.68Zm-1.21-40.38.05,0a.19.19,0,0,0,0,.07Zm220.63,52.33c.22-.71.42-1.37.6-1.92A9.23,9.23,0,0,1,356.14,290.63Zm1.52-3.45c-1.27,2.75-2.6-4.46-3-4.44,1.36-3.78.8-13,1.9-16.71C357.34,274.07,358.93,284.43,357.66,287.18Zm24-147.45c-1.81.2-2.54,2-2.54,3.67-8.33-3.73-1.57,11.23,1.21,14.37,4.42,25.32-3.64,33.73-8.76,54.69-3.27-1-2.89,7.15-4.3,9,.17,1.89-11.73,10.6-11.32-27.34,1-1.65-1.59-5.13-3.72-3.12-7.73-14.24,5.57-52.18-3.27-44.21-2.48,5-17.43,11.74-24.63,12.59,6-2.14,9.35-5.38,5-7.8,1.25-8.55-11.29-5-16.38-5.21,7.16-9.47-11.69-6.35-17.56-7.21,7.32-12.49-18.69.54-23.58,2.75-1.82-9.69-29,2.4-35.67,1.88-14.9-2.7-27.52,5.85-41.08,9.26-1.36-5.26-17.82,8.52-21,17-5-11-11.07,7.64-12.25,18.88a1.93,1.93,0,0,1-3.24,1.18c-3.54-3.27-6.81-6.14-14.76,14.19-2.62,6.7-2.11,12.18-4.35,11.91-5-.6.07-9.89-7.55-13.92-4.4-10.61-4.29-16.41-4.2-28.06.51-73.53,49.23-144.37,128.07-141.16,20.66-2.91,46-2.21,61.21,12.32,8,3.79,18.08-.21,24.91,6,4.31,8.7,9.72,10.29,16.06,16.84,27.71,27-4.8,29.65,21.53,49.8-4.32-3.31,1.1,6.53,3.21,11.84C377.6,130.34,381.37,136.8,381.66,139.73Z"/><path d="M278.84,358c-16.54,17.08-19.5,13.17-30.16,11.45-15.14,3-31.21-9.86-28.43-5.33.88,1.44,7.27,8.7,13.47,9.63,6.91,1,14,.5,15-.28,10.61,3.13,13.76,4.62,21.63-3.8C274.66,365.12,290.31,352,278.84,358Z"/><path d="M244.1,244.62c-3.58-7.05-9-14.82-5.47.48,2.81,4.18-2.6,9.42.39,14.87,1.09,2.54,2.89.76,1.74-1.74C239,253.93,245.7,249.22,244.1,244.62Z"/><path d="M345.59,250c-10.49.22-11.15-7.63-23.5-11.9-6.69-3-18.44-4.6-31,.52-6.82,2.8-11.68,7.15-11,12,8.82,1.19,17.37,4,26.39,3.9,9.24-.15,18.6-.23,27.57-3a2.26,2.26,0,0,1,1.21,0C344.85,253.66,350.21,249.88,345.59,250Zm-58.5-3.61a100.36,100.36,0,0,1,9.73-4.16,9.25,9.25,0,0,0,2,7,.27.27,0,0,1-.3.42,64.52,64.52,0,0,0-11.17-2.07A.61.61,0,0,1,287.09,246.37Zm39.89,2c-1.41.31-2.75.63-4,.93a44.87,44.87,0,0,1-7.16,1.38.37.37,0,0,1-.3-.63,9.4,9.4,0,0,0,2.79-7.69,25.24,25.24,0,0,1,9.09,3.67A1.28,1.28,0,0,1,327,248.38Z"/><path d="M215.88,246.76c5.06,0,5.31.49,10.69,1.09,7.61-.33,4.74-5.88.16-7.13-5.88-14.66-25-11.19-39.24-6.12-12.46,4.43-20.86,8.12-4.22,9.08C194.21,244.26,200.08,252.89,215.88,246.76Zm-1.2-9a30.15,30.15,0,0,1,8.32,4.84.67.67,0,0,1-.55,1.18c-2.93-.61-7,.46-9.62.63A22.64,22.64,0,0,0,214.68,237.77Zm-18.49-.08c-.17,1.7-.24,4.76.95,6.11-3-.93-7.08-3-11.08-3.36-.52-.05-.65-.5-.14-.62,2.14-.52,6.47-1.84,9.76-2.59A.42.42,0,0,1,196.19,237.69Z"/><path class="eyes" d="M300.83,246.22c.48,3.23,4.49,3.7,7.8,4.09a4.54,4.54,0,0,0,4.62-2.52c1.13-2.3,1.41-3.77.37-5.41-2-1-4.59-1.54-4.6,1.1-.18,3-3.33,2.24-3-1,.06-.58-.72-.92-1.28-1.05C301.37,240.61,300.27,242.34,300.83,246.22Z"/><path class="eyes" d="M199.72,241.12c.71,4.57,5.22,3.11,8.54,2.78,5.12-1.5,3.79-9.42-1.17-7.73-2.28,1.09.22,5.82-2.91,5.3-.93-.48-1.16-.9-1-1.86C204.8,234.06,197.68,236.42,199.72,241.12Z"/><path d="M256.56,338c-1.88.07-4.24,2.15-5.72,1.84-2-.43-2.86-1.15-4.34-1.44-15.33-3-30.36-8.55-46.44-4.86-2.12-2.8-6.77.07-3.65,2.68,10.69,11.4,26.3,22.19,42.37,26.44,3,.79,6,.29,8.95.59,2,.2,4,1.35,6,1.3a39.17,39.17,0,0,0,28-12.29c2.46-2.27,9.85-8,13.65-9.86,3.29-1.37,3.7-3.56-1-4.89C280.35,334.38,269.59,338.77,256.56,338Zm27.79,6.86a65.52,65.52,0,0,0-5.51,4.28c-8.65,9-19.82,9.19-31.11,8.14-14.53-1.36-29.34-6.52-40-16.46-2.07-1.93-.85-3.49,2-3.53,12.92-.14,24.19,3.86,36.09,6.53,1.4.31,2.82,1.64,4.25,1.85,1.84.27,3.71-.63,5.61-.59,9.82,1.05,17.85-4.13,27.31-4.33A2.27,2.27,0,0,1,284.35,344.89Z"/><path d="M310.75,316.42c-2.86-3.95-9.32-14.43-13.61-16.39a3.34,3.34,0,0,1-1.48-1.4c-2.52-4.37-8.52-14.32-8.62-6.23,3.54,5.39,6.36,6.12.64,14-3.58,5.2-11.34,1.64-16.85,4.6-5.68,4.66-6.56,8.13-14.49,7.18-11.73-.18-11.33-8.84-20.86-10.72-30.86,3.31-17-27.62-3.19-21.83.76,3-.39,5.93,1.72,9.28,1.36,2.42,2.48-1.63,1.08-4,.41-7.69,2.65-12.43-9.42-9.92-17.58,8.15-40.64,39.24-28.89,29,5.48-6.32,9.48-7.55,14.2-13.16a1.15,1.15,0,0,1,2,.91c-1.2,7,2.19,10.42,7.38,12.14a1.07,1.07,0,0,1,.6.52,19.26,19.26,0,0,1,10.3,1.15c3.54,0,7.15,1,9.34,2.77,4.6,3.75,7.26,7.62,16.1,7.5s11.5-5.2,16-6.29a4.42,4.42,0,0,1,2-.06c1.19-.32,2.37-.76,3.56-1.12a2.69,2.69,0,0,0-.54-.33c6.78-.89,12.55-1.6,15.85-8.66a1.9,1.9,0,0,1,3.36-.09c2.34,4,5.32,6.63,8,9.3,3.54,3.55,6.52,7.08,6.68,13.54C312.06,333,314.94,322.21,310.75,316.42Z"/><path d="M354.39,274.5c-5.68-4.93-1.1,10-3,14.63a.24.24,0,0,0,0,.08c-.54,4.56-1.7,6.27-2.32,11a.37.37,0,0,1-.18.26c-1,.67-.2,3-1.91,3.45a.46.46,0,0,0-.15.09c-.54.56-.58.84-.24,7.19a.42.42,0,0,1-.15.31c-1,.86-.26,2.61-.16,3.73v.1c-1.66,11.19-4.42,1.34-5.78,15.75a.36.36,0,0,1-.59.24c-2.36-1.9-3.42,2.37-3.59,4.58a.36.36,0,0,1-.34.32c-2.62.29-2.1,4.18-4.11,6.24a.37.37,0,0,1-.51,0c-4.48-3.89-2.87,7.92-5.91,9.16-2.07.31-1.82,2.77-4.12,2.69a.48.48,0,0,1-.23-.1c-4.11-3.54-5.59,10.82-10.12,13.07a.29.29,0,0,1-.16,0,3.49,3.49,0,0,0-2.7,1.68.35.35,0,0,1-.61-.1c-.82-1.87-3.83-1.44-3.53.64.32,11.55-11,18.79-15.22,27.81-1.23,2.23-4.1,3-4.25,6.32a.36.36,0,0,1-.44.34c-1.29-.29-2.23,1.22-2.42,2.19a.36.36,0,0,1-.36.26c-2.27,0-2.14,1.05-2.65,5-.94,2.15-2.25-1-3.83.7-1.7,3.07-.66,3.35-3.87,5.25-.17,1-1.08.33-1.78.61-3.38-8.79-4.46,3.7-5.5,7.5a.37.37,0,0,1-.63.13c-3.14-3.75-3.06-8.08-8.91-4.86a.36.36,0,0,1-.53-.33c.16-6.62-3.25-8.38-4.29-4.46a.37.37,0,0,1-.54.23,1.58,1.58,0,0,0-2.24.76.36.36,0,0,1-.65,0c-1.07-3.18-3.73-5.45-4.38-1.22a.36.36,0,0,1-.7.08c-4.05-10.3-4.41-2.42-4.26,4.47a.35.35,0,0,1-.63.23c-1-1.1-2.37-1.51-3.32.23a.36.36,0,0,1-.66-.06c-.92-3.34-4.1-1.73-5,1.64a.35.35,0,0,1-.6.14c-1.22-1.24-2.49-.91-3.64,2.26-2.84,2.35,1.62-11.74-3.78-10.43-1.3.24-1.94,1.67-2.5,3.95a.36.36,0,0,1-.7-.07c-.36-5.48-1.63-5.86-3.76-3.16a1.69,1.69,0,0,0-1.7-2.07.33.33,0,0,1-.35-.33c-.16-4.55-5.29-5.28-5.53-9.44-2.26-3.82-2.93,2.66-5-1.94,0,0,0-1.13-.06-1.16-7.88-8.52-15.79-16.56-21.06-26.69a.39.39,0,0,1,0-.18c.22-4-.25-10.37-4-8.42a.37.37,0,0,1-.52-.32c-.14-3.72.33-6.59-2-6.7-1,0-1.09-4.32-3.47-2.87a.37.37,0,0,1-.56-.3c0-1.86.45-4.84-2-4.59a.37.37,0,0,1-.41-.28c-1-4.15.11-8.37-3.29-6.87a.36.36,0,0,1-.51-.33c.09-2.73-.26-5.67-2.47-4.45a.36.36,0,0,1-.53-.28c-.28-3.05-.83-6-3.12-4.76a.36.36,0,0,1-.52-.28c-.29-3.6,1.12-10.3-1.92-9.82a.37.37,0,0,1-.4-.39c.32-5.53-2.64-6.89-4.36-10.93a.31.31,0,0,1,0-.19c.8-7.15-3-11.43-2.3-18.66.28-2,3.37-5.19.12-6.09-5.82.54,1.41-17.68-3-22a.38.38,0,0,0-.62.12c-4.94,13.68.76,31.61,0,45,.29,4.47-.78,9.47,1.64,9.2a.35.35,0,0,1,.37.33c.33,3.69,2.34,7.23,4.42,8.52a.34.34,0,0,1,.16.36c-1.06,5.61,2.59,14.75,6.18,16.14a.31.31,0,0,1,.15.1c4.67,5.87,7.82,14.72,11.25,19.89a.35.35,0,0,0,.33.15c4.73-.19,3.68,12.57,5.41,12.51,4.51-1.5,2.11,5.56,6.82,4.33a.35.35,0,0,1,.4.16c6.21,10.95,17.92,20.19,23.28,31.1a.33.33,0,0,0,.23.18c4.61,1.06,5,18.06,9.58,16.17a.36.36,0,0,1,.48.31c.47,5.62,3.64,3.69,5.16-.23a.36.36,0,0,1,.68,0c.67,2.61,3,4.69,4.73,2.17a.35.35,0,0,1,.64.13c.47,2.1,2.73,3.51,3.78,1a.36.36,0,0,1,.69.09c.76,6.05,3.56,8.17,5-1a.36.36,0,0,1,.66-.13c1.61,2.67,4.71,7.18,6,1.94-.07,4,1.75,3.77,3.44,1.67a.36.36,0,0,1,.64.25c-.5,6,2.31,13.63,4.69,4a.36.36,0,0,1,.68-.06c1,2.42,3.52.26,3.71-2.88a.36.36,0,0,1,.63-.19c1.27,1.49,3.21.52,3.38-2.55a.36.36,0,0,1,.56-.28c1.57,1.05,5.54-.76,6.18-2,1.66-3.37,1.65-1.65,4.19-1.58a.42.42,0,0,0,.3-.13c1.87-2.08-.62-3.7,3-3.62a.38.38,0,0,0,.35-.25c1-3,3.95-3.67,4.63-6.37a.35.35,0,0,1,.56-.18A2.06,2.06,0,0,0,280,419l.08-.12c5.89-12.94,15.72-24.81,24.76-38.21a.38.38,0,0,1,.48-.11c2.85,1.41,2.67-4.1,4.33-6.77a.36.36,0,0,1,.65.12c.89,3.55,3.92,2.26,4.54-1.94a.36.36,0,0,1,.65-.15c3.65,4.89,2.54-7.75,5.44-7.62,2.47-5.05,6.69-8.41,10.59-13.47l0,0a65.85,65.85,0,0,0,13.16-20.38.32.32,0,0,1,.26-.2c2.15-.41,2.38-3,2.44-5a.37.37,0,0,1,.38-.35c1.92,0,2-2.34,1.82-4.19a.13.13,0,0,1,0-.06c.66-13.79,7.3-32.07,4.92-45.78A.48.48,0,0,0,354.39,274.5ZM243.21,425.17v0Z"/><path d="M250.6,385.08a1.71,1.71,0,0,0-2.92.25c-2.06,0-.76-3.54-2.72-5-3.86-5-14.56,14.23-6.32,8.88.53,2.5,2.69.56,4,1.21,0,3.89-3.3,12.32,1.46,14,4.46-1.24.23-9.79,4.5-12.08C255,395.84,253.06,388.16,250.6,385.08Z"/><path d="M190.09,343.29c2.64.16,1.32-2.48,2.15-7.88a.73.73,0,0,1,1.42-.08c1.16,3.59,4.8-4,7.08-6.93a.73.73,0,0,1,1.16,0c3,4.05,3.57,1.9,5.15-2.59a.73.73,0,0,1,1.34-.08c.83,1.85,2.83,2.36,3.86.31a.75.75,0,0,1,1.14-.26c1.13,1,2.31,2,3.33.41a.76.76,0,0,1,1-.26c1.91,1,4.09-1.47,5.78-2.62a.71.71,0,0,1,.55-.11c5.4,1.1,2.62,10.92,9.16.71a.69.69,0,0,1,1.08,0c.5.66,0,3.39,1.48,3.52a1.43,1.43,0,0,1,1.56,1.64c-1.27,3,2.83,3.49,4.58.6a.74.74,0,0,1,.92-.29c1.75.72,3.53,2.25,5.19,1.87,3.76-1,3.82-9.16-.16-6.64a.72.72,0,0,1-1.09-.55c-.23-3.1-3.92-3.92-4.05.3.4-3.56-.53-5-2.87-3.53a.72.72,0,0,1-1.1-.54c-.14-1.09-.74-2-1.66-2.09a.74.74,0,0,1-.68-.9c.47-2.34-2-3.46-3-1.58a.72.72,0,0,1-1.24,0c-3.48-5.51-3.49-1.56-4.71.61a.73.73,0,0,1-1.37-.3c0-1.93-1.89-3.47-3.17-1-.4-.7-2.11.11-2.91,1a.73.73,0,0,1-1.11-.06c-2.05-2.58-2.53,1-3.62,2.3a.71.71,0,0,1-1.11-.07c-.82-1.1-2.38-1.91-3.16-1.09a.74.74,0,0,1-1,.12c-1.52-1.1-4.64-1.1-4.93,1.8a.63.63,0,0,1-.21.47c-1,.76-2.67-.05-3,1.85a.72.72,0,0,1-.82.55c-.68-.06-1.29-.64-2-.46-.42.11-2.67,2.44-2.72,2C194.8,308.68,180.63,341.32,190.09,343.29Z"/><path d="M255.66,332.5c.21-.24,1.4-1.26,1.62-1,3,3.1,6,.88,6.45-.44a.76.76,0,0,1,1.45.06c.56,1.79,2,3.11,3.48-.83a.72.72,0,0,1,.2-.31c1.42-1.15,3.65,2.72,4.1-1.05,1.26-1.94,3.9,4.11,6.1-.5.23-.48,1-.29,1.24.19.88,2,3.43,6.06,4.46,2.52.13-.47.86-.86,1.11-.44,1.76,3,2.56.3,3.82-.2a.77.77,0,0,1,.95.34c1.95,3.41,4.24-3.49,4.67,2.21a.68.68,0,0,0,0,.14c.52,1.91.67,1.16,2,1.91a.75.75,0,0,1,.35.74c-.37,2.87-.71,8.54,1.25,7.47s2.1,2.61,1.89,3.29c-.62,2.09-1.35,4.19-.69,6.25,3.37,2.73,1.84-3.66,6-6,1.72-1,1.5-6.78-.25-7.31-3.13-.49-.38-9.39-2.18-9.29-.9-.05-2.82.05-2.85-.86-.11-3.75.65-5.48-2-4.17-.42.21-1.06,0-1.08-.43-.07-1.83-2.05-3-2.9-.9s-2.1-4.06-5,.25c-.65.59-.85.13-1-.24-1.35-2.8-2.32-1.07-4.06-.06a.77.77,0,0,1-1.12-.63c-.21-3.26-2.64-4.5-4.2-1.53a.77.77,0,0,1-1.29.14c-1.3-1.73-3.78-2.41-4.41-.07a.79.79,0,0,1-1.2.4,2.47,2.47,0,0,0-3.45,1.56.77.77,0,0,1-1.09.55c-.72-.36-2.41-3.29-4.19.19-.24.47-1,.36-1.27-.08-1.78-2.75-4.29,1.15-5.5,1.09-.43,0-.88-1.58-1.55-1.86C253.17,322.57,253,335.5,255.66,332.5Z"/></svg>
