<svg
  data-face="erica"
  xmlns="http://www.w3.org/2000/svg"
  aria-hidden="true"
  focusable="false"
  viewBox="0 0 500 500"
  width="500px"
  height="500px"
><path d="M277.15,331.28c1.05-.92-22.5-14.2-24.58-15.48-23.44-14.42-27-3.19-33.34-2.45-6.11.7-13.89-5.06-21.34,5.43-1.81,2.55-9.47,15.14-9.67,15.19,5.42-1.51,11.44-12.74,17.05-15.87,8-4.44,11.31,1,17.33-1.66,5.15-2.27,13.44-7.85,30.89,5.14,1.36,1,19.44,9.41,15.87,9.44-1.3,0-12.41.76-16,1.93-9.4,3.09-16,7.83-26.56,8.11a30,30,0,0,1-16-4.37c-.92-.72,3.39-3.81,9.82-4.74,1.45-.21,3.9.33,5.12.25,2.58-.18,4.69-1.17,7.05-.73,9.07,1.67,11.27.32,11.27-.24,0-.33-10.92-4.07-11.61-4.25-2.47-.63-5.76,2.13-6.91,2.22-2,.16-4-2.23-8-1.21-1.26.33-10.18,5.78-15.49,5.25-2.44-.24-16.67,2.31-16.67,3.06,0,.28,3.06,1.27,3,1.29.54-.58,15.87,17.3,17.15,19.72,6.2,11.75,16.75,9.08,26.95,9.08,10.61,0,18.57-5.39,25.45-12.76C260.22,351.3,276.1,332.21,277.15,331.28Zm-24.46,22.11c-6.56,6.72-13.19,7.62-22.89,7.61-8.72,0-16.43,2.3-20.24-4-2.72-4.51-13.6-15.71-15.28-17.34s8.15-1.52,8.79-1.26c6.88,2.8,13.69,7.67,22.92,7.67,11.61,0,18-7.27,28.46-9.84,4.51-1.1,10.92-2.08,13.19-1.57C270.3,335.23,254.82,351.19,252.69,353.39Z"/><path d="M200.64,299.37c1.3-.1,8.37-.86,8.25-2.08-.09-.89-7.43-.69-8.71-1-3.69-.91-6.05-5.51-7.43-8.71-3.23-7.46,1.31-12.49,5.76-21.18,3.4-6.63,4.92-14.27,6.64-21.59.67-2.83.79-17.87-1.81-18.29-.44-.07-.58,13.76-.92,15.8a78.66,78.66,0,0,1-6.74,20.21c-3.86,8-10,14.57-7.12,23.92C190.1,291.41,195.56,299.79,200.64,299.37Z"/><path d="M200.35,292.35c.42,1.82,1.51-.41,2.82-.55,3.29-.34,13.48,3.47,16.65,3.6s4.2-3.4,6.21-4.9a17.48,17.48,0,0,1,7.58-3.56c1.33-.31-.35.53-.31.79.16,1.19,9,.18,8.7-1.7-.95-5.21-14.25-1-17.56,1.44-1.87,1.36-2.39,4.13-4.6,4.85C213.33,294.44,197.49,280,200.35,292.35Z"/><path d="M242.79,284.7c-.39.41,1.3,1.55,2.73,1.52a9.16,9.16,0,0,0,5.87-2.36,11.12,11.12,0,0,0,3-6.45,9.05,9.05,0,0,0-3-7c-.83-.71-1.3-.31-1.32.26s.16,0,1.2,1.42,1.23,2.93,1.41,5.29c.12,1.57-1.43,4.14-2.45,5.26a10.2,10.2,0,0,1-4.31,2.44C244.72,285.28,243.32,284.35,242.79,284.7Z"/><path d="M244.63,261.39c4.54,4.25,16,9.79,12.22,21.73-2.2,7-13.34,7.1-17.73,6.92-2-.08,2.39,1,5.26,1,7.57.14,12.33-1.39,14.24-4.42a15.44,15.44,0,0,0-.84-16.94c-2-2.92-9.46-6.9-12.43-10.56C238.89,251.18,243.22,260.07,244.63,261.39Z"/><path d="M182.83,171.6c-2.91,2.72-8.68,3-13.7,2-11.61-2.17-20.27,1.88-23.07,4.79-1.08,1.13-9.72,8.59-8.29,9.63.52.13,8.94-4.9,9.22-5.05,2.53-1.43,5.75-5.73,19.76-2.47,5.09,1.19,11-3.66,17.42-2.32,2.49.51,6.38,7.93,8.81,4.9C196.39,178.86,190.35,164.59,182.83,171.6Z"/><path d="M312.71,435.72a1.29,1.29,0,0,0-1-.85h0c-1.67-.31-5.56,3.46-6.4,4.31-2,0-3.22.25-4,1a4.63,4.63,0,0,0-1.27,3.4,6.69,6.69,0,0,0-3.75,2.08,3.91,3.91,0,0,0-3-.18c-1.16.48-1.86,1.75-2.52,3.5a20,20,0,0,0-6.9,4c-3.95-1.21-6.72-.44-9.47,2.63l-.75.07a16.32,16.32,0,0,0-6.16,1.43c-3.69-1.85-6-1.19-9,.79-3.79-1.11-5-1.18-8.71-.51-2.25-2.18-4.67-2.39-7-.6a15.21,15.21,0,0,0-7.38-1.86A5.48,5.48,0,0,0,230,453.5a15.12,15.12,0,0,0-5.61-1.74l-.75-.13c-2.19-2.57-3.72-4.27-8-4.09a56.91,56.91,0,0,0-8.29-5.86c-1.55-3.69-2.94-6.87-7.63-7.83a16.33,16.33,0,0,1-1.34-2.14,10.16,10.16,0,0,0-3.26-3.85c-.46-4-2-5.29-5.17-7a28.6,28.6,0,0,1-1.15-2.73,22.3,22.3,0,0,0-1.85-4c.72-2.57-.29-3.37-.62-3.55a1.28,1.28,0,0,0-1.56.23c-.62.59-.89,1.84.15,3.59-.85,3.31.35,5.91,3.55,7.74a14.89,14.89,0,0,0,4.85,6.67l0,.38c.3,3.68.44,5.38,5.26,6.32,2.08,2.88,3.92,5.38,7.22,7.43,2,4.63,4.92,6.69,9.17,6.48,2.44,1.85,4.23,3.21,7.63,3.89,2.27,2.6,3.82,3.5,7.09,2.25a8,8,0,0,0,5,1.16l.75.56c2.2,1.64,4.68,3.5,7.5,1.58a9.6,9.6,0,0,0,6.3.44c2.12,1.48,3.62,2.33,5.36,2.21a9,9,0,0,0,4.15-1.67c3.83,1.13,5.21,1.19,8.74-.71,3.66,1.84,5.36,1,7.85-1.84l.58-.05c2.85-.25,6.07-.53,8.35-2.27,2.18.67,3.76.72,4.94.15,1.53-.74,2.24-2.4,3-4.68a9.34,9.34,0,0,0,4.49-2.61c1.59.62,2.79.66,3.66.15a3.5,3.5,0,0,0,1.43-3c1.6-.58,2.79-2.06,3.85-3.37.15-.2.31-.39.46-.58l.86.07c1.55.14,3.14.29,4.43-1.09C311.85,439.55,313.16,437.05,312.71,435.72Z"/><path d="M483.16,225.51c-5.21-1.32,3.07-5.38,4.45-10.2,2-7-6.11.43-8.13-.14-3.82-1.08,2-11.29-.63-14.12a47.92,47.92,0,0,1-7-10.46c-1.35-1.83-6.7-3.43-8.46-5.74s3.24-10.63-1.45-15.66c-1.5-1.6-5.76,1.26-7.28-.61-2.56-3.16.5-5.25.61-8.17.35-9.17.27-9.3-9-10.6-5.76-.81-9.92-.93-8.95-8.37.61-4.68,5.86-6.81,3.07-11.71-1.74-3.07-15.61-1.38-16.19-10.08-.24-3.62-6.16-4.87-6.61-5.7-2.2-4.15.88-4.15.61-7.51-1-11.6-5.43-4.07-12.81-7.33-3.53-1.55-4.24-5-5-8.22s-4.91-.68-7-.37-1-4-2.48-5.85-5.4-3.13-6.28-4.46c-1.3-2,1.12-4-.87-5.9-2.24-2.13-5.42-1.58-7.38-3.27-3.6-3.1,2-3.54.25-5.91-1.24-1.67-3.82-4.8-5.3-6.75-2.79-3.66,4.52-6.27,1.3-11.86-2.76-4.79-19.42-8.34-20-13.42s-8.17-7.54-12-7.64-6.66,0-9.31-2.33c-2.2-1.93-.39-3.51-1.68-6.35-3.66-8-14.93-9.44-21.89-6.64A9.68,9.68,0,0,1,302.33,7c-4.35-.38-8.39,2.1-12.62,1.65-3.29-.35-6.37-3-9.68-2.45a31.58,31.58,0,0,1-4.28,4.45A6.11,6.11,0,0,1,270,8.24c-6-1.39-10-4.52-15,2.13-11.36-12.08-22.6,1.44-30.72,9.82C221,23.54,212.05,30.58,211,35.35c-.93,4.26,1.77,8.7,1.66,12.85S209.36,58.8,210.49,63c1.39,5.23,2.79,3.15,7.1,7.14,3.4,3.16.37,10.73,3,13.89s10.87,1.92,8.55,3.6c-4.64,3.38,2.66,6.75,2.85,9.93.15,2.54-7.07,6.18-7.15,8.57-.17,4.53,7.47,4.06,8.31,6.5s-4.5,9.56,3,9.94c-6.52,5.37-2.52,17.55,5.26,12.54,5-3.19-9.69.29.39-7.84,9.16-7.39-2.9-4.81-3.81-10.57-.51-3.25,3.9-4,.52-7.28-5.78-5.6-3.9-7.54-2.24-9.62.75-.94-5.32-8.58-.39-13.22s-7.43-2.51-9.5-8.13c-1.09-3,3.51-4.37,1.82-8.61-2-5.07-8.76-2.15-11.84-6.26-2-2.6-1.22-9.59-.27-12.46.68-2,4.24-4.36,4.14-6.66-.15-3.32-2.9-2.67-3.76-5.3-.06-.2,5.59-8.37,6.34-9.19,1.88-2,5-2.66,6.95-4.77.93-1,2.39-5.59,3.18-6.63-.35.46,4.92-2.83,4.9-2.81,2.06-1.76.39-4.57,4.23-5.85,2.4-.8,12.85,4.63,14,3.05,3.61.49,5.33-3,9.45-2.21,2.35.46,4,2.88,6.34,3.46,5.89,1.48,10.9-4.24,16.46-1,4-.7,8.08-3.89,12.28-2.77,3.79,1,3.58,9.2,9.67,4,8.6-.18,10.41,1.11,14,8.51,4.66,9.75,12,6,17.52,8.23,3.84,1.52,3,4.17,4.76,7.73s15,5.53,17.86,11.1c2.6,5.08-5.83,10.39-1.78,12.87,3.36,2.06,7.54,4.69,8,9.43.16,1.56,4.61,4.24,5.48,5.33,3.23,4.1.34,8.88,3.94,8.4s8.36,2.72,7.48,6.8,7.2,3.58,9.15,5.81.43,4.21,3.35,5.79c2.54,1.38,7.67-.55,9.91,1,3.82,2.68-1.79,9.14.36,12.57.05.07,6.51,3.22,6.7,3.42,2.73,3,2.47,7.89,7.08,8.66,5.65.95,10.2,4.09,7.89,10.3-6.84,18.39,10.74,8.26,15.92,19.22,2.29,4.85.45,8.55,3.82,12.82a33.18,33.18,0,0,0,5.49,5.8c3,2.52-1.51,5.53.74,9.57,1.34,2.38,5.77,3,7.65,4.79a24.9,24.9,0,0,1,6.05,10.72c1,4-1.79,14.54,2.82,15.11,6.51.8,1.28,6,2.86,8,2.84,3.66,7.37,4.48,8.75,4.72,3.88.67-.79,8.07,4.63,9.9C497.92,243.5,488.36,226.82,483.16,225.51Z"/><path d="M388.42,430.38c-5.17,2.63-10.44,6-15.26,2.36-2.75-2.09,2.35-6.23-3.1-7.59s-7.38,7.2-12.07,7c-1,0-13.16-11.64-7.71.1,4.7,10.11,11.85-2,17.1-1.05,2.34,1.16,1.89,6.11,4.66,7.72,2.39,1.38,9.68-1.28,10.85.31,1.33,1.81-5.9,7.88-6.18,9.23-.54,2.57-.42,46.64,1,47.32.57.29,2.18-4.07,2.73-7.81,1.66-11.4,2.78-35.82.53-38.58C385,445.89,402.27,424.23,388.42,430.38Z"/><path d="M192.82,14.81c-4.71-2.78-10.27,2.82-15.21,2-3.44-.55-7.37-4.25-11.28-5-12.81-2.48-9.51,3.38-14.43,10.88-4.84-.57-4.32-.21-8.72,1.41a7.1,7.1,0,0,1-4.31,3.35c-2.1.39-5.47-2.3-9.35-1.63s-4.23,7.4-8.92,10.69c-4.13,2.9-8.07-.18-11,3.53-1.61,2-.11,3.46-2.06,6.35s-5.77,0-9.61,3.67-2,10.22-6.48,12.83c-3.64,2.13-8.36,1.34-10.07,5.66-1.49,3.76,2.61,8,.79,11.31-1.59.79-4.42,1.2-5.88,2.21-.84,1.68-2.41,5.92-3.18,7.63-2.93,3-13.79,7.45-15.27,9.86-.15,2.3,2.64,4.93,4.54,6.32q2.89,1.82-.3,3.48c-1.46,1.25-2.91,2.52-4.35,3.79-3.27,3.65-4,4.23-4.06,8.72-.09,4.22,3.79,1.75,2.34,6.49-1.26,4.1-11.52,5.36-11.21,10.65.24,4.08,6.33,3.61,5,7.41-1.69,4.9-10.69,4.31-6.46,10.72,5.16,7.83-10.23,9.63-9.57,14.23.8,5.59,12.74,1.28,7.11,11-2.81,4.86-18.49,6-13.58,12.72,2.83,3.87,7.16-2.19,6.27,5.36-.65,5.42-6.74,4.56-4.42,11.06,1,2.72,7.48-.26,4,6.35-1.42,2.71-7.95,1.89-8.39,5.12s6.83,1.47,8,2.43c4.3,3.67,1.59,9.11-2,12.06-2.31,1.89-13.95,5.68-3.29,7-1,9.79-22.22,3.37-13.3,13.71-2.27,1.67-8.57,2.19-8.64,5.82-.06,2.82,4.81,1.48,4.55,3.9-.26,2.23-10.28,5.84-2.39,5.77,4.56,0,12.23-8,4.32-9.45,2-1.63,4.11-2.85,5.81-4.84,1.88-2.21-.83-3-.09-4.57s8.93-1,10.87-2.54c3.43-2.75,4.13-9.34,7.05-12.75,6.52-7.61,2.51-15.22,1.38-17.16s3.85-4.23,3-8c-.68-3-3.83-6.44-4-8.91s6.48-8.77.64-11.61,7.6-5.25,10.15-9.9c2.93-5.35-1-9.38-4-13.5,1.56-2.4,5.32-2.94,6.83-5.53,3.06-5.25-1.56-6.29-.81-10.33.8-4.35,8.49-5.91,8.21-10.34-.25-3.88-3.52-3.6-3.63-5.9-.15-3,.44-3.52,2.21-5.19a21.45,21.45,0,0,0,6.06-5.32,8.32,8.32,0,0,0-1.72-6.32c1.6-6,10.64-7.67,11.26-13.23.33-3-5.24-4.17-4.62-7.53.42-2.26,7.28-4,9.07-5.35,3.06-2.33,4-6.51,6.64-8.78-.82.7,6-4.83,6-4.85,3-4.61-.92-3.92-.75-8.36.17-4.59,4-7.51,7.79-9.65.22-.12,18.72-5.24,8.41-6.09,1.46-5.12,5.52-3.58,8.15-5.15S111.24,41.67,123.2,40c6-.84,5.34-6.37,9.08-7.43s5.54,3.43,8.62,2.88,4.58-2.3,4.84-5.26a2.64,2.64,0,0,1,1.83-2.85,10.44,10.44,0,0,1,3.67.88,6.85,6.85,0,0,0,4.49.74,5,5,0,0,0,.74-4.76c2.59-4.19-1.4-4.72,5.44-6.54,3-.81,9.75.59,12.25,2.55,1.33,1,2.93,6,4.1,6.39,4.42,1.52,2.86-3.05,6.59-4.24,5.3-1.69,6.39-1.53,11.32,1.26.5.28,3.27,5,3.35,5C206.79,28.62,195.76,16.54,192.82,14.81Z"/><path d="M344.13,265.28c1.6-4.13,6.36-8.18,6.42-12.9,0-.88-1.27.36-1.35.91-.75,4.76-8.49,8.6-10,13.15-1.83,5.6.1,12.75.18,18.57.25,18.82.37,39.5-11.11,55.43-5.42,7.53-15.73,12.33-22.77,18-6.54,5.27-10.22,15.84-15.8,22-8.24,9.16-15,15.67-27.15,18.7-14.43,3.6-32.43,3.89-46.64-.28-13.08-3.83-19.27-17.31-24.77-28.45a80.89,80.89,0,0,0-7.1-12.78c-1.26-1.66-14.42-16.49-18.55-23-5-8.64-3.48-21.14-7.28-30.36-3.39-8.22-8.13-11.12-9.38-19.2a43.27,43.27,0,0,0,11.9.71c4.12-.16,24-6.13,21.41-9.54-.18-.2-4.86,2.48-7.3,3-17.43,4-25-.33-26.15-.61-1.46-10.43-4-17.17-3.5-28.51.52-10.58,3.95-19.34-1.57-30.52-1.75-3.54-2.7-8.34-3.61-11.29a62.55,62.55,0,0,1,32,.9c7,2.12,10.84,6,17,9.71,5.48,3.31,4.95,3.33,6.78,8.78.33,1,2.25,3.61,4.58,4s-4.18-6.67-1.85-12c1.48-3.39,1.86-3.13,6.8-3.5.8-.06,15.08-.24,13.85-1.88-.78-1-20.45-.43-21.54,1.06-.69,1-7.46,1.58-9,.6-7.79-4.86-15.2-9.58-24.39-10.92-8-1.17-15.9-.1-24.6,1.65-.25-.89-.65-1.93-.84-2.82a84.61,84.61,0,0,1,15.05-2c14.76-.57,25.92,7.25,40,9.52,3.28.53,27.12-.7,33.12-4s24.72-17.45,33.89-21c7.69-3,30.21-4.11,36.62-3.94,12.53.34,32.29,3.07,40.35,2.45,2.64-.21,4.67-.64,5.86,4.15.45,1.8,1.74,5.56-1.81,7.12-1.29.57-5.44.49-7.16,4.18-1.87,4-.58,10.89-.6,15.24,0,1.39-.26,7.41-.33,8.59-.48,5.8-6,17.11-3.35,8.78s2-27.53-6.55-37.2c-10.09-11.43-30.08-9-43.57-7.73-10.76,1-21,3.37-30.52,8.6-2.33,1.28-18.57,11.1-19.41,14.61-.19.81,18.06-11.64,25.85-14.62,12.21-4.66,30.27-7.56,43.28-7.09,21.61.8,32.36,18.6,27.73,40.36-5.42,25.48-36.89,38.27-59.86,33.42-10.59-2.24-19.52-6.7-26.75-14.42-5.26-5.63-8.09-12-10-13.15-2.32-1.47,6.53,12.33,13.24,18.59,5.25,4.89,11.46,9.92,16.78,11.9s14.26,2.69,23.57,3.2,43.58-8.38,50.49-36a89.14,89.14,0,0,0,1.74-16c-.05-5,.07-9.74,1.7-14.48,1.31-3.82,8.27-6.34,8.54-8.79a20.08,20.08,0,0,0,.19-5.75c-.71-5.42-4.3-7.18-8.84-7.64v0a3.17,3.17,0,0,1-1.1-.08v0c-3.84-.21-8.21.33-12.06.33-11.47,0-22.9-1.31-34.38-1.28-4.35,0-14.59.34-19.69,1.31s-13.27,3.3-18.67,6.39c-2.4,1.38-26.83,17.19-30.32,18.54s-23.76,3.25-27.52,2.5c-11-2.21-21.59-8.62-33.23-8.75-7.82-.08-15.19-.23-22.69,1.28-.68-3.92-1.19-6.51.25-12,1.1-4.2,14.37-46.77,9.6-46.53-2.46.13-9.47,29.06-10.67,32.69-3.16,9.5-3,17.85-2,26.46-4.22.92-7.35,3.35-11.45,5-10.6,4.39-19,11.6-29.08,14.9-3,1-6.1,1.51-5.17,6.25.39,2,1.5,11.4,3.64,11.26,6.46-.45,10.93,10.79,15.31,17.14,9.47,13.73,19.78,24.13,34.57,27.91.49,4.13,9.28,19.34,10.52,23.39,4.46,14.55,2.28,18.31,9.88,30.3,4,6.74,10.74,14.72,15.27,21,5,5.34-1.57,19.57,3,20.37-3.53,6.63,2.58,8.38,1.21,14.79-4.08,5.72-22.18-3.48-25.42,6.27-1.35,4.07,11.38-1.63,14.33-.68-4.38,7.12,5.89.61,7.1-.07,4.78-2.71,6.76,1.61,7.85-6.12.56-4-6.74-7.52-1.28-10.92s-2.07-3.46-2.14-6.11c0-1.46,2.54-6,3.67-5.66s2,4.15,4,8.36c3.32,7,6.59,14.78,16.26,19.46,11,5.36,25.07,7.82,37.17,7.82,17.77,0,33.53-7.27,45.92-19.93,6.94-7.09,11.22-16.81,18.91-23.1,6.86-5.6,21.32-16.27,21.42-11.54.09,4.35-3.31,4.92-4.36,9.18-1.15,4.64,1.57,4.2,2,7.28.63,4.29,1.53,2.64-.05,7.63-2.44,7.72-5.24,11.05,5.84,9.19-2.59,4.33-14.12,22.08-3.92,24.08-7.29,6.45-6.6,13.44,4.17,12.09-5.15,9.32-2.07,20.92,0,12.08.39-1.69,4.14-12.72,3.57-14.07-1.76-4.18-6.95.15-9.13-1.38-4.38-3.1,14.38-10.18,12.94-13.4-1.36-3.06-8.44,2.38-10.61.74-4.48-3.37.78-9.36,3-12.87,1.08-1.71,7.43-8.64,5.44-11.22-1.42-1.85-6.24.58-7.93-.83-.84-5.35,13.74-5.7,9.2-12-1.38-1.92-6.47.53-8-3.25-2.06-5.16,4.05-6.48,5.54-10.46,4.22-11.31-7.42-10.4-3.67-15.16,8.21-10.44,7.65-31.7,7.18-40.15s0-15,.05-21.35C342.27,273.45,342.47,269.56,344.13,265.28ZM114.63,260c-5.37-7.44-11.65-23.5-16.82-23.55-3.28,0-3.84-6.33-3.38-9.67a83.13,83.13,0,0,1,7.18-4.6c5.85-3.42,11.49-7.57,17.78-10.62,6-2.91,10.32-5.51,16.48-6.9.13.88.41,1.94.62,2.85-7.4,1.67-13.68,3.92-19.2,8.53C101.72,229.07,116.34,262.38,114.63,260Zm9.76,6.85c-11-15-20.56-46.46,7.12-56.21a54.64,54.64,0,0,1,5.54-1.36,34.54,34.54,0,0,0,1.67,3.85c8.86,21.74-1.81,39.45,4.52,64.37C134.86,275.26,128.32,272.27,124.39,266.86Z"/><path d="M196.06,56.38a3.05,3.05,0,0,0-3.45.24c-1.11,1.87,2.68,3,2.36,4.05-.22.74-2.06,3.87-2.39,5.3-1.49,6.46.41,4.75-4.59,7-2.33,1.07-10.79-2.51-10.92,3.51,0,1.25,7.37.43,7.93,2.78s-12,2-15.16,6.55c-2.05,3,2.13,2.28,1.85,7.12s-17.47,9.7-15.17,12.76c2,2.64,22.31-4.9,6.48,5.7-3,2-5.32,5.41.28,7.37,4,1.41.41,3.17,1,5.47.79,3,6.58-1.58,6.9,2,.38,4.2-3.94,2.43-2.55,6.78,1.21,3.8,5.78-1.85,5.06,4.22-.23,1.95-3.84,2.31-4.2,3.83-1,4.17,6.1,3.39,6.29,4.3.45,2.17-7.41,2.49-4.21,6.53.76,1,2.57-1.15,4.37,0s-1.49,2.4-.89,3.78c1.67,3.88,13.69-5.47,2.8-7.41,2.41-2.37,3.12-6.68-1.16-7.28,2.63-3,2.38-8.13-1.93-9.35,2-1.38,2.55-3.75,1.3-6.66-2.23-5.22-10.69-7.47-7.5-10.9,5-5.35,5.87-8.88,1.59-10.74S183.79,98,180.43,92.19s5.45-5.81,8.56-9.07a7.33,7.33,0,0,0,2.8-6.7,11.33,11.33,0,0,0,3.64-2.8C197.75,68.63,203.76,58.42,196.06,56.38Z"/><path d="M294.51,124.75c-2.4-3.47-6.57-.29-7.24-2.79-1-3.67,7.33-6.52,5.28-9.44s-8.2-.36-7.46-4.93c.67-4.07,12.5-4.75,10.7-9.06-1.64-3.9-17.84,5.33-18,11.48-.07,2.41,7.84,3.75,5.51,5.92s-5,6-3.84,9.1c.73,1.89,5.39,1.32,6.21,2.76s-1.4,3.72-.83,5.1c1.35,3.33,9,5.4,10,3.52,1.18-2.17-5.17-2.43-5.19-4.71C289.65,129,296.9,128.23,294.51,124.75Z"/><path d="M483.85,318.72c1.15-2.3-11.76-4.06-14-7.26-4.62-6.56,14.47-9.38,3.81-15.5-4.42-2.54-7.26,1.6-7.07-4.35.1-3.3,4.27-4.5,4-7.91-.27-4-5.29-4.74-5.64-6.94-.75-4.7,4.67-7.07,6-10.85,5.13-14.57-14-1.22-13.89-13.25.06-4.93,2.36-8.2-1.15-13.19-1.72-2.44-1.76-2.1-2.81-5-1.1-3.08,11.12-8.15,10.53-11.75-1.2-7.35-22.89,8.89-19.61,14.15,2.15,3.44,6.88,2.86,8.23,7.23,1.87,6-6.55,10.61-.29,16.43,3.7,3.46,8.16,4,12.72,3.94-2.62,4.19-4.31,6.09-4.32,11.41,0,5.58,5,5.06,5.64,7.86.76,3.24-3,3.87-3.9,7.4-1.77,6.85,3.29,8.78,9.14,8.78C448.66,317.77,482.7,321,483.85,318.72Z"/><path d="M454.78,402.18c-.51-4.46,3-4.18,2.93-8.88,0-7.09-5.91-3.55-10-6.39-5.35-3.7-.49-5.91,4.11-8.67,22.69-13.61-3.33-2.17-4.25-10.87-.67-6.43,11.51-4.51,7.05-12.15-1.13-1.94-11.82-1.65-11-5.08.62-2.43,11.63-2.56,13.69-5.3,3.78-5,3.1-7.38-.64-11-4.88-4.74-10.73-3.27-9.72-11.12.58-4.6,9.61-9,9-13.92-1.31-11.3-15.78,11-14.62,17,1.56,8.06,17.35,9.66,7.3,16.44-3,2-7.22,2.31-9.23,6.49-2.91,6.05,4.63,8,8.81,9-9.27,5.15-12.48,16.48,1.31,16.71-4.34,2.4-12,7-9.9,13.22,2,6,8.05,2.94,12.44,5.27-5.78,9.34-.09,13.68,1.24,16.2S455,404.26,454.78,402.18Z"/><path d="M438,399.9c-6.07-2-16.93.13-21.54,3.4-12.06,8.57,6.72,8.6,11.68,13.51-7.83,3.22-31.33,9.19-15.42,18.42,4.57,2.66,8.9,1.08,5,5.33s-12.5,1.55-11.79,8.89c.27,2.83,8.06,16.25,10.92,17.12,6.48,2-.32-6.37-.95-7.35-1.55-2.42-5.82-7.69-5-10.32,1.31-4.11,8.64-3.66,11.17-6.88,7-8.87-19.88-11.07,0-18.55,3.89-1.46,12.53-2.79,9.52-8.33-2.16-4-17-3-14.47-8.33s22.33-.76,23.39-4.95A2.78,2.78,0,0,0,438,399.9Z"/><path d="M68.83,331.88c-4,2.13,11.47,6.34,14.65,9.15s4.66,3.61,4.8,6.93c.3,6.87-16.07,5.9-14.9,10.69,1.09,4.39,12.88.13,15.83,3,9.32,8.89-11.61,6.55-12.32,11.08-1,6,14.83,2.95,7,11.74-2,2.26-7.4,1-8.58,4.59-1.92,5.88,2.79,2.84,4.28,6.29,2,4.54,3.36,2.52,1.51,6.69-.92,2.08-5.46,3.17-5.94,4.56-2.82,8.17,5.8,2.11,6.6,8.08.39,2.94,10.07-5.92,1-6.8,6-4.67,4.9-12.8-1.47-16.66,5.18-3.31,12.84-12.3,5.47-17.56,9.79-3.74,11-14.64-.2-17,4.9-3.54,8-7.41,3.47-16.05S74.17,329,68.83,331.88Z"/><path d="M40.12,351.46c.38-5.91-2.66-10.9-9.52-13.7,2.83-2.27,4.34-8.9,4.64-15.7.59-3,.2-8.56.19-10.48,0-2.75,7.23-3.48,4.83-6.95s-6.57-.29-7.23-2.8c-1-3.66,7.32-6.51,5.27-9.43s-8.2-.37-7.45-4.93c.66-4.07,12.5-4.75,10.69-9.06-1.63-3.9-17.83,5.32-18,11.48-.07,2.41,7.84,3.75,5.51,5.92s-5,6-3.84,9.1c.53,1.36,3.08,1.45,4.78,1.92-.45,4.59.56,13.53,1,15.82.65,3.55-1.69,7.69-2.95,10s-5.85,3.24-6.66,5.25c-3.63,9,8.2,4,12.86,7.87,5.32,4.42-6.76,12.28,4,14.55,2.45.51,5.07-4.22,8.31-2.29,4.63,2.76-.87,4.11-2.65,5.47-1.23.93-18.84,3.27-17.38,6.84,1.1,2.69,8.14-1.15,7.37,4.49-.44,3.16-4,3.27-7,4.22-2.14.68,2.74,8,10.57-.43,2.25-2.42,3.08-5.71.44-8,5.66-1.44,13.86-4.27,14.35-9.83C53.07,351.73,46.6,352.89,40.12,351.46Z"/><path d="M139.37,394.92s.77-7.38-.09-8.68c-2.14-3.22-7.94-3.8-11.36-4.71,2.36-1.59,8.49-4.54,6.68-8-2.34-4.51-10-.36-5.48,2.14-2.84,2.12-21.29-1.09-18.54,2.92,2.39,3.48,20,6.6,23.08,9.26,11.08,9.59-24,4-18.81,11.1,3.37,4.57,24.9-4.82,25.47,2.66.26,3.45-12.35,5.15-14.11,6.7-7.7,6.82,2.64,1.84,5.21,6,.14.3-.86,7.88-.86,8.06,0,.89,1.8,2,1.79,2.93s-1.25,1.6-1.26,2.2c-.08,4.36,1.28,13.43,1.14,18.34-.51,18.09-2.39,20.76-2.33,38.89,0,6.67,4,11.21,4.38-2.85.39-16.28.84-21.57.83-37.85,0-5.21.56-10.4,1-14.87.3-3.34.16-3.7-.78-7.52-.4-1.59-1.14-2.91-1.47-4.37-.76-3.36,3.78-3.3-.14-7C141.14,406.72,149.57,401.73,139.37,394.92Z"/><path d="M378.18,266.67c8.64-5.63-.13-9.36-2-10.54,5.83-5.24,14.66-22.12,1.61-25.16,3-4.36,6.64-15.84-.05-19.15,8.52-8,5.76-24.46-5.37-24.4,9-10.47-1.59-17.72-8.69-14.83,4.18-4,9.6-4.14,10.53-13.51.8-8-.14-12.89-5.27-13.64,4.86-6.56,4.95-13.68-3.11-20-5.46-4.31-10.84-2-15.46,1-.81-9.69-9.87-6.6-13.72-6.81,2.18-8.83,12.53-25.66,2.24-21.34C330,102,328.24,112,335.44,109.35c-1.84,4-6,10.59-1.32,15.5,2.23,2.31,4.52-1.07,6.76.39,8.69,5.69-.92,7.13,4.13,11.91,5.63,5.33,8.51-9.1,14.56-7.63,15.43,3.76,2.35,14.28-1.51,16.19-5.2,2.57-12,6-3.3,9,3.93,1.34,12.51-6.86,15.71.6s-12.27,12.27-12.28,17.92c0,7.81,9.3,4.63,12.8,6.5-2.79,3.15-10.5,3.16-7.75,11.24,2.47,7.26,11.89.26,14,7.4,4,13.59-23.1,10.22-6.74,18.57,6.86,3.5,10.5-1.26,2.63,9.63-6.42,8.87-7.13,6.62,1.21,10.92,9.73,5,6.57,3.6,0,11.94C370.82,253.87,367.33,272.89,378.18,266.67Z"/><path d="M290.37,157c-11.5,3-27-6.88-42.47,6.9-4.3,3.83-13.28-3.26-10.75,10.08,1.57,8.34,17.57-8.31,23.19-10.75,7.74-3.37,16.57,1.41,25.54-1.53,14.91-4.9,26.12,5.95,24,1.65S300,154.52,290.37,157Z"/><path d="M298.88,207.15c-10.55-5,3.81-6.37-11.1-6.86-3.49-.11-13.56-1.17-17.16-.55-8.18,1.43-6.43,3.86-10.07,5.37-2.44,1-13,7.26-12.23,11.58.26,1.43,25.95,4.38,29.84,4.5,14.39.43,17.52-6.91,22.74-10.2C301.4,210.67,301.07,208.17,298.88,207.15Zm-44,8c-2.16-1.45,9.74-9.42,11.53-9.61s-.79,2.31-.26,5.89c.44,2.93,2.72,4.29,2.77,5.66S257.15,216.67,254.88,215.15Zm29.76.36c.51-1,2-2.55,2-4.47,0-3-2.11-7,1.54-5.76.83.28,4.86,3.22,5.12,3.89C294.13,211.36,287.58,216.53,284.64,215.51Z"/><path d="M185.23,220.38a4.78,4.78,0,0,0-1.4-2,4.72,4.72,0,0,0-1.6-.62l-8.66-2.23a42.1,42.1,0,0,0-7-1.38c-1.74-.14-3.5-.06-5.24-.18s-3.57-.37-5,.57a3,3,0,0,1-.94,1.83l-7.77,9.14a21.33,21.33,0,0,1,4.8,3.8c.76.9,1.37,1.91,2.16,2.78a13.16,13.16,0,0,0,3.16,2.44c2.12,1.23,4.59,2.17,7,1.73a11.1,11.1,0,0,0,3.35-1.32c1.54-.83,3-1.76,4.5-2.68l5.4-3.39a20.48,20.48,0,0,1,6.95-3.17c1.23-.23,1.89-.06,1.83-1.48S185.78,221.51,185.23,220.38Zm-20.72,10.2a10.78,10.78,0,0,1-4.39-.75c-2.54-1-4.69-2.93-7.35-3.48a.7.7,0,0,1-.42-.18c-.22-.28.12-.66.42-.85,1.4-.91,7.1-5.89,8.56-3.93.68.91.48,3.1,1,4.25a8.35,8.35,0,0,0,2.67,3.71c.23.19.49.43.45.73S164.88,230.57,164.51,230.58Zm19.93-6.67c0,.27-1.71.87-1.95.92-1,.23-3.24,2.39-2.83,1.08a11.05,11.05,0,0,0,.83-3.08,5.72,5.72,0,0,0-1.22-3.07c-1.19-1.3,3.23.53,4.1,1.4A3.61,3.61,0,0,1,184.44,223.91Z"/><path class="eyes" d="M274.05,215.88a5.47,5.47,0,0,0,4-.33c2-1.22,2.43-2.26,3.53-4a3.9,3.9,0,0,0,.74-2.67,1.33,1.33,0,0,0-1.15-1.06,4.49,4.49,0,0,0-2.76,1.3c-.78,1.25,1.07,2.38-2.15,3.37-2.62.8-.3-3.53-1.73-3.7a2.92,2.92,0,0,0-2.82,2A4.07,4.07,0,0,0,274.05,215.88Z"/><path class="eyes" d="M168.11,227.36a5.19,5.19,0,0,0,3.65-.41,9.5,9.5,0,0,0,3.37-3.58,3.48,3.48,0,0,0,.79-2.32,1,1,0,0,0-1-.86,4.43,4.43,0,0,0-2.54,1.2c-.76,1.1.84,2-2.1,3-2.4.78-.1-3-1.38-3.12a2.93,2.93,0,0,0-2.63,1.82A3.16,3.16,0,0,0,168.11,227.36Z"/></svg>
