<svg
  data-face="james"
  xmlns="http://www.w3.org/2000/svg"
  aria-hidden="true"
  focusable="false"
  viewBox="0 0 500 500"
  width="500px"
  height="500px"
>
<path d="M308.86 325.11c-11.1 3.66-2.37-.83-9.57-10.08-1.62-2.09-.58 6.99-2 10.63-2.67 6.87 6.2 1.92 3.85 4.86-4.05 5.06 2.73 5.27 1.62 9.52-5.72 21.85 1.44 21.37-12.06 57.8-4.13 11.16-11.4 18.94-18.92 28.04-1.81 2.44-8.2 13.18-4.41 11.95 3.65-1.18 6.73-6.06 9.27-9.73 8.85-11.77 20.37-27.39 23.08-42.11 4.72-16.35 1.92-28.62 7.09-46.48 1.35-3.91-5.21-6.92.59-11.26 1.16-.87 2.72-3.56 1.46-3.15ZM83.22 354.69c-.07-5.64-10.34-6.72-14.09-3.34-.78.7-4.3 2.63-9.08 2.87-4.27.21-10.43 1.97-12.66 4.3-6.05 6.34-14.41 7.09-22.25 9.76-1.93.66-3.69 2.54.61 1.8 11.16-1.94 20.99-1.7 29.8-8.83 2.96-2.39 9.74 1.26 16.89-5.21 2.96-2.67 10.8.55 10.78-1.33Zm300.34 69.06c-17.81-6.67-45.33-20.59-37.58-12.83 7.37 7.38 23.53 12.54 43.4 22.54 7.41 3.73 4.8-5.74-5.82-9.72Z" class="d"/>
<path d="M420.71 409.67c-6.91-3.55-16.1-9.35-23.24-12.64-15.62-7.19-31.78-12.2-46.11-21.01-15.7-9.66-15.73-8.98-17.2-14.32-1.62-5.89-7.89-11.85-10.57-18.07-2.19-5.1-4.12-11.6-5.36-15.14-3.85-11.06-7.08-19.36-22.88-23.08-1.38-.33-.49-5.88-.29-7.2.46-2.99.81-8.05 1.78-8.56 5.25-2.75 8.78-.84 11.55-7.2.94-2.16 1.51-3.43 2.75-3.69 2.88-.59 10.7-15.72 8.67-21.77-.19-.58-1.05-2.63.09-3.04 2-.7 5.53-2.71 8.61-5.44 4.27-3.79 6.91-14.39 8.7-19.85 3.32-9 12.63-17.64 11.31-28.01-1.09-8.62-1.93-14.07-1.74-22.92.07-3.24-2.8-16.67-5.32-16.25-2.07.35-1.88-1.09-1.18-3.53 1.85-6.39-2.79-11.81-.5-12.77 12.27-5.19-6.37-9.9 7.32-33.26.93-1.59-2.12-2.04-3.57-2.39-6.16-1.47 1.76-8.77-.23-13.55-1.98-4.76-4.87-4.71-3.84-9.66.9-4.33-4.22-7.84-2.2-12.51 1.55-3.74-1.32-7.4-2.17-8.01-2.8-2.04 3.36-2.53 3.66-4.55.37-2.46-6.38-3.59-1.81-4.82 3.94-1.06 9.49-12.67.23-8.83-20.12 8.33-6.71-6.05-13.95-7.72-6.18-1.42-2.62-1.41-4.75-6.23-1.11-2.52-7.44 1.49-7.48-.45-.13-5.88 2.11-15.03-2.21-11.63-2.06 1.62-2.18 8.06-5.6 3.9-2.64-3.21-6.8-4.61-9.39-7.05-9.17-8.66-17.33-4.29-21.11-10.55-4.15-6.88-11.9 4.02-17-2.2-9.42-11.48-29.53-2.5-42.58 1.02-11.36 3.06-24.64-5.4-36.1 1.18-16.59 9.52-34.79 20.35-45.47 36.43-3.85 5.8-10.23 11.07-14.15 16.22-7.64 10.06-11.8 19.43-16.68 31.03-4.11 9.77-5.02 18.19-9.17 27.73-2.46 7.47 1.66 6.16 3.41 8.37 1.9 2.42-6.69 7.96.85 9.85 3.21.8-3.13 6.82.78 8.97 5.11 2.82-1.94 10.92 4.16 12.48 5.2 1.62-.09 5.58.02 8.4.07 1.67 5.55 1.77 5.07 2.94-.41.99-1.54.71-2.31 1.24-7.19 4.94-7.8 30.9-2.65 41.1 8.43 16.69 6.56 21.8 8.36 29.45.77 3.27 1.64-.31 1.63-1.15-.04-5.75-.04-9.81-1.15-15.08-1.79-8.49-6.77-15.43-8.02-23.4-1.35-8.63.45-29.44 5.28-27.79.87.3 5.44-.58 7.09 3.38 1.74 4.18-1.69 8.4-.31 12.64.72 2.24 1.03 5.58.31 7.82-1.2 3.77-1.23 7.37.73 11.55 1.43 3.06-.82 7.1-2.31 11.02-.99 2.61-.86 5.53.36 8.04 1.33 2.73 1.78 5.54 1.45 7.78-.61 4.26-2.17 9.18-3.22 13.52-2.57 10.61 2.9 19.09 2.73 25.23-.07 2.46-1.41 8.75 2.75 11.6 2.75 1.88-.33 9.87 2.89 11.92 2.78 1.77 2.15 5.43 3.12 6.17 1.65 1.26 4.82 2.13 4.15 2.54-7.22 4.4-15.57 11.54-21.57 18.86-2.59 3.17-2.18 5.35-4.51 6.26-13.71 5.37-31.41 7.66-45.53 9.41-13.37 1.65-30.52 4.56-45.9 11.3-20.08 8.8-1.74 5.42 1.98 3.69 14.01-6.51 30.16-5.9 45.22-8.76 11.51-2.19 22.19.02 34.43-3.91 1.48-.48 4.19 1.07 2.09 6.26-6.53 16.11-10.05 20.74-22.3 32.43-2.51 2.39-13.47 14.97-11.99 18.48 1.56 3.69 11.69 5.34 15.24 5.99 5.02.92 7.85-3.26 10.49-6.74 2.4-3.16 4.06-6.06 8.02-6.24 2.77-.13 9.85 1.31 10.88 4.54.82 2.54-1.51 7.77-1.41 10.7.28 8 7.71 14.19 13.77 18.56 6.44 4.64 24.42 16.08 30.11 20.02 23.75 16.45 11.17 18.73 15.56 18.76 3.38.02 3.43-3.53 2.78-5.7-1.41-4.68-14.09-17.51-21.51-22.42-13.68-9.06-35.93-17.16-34.22-30.97 1.14-9.21-.4-18.2 4.5-26.23 2.95-4.84 7.98-7.03 10.74-11.99 1.08-1.94 2.87-21.18-2.27-5.52-.53 1.62-.96 1.59-4.07 6.82-3.66 6.16-11.61 10.05-13.14 16.68-.88 3.8-2.83 3.82-6.49 1.5-7.83-4.96-15.27 4.72-20.25 11.25-1.57 2.06-12.58 2.36-10.22-2.46 5.35-10.93 14.68-18.46 21.86-29.09 17.18-25.43 8.56-29.74 29.09-49.88 2.03-1.99 9.67-7.48 11.86-8.33 2.2-.85 6.66 2.87 5.69 4.28-1.35 1.96-1.98 3.57-2.56 6.55-2.28 11.74-2.88 23.77.71 44.7 1.85 10.78.44 31.48 5.28 41.23 6.99 14.06 22.78 27.24 26.23 42.71.7 3.15 2.89 6.61 5.76 9.76 3.73 4.1.94-2.65-.11-5.32-.75-1.92-1.42-7.29-2-8.85-.53-1.41-1.79-3.19 1.5-1.5 4.43 2.27 22.93-2.18 10.83-2.33-14.21-.18-15.52-5.32-18.23-10.24-3.81-6.92-8.71-10.72-10.74-17.73-1.52-5.23 2.5.1 6.74 4.5 8.86 9.18 23.09 18.14 46.46 15.74 14.1-1.45 43.94-16.27 41.21-12.49-5.15 7.12-14.18 9.94-21.98 13.99-12.67 6.57-23.3 5.51-24.6 6.42-3.78.38-7.22 3.93-7.18 10.13.4 6.14-1.22 10.16-6.3 11.64-9.14 2.66-17.72 2.21-25.86 6.33-6.36 3.22-10.27 7.61-13.24 12.57s3.76 1.34 5.44-.49c5.04-5.49 11.68-9.58 20.87-11.24 8.23-1.49 25.91-2.86 25.29-13.97-.36-19.46 17.56 5.78 45.97-8.55 6.72-3.83 10.34 4.63 14.12 10.05 3.37 4.84 12.37 3.42 17.31 6.33 9.97 5.58 17.67 12.21 29.18 14.4 32.05 9.21 12.08-4.63 16-24.96 5.02-26.05 24.38-53.52 18.85-72.86-.36-1.24 0-4.02 3.85-.85 14.23 11.73 39.25 15.31 54.25 22.18 10.2 4.68 26.65 8.85 21.99 6.45Zm-80.59-242.35c3.23 6.2 1.11 14.28 2.47 20.29 2.61 11.54 2.84 20.1-4.55 34.42-3.62 7.02-6.13 17.84-12.24 22.92-2.7 2.25-7.13 7.7-7.04 4.59.08-2.82 4.04-6.78 1.84-14.59-.87-3.09-3.25-3.32-1.46-5.49 4.54-5.49-.27-13.2 1.79-17.46 3.29-6.81-.66-9.66 1.51-10.63 1.41-.63-1.83-10.49 1.68-8.8 5.49 2.63-.87-6.72.77-9.33 1.19-1.89.5-3.91-.8-5.8-2.98-4.33 6.14-5.43 7.24-7.28 1.46-2.23.61-2.85 3.42-4.57 1.66-1.01 1.29 3.35 3.44 1.24l.07-.07c.51-.27 1.31-.53 1.87.55ZM135.65 306.49c-5.97-.96-3.24-4.43-8.8-5.28-1.74-.27-.73-4.74-3.84-5.32-2.7-.51-1.18-12.75-4.61-14.34-.96-.44-.31-2.95.02-4.66 1.15-6.02-4.11-8.35-4.01-15.44.09-6.2 3.14-1.46 3.04-.08-.69 9.03 8.19 8.17 18.06 17.74 1.22 1.18 2.93 4.01 4.56 5 6.04 4.82 2.22-14.36-.09-23.86-.26-1.06-1.12-4.36 2.18-4.31 4.85.06 2.69-6.71 6.93-6.72 5.92-.02 5.77-5.36 9.72-4.89s5.33-4.34 9.59-3.35c5.18 1.2 5.24-5.42 9.82-2.74 4.32 2.53 5.6-1.38 9.8-.88 5.48.65-1.66-3.6-3.07-3.6-2.09 0-4.24 1.37-6.32.51-4.75-1.96-4.67 1.53-8.86 2-1.37.15-4.96-1.66-7.65 1.55-.78.93-2.24 2.54-6.51 2.33-1.95-.09-3.54 6.22-6.93 4.8-3.93-1.65-4.38 5.58-7.43 6.03-5.59.82-6.29 8.64-5.41 12.11.64 2.52 4.69 14.67 1.63 11.21-6.68-7.57-18.29-8.52-17.93-20.37-.31-4.19-.86-11.78-.81-15.48.04-3.12-.92-7.4-2.85-11-2.82-5.25 5.43-12.89 2.65-18.74-3.69-7.76-2.63-7.63.61-8.96 2.4-.98-.07-13.35 1.22-17.67 1.11-3.73 2.73-6.39 4.41-9.76 1.6-5.07.9-12.45.81-17.77-.2-11.75.05-23.64-2.26-35.16-.88-4.39 1.43.7 5.17-.41 1.57-.47 3.39 5.14 4.84 3.85 2.8-2.48 5.24-10.28 9.19-5.22 2.42 3.1 4.29 9.51 5.55 6.7 8.03-17.8 4.33-9.13 11.37 2 1.85 2.93 3.58-3.82 4.59-6.74 3.9-11.17 9.8-16.1 24.35-6.77 4.57 2.93 15.47-14.25 15.07-9.13-.46 5.87-1.11 8.14-.24 9.23 2.49 3.12 5.16-3.43 10.84-8.94 7.51-7.26 5.5.94 7.63 4.6 2.43 4.18 13.1-5.33 17.16-9.21C252.55 88.36 271.8 68.02 282.98 71c2.39.64 3.72-6.78-8.22-4.37-9.53 1.92-21.88 8.61-32.76 18.34-12.46 11.15-14.64 16.63-15.42 8.7-.82-8.42-12.29 2.29-14.41 4.47-3.75 3.87-1.97.51-8.18-1.09-4.75-.57-11.87 9.5-16.18 7.25-16.66-8.68-24.74-.87-27.04 9.4-.6 2.68-3.06-1.98-4.6-4.05-2.66-3.59-4.48-1.29-7.51 2.45-2.84 3.51-6.21-4.48-8.73-3.73-2.12.63-7.02 8.15-7.98 4.98-1.63-5.43-3.91 4.85-8.23-3.03-1.56-2.84-6.13 7.88-5.6 11.08 1.87 11.33 1.69 22.84 1.46 34.32-.21 10.55.74 11.6-1.34 19.44-.59 2.22-2.07 2.15-1.76.25.33-2.03.62-3.61-1.93-3.75-3.17-.18.3-7.57-6.4-6.34-3.5.65 3.17-7.53-2.47-9.86-5.11-2.11 3.13-8.98-3.87-11.27-3.14-1.03 3.66-8.82-1.76-9.86-3.18-.61 3.84-9.98 0-11.1-4.23-1.23-2.11-3.58-1.76-5.11 3.43-15.09 7.48-28.3 16-41.99 9.68-15.57 15.94-19.66 22.8-29.18 12.54-17.39 25.65-20.72 43.99-31.17 11.42-6.51 20.44.77 31.82-2.37C225.55 9.92 243.66.45 253 11.3c4.35 5.05 15.4.08 17.85 5.25 1.33 2.8 3.94 3.68 7.64 3.74 7.45.12 16.57 2.39 19.96 8.55 3.97 7.22 7.58 1.44 8.66 3.61 1.24 2.48 2 7.49 5.74 6.2 2.54-.84 2.94 5.57 7.44 6.08 2.79.32-.08 7.1 1.62 8.84 6.03 6.19 10.17-3.59 8.48 3.33-.9 3.71 2.45 2.1 2.57 4.17.12 2.07-7.54 3.81-3.48 6.4 6.31 4.02 1.04 9.31 4.15 13.9 2.94 4.33-1.5 8.25 1.62 12.09 5.58 6.86-4.2 15.97 2.17 20.03 7.67 4.89-6.15 5.79-1.26 22.02 1.62 9.11-4.38 4.63-5.59 10.47-.44 2.11 3.97 3.73 3.25 10.11-.34 2.96-5.32.92-5.96 4.87-.52 3.26.25 3.81-3.97 5.59-5.73 2.42-10.38 9.37-4.87 15.16 2.49 2.61 1.12 4.42-.54 10.65-1.44 5.41-.13 12.71-1.44 15.16-3.54 6.6-.67 10.32-1.08 16.24-.3 4.28-4.51 8.71-1.08 13.72 3.78 5.51-4.42 13.29-1.26 18.23 4.64 7.26-.95 17.69-3.97 16.78-3.62-1.09-4.98 6.57-7.4 9.2-2.52 2.75-7.49 1.51-9.47 5.49-3.92 7.88-4.48 9.58-10.4 10.91-3.6.81-1.63 9.6-5.38 10.17-5.77.87-5.94 9.96-9 10.68-4 .95-5.05 9.57-8.13 11.13-5.65 2.86-4.48 5.32-7.44 5.99-2.78.62-6.01 1.74-8.31 5.85-2.76 4.92-3.1 6.03-7.4 6.48-3.84.4-4.29 6.88-7.76 6.49-8.02-.91-7.05 5.22-14.61 4.38-5.47-.61-2.3 5.76-15.05 1.62-3.31-1.07-2.96-4.05-9.95-3.77-3.49.14-4.93-9.5-10.71-8.44-10.04 1.83-9.78-11.79-14.16-12.87-2.48-.62-1.37-4.84-5.65-4.47-1.83.16-.06-7.15-6.18-6.48-3.32.36-1.13-7.4-7.54-9.65-3.12-1.1-1.54-7.39-9.44-8.65Zm79.09 120.29c-11.51 2.21-28.3 2.19-36.87-1.4-7.13-2.98-13.07-8.53-18.54-13.84-6.06-5.87-15.56-12.78-18.32-21.09-1.9-5.71-.79-14.82-1.41-20.81-.7-6.77-3.24-8.95-3.77-15.74-.88-11.13.67-22.02 3.72-32.92.44-1.58 5.3-.12 5.87 4.67.4 3.33 1.4 5.57 6.4 5.66 2.52.05 1.79 6.52 6.88 7.06 3.74.39 6.23 16.34 19.29 17.05 3.38.19 4.57 6.56 8.03 7.32 7.2 1.57 6.67-.37 11.51 3.74 1.97 1.67 9.31 3.3 13.04.65 5.28-3.74 9.41-.09 14.55-4.92 1.38-1.3 6.5-1.41 8.1-2.67 2.04-1.6 2.01-6.21 6.38-6.29 6.24-.11 6.98-8.88 10.64-10.21 3.62-1.32 7.51-1.75 8.75-4.98 1.04-2.73 4.66-4.78 6.32-6.48 1.78-1.83 2.52-6.94 6.2-8.45 2.29-.94 3.42-7.07 5.58-7.39 7.75-1.15 4.63-11.41 8.37-12.27 3.21-.74 5.58-3.9 5.49-2.27-.24 4.53.52 7.81-.5 16.41-.43 3.66-1.17 16.43-.14 25.77 1.15 10.37-11.59 25.1-3.93 19.04 5.36-4.24 5.39-11.47 6.75-8.27 1.74 4.11.93 8.69-2.89 13.25-5.33 6.36-8.2 15.31-11.53 24.38-3.07 8.38-8.66 12.41-16 17.23-2.1 1.18-4.65 2.64-5.05 2.78-7.55 2.76-19.13 10.35-42.93 14.93Zm100.29 24.6c-3.81 21.47 5.07 27.03-11.4 20.69-11.52-2.25-13.66-7.96-23.65-13.51-4.88-2.89-15.14-1.19-18.26-6-5.52-8.51-8.32-16.25-18.48-10.47-11.86 6.74-18.18 6.87-24.91 4.65-6.78-2.24 8.48-1.93 13.09-4.65 23.93-14.06 27.39-26.53 38.6-32.82 12.93-7.26 10.67-19.29 19.7-31.63 5-6.84 11.15-22.54 5.44-31.21-3.62-5.5-.89-9.92-1.67-14.03-.37-1.97.27-8.88.67-10.73.56-2.61.23-11.03 3.19-9.89 10.98 4.21 15.29 12.03 19.07 22.51 2.98 8.26 6.01 18.67 11.3 26.3 17.87 30.39-6.99 58.78-12.67 90.79Z" class="d"/>
<path d="M214.09 390.24c-3.85 3.77-10.14 9.65-15.38 10.92-7.73 1.87-18.58-8.8-18.67-4.95-.18 8.16 17.09 11.39 24.76 8 7.67-3.39 15.81-6.29 16-21.14.04-2.88-4.66 5.17-6.72 7.18ZM289.27 75.3c-2.68.66 3.56 12.71 5.47 15.08.02.02.03.04.05.07 8.4 13.87 12.16 28.07 13.37 43.89.59 7.71-5.46 19.88-5.15 25.59.5 9.51 8.39 25.49 6.94 34.73-2.65 16.95-1.41 28.97-6.34 40.97-.8 2.05-.32 6.85.29 8.55 2.3 4.31-2.47 5.54-3.54 9.58-2.01 5.91-.61 13.84-7.96 12.09-2.32-.55-6.31 2.41-8.11 1.92-4.26-1.17-8.11 7.22-7.81-2.51.4-13.27-3.93-8.04-4.31-14.45-.3-4.99-5.65-2.41-6.47-6.47-.36-1.8-4.19-3.89-6.47-4.43-3.36-.8-6.31.59-7.52-1.77-1.28-2.51-7.53.07-10.25-.89-1.01-.36-2.22-2.86-3.57-3.53-2.15-1.06-5.4 1.92-7.7-1.04-.92-1.18-5.67.15-7.96 1.92-1.02.78-3.34 0-3.52.89-.08.37 2.6 2.99 3.72 2.29 2.13-1.33 5.68-.55 7.02.36 2.99 2.02 3.09.8 5.64.8 1.29 0 1.89.53 2.17 2.15.5 2.89 10.43-.97 11.05 1.81.35 1.58 4.25 2.13 8.7 2.04 4.53-.1 3.09 2.06 4.71 3.67 1.18 1.17 3.72.89 4.72 3.68 2.04 5.75 6.2 4.94 5.1 11.77-.99 6.14 1.6 9.61 2.32 15.34.46 3.71 9.74-5.63 12.62-5.79 4.21-.23 4.18-4.04 8.74-2.56 3.74 1.21 8.99-10.99 10.68-16.15 1.23-4.09 5.46-5.95 2.65-12.76-2.54-6.17 3.34-9.62 2.98-27.35-.19-9.58 4.25-18.73 3.83-25.4-.75-11.72-6.01-23.92-4.79-35.96.9-8.86 3.81-26.06 2.17-37.61-1.77-15.94-14.78-23.01-17.96-37.83-.46-2.12-5.15-2.75-5.53-2.66Zm47.81 101.51c-1.68-3.58-10.34 0-8.3 4 1.03 2.02 2.14.11 4.69-.19 5.85-.67-2.69 6.79 2.03 12.47 4.31 5.19-2.35 6.83-2.9 13.05-.5 4.94-1.7 11.23-4.59 15.55-.56.84 0 4.09 3.08-1.51 2.14-3.89 5.03-8.37 5.2-11.49.2-4.34 6.28-10.08 4.41-14.15-6.84-14.92.18-9.61-3.63-17.73Zm-227.99 5.75c-2.44-.85-2.91-6.19-3.22 6.59-.21 8.52.34 22.73 3.96 28.51.96 1.54 1.61-2.36 1.03-3.42-3.52-6.46.76-7.1-1.27-20.03-.94-5.98 1.77-10.87-.51-11.66ZM194.71 164c3.69-3.65 3.22-16.03-2.35-9.63-.76.88-1.25-1.01-2.92-1.95-1.5-.84-2.58 2.24-5.24.73-4.93-2.8-6.71-1.39-8.47-.33-1.83 1.1-5.93-3.29-10.7-.42-2.79 1.68-6.86-3.69-13.13 1.43-1.42 1.16-10.28-2.62-12.63 1.17-2.77 4.46-4.54.9-7.79 4.74-1.7 2 5.88 3.53 8.72 0 2.98-3.7 5.39-1.35 11.08 0 4.72 1.12 4.27-4.68 10.75-.84 5.77 3.42 6.6-1.21 9-.74 2.73.53 1.25 1.37 5.38 2.61 5.36 1.61 4.07-2.28 9.23 2.22 1.56 1.37 1.83-2.83 4.03-1.96 1.09.43 2.71 5.27 5.04 2.97Zm92.03-113.21c-.06 2.74 4.48 1.9 3.79-.52-.63-2.21 1.44-3.05 2.18-2.11 3.33 4.23 9.62 4.17 7.4 1.46-.93-1.13-8.04-6.47-3.46-6.72 4.53-.24 2.46 4.5 4.61 2.94 5.39-3.93-3.96-6.57-6.38-6.4-3.45.25-1.71 4.9-3.2 4.65-1.97-.33-2.04 2.04-3.49-1.31-5.35-12.31-18.32-11.05-10.03-12.94 3.99-.91-7.71-3.38-11.74-4.44-9.56-2.52 8.24 9.07 10 10.55 3.05 2.58 9.63 6.49 6.83 6.4-4.52-.15-6.93 2.73-1.02 4.36 2.72.75 4.53 2.95 4.51 4.07Z" class="d"/>
<path d="M149.01 276.94c.63 4.15-1.12 11.22-.94 12.63.44 3.56 5.81 9.98 7.35 12.73 5.24 9.33 2.26 2.93 4.86 9.68 3.18 8.26 10.1 4.91 11.99 2.18 9-12.98 1.91-12.97 10.66-10.05 3.97 1.32 3.38-6.44 10.33-2.21 8.81 5.36 7.81-10.02 13.34-1.54 1.08 1.65 9.27-3.96 11.56-.84 2.31 3.15 7.56-2.31 7.98 4.2.42 6.59 8.6 4.2 10.92 10.29 2.71 7.08 8.56 3.46 10.68-1.65 5.69-13.76 18.26-25.82 17.9-41.51-.1-4.54-3.38-7.1-3.97-10.36-.29-1.6-2.58-7.03-4.02-6.8-13.25 2.1-9.68-2.75-17.24.81-3.86 1.82-8.01-2.83-11.85 1.25-2.23 2.37-11.46-2.79-14.5 1.12-1.95 2.51-8.94-2.97-14.22-.14-3.66 1.96-10.22-1.55-13.8.84-3.31 2.2-11.87-2.33-14.64 0-2.62 2.2-9.85-2.46-13.52-.14-2.62 1.65-5.69-2.22-9.15 2.07-1 1.24-4.76 3.02-3.9 4.35 2.27 3.51 3.67 9.73 4.18 13.09Zm25.11-14.38c6.23-1.82 11.68 1.54 16.93.37 3.35-.74 7.75.76 11.69.52 2.67-.16 9.74-1.19 11.19-1.08 5.02.37 11.98-2.17 16-2.05 7.75.23 12.56-1.73 20.27-2.05 5.97-.24 3.37.75 1.29 1.99-7.22 4.31-15.3 11.23-22.91 13.73-6.17 2.03-19.32 2.33-27.26 1.5-8.51-.9-20.68 3.34-33-5.23-5.86-4.08-8.12-5.64-9.32-8.22-.59-1.27 13.36 1.01 15.12.5Zm-23.69 2.03c.84-1.51.97-3.58 1.98-3.3.09.02 6.73 5.62 7.91 6.78 8.06 7.95 13.84 13.25 28.92 13.1 9.26-.75 21.63-.05 31.64-.74 2.86-.2 12.58-4.98 10.66-1.63-1.56 2.73-10.06 7.84-16.73 6.77-21.56-3.45-21.11 2.71-30.24-.32-3.78-1.25-9.41-2.92-19.22-8.39-.71-.13-4.85 1.06-.95 2.62 11.42 4.57 16.56 12.22 26.17 10.77 8.08-1.22 16.38-.39 25.79.27 8.35.59 20.49-12.92 26.76-17.26.71-.49 11.19-9.98 14.25-10.26 1.92-.17 1.76 5.27 2.49 8.11 2.61 10.06-2.39 17.03-9.66 27.34-2.57 3.64-7.75 18.9-10.2 11.35-2.52-7.77-9.66-2.52-10.6-12.61-.49-5.3-8.44 1.14-8.72-2.52-.42-5.51-11.68 3.63-12.32-1.06-.71-5.24-12.17 4.21-15.84 1.69-7.35-5.04-8.44 3.23-11.53 2.01-7.98-3.15-6.14 5.36-10.66 11.27s-7.02-3.33-9.09-6.06c-5.21-6.89-7.68-9.22-8.88-15.25-.32-1.62.45-10.31.42-11.01-.19-3.9-4.19-8.39-2.36-11.69Zm75.93-103.29c2.32-2.54 4.55-2.08 7.68-.98 7.33 2.59 8.06-5.86 14.12-1.94 5.58 3.61 9.39-3.27 12.59-1.38 8.37 4.91 12.3-1.66 15.69.99 5.44 4.26 9.74-1.71 12.05.45 2.53 2.36 5.44 3.26 4.36.88-3.97-8.81-8.91-4.98-11.7-5.08-2.11-.07-5.1-6.15-12.75-1.24-3.47 2.23-7.03-5.02-16.95-.98-4.18 1.7-6.58-4.71-13.43.54-2.22 1.7-4.8-4.48-10.49-.23-1.87 1.4-3.78 2.6-4.96.89-8.24-11.93-5.73 18.5 3.79 8.08Zm11.34 53.18c-6.36-4.47-8.85-17.12-11-9.05-.57 2.15 2.26 6.05 3.61 8.04 1.72 2.53 1.81 4.89.31 8.66-1.24 3.09-10.82 3.09-16.69 1.85-3.23-.68-8.31 8.37-11.44 8.35-5.47-.04-6.31-2.46-8.98-5.8-3.31-4.13-10.67.56-14.51-1.62-3.24-1.84-1.49-5.02-.96-8.22.43-2.62.84-9.85-1.04-8.27-2.8 2.34-2.34 7.69-5.5 8.78-4.81 1.66-7.27 10.04-10.75 13.72-.58.61 3.74.93 5.75-2.14 5.62-8.55 5.89-6.14 5.83-5.02-.14 2.8.83 5.38 2.9 5.84 3.91.87 8.24 1.88 11.48.74 6.33-2.23 6.57 8.23 17.32 7.56 3.11-.16 6.61-4.99 9.02-6.3 7.42-4.01 5.51.42 14.33-2.06 2.69-.75 7.85-2.55 8.16-4.95.71-5.37.43-8.75 6.9-1.43 1.93 2.18 3.78 3.02 6.72 4.41 7.2 3.4-5.12-8.62-11.47-13.08Z" class="d"/>
<path d="M212.04 204.93c-.44.17-3.21-2.47-3.46-5.22-.37-4.09 2.63-17.13 3.29-13.41.43 2.44-.15 10.25.18 12.31.41 2.53 1.93 5.57-.01 6.33Zm-36.42-38.98c-13.21-.69-17.95.26-28.57 3.63-4.25 1.35-7.95 4.65-9.47 7.04-1.85 2.9-7.9 3.99-1.14 3.84 2.85-.06 3.84-2.81 8.06-5.94 3.21-2.39 7.8-2.94 6.7-2.2-5.47 3.65-8.75 5.73-4.59 5.69 9.84-.09 8.71 3.15 18.08 2.2 8.55-.86 18.19.38 19.98-.02 2.9-.65-4.02-8.2-7.13-9.43-3.28-1.29.36-2.14 2.84-1.17 8.63 3.37 8.03 13.64 9.32 8.46 1.93-7.7-9.26-11.83-14.07-12.08Zm-22.23 8.73c1.72-.63 3.06-1.39 4.34-2.23.55-.37-.2.6-.07 1.88s1.19 1.82.64 1.84c-4.4.22-9.33.12-4.91-1.49Zm24.3.59c1.11 1.28 1.35 2.17-1.55 1.81-.99-.12-1.93-.31-2.87-.4-.53-.05.74-.45.74-1.97s-.6-2.43-.18-2.33c1.46.35 3 1.89 3.86 2.89Zm105.91 2.63c-8.2-1.36-11.5-10.7-19.64-11.2-9.34-.57-27.92-5.57-34.32 2.48-4.28 5.38-6.68 5.59-6.63 9.86.05 3.79 4.74-4.53 10.61-7.56 2.77-1.43 5.83-2.19 9.22-2.52-3.22 1.34-9.26 4.96-12.41 8.15-2.57 2.61-3.31 4.69 1.14 4.37 13.2-.93 18.41-3.08 27.8-1.47 2.64.45 17.19-.18 11.76-3.08-1.86-.99-2.37-2.44-4.34-3.23-3.11-1.24-5.28-2.93-8.06-4.31 1.38.12 2.8.26 4.27.39 7.31.68 9.48 7.45 14.73 9.86 1.69.77 2.06 1.17 6.33.45 4.49-.76 5.11-1.26-.46-2.19Zm-49.55-.46c3.16-1.72 4.8-4.22 8.94-5.62 1.45-.49.08.79.2 2.03.14 1.42 1.41 2.46.54 2.5-2.9.14-4.72.89-7.35 1.79-3.26 1.12-3.51-.06-2.33-.7Zm29.01-.92c-1.7-.23-3.08.27-4.51-.16-.86-.26.44-1.04.49-1.99.07-1.63-.7-2.43.05-2.23 1.01.26 2.27 1.45 3.69 2.18 1.88.97 1.96 2.43.29 2.2Z" class="d"/>
<path class="eyes" d="M247.57 176.46c.46.4 1.96.57 3.4.52 2.1-.07 4.09-.74 5.32-2.32.62-.8.78-1.43.69-2.3-.06-.58-.53-1.31-1.12-1.55s-1.89.03-2.31.56c-.87 1.11.76 2.74-2.4 2.99-2.57.21-.29-2.78-1.62-3.31-1.22-.48-3.05-.63-3.47.33-.91 2.09-.32 3.48 1.52 5.07Zm-84.11 1.37c.65.12 2.4.04 3.87-.19 1.88-.3 2.59-.99 3.72-2.75.57-.89.95-1.88.78-2.75-.11-.58-.5-1.09-1.14-1.25s-2.41.48-2.79 1.07c-.8 1.23 1.04 2.64-2.21 3.32-2.65.56-.25-3.77-1.68-4.12-1.31-.32-2.52.79-2.87 1.82-.75 2.22.81 4.57 2.32 4.85Z"/>
</svg>
