<svg
  data-face="jonny"
  xmlns="http://www.w3.org/2000/svg"
  aria-hidden="true"
  focusable="false"
  viewBox="0 0 500 500"
  width="500px"
  height="500px"
><path d="M254.72,146.72c2-4.23-5.9-12-10.39-10.31-1.32.49.57,2.88-.56,3.68-3.71,2.65-8.49-9.11-11.56-4.81-.58.82-.44,1.76-1.3,2.27-2.39,1.4-9.51-7.27-12.63-3-.88,1.21.25,2.43-.6,3.64-3.36,4.78-20.13-9.66-20.83-1.85-.11,1.16,0,1.1-.09,2.26-.59,5.65-19.81,1.07-17.06,8.81,1.42,4,6.59-2.8,11-4.1,4.19-1.22,8.76.75,10.42-2,.68-1.12-1.37-2.66-.91-3.89,1.74-4.62,16.81,10.36,21.26,3.64,1-1.59-1.42-1.89-.5-3.55,2.75-5,12.25,10.13,15,4.79.78-1.49-.41-1.9.75-2.15,2.29-.49,5.88,8.91,10.43,5.45,1.79-1.36-.17-5.82,1-3.88C249.52,144,253.7,148.84,254.72,146.72Z"/><path d="M296.34,149.79c-1.39-1.17,1.15-4.44-.57-4-3.56.83-4.82,7-2.72,9.94,1.32,1.88,6.63-5.29,6.38-3.28-.28,2.25-1.66,3.4.85,4.88,2.06,1.22,7.13-.64,11.07-.94,8.73-.66,16.52,10,15.53,6.08-.47-1.88-6-12.75-14.79-8.25-2.14,1.1-3.33-2.52-5.88-3.45-.53-.2-2.92,2.69-3.59,1.68-1.57-2.41,2.14-3.59,1.44-6.38C303.2,142.62,298,151.18,296.34,149.79Z"/><path d="M235.42,163.17c-2.94-1.19-7.61-1.15-5.57-2.32,1.33-.76,2.67-5,1.9-8.06C236.53,155.48,234.75,161.18,235.42,163.17Zm-17.54-13.53c-1.9,1.76-2.32,10,.4,11.37-6.28.86-11.43-1.65-17.26-3.36C206,154.33,213.13,150,217.88,149.64Zm29.69,15.66c-8.8-8.29-13.7-18.19-27.12-18.6-2.33-.07-31.8,8.78-29.47,13.65-1-2.11,20.15,5,21.84,5.1,4.79.39,12.21-1.37,18.32,0,4,.9,5.5,3.17,10.36,2.33-.5-3.58-4.53-7.21-5.43-11.56,2.19,1.9,9.7,12.34,13.29,11.57a2.32,2.32,0,0,0-1.79-2.5C240.9,159,248.08,165.76,247.57,165.3Z"/><path d="M277.73,157.52c6.43,10.27,5.54,26.9,8.25,39.12,3.59,16.22,17.14,23.5,7.12,38.47-9.09,13.57-21.66,13.93-35,2.36-3.63-3.13-1.25-3.64-4.95-5.89-2.94-1.79-8.69.45-12.13-1.21-2.59-1.25-5.65-6.8-10.67-11.89-1.64-1.66-1.86-4.46,1-5.22,2.19,2,3,4.93,4.94,7.23,2.59,3.13,4.69,3.9,8.88,5.75,7.89,3.51,31.29,0,25.47,11.67-1.35,2.7-6-2.44-9.7-3.42,0,3.64,14.51,9.91,20.13,8,6.27-2.13,13-13.62,12.61-18.44-.74-8.9-9.51-16.27-11.4-26-2.18-11.2-4.49-29.23-4.49-40.58"/><path d="M255.34,210.74c-2.76-1.21-5.51-5-8.12-5.79,5.22-1.39,14.68,1.49,11.37,6C258.11,211.63,256.26,211.14,255.34,210.74Z"/><path d="M293.54,274.49c-1.2-2.14-3.84-6.78-4.6-7.32-3.52-2.5-17.84-2.07-20.18-3.24-2.77-1.39-19.43-7.12-27.19-8.05-1.23-.14-15.29.72-14,1.41.63.32,15.87.24,16.89.68,6.25,2.75,18.67,7.3,22.68,8.21,5,1.15,12.69.31,17.79,1.64,3.52.92,6.5,5.8,4.26,5s-7.91-3.71-11.86-3.22c-12.4,1.55-19.05-3.42-30.88-7.33-4.34-1.44-49.08-8.27-47.35,2.77,15,12.5,36.93,35.39,57.1,35.05,10-.18,17.52-.6,24.24-8.14,4-4.44,10.41-14.8,13.09-14.57C297.18,277.73,296.33,276.25,293.54,274.49ZM269,293.55c-19.3,3.81-47.15-8.76-64.28-28.47-2.91-3.35,34.29-3.69,37.6-2.6,6.76,2.25,12.34,7.7,19.19,9.61,9.79,2.72,19.24-3.3,28,3.62C284.07,281.81,277.81,291.8,269,293.55Z"/><path d="M284.67,293.37c.67-5.52-6.88,13.76-11.1,16.32-5.29,3.21-9.05-2.38-14.28-3-4.84-.62-12.56,2.12-16.45.62-6.34-2.43-11.18-9.25-17.05-13-5.7-4.59-7.61-3.64-.72,1.42,5.11,3.47,9.23,12.8,14.48,15.49,5.08,2.61,9.34-.68,15.16.05,4.78.6,13.78,5.73,18.59,4.11C277.29,314,284,298.57,284.67,293.37Z"/><path d="M286,366.59c0,17.81-15.13,28.87-22.67,43.93-7.67,15.32-8,23.67-23.36,31.29-12.93,6.41-37.29,18.83-52,16.6-11.07-1.68-22.88-17.72-30.37-25a159.88,159.88,0,0,1-27-34.41c-8.07-14.3-4.38-29.41-5.77-45.39-2-22.81-10-62.46-14.74-84.79-3.08-14.38-4-20.9,1.86-13.25,3.94,5.16-1.07,61.87,36.31,70.15-6.54-9.59-15.9-13.5-21.16-24.55a139.34,139.34,0,0,1-9.74-29.78c-1.92-8.67,1.82-36-4-40.37-2.67,5.7-.11,13.77-.42,19.68-7-7.58-4.21-12.23-15.33-14.36-6-1.15-8.27.22-13.24-4.13-8-7-9.84-23.94-10.11-33.45-.22-7.88.18-29.63,10.39-32.6,9.69-2.82,10.44,12.1,19.66,7.65-.07,4.41-.41,12.39,1.72,16.39.72,1.33.05,4,1,5.26.74,1,5.26-.07,5.06-.35,1.82,2.59,3.61,18.71,8,20.24,6.73,2.34,11-60.92,12.88-69.41,3.95-17.62,9.36-11.34,22.56-18.92,9-5.21,20.83-20.32,21.44-29.65.45-6.94-8.06-2.81-2.77-11.1,2.18-3.41,9.43-2.51,11.71-6s-.48-8.55,1.69-12.36c3-5.17,8.73-6.64,14.18-7.67,11.08-2.1,22.61,1,33.69,1.65,13.94.8,26.27-3.36,39.41,2.54,10.46,4.69,26.35,12.06,34,20.74,7.92,9,11.32,26.21,13.73,37.82,1.54,7.42-.46,15.39,1.32,22.66,1.51,6.13,5.64,9.9,6.35,16.33,1.84,16.68-8.55,32.38-6,50,5,34.24,2.86,56.81-14.62,87.56-7.77,13.67-24.28,27.83-30.88,42.06-6.25,13.44-3.1,27.87-19.41,33.9-13.13,4.86-19.43-3.42-35-5.59-8.71-1.21-20.94-4.48-25.87-11.89-2.47-3.71-10.84-25.27-10.24-20.82,1.51,11.35,6.07,22.95,14.59,30.16,7.89,6.69,21,8.28,30.83,11-2.66,16.3-20.18,10.05-32.21,30.31-1.09,1.83,9.18-6.71,15.64-10.75,3.39-2.11,9.77-5.91,13.13-7.8,4.8-2.68,7.23-9.51,10.65-9.87,9.17-1,16.3,1.83,25-4C274.08,370.61,278.29,360,281,351c3.72,2.53,5,11.66,5,15.63Zm-205.71-223c.92-4.82.68-12.4.55-17.8-.26-10.85-4.9-17.4,2.94-24,1.69-1.44,10.35-2.49,10.83-6.06C95.52,89,102.94,75,105.94,71.93c3.94-4.08,2.48-8.7,4.29-13.84,7.53-21.4,38.42-17.42,57.67-23.41,8.57-2.66,9.65-13.6,17.59-16.61,7.66-2.9,17.42-.35,25.83-3.33,13-4.61,17.52-2.63,31-.1,5,.95,8.57-.1,12.32,3.38,5.14,4.78,1.06,8,8.64,10.74,4,1.47,10-3.71,14.65-2.43s7.6,7,10.72,10c7,6.87,11.92,13,17.86,20.33s13.72,11,18,19.58c3.75,7.47,9,20.35,9.7,28.49,1,11.23-5.3,21.84-1.28,33,1.77,4.9,3.8,5.84,3.56,11.55-.21,4.84-3.32,11.25-4.18,6.54-1-5.62-3.13-5.45-4.91-11.81-1.84-6.58-.09-17.85-1.09-24.53C324.77,109.05,319,96.74,315,86.7,308.34,70.18,275.2,56,258.27,55.64c-13.86-.32-26.94,1.38-40.95.68-9.21-.46-28.65-3.2-35.6,4.76-4.11,4.72,4,11.66,1.2,16.69-2.08,3.76-11.1,3.26-13.37,6.37-6.83,9.38,4,10.47-.64,20.82-9.24,20.43-34.67,17.46-40.35,37.47-3.68,13-2,28.34-2.87,41.74-.22,3.54-.92,12.33-3.86,15.27-2.24,2.24-3.55-4.8-5.12-7.37-3.91-6.4-6.21,2.22-9-8-.37-1.36.67-14.15,0-15.05-2.49-3.37-6.08,3.2-10.25-1.92-5.74-7.07-7.68-11.85-15.69-5.44-3.12,2.49-7.43-2.13-5.77-6.09C77,153.17,79.43,148.15,80.29,143.58Zm252.14,230c-13.38-7.34-31.63-14.19-43.91-23.23-7.24-5.32-6.83,1-5.22-8.9.48-2.93,5.83-8.8,7.19-10.6,6.47-8.57,13.72-16.25,19.22-25.58,9.71-16.52,17.21-35.8,19.36-54.89,2.84-25.1-4.34-46.7,1.93-71.82,2.23-8.93,6.23-16.78,8.33-25.07,2.17-8.63-.24-9.33-3-16.66-3.48-9.22,2.71-21.13,3.27-30.34.64-10.29-5.33-15.17-8.72-24.16-3.81-10.16-5-10.41-13-18.39-4.31-4.29-6.74-9.52-10.08-14.14-5.55-7.66-11-16.92-19.26-23.07-9.67-7.18-12.75-.86-22.17-4-6.66-2.22-7.34-9.51-12.9-13.44-4.77-3.39-15.72,1.16-21.41.38-10.43-1.44-12.6-3.7-22.19-.56-8.15,2.66-18.74,1-26.53,3.45-8.57,2.67-8.83,10.84-16.35,14.53-5.61,2.76-18.55-.5-25.44,1.46-8.46,2.4-14,10.08-22.15,13.6-9.76,4.22-9.38,6.26-12.51,14.64-3.56,9.55-3.92,9.21-12,17.1-5.22,5.14-4.51,7.79-6.82,13-1.25,2.78,0,4-2,7.13-1.62,2.55-6.41,2.5-8.24,5-4.29,6-1.78,16.4-2.34,23.86s1.09,15.73-.08,22.52c-1.24,7.19-5.88,6.14-4,14.94.59,2.86,2.91,5.68,3.23,8.41.57,4.84-2.54,9.47-3.48,14.8a73.5,73.5,0,0,0-.58,17c.53,7.75,1.76,16.27,4.53,23.57,5.12,13.48,13.94,10.94,22.24,19.79C108,255.14,108,285.14,111,299.54c4.84,23.95,11.56,52.69,8.21,77-1.11,8-5,16.46-9.81,23-6.31,8.5-28,19.34-19.56,16.27,8.13-3,11-5.69,14.21-8.18,5.12-4,17-11.66,19.21-7.68,4.32,7.83,28.61,35.79,30.05,37.24,11.42,11.63,25.85,30,43.27,25.89,15.9-3.76,43.8-12,55.91-22.14,11.18-9.36,15.38-28.67,24.39-41.24,5.61-7.84,12.22-15.28,14-25.24,1.53-8.5,1-7.16.56-15.14,20.49,11.6,33.86,14.44,51.59,30.28,18.79,16.79,43.42,31.54,75.34,30.42,18.7-.66-37.17-7.72-52.74-18.64C353.92,393.16,340.72,378.09,332.43,373.54Z"/><path d="M314.63,180.07c-.58-.24-2.72-.87-2-1.32,2.06-1.33.2-4.53,1.91-2C315.6,178.33,316.4,180.83,314.63,180.07ZM290,173.86c.87-3.62,10.54-2,12.4-1.91-.45,2.26-.34,3.23.88,5.13C298.24,177,294,174.47,290,173.86Zm34.14,2.47c-.46-4.47-13.56-8.88-17.22-10.12-8-2.7-20.35-5.52-21.83,2.95-.43,2.49,2.5-7,18-.22,2.72,1.2-17.43-1.4-16.61,5.64.52-.39,9.89,5.06,18.56,7.36,6.63,1.75,12.95,1.35,13.95,1.87.49-4.51-6.68-12.72-2.95-11,2.86,1.31,6.58,1.13,5.81,11.42a9,9,0,0,0,2.28-7.9C323.61,170.94,324.38,178.55,324.16,176.33Z"/><path d="M85.88,218.32c-.42-5.19,3.92-6.26,6.33-9.94.85-1.3,5.23-8.49,6-9,2.67.7,1,17.79,0,18.86-2.16-.23-1.6-6.34-1.74-7.46-5.38,2-11.62,6.13-5,12,2,1.76,7.72,2,9.58.87,3.48-2.17,1.5-8.69,1-13.59-.9-8.43-.85-18.22-7.38-24.42-4.9-4.65-11.21-3-11.52-9.47,21.58,6.75,25.42,28.95,21.47,47.73C103.31,229.93,86.61,227.29,85.88,218.32Z"/><path d="M198.12,494.34c-8.74,0-64.27-41.33-63.4-42.55,4.7-6.62,42.36,27.16,51.09,28.51,10.89,1.69,28,.44,36.83-5.35,3.42-2.22,34.36-24.85,36.24-22C264,460.75,206,494.34,198.12,494.34Z"/><path class="eyes" d="M306,178.07a2.88,2.88,0,0,0,2.29.83c1.23-.34,1.59-1,2.38-1.91a2.69,2.69,0,0,0,.69-1.69,1.31,1.31,0,0,0-.54-1.05,1.8,1.8,0,0,0-1.67.19c-.57.67.35,2-1.55,1.81-1.55-.13.19-2.57-.59-3.07a1.26,1.26,0,0,0-1.78.67A4,4,0,0,0,306,178.07Z"/><path class="eyes" d="M221.77,159.21a4.37,4.37,0,0,0,3.52.36c1.73-.85,2.15-1.78,3.12-3.31a3.55,3.55,0,0,0,.67-2.45,1.54,1.54,0,0,0-1-1.22,3.08,3.08,0,0,0-2.42.8c-.7,1.07.9,2.48-1.92,2.89-2.29.33-.22-3.46-1.46-3.87a2.08,2.08,0,0,0-2.48,1.47A4.76,4.76,0,0,0,221.77,159.21Z"/></svg>
