<svg
  data-face="jonny"
  xmlns="http://www.w3.org/2000/svg"
  aria-hidden="true"
  focusable="false"
  viewBox="0 0 500 500"
  width="500px"
  height="500px"
>
  <path d="M366.65 200.85c-3.48-3.37-3.23-5.67-4.77-8.67-.52-1.01 3.45-.33 2.72-1.46-2.76-4.27-10.43-5.92-15.99-7.25-4.21-.97-8.31.95-11.77 4.11-2.88 2.63-9.24 3.89-10.06 6.94-.51 1.92 2.94.62 4.27 1.13 8 1.79 9.04 8.14 19.67 6.01 4.18-.47 10.02-1.97 13.13.9 2.46 2.27 5.95 1.39 2.79-1.71Zm-31.13-8.47c1.07-1.05 5.22-4.46 4.79-3.51-.55 1.22-1.3 2.62-1.21 3.97.16 2.44 2.3 3.99-.36 2.67-.89-.44-5.49-.9-3.22-3.13Zm17.61 5.35c-1.2.3.53-.69 1.03-3.97.4-2.56-1.4-5.19-.37-4.61 3.46 1.95 5.36 4.22 7.8 8.44.97 1.68-4.9-.74-8.47.14Zm-78.97-15.29c-1.21-2.04-2.31-3.78-3.44-5.23-.79-1.02 6.61 2.09 4.21-.31-2.98-2.99-14.11-6.14-21.86-6.04-9.69.13-12.41 3.37-17.27 8.29-2.24 1.9-2.62 3.35-4.93 3.76-8.91 1.57-2.66 4.81 1.44 2.95 4.82-2.19 13.02 3.08 19.09 3.75 9.67 1.08 17.35-2.42 26.44-.72 4.79.89-2.89-4.84-3.69-6.44Zm-29.44-6.06c.96-.33-.64 1.58-.69 3.54-.05 1.98 1.43 4.01.73 3.71-2.9-1.25-5.45-1.44-7.28-1.19-2.84.39 6.05-5.65 7.23-6.06Zm16.59 8.87c-1.78.29 1.56-1.19 2.03-3.71.85-4.59-2-6.45-.47-6 3.54 1.02 5.25 5.39 8.71 8.65 3.4 3.2-4.85.19-10.26 1.07Zm44.01 159.77c-2.21.06-1.11-1.73-2.14-2.49-2.77-2.03-6.48-2.17-9.61-3.62-1.4-.65-2.95-2.78-4.47-2.74-2.78.07-4.06 4.93-6.58 4.96-3.64.04-1.03-5.89-1.03-8.42 0 .95-.8-8.28 2.59-5.18 1.79 1.64.78 6.04.67 8.07 4.32-3.57 15.08 1.73 19.39 4.21.73-4.14 4.45-4.04 8.08-2.36.11-1.52 2.08-9.66 6.59-7.5.96.46-2.67 6.84-3.34 8.03-3.49 6.15-1.39-.75-7.16.72-2.64.67.78 6.2-2.99 6.3Zm42.9-54.84c-4.15 3.23-10.64-7.52-14.41-5.2-4.21 2.59-12.74-3.94-17.41.52-3.57 3.41-2.84-8.71-11.1-1.15-4.39 4.02-3.11-6.57-7.64-2.57-5.76 5.09-10.63-5.97-17.88-4.21-2.62.64-4.19-2.13-7.04-1.19-4.71 1.56-7.94-2.35-12.87 1.05-1.19.82-3.66-4.13-4.27-1.56-.14.58-9.88 15.68-5.52 12.41 1.48-1.11 3.58-3.37 5.8-4.92 3.4-.51 11.71-1.81 24.5 1.4 8.08 2.03 16.65 5.32 22.06 6.27 3.4.6 12.34-1.65 20.09-.84 13.07 1.37 22.08 6.35 19.68 7.18-18.82 6.45-29.95 9.38-49.11 4.48-13.92-3.56-25.1-8.31-31.78-11.33-2.44-1.1-13.2-7.66-1.78 1.25 4.86 3.79 12.92 7.39 18.32 9.13 11.14 3.6 16.83 10.92 35.99 6.4 17.05-4.02 14.66-1.18 8.45 2.58-14.17 8.58-35.93 3.71-41.32-1.53-1.69-1.64-6.99-5.95-10.54-7.59-2.48-1.15-4.2-.31-2.78.79 5.6 4.34 8.97 11.56 24.91 15.16 10.49 2.37 24.91.14 27.83-.72 2.42-.71 13.94-11.73 15.43-12.84 2.19-1.62 6.23-2.99 8.22-3.97 3.25-1.6 1.35-5.2 4.11-.86 1.25 1.97.17 5.44 2.8 5.95 1.84.36-.92-15.5-2.71-14.1ZM199.04 461.39c11.51-3.94 10.35-18.77 12.48-25.87 6.97-23.22-5.32-33.03-17.05-52.87-3.93-6.63 1.51-25.78-7.97-17.15-4.36 4-3.17 4.18-1.16 9.38 8.09 21.11 35.28 38.55 19.2 66.97-2.58 4.5-11.86 21.75-5.49 19.54Zm-39.86-261.61c2.6 4.42-2.97 12.49 3.46 17.65 3.54 2.86-2.38-19.95-.92-21.18 1.95-1.6 2.75 3.1 4.59 2.11.63-.33.82-1.21.42-1.83-5.79-8.33-14.41-8.38-7.55 3.24Z"/>
  <path d="M410.1 118.2c4.53-30.05-16.02-34.03-16.7-39.33-1.16-8.86-6.62-24.52-13.52-31.51-17.66-17.67-45.13-18.99-46.39-24.62-4.39-19.5-49.41-20.02-58.21-14.63-4.52 2.75-20.97-2.98-25.4-1.28-4.72 1.84-11.04 9.42-11.94 9.43-7.6.17-16.47 10.13-19.9 9.75-41.5-5.17-50.92 43.39-55.32 44.38-9.41 2.12-13.71 10.41-13.5 15.05.37 7.62-11.76 9.65-9.49 15.75 1.89 4.97 6.4 30.09-.38 36.5-4.4 4.14 7.08 15.17 3.51 20.15-4.05 5.67.45 16.53 5.19 21.63 1.44 1.54 1.95 3.8 1.11 5.79-5.56 13.52 6.74 30.21 6.81 43.62v.06c.74 7.22 2.11 15.58 5.7 22.1.2.34.25.84.08 1.2-1.51 2.97-.92 11.32-3.51 13.51-5.96 5.2-2.16 10.64 1.85 9.35 1.73-.58 3.41-.83 4.9-.78 1.23.04 1.34 3.1 2.38 3.7.96.55 2.95-.02 4.59 1.28-7.07-.01-12.88 4.96-15.45 12.09-2.39 6.51-1.42 15.67-2.92 15.56-13.14-1.02-28.39 10.83-37.96 22.81-.64.85-5.77 1.49-7.93 1.27-15.3-1.5-38.11 5.89-50.4 11.48-7.15 3.34-18.25.26-26.1 1.32-1.37.18-1.45 2.12-.09 2.46 24.4 5.68 49.8-13.02 75.69-12.11 1.75.06 3.52 2.8 2.81 3.93-8.84 6.68-47.53 13.41-44.1 20.34 18.03-4.64 32-9.2 39.77-13.78 4.08-2.4 12-6.81 12.11-4.33 2.58 52.79 40.09 117.04 86.08 140.72 14.41 7.42 35.45 18.99 23.29 7.11-1.46-1.43-11.1-4.76-20.92-10.54-50.81-29.98-82.54-88.18-83.64-142.08-.22-8.94 9.4-19.24 26.02-24.14 1.62-.49 5.26 1.13 5.42 2.38.4 5.18 2.25 9.69 3.83 12.99 5.82 13.27 3.67 28.87.75 42.69-2.22 10.39-5.33 18.8-1.56 25.01 6.76 11.19 1.4-12.25 3.93-18.41 13.93-34.19-10.47-69.28 2.13-84.61 2.34-2.84 8.84-.89 10.03 2.59 17.72 51.78 85.05 118.13 87.38 133.92 3.07 20.45-.28 25.3-.86 48.48-.24 9.7-5.21 25.18 5.61 12.8 1.76-2.01-.68-5.52 2.59-5.75 3.41-.23 15.62 11.19 20.16 9.39 17.32-2.36 14.45-35.95 17.38-24.92 1.31 4.97 4.67 10.64 4.34 26.96-.04 1.83 4.09 1.59 4.14-6.09.08-10.76-.71-17.76-4.9-24.8-2.72-4.65-1.24-11.62-1.69-14.22-1.65-9.58-4.05-16.82-4.73-20.71 2.09-4.13 3.95-7.83 4.64-9.33 1.78-4.06 7.65-17.65 13.19-19.29 1.44-.45 9.86-1 10.86-5.66 1.84-8.96 3.01-6.01 9.04-10.9 12.5 19.86 40.4 61.72 34.45 76.35-1.42 3.98 9.35 7.62 7.79 11.25-2.25 5.13-12.71 12.27-17.3 10.67-5.16-2.95-12.12 4.42-2.53 5.34 11.03 1.05 17.08-10.2 22.5-9.23 4.01.7 6.73-5.08 4-7.07-4.53-3.28-6.16-9.4-11.9-27.44-3.79-11.99-23.82-49.87-34.67-62.07 2.61-3.8 3.57-8.96 8.32-11.25 8.24-3.91 4.7-13.65 16.84-24.16 6.28-5.46 11.3-12.57 14.49-18.94 3.09-6.22 5.73-16.77 5.35-21.57-.51-5.99 2.01-8.48 3.63-14.11 5.36-18.68 1.74-24.23 4.38-25.92 3.69-2.44-.11-16.72 5.26-25.64 3.18-5.28-2.96-15.13 2.07-17.87 3.14-1.74 8.37-4.2 5.05-10.39-.57-1.09-.18-2.53.88-3.22 15.04-9.36 3.96-23.18 8.97-48.84 6.66-35.73-8.54-33.91-7.4-41.69ZM177.14 288.73c-.33-.8-.66-1.57-1-2.34-.18-.41-.19-.87-.06-1.3.98-3.32.99-7.81-1.13-10.28-1.3-1.5-4.13.64-4.82-.17-.8-.98-.33-5.06-1.16-5.32-3.14-1.09-7.49 2.78-9.98 1.42-1.17-.64 4.83-2.24 4.68-6.9-.14-5.17 2.88-5.47 4.52-5.32 3.35.34 6.57.06 7.78 3.19 2.22 5.46 5.44 13.88 3.98 22.58-.13.76-2.5 5.16-2.79 4.45Zm127.78 127.48c-2.23 6.35-9.4 19.84-12.81 24.98-3.17 4.76-2.11 9.47 5.32 8.5 2.44-.29-1.71-7 .21-11.03.53-1.08 1.1-2.24 1.66-3.46.11 1.64.4 3.51.91 5.45 3.06 11.58-3.52 25.21-6.77 41.87-1.94 10.2-19.84-.76-27.52-7.77.99-12.43 1.58-28.47 1.72-40.96.18-14.88-19.76-32.41-56.41-82.48-19.91-27.21-26.76-43.61-31.22-55.09-.21-.54-.22-1.13-.04-1.68.92-2.83 1.62-7.22 2.45-6.41 1.07 1.04.16 6.97 2.94 10.19 9.83 11.72 12.47 27.7 24.86 36.79 6.47 4.77 2.93 11.03 10.73 13.13 16.13 4.33 15.35 19.09 27.04 28.53 8.25 6.68 8.54 1.42 11.8 8.2 2.61 5.32 9.95 10.8 14.36 8.13 5.88-3.57 12.77 7.08 23.78 5.5 10.2-1.46 8.73.28 10.68 2.93 2.82 3.67-2.43 10.89-3.69 14.7ZM410.5 188.37c.37 2.5-5.57-.96-12.49-2.83-6.48-1.75-8-5.18-10.28-6.7-3.86-2.6-5.23-16.92-4.37-24.24 1.95-17.59-13.04-49.68-13.07-49.8-5.34-12.03-19.42-10.05-24.16-21.7-1.02-2.53-3.8-3.81-5.18-3.94-3.81-.36-7.12.52-13.56-.99-32.62-7.36-67.86-7.11-82.6-4.68-3.16.52-16.42 4.81-20.96 4.93-8.64.15-9.69 8.98-10.85 15.53-.43 2.67-2.23 6.04-4.19 7.89-6.31 5.92-9.63 19.84-11.59 21.7-7.56 7.23.57 12.24-3.7 17.51-2.82 2.31-1.41 7.17-.49 10.11.45 1.44-1.73 5.42-2.22 7.4-.47 1.87-.27 7.07-1.43 7.59-8.44 3.89-19.62 10.97-17.82 14.68.83 1.68 7.17-1.23 14.43-4.09.83-.32 1.74.31 1.75 1.21-.03 5.85 1.51 13.3.47 15.27-3.78 7.15-11.23 9.59-1.9 26.18 6.83 12.08 1.88 37.35 5 49.75 2.6 5.26 12.02-7.4 14.28-4.76 3.53 3.96 10.88-6.49 10 .71-.45 5.11 1.01 8.41 3.33 9.04 8.7 1.57 2.41 23.87 10.95 22.14 2.78-.76 5.35-15.73 10.71-22.14 8.58-10.09 15.01-13.97 27.85-15.71 5.6-.81 12.96 3.65 20.95 2.62 6.75-.81 11.92 16.99 30.47 5.24 7.44-5.47 19.81.6 21.18 3.57 2.91 6.35 8.82 9.52 12.38 9.04 9.86-1.26 9.53 20.13 15 19.28 4.52-1.02 4.62-20.2 9.76-19.04 3.5 1.01 7.81-3.48 8.79-5.43.6-1.63 1.95-8.38 2.21-13.19.22-4.04-1.44-7.94-1.29-12.26.22-6.15-.72-16.48 1.12-21.71.94-2.65 8.06-14.45 8.47-22.64.22-4.42 8.41-7.42 8.02-2.32-.16 2.41-6.91 2.39-3.21 8.56 3.63 6.12-2.76 6.27-2.44 10.25.18 2.21-2.5 3.45-1.59 10.63.84 6.3-3.01 16.29-3.93 19.06-.83 2.64-.61 9.86-2.35 13.62-.78 1.68-1.58 4.96-1.72 6.81-.42 5.42-1 11.11-1.84 15.04-1.25 5.87-5.03 12.68-5.47 17.85-.53 6.48-.38 24.8-17.14 37.37-6.92 5.22-7.99 8.33-12.14 19.28-2.59 6.75-5.51 5.46-10.47 10.24-3.64 3.52-5.22 11.79-10.71 13.09-6.45 1.58-3.84 12.03-11.43 11.43-4.64-.37-6.72 2.79-9.76.71-6.46-4.45-7.86-.14-16.66-2.14-10.78-2.52-10.06-7.77-20.23-6.19-15.56 2.48-9.33-12.64-19.76-13.57-11.68-1.09-15.13-19.74-22.37-25.94-3.25-2.74-7.51-2.48-12.14-6.19-3.22-2.61-1.71-10.37-8.57-12.62-14.56-4.75-7.91-19.3-19.76-29.99-5.66-5.15-2.69-18.22-7.14-24.28-2.35-2.75-2.82-6.16-2.86-8.33-.07-4.29 1.01-6.6-1.19-8.09-14.03-9.24 8.96-12.91-.71-20.23-5.65-4.25 2.47-10.59-.48-15.71-3.46-5.96-1.33-6.23-.67-9.01.56-2.37-5.63-2.2-6.05-1.21-1.13 2.69 2.76 11.13 2.76 11.13.26.58-4.73.68-6.74 2.87-1.19 1.29-1.7 5.01-1.47 7.14.44 4.52 3.94-1.91 4.27-.13.67 3.83-2.31 1.42 3.93 6.89 3.6 3.17-5.37 7.82-4.16 13.46.23 1.04-.88 1.8-1.81 1.37-2.39-1.2-3.48-5.63-4.4-7.15-6.86-11.36-3.62-23.68-8.81-35.87-3.98-9.38-10.1-39.3 9.65-22.62 3.34 2.84 7.02 3.78 6.25.03-1.57-7.55-9.63-10.23-15.96-9.25-1.8.28-3.1-1.81-3.32-3.62-.15-1.83-.58-3.72-1.16-4.88-.89-1.66-11.33-2.97-5.72-11.69 4.95-7.67-5.88-13.26-2.26-20.56 4.16-6.33 1.3-32.15 2.38-37.6 1.1-5.64 11.47-8.11 7.85-17.05-2.59-6.35 13.43-5.98 17.88-18.42 12.4-34.46 29.26-34.6 47.01-35.38 8.52-.38 9.71-10.79 17.93-10.21 3.58.22 13.63-11.61 21.34-10.46 8.71 1.31 16.06 4.28 21.42.44 4.33-3.03 47.41.04 48.04 12.81.4 8.32 27.09 10.79 45.21 25.33 10.19 8.17 15.48 20.53 16.93 31.25.58 4.3-.61 6.69 3.71 5.91 1.05-.17 18.87 13.35 13.07 28.65-4.73 12.37 6.12 14.36 6.63 19.19 3.85 18.79-5.06 37.43-2.63 54.74Zm-124.23 33.58c-14.39 11.98-17.07 22.28-7.24 28.03 1.92 1.11 5.12-3.21 10.34 1.72 2.29 2.18 1.23 3.45-.62 3.8-8.63 1.62-19.23-6.39-32.69 1.14-12.34 2.52-23.25 14.81-26.71 27.98-.23.95-1.6.87-1.76-.12-.62-5.9-1.44-12.65-6.38-14.62-3.91-1.37-1-10.44-3.28-12.3-4.62-3.39-8.05 6.18-11.01 1a.983.983 0 0 0-.64-.56c-2.89-1.15-6.91 2.39-8.19 3.84-.77.88-2.26.51-2.51-.59-3.25-14.43 1.96-28.64-5.21-43.91-4.32-9.18-2.44-15.7-.14-18.27 4.67-5.23-.71-13.39 1.18-22.42.09-.47.19-.88.23-1.27.09-.47.38-.86.86-1.03 4.9-1.62 8.23-4.81 11.24-3.69 7.31 2.79 12.52 23.06 17.81 35.17 11.94 25.63 57.9 22.09 70.09 4.63 8.97-10.95 4.49-22.85 9.96-25.62 2.48-1.26 9.91-2.75 13.72 2.75 1.35 2.01 2.25 8.29 3.97 17.6 1.71 9.31 4.39 17.51 7.48 26.06 4.63 13.15 7.64 23.07-4.87 22.55-2.46-.09-2.5 10-14.39 9.09-6.8-.52-8.42-4.01-8.91-5.32-2.51-6.88-9.4-13.23-13.53-12.17-13.41 3.47-5.44-15.02-1.21-17.33 4.19-2.23 3.28-6.84 2.41-6.13Zm-87.65-71.46c-.43-1.89-1.35-5.41-.31-7.06 1.59-2.93 2.07-5.35 1.18-8.42-.49-1.62-.25-3.41.63-4.9 5.25-9.21 7.21-20.19 15.6-27.41 4.09-3.49-1.28-15.38 9.31-18.54 32.74-9.75 72.88-6.91 106.94-.27 1.95.4 3.92.59 5.89.47 4.61-.33 5.85 6 9.64 8.3 7.01 4.59 16.48 7.85 19.65 15.93.01.06.03.12.04.18 4.6 16.43 14.16 40.61 10.69 50.58-1.3 3.63 4.22 17.29-4.16 15.19-16.28-4.1-35.73-4.35-45.66 2.58-3.38 2.37-11.36-1.1-18.97-2.4-7.09-1.23-13.87-.28-18.65-3.83-32.5-24.53-67.2-9.2-87.58-10.45-1.9-.15-5.63 1.53-7.35 2.75-1.45.97 4.24-7.12 3.11-12.71Zm180.96 36.37c.11.49 2.25 32.42 2.37 33.81.18 2.53 1.55 5.52-2.49 8.68-12.56 9.83-29.17 6.51-40.91-4.27-15.7-14.38-22.25-39.18-1.07-46.39 11.28-3.83 28.39-1.71 39.95 2.56 2.03.76 1.57 3.24 2.16 5.61Zm-90.25 6.78c-3.69 3.01 3.84 14.74-15.03 23.1-18.16 8.07-35.82 4.35-45.64-8.15-9.18-11.68-15.25-27.2-6.05-40.83 5.2-7.72 49.34-5.91 62.57 8.32 5.25 5.63 9.96 12.85 4.15 17.56Zm39.3 63.53c6.99-4.59 11.19-3.93 1.01-28.04-.94-2.17-7.11-15.87-.35-7.24 7.75 9.88 17.06 13.88 29.15 15.65 9.83 1.45 17.64.61 20.54-1.53 7.04-5.18 5.18 5.55 4.89 17.37-.13 5.68 3.62 9.09 1.32 15.13-1.12 3.01-3.29 7.07-5.54 6.23-10.42-4.07-7.11 23.98-12.94 14.64-2.2-3.49-2.03-3.01-3.75-8.08-4.66-13.85-12.04-1.27-17.64-12.72-2.25-4.57-8.53-8.48-16.05-9.1-1.31-.09-1.71-1.61-.65-2.3Zm56.94-64.02c-.54-4.95.1-11.51 4.29-1.47 3.57 8.44 4.79 15.54-1.95 26.11-1.18 1.87-1.05-11.63-1.56-15.3-1.1-8.29-.56-6.94-.78-9.34Z"/>
  <path d="M344.99 197.25c.53.28 2.61.57 3.69-.23 1.61-1.18 1.84-2.22 2.53-3.98.35-.89.51-1.87.19-2.68-.21-.54-.65-.99-1.26-1.1s-2.09.65-2.32 1.24c-.49 1.24 1.43 2.43-1.38 3.34-2.29.74-.94-3.57-2.29-3.79-1.24-.2-2.13.96-2.25 1.96-.26 2.18.98 4.11 3.09 5.23Zm-92.5-11.14c.73.29 3.45.39 4.66-.78 1.8-1.74 1.88-3.11 2.39-5.47.25-1.2.25-2.48-.32-3.48-.38-.67-1.05-1.19-1.84-1.25s-2.53 1.12-2.7 1.91c-.37 1.66 2.35 2.94-1.05 4.49-2.76 1.26-1.95-4.48-3.73-4.58-1.63-.09-2.52 1.52-2.46 2.83.13 2.84 2.12 5.16 5.06 6.33Z" class="eyes"/>
</svg>
