<svg
  data-face="kit"
  xmlns="http://www.w3.org/2000/svg"
  aria-hidden="true"
  focusable="false"
  viewBox="0 0 500 500"
  width="250px"
  height="250px"
><path d="M337.42,282.85c-10.88-7.22-4.27,7-3.76,5.26a6.35,6.35,0,0,1,1.57-3.17c2.59-2.08,8.07,7.82,6.21,14.06-.75,2.52-3.86,5.06-6,3.65-.77-.49-.25-1.66-1.29-2.22-2.13-1.12-7.24,9.16-10,10.49-5.36,2.58-8.56.95-13.54-1.28-.93-.41-22.75-12.12-20.92-2.15.32,1.71,12.14.35,14.24.88,5.79,1.46,8.16,7.23,15.13,7.19,6.79,0,13.58-10.1,15.73-10.39C348.47,303.32,346.13,288.62,337.42,282.85Z"/><path d="M323.36,259.92c-1.57,0-4.53-19-4.63-21.53-.1-2.86,5.66-25.42,10.92-20.16-.3-.3-8,16.13-7.95,19.78C321.71,240.74,327.49,259.92,323.36,259.92Z"/><path d="M323,217.88c-3.78,0-2.18-5.85-1.45-7.46,1.35-3,6.4-6.29,10.35-6.58,5.11-.38,3.79,6.36,7,3.56,2.72-2.37,1.86-8.74,10.66-3.91,6.34,3.48,5.76-4.84,14.51-5.3,2-.11,13.74,2.68,13.36,5.15-.08.5-10.5-1.7-11.65-1.44-8.77,2-10.76,9.17-19.92,5.86-2.56-.92-7.88,7.4-11.43,3.3-.71-.83-2.37,3.41-3.78,3.36-2.07-.06,1.49-4.17-2.34-4.83S326.4,217.88,323,217.88Z"/><path d="M282.6,222.9c-4,0,1.15-5.77-.33-5-13.79,6.9-7.07-7.78-15.15-1.47-4.7,3.68-4-3.08-16.77-6.17-6.57-1.6-16.29-3.54-23.08-3.82-3.68-.15-19.56,6-19,6.44-4.84-4.22,13.63-11.74,15.65-11.89,6.05-.48,16.07,4.43,22.06,4.85,11.79.83,11-1.34,18.39,4.71,3.26,2.66,4.07-8,8.85-5.07,3.23,2,1,7.63,3.95,8.45,2.13.61,15.66-14.19,10.72,2C287.54,217,284.93,222.9,282.6,222.9Z"/><path d="M409.26,192.9c3.47-8.27,4.15-19.26,3.16-28.08-2.07-18.3-11.1-33-18.16-49.79-3.16-7.51-1.93-17-7.22-23.31-3.72-4.46-14-6.29-16.32-11.57-3.94-9.1,3.48-16.4-5.47-25.29-6.16-6.11-23.32-5.88-30.57-3.44a95.76,95.76,0,0,0,.67-12.24c-.62-9.51-4.06-17.2-12-22.83A60.85,60.85,0,0,0,274.5,6.49c-39.6,9-70.5,38.37-100.68,63.44-33.38,27.73-58,55.2-66,99.11-3.26,18.05-9,27.21-13.24,44.26-2,7.82,4.51,22.68,7.37,30.19,2.42,6.37,21.74,19.92,32.19,20.2,4.42.12-6.75-10.69-7.3-11.6-3-5-5-11.47-3.77-17.34,3-14.56,8.43-15.88,20.43-20.27,7.59-2.77,16.35-3,20.52-1.45,3.37,1.3,1.53,2.34.81,9.36-6.68,8.07-24.27,12.45-20.25,17.11,6.86,7.95-4,29.76,5.77,33.31,4.16,1.51-4.44,2.83-3.45,8.2.28,1.49,4.88,5.73,5.07,6.74,0,.15.39.44-1.88,2.49-1.33,1.2-2.55-.88-3-2.2-1.66-5-3.29-7.79-3.71-9.62-1.94-8.3-2.08-17.29-3.24-25.74-.81-5.81-3.78-15.72-1.18-21.67,1.22-2.8,5.81-4.82,5.81-5.8,0-6.2-9.19-1.28-9.94.33-2.8,6.07,1,18.05,1.78,24.29s2.46,47.35,13.05,47.35a27.2,27.2,0,0,0,3.51-.57c.14,1,.26,1.79.35,2.28.77,4.47,4.54,15.49,5.63,20.21,3.64,15.84,14.34,20.09,25.87,21.35,6.91,14,16.35,25.6,29,36.34,6.52,5.55,37.28,29.48,44.59,32a50,50,0,0,0,5.31,12.8c8,14.39,22.26,27.07,39.65,27.07,32.62,0,67.3-31.18,53.75-64-.51-1.21-3-9.84-1.55-11.05,9.45-8,16.24-24.57,18.73-30.49a135.58,135.58,0,0,0,6.38-19.21c.21,0,.45,0,.71,0,11.63,0,18.8-37,18.5-43.62-.19-4.07-9.37-45.3-6.09-53.75C396.7,219.56,407.39,197.34,409.26,192.9Zm-230,140.59c-5.19-1.57-10.4-7.89-11.61-9.29-4-4.63-9.2-20.09-9.88-25.82-.54-4.52-.1-8.67-.74-12.59-.31-1.85-3.55-1.44-3.46-4.45.22-7.52,13.58-13.29-1.66-12.92.46-1.89,5.07-15.34-1.58-24.48-5.07-7,14-17,12.88-5.28-1.76,18.15-.81,22.69-.56,25,2.26,21.29,9.74,42.92,16.71,63.1C180.64,330.46,182.84,334.57,179.26,333.49Zm175.29,77.56c-8.28,18.95-22.21,29.58-44.05,32.52-19,2.57-33.79-7.9-42.75-24.12-5.83-10.56-8.24-18.74.53-28.59,6.84-7.7,12.13-13.5,19.14-23.42,2.46-3.48,12.17-2.23,17.75-1.76,4,.33,15.08,5.21,15.26-1.61,3.32,1.39,17.62,8.38,22.94.94C346.72,360.31,361.16,396,354.55,411.05ZM394.41,281c.28,8.2-3.29,22.95-6.44,30.56-.38.91-3.36,3.68-5.7,6.35,1.17-5.46,2.09-11,2.79-16.53,3.62-28.36,1.91-57.21,1.19-85.7-.78-31.15-4-61.78-16.57-90.62-4.39-10.05-7.21-23.81-14.11-32.4C353.51,90.09,329,75.15,329,83.08c0-1.76,21.54,13.73,24.1,17.27,5.78,8,8.78,19.24,12.7,28.28,12.72,29.38,15.32,58.43,16.13,90.07.73,28.22,2.79,56.75-1.14,84.81-2,14.57-4.58,29.07-10.82,42.45-2.09,4.48-8.36,21.08-14,21.44-6.46.43-8.55-7.59-13.8-8.17-6.27-.7-.9,3.77-4.27,4.2-7.89,1-12.43-3.43-18.75-5-3-.73-2.69,5.29-3.36,5.38-7.1,1-20.65-5-29.58.62-5.92,3.73-5.15,9.18-12.37,14.81C263,387.62,259.11,392,258,399.05c-.92,5.83-15.06-4.4-16.38-5.33-8.66-6.06-16.35-14.17-24.42-21-15-12.74-24.94-24.73-31.73-43.27-7.66-20.89-16.5-43.94-18.83-66.13-.61-5.74,6.06-56.12,7.49-58.68s36.1-11.86,50.73-25.45c23.35-21.7,27-55,42.5-81.43,7-11.89,16.86-21.06,31.16-22.11,4.63-.34,11.83.25,16.22,2,1.78.69,10.69,8.21,11,8.21,6.08,0-4.33-8.85-4.68-9.1-3.74-2.56-11.49-7.15-15.9-7.61-13.39-1.38-23.68,6.56-32.95,16.6-21.42,23.2-25.33,58.59-47.69,82.46-21.38,22.82-53,27.88-81.6,38.24-11,4-18.41,7.93-24.54,19-2.41,4.37-2.12,6.37-3.12,13.48-1.16,8.23-7.53-.53-8.38-2.09-4.47-8.18-8.51-14.58-5.9-23.68,4.77-16.56,9.81-25.8,13-43.63,7.27-40.39,25.76-64.55,56.7-90.28C201.87,53.28,231.05,23.08,272,13.47c14.72-3.46,30.25-2.53,43.9,5.15,8.24,4.64,12.68,8.83,14.07,18.21.42,2.83-.32,25.07,1.07,25.34s2.34-2.49,3-6.22c6.62,1.72,23.77,0,28.74,5.43,5.82,6.33.61,14.2,3.86,21.79,2.49,5.8,10.45,6.25,14.48,11,5.14,6.14,6.17,16.42,9.24,23.71,7.47,17.74,16.87,34.15,17.66,53.78.35,9,.16,18.17-4.57,25.93-1.37,2.26-14.09,22-14.05,25.31C389.55,236,394.3,277.61,394.41,281Z"/><path d="M318.59,426.53c1.22,0,9.4-23.34,8.23-27.69-5.72,6.75-9.74,13.39-12,2.57-1.36,2-13.42,20.25-16.29,16.42,2.56,3.42,7.37-34.38,3.87-31.7,5.25-4,5,19.44,4.49,21.37,5-6.44,8.86-17.51,11.39-4.05,2.26-2.18,5.54-7.88,8.23-9.21C329.88,392.56,331.14,426.53,318.59,426.53Z"/><path d="M340.19,307.15c-.22,5.33,26.41,5.45,27.8,17.91,1,9.13-4.05,1.72-8.66,5.89-7.27,6.58-12.12,5.2-15.58.35-1.8-2.52-7.19-8.74-4.34.38-1.83-.37-23.1-.54-29.89,3.08-8,1.54-19.89,4.52-20.82,4.74-14.64,3.4-20.92,3.56-26.54,13.67-.57,1-5.25-3.06-6.72-3-1.7.07-4.61,2.31-6,3.88-2.1,2.35-3.15,7.9-6.39,8.3-9.09,1.13,6.9-13.29.91-18.41-5.11-4.38-19,6.36-19.53-.56-.24-3.2,17.84-13.12,26.93-20.87.2,0,13.08-.9,16.32.54,3.4,1.5,10.2-5.74,11.42-3.18,1.93,4.05,8.33-2.86,12.25-5.86h0s0,0,.06,0c.33,0,.65,0,1,0h.07c1.16,0,13.44-.12,13.17-2.85,0-.45-18.55-.88-21.57-2.91-9.45-6.38-.29-11.83-3.18-14.71-4.57-4.56-5.3,9.27-4.75,10.84,1.42,4.12,5.93,7.16,10.47,8.64-2.11,1.95-4.63,3.89-6.88,2.25-2.88-2.11-6.43-1.54-9,.39-1.81,1.37-12.08,1.68-15.5,1.51-5.53-.29-32.49,19.95-34.3,25.56-3.79,11.77,14.78,1.44,17.92,7.69,1.59,3.18-7.21,16.58,3.64,16.58,2.31,0,8.7-9.7,11.48-10.9,3.35-1.45,3.09,4.69,7.3,3.4,2-.62,5.42-8.35,7.1-9.83,6.83-6,19.79-7.75,28.43-10,1.28-.33,14.6-.57,18.76-3.58a167.68,167.68,0,0,1,21-1.67c-5.5,2.07-14.66,6.5-16.42,6.89-4.41,1-21.73.23-21.73,2.12,0,3,18.68-.28,21.77.79,2.71.94,9.41-3.12,17.38-7.07-2.22,3.54-4.69,8.72-5.85,9.83-4.83,4.59-13.94,6.24-20.39,7.31-4.39.73-26.77-7.11-28.34-7.25-6.32-.55,20,10.54,23.66,10.54,8.1,0,17.25-.83,24-5.76,1.77-1.29,11.28-12.2,11.25-16.48l.26,0a24.83,24.83,0,0,0,4.2,2.85c2.24,1.34,1.25,2.68,4.73,2.68,3.3,0,5.82-5,8.32-5.79,4-1.29,5.44,1.12,9.69-.7-.19.09,4.41-6.61,4.28-5.53C375.06,314.78,340.43,301.28,340.19,307.15Z"/><path d="M269,237.12c.36,0,2.21-.45,2.55-.45,3.3,0-15.26-10.1-20-10.95-6.35-1.13-32.16-1.35-37.75,7.35-1.47,2.29,4.28-.7,10.61-1.53-2.85,2.84-7.68,9.71-5.28,10.76,4.38,1.92,20.33,7.77,25.19,7.77,6.37,0,26.73-1.86,26.61-10.47C270.89,239.15,270.15,238.23,269,237.12Zm-33.93-6.76c-3.87,6.93-3.52,11.43-1.13,14-4.72-1.66-8.43-.8-9.58-4.61C224,238.53,230.21,230.22,235.07,230.36Zm12.4,16.22c4.27-2,9.3-7.66,5.53-16,1.55.57,3.11,1.28,4.66,2,3.27,3.08,6.89,7,6.91,7.94C264.65,243.05,256.31,247.63,247.47,246.58Z"/><path d="M346,222.34c-4.83,1.37-11.06,3.61-14.48,7.66-.54.64-8.24,10.16-3.18,10.16.41,0,.21-2.82,3-2.33,1.62.28,1.42.79,1.75,1.21,2.17,2.77,11.78,3.37,12.86,3.37,1.39,0,20.5-2.13,23.36-9.76.84-2.24-6.17-8.28-3.1-8s7.88,4,6.84,1.07C370,217.09,348.23,221.7,346,222.34Zm-11.12,10a17.4,17.4,0,0,1,2.43-2.59c.36-.25.75-.48,1.14-.71-.25,4.24,2.58,8.42,6.3,10.29a17.2,17.2,0,0,1-7.92-1.53C334.62,236.77,334.86,234.23,334.83,232.33Zm29.14.78c-1.61,2.76-4.05,3.46-8.06,4.32,2.38-2.56,2-8.82.61-11.85C357.58,225.57,367.48,227.07,364,233.11Z"/><path d="M175,390.59c-4.17,0,4.55-17.82,4.9-20.21.52-3.55-4.68-26.3-1.38-26.3C184.41,344.08,184.11,390.59,175,390.59Z"/><path d="M313.56,449.44c1.52,3-34.49,6.69-38.88,5.79-15-3.09-30.53-8.67-44.48-14.84-17.36-7.68-31.49-20.5-46.32-32.2-4.65-3.67-12.37-6.79-14.16-12.88-.7-2.41,1.58-11.2,1.86-14.52,3-2.66,4.77-4.76,3.66-5.5-2.61-1.75-31.62,22.93-35.21,26.36-9.44,9-22.14,13.42-34.08,18.74a247.43,247.43,0,0,0-41.52,23.85c-7.61,5.29-12.37,12-20.15,17-.31.2-17.38,10.33-11.53,10.33,10.66,0,30.29-19.72,39-25.75a252.23,252.23,0,0,1,41.78-23.21c13.66-6.07,21.3-8.94,32.29-18.67a90.53,90.53,0,0,1,13.3-8.46c4.74-2.46,5.32,1.49,5.66,2.65,1.42,4.93,8,6.64,11.6,9.87,10.12,9,22.33,19.73,33.73,27C230,447.64,261.5,463.73,286,463.73,289.11,463.73,315.94,454.22,313.56,449.44Z"/><path d="M294.62,491c-28,0-59-16.18-82-30.85-5.12-3.27-60.17-47.52-53-52.34-.61.41,36.44,35,40.86,38.35a225.73,225.73,0,0,0,57,30.95c15.36,5.75,33.63,10.95,49.8,4.37,7.08-2.89,13.06-5.91,18.07-11.6,1.95-2.21,11.18-16.4,11.84-16.4,6.84,0-10.41,22.18-11.14,22.9C317.28,484.91,307.3,491,294.62,491Z"/><path d="M439.48,444.35c-7.94,0-4.11-28.56-17.81-36.52-7.51-4.36-60.58-27.33-60.58-24,0-4.35,32.88,2.09,35.83,2.87,12.22,3.27,24.51,8.24,32.4,18.55,7.37,9.64,5.69,23.17,9.95,34.34C440,441.4,441.88,444.35,439.48,444.35Z"/><path class="eyes" d="M347.24,236.05a6.26,6.26,0,0,0,4-1.14c1.1-1.21,1-2.18,1.13-3.84a3.8,3.8,0,0,0-.59-2.46,2.07,2.07,0,0,0-1.44-.89,2.14,2.14,0,0,0-1.73,1.32c-.08,1.17,2,2.1-.27,3.17-1.84.87-1.86-3.18-3.13-3.26s-1.63,1.05-1.45,2C344.11,232.93,345,235.21,347.24,236.05Z"/><path class="eyes" d="M240.88,242c.62.42,3.14,1.07,4.54.24,2.08-1.24,2.47-2.49,3.48-4.59a4.71,4.71,0,0,0,.49-3.29,2.17,2.17,0,0,0-1.43-1.54,3.62,3.62,0,0,0-3,1.21c-.72,1.47,1.52,3.22-2,4-2.87.59-.8-4.57-2.44-5a2.5,2.5,0,0,0-2.94,2.12C237.08,237.75,238.41,240.32,240.88,242Z"/></svg>
