<svg
  data-face="oddbird"
  xmlns="http://www.w3.org/2000/svg"
  aria-hidden="true"
  focusable="false"
  width="431px"
  height="102px"
  viewBox="0 0 431 102"
>
<path d="M227.8,75c-0.4,0.5,2.8-0.6,3.1-0.7c0.5-0.2,4.1-1.5,4.1-2.2c0-0.3-4.8,1.8-5.2,1.8c0,0,1.1-1.4,1.2-1.5c1-1.1,2-2.1,3-3.2
	c2-2.2,3.6-4.8,4.6-7.6c2.2-6.2,2.5-13.1,3.9-19.5c1.1-4.9,2.5-10.3,4.7-14.8c1.5-3.1,2.9-6.9,4.9-9.6c2-2.8,5.3-4.3,8.5-5.4
	c3.8-1.3,7.7-1.8,11.3,0.2c0.5,0.3,6,3.7,5.9,4.1c0.3-1-3.9-3.8-4.5-4.3c-2.9-1.9-5.7-2.5-9.1-2c-3.5,0.5-7.6,1.7-10.4,4.1
	c-3,2.6-5,6.3-6.6,9.8c-5.1,11.1-5.7,23.4-9,34.9C236.5,65.6,231.6,69.9,227.8,75C226.9,76.3,228.4,74.2,227.8,75z"/>
<path d="M254.6,83.8c4.5,5,13.1,9.7,20,7.7c3-0.9,5.2-3,6.6-5.8c1-2,1.8-4.1,2.1-6.4c0.1-0.6,0.7-4.1-0.2-4.5
	c0.5,0.2-0.2,4.6-0.3,5.1c-0.4,1.9-1.3,3.7-2.1,5.4c-1.5,2.9-3.8,4.8-7,5.4c-3.6,0.6-7.5-0.4-10.8-1.9c-1.8-0.8-3.5-1.9-5.1-3.1
	c-0.3-0.2-3.4-3-3.4-2.9C254.2,83.1,254.4,83.6,254.6,83.8z"/>
<path d="M277.6,56.4c0-0.2-0.2-0.9-0.5-0.6c-0.1,0.2-0.1,0.3-0.1,0.5c-1.1-0.1-2.3-0.7-3.4-0.7c-0.5,0-0.9,0.3-1.4,0.3
	c-0.5,0-1-0.4-1.5-0.4c-1.1,0-2.3,0.6-3.3,0.8c-0.6,0.1-3.6,0.3-3.5,1.1c-0.1-0.5,2,0.3,2.3,0.5c0.6,0.4,1.1,0.9,1.7,1.2
	c1.6,1,2.4,1.2,4.3,1c0.5-0.1,1.4,0.1,1.9-0.1c0.9-0.3,1.1-1.1,1.6-1.9C275.8,57.8,277.6,56,277.6,56.4L277.6,56.4z M268.3,56.4
	c0.6-0.2,1.4-0.4,2-0.4c0.8,0,1.5,0.4,2.3,0.4c1.1-0.1,2.7-0.6,3.8,0c-1.4,0.3-2.7,1-4.2,1c-1.9,0-4.1-0.3-6-0.5
	C266.8,57,267.8,56.6,268.3,56.4L268.3,56.4z M272.6,57.9c-0.1,0.2-0.2,0.3-0.3,0.2C272.1,58,272.6,57.9,272.6,57.9
	C272.6,57.9,272.6,57.9,272.6,57.9L272.6,57.9z M275,58.2c-0.5,1-0.7,0.9-1.7,0.9c-0.8,0.1-2,0.4-2.8,0.4c-1.4-0.1-3.1-1.3-4.1-2.1
	c0.2,0.2,2.4,0,3,0.1c0.9,0.1,2.2,0.6,2.7,0.7c0.1,0,0.2,0.4,0.5,0.4c0.4,0,0.1-0.6,0.3-0.7c0.2-0.1,2.9-0.6,2.9-0.7
	C275.6,57.5,275.2,57.8,275,58.2C274.6,58.9,275.1,58.1,275,58.2L275,58.2z"/>
<path d="M272.3,60.4c0.4,0.1,0.4,0.2,0.2,0.4C272.2,60.9,272.4,60.5,272.3,60.4z M272.3,60.2c-0.5,0.1-0.2,1.3,0.5,1
	C273.4,60.8,272.7,60.2,272.3,60.2z"/>
<path d="M271.8,62.3c0.1,0,1.8,0,1.7-0.4c-0.2-0.6-3.3,0.5-3.6,0.5C270.5,62.4,271.2,62.2,271.8,62.3
	C272.4,62.4,271.4,62.2,271.8,62.3z"/>
<path d="M270.2,50.4c-1.1,0.4-2.2,0.6-2.5-0.8c-0.1-0.5,0.1-1.4,0.7-1.7c0.3-0.1,1.1,0.2,1.2,0c0.2-0.4-0.9-0.6-1-0.5
	c-0.9,0.1-1.3,1.3-1.3,2.1c0.1,0.8,0.4,1.5,1.3,1.6c0.4,0.1,2.2-0.2,2.2-0.7C270.7,50.3,270.4,50.3,270.2,50.4z"/>
<path d="M276.7,48.2c-0.3-1.4-1.3-0.2-1.5-0.3c0.5,0.2,0.6-0.3,1,0.2c0.3,0.3,0,1.2-0.2,1.5c-0.5,1-1.1,0.7-2,0.6c0,0,1.1-0.3,1-0.3
	c0.1-0.2,1-1.2-0.2-0.8c0.1-0.8-0.1-1.7-0.4-2.4c-0.1-0.4-0.5-2-0.8-2.3c0,0,0.2,1.8,0.2,2c0.2,0.7,0.8,1.7,0.5,2.5
	c-1,2.2-4.2-0.5-5.2,0.5c-0.8,0.8,0.6,0.6,0.9,0.6c0.7,0.1,1.4,0.3,2.2,0.3C274.2,50.7,277.3,51.4,276.7,48.2
	C276.5,47.5,276.8,48.9,276.7,48.2z"/>
<path d="M268.2,35.6c1-0.2-0.7-1.1-1-1.1c-0.2,0-0.7,0.3-1,0.3c-0.5,0-1.3-0.5-1.9-0.6c-0.9-0.1-1.9-0.1-2.8,0c-0.2,0-1.8,0.5-2,0.4
	c0.5,0.3,1.8-0.1,2.3-0.2c1.1-0.1,2-0.1,3.1,0.3c0.3,0.1,0.8,0.5,1.1,0.5c0.3,0.1,0.8,0,0.9,0c0.1,0,0.3-0.3,0.5-0.3
	C268.1,35.1,267.1,35.8,268.2,35.6L268.2,35.6z"/>
<path d="M267.5,29c0.1-0.1,0.1-0.1,0.2-0.2C267.6,28.9,267.5,29,267.5,29z"/>
<path d="M292.4,73.5L292.4,73.5C292.4,73.5,292.4,73.5,292.4,73.5z"/>
<path d="M292.5,73.8l-0.1-0.3c0,0,0,0,0,0l0,0l0,0C292.4,73.6,292.5,73.7,292.5,73.8c-2.1-4.2-4.1-8.5-4.9-13.2
	c-0.9-5-1.3-10-1.1-15c0.1-1.5,0-3.1,0.2-4.6c0.1-1.2,0.5-2.4,0.5-3.7c0-0.9-0.2-1.4-0.3-2.2c-0.2-1.5-0.2-3.1-0.4-4.6
	c-0.4-3.1-1-6.3-2.5-9.1c-0.7-1.3-1.5-2.5-2.7-3.4c-0.1-0.1-2.7-1.5-2.9-1.1c0.1-0.3,3,2.1,3.1,2.2c1.4,1.7,2.4,3.7,3.1,5.8
	c0.7,2.1,1,4.3,1.2,6.5c0.1,0.9,0.4,2.5,0.2,3.4c-0.2,0.9,0,0.5-0.9,0.8c-0.4,0.1-1,0.1-1.5,0.2c0.5-2.6-0.6-6.3-1.3-8.9
	c-0.1-0.4-2-5-2.9-3.8c-0.4,0.6,1.6,3.3,1.8,3.9c1,2.2,1.9,5.4,1.7,7.8c-1.1-1.3-2.9-1.5-4.4-1.1c-0.8,0.2-1.3,0.8-2.1,1
	c-0.2,0.3-0.6,0.5-1,0.5c-0.1-0.2-0.3-0.4-0.4-0.6c-0.7,0.1,0,1.1,0.4,1.2c0.6,0.1,1.6-0.9,2.1-1.1c1.4-0.7,3.6-1.2,4.9,0
	c1.3,1.3-1.4,1.1-2.5,1.1c-1.5,0.1-3.4,0-4.9,0.6c-1.4,0.5-2.1,1.1-3.7,0.9c-0.9-0.1-1.3-0.6-2.1-0.9c-1.6-0.6-3.8-0.5-5.4-0.6
	c-2.1-0.1-4.4-0.7-6.5-0.6c3-3.5,6.7-6,10.3-8.9c1.4-1.1,2.8-2.2,4.2-3.3c0.2-0.2,2.4-1.5,2.4-1.7c0,1-2.7,2.9-3.3,3.4
	c-0.9,0.8-8.3,6.3-7.8,7c1.1,1.5,10.7-7.9,12-7.8c0.4,0-2.6,3.3-2.6,3.2c0.7,0.9,3.9-2,4.2-2.4c0.8-0.9,1.1-2.3,1.8-3.1
	c-1.1,1.2-2,3.6-3.8,4.1c0.7-0.2,3.5-5.1,2.8-5.3c-0.6-0.1-4.1,3.8-4.7,4.3c-1.1,0.9-2.3,1.8-3.5,2.6c-0.3,0.2-1.3,0.6-1.7,0.9
	c-0.1,0.1-0.1,0.1-0.2,0.2c0-0.1,0.1-0.1,0.2-0.2c1.3-1.2,9.6-8,8.4-9c-0.5-0.4-5.1,3.2-5.8,3.8c-2.7,2-5.5,3.7-8.2,5.7
	c-2.9,2.2-5.8,4.8-7.6,8.1c-2.2,3.9-2.2,7.3-1.3,11.6c1.3,6.4,4.2,12.6,4,19.2c-0.1,4.4-1.2,8.9-3.5,12.7c-0.9,1.5-2,2.9-3.2,4.2
	c-0.3,0.3-1.3,1.9-1.8,2c1.5-0.3,3.4-3.1,4.2-4.3c1.6-2.2,2.9-4.7,3.7-7.4c0.1-0.5,0.4-2.6,0.9-2.7s1.6,1.1,2,1.3
	c0.8,0.6,1.8,1.1,2.8,1.3c0.3,0.1,2.7,0.8,2.8,0.7c0.4-0.3-2.6-1.2-2.9-1.3c-1.5-0.5-2.6-1.4-3.7-2.5c-1.4-1.4-0.6-3.4-0.6-5.3
	c0-2-0.2-4.1-0.6-6.1c-1.6-7.1-6.3-15.6-2-22.6c-0.1,1.4,0.1,3.5,1.1,4.5c1.1,1.1,3.2,0.9,4.6,1c2.3,0.1,4.8,0,7-0.6
	c1.7-0.5,1.9-1.2,2.7-2.6c0.5-0.9,1.3-1.9,2.4-1.2c0.8,0.6,0.6,2.1,1.2,2.8c1.6,2,6.8,1.2,9.1,0.7c0,3-0.7,6.1-0.9,9.1
	c-0.2,2.8-1.2,4.4-2.7,6.6c-3.2,4.5-5.9,12.7-13.3,9.4c-2.4-1.1-5-2.9-6.7-5c-0.3-0.4-0.8-1.4-1.4-1c-1.2,0.8,1.1,2.3,1.5,2.6
	c2.5,1.6,5,4,8,4.5c4.2,0.8,7.2-1.3,9.3-4.8c0.6-0.1,0.5,5.6,0.3,6.1c-0.3,0.9-1.3,1.6-1.8,2.4c-0.3,0.4-0.4,1-0.7,1.4
	c-0.2,0.3-0.7,0.5-0.8,0.8c-0.1,0.3,1-0.5,1.1-0.6c0.5-0.5,0.6-1.3,1.1-1.8c0.3-0.4,1.3-1.2,1.8-1.3c0.9,0,1.7,0.9,2.4,1.5
	c1.5,1.2,2.8,1.1,4.6,1.4c0.8,0.1,1.5,0.3,2.2,0.6c0.4,0.2,0.9,0.8,1.4,0.8c0.2,0-1.2-1.2-1.4-1.3c-0.7-0.4-1.6-0.5-2.4-0.7
	c-1.7-0.3-2.9-0.5-4.3-1.5c-2.3-1.7-2.6-2.9-2.7-5.6c-0.1-2.2-0.1-3.8,1.1-5.7c2-3.3,3.7-5.4,4-9.4c0.1-1.5,0.2-3,0.3-4.5
	c0.1-1.1,0.1-2.6,0.4-3.6c0.2-0.7,0-0.4,0.6-0.9c0.4-0.4,1-0.6,1.4-1c-0.2,7.7-0.5,15.4,1.8,22.9c0.9,3.1,2.3,5.9,3.7,8.8
	c0.8,1.5,1.3,3.2,1.6,4.9c0.1,0.4,0.6,2.8,0.3,3.1c0.1-0.2-1.6-2.6-2.1-2.3c0.3-0.2,2.3,5.1,3.2,4.8C295.4,83.4,293,74.7,292.5,73.8
	z M264.6,37.5L264.6,37.5c-0.6-0.5,0.6-0.1,0.8,0c0.3,0.2,0.6,0.4,0.8,0.7c0.5,1,0,1.1-1.1,1.4c-0.8,0.2-2.9,0.4-3.5-0.4
	c-0.6-0.7,0.3-1.5,1.1-1.7c-0.8,0.8-0.2,2,0.9,2.1C264.5,39.7,265.6,38.2,264.6,37.5z M270.1,39.8c-0.3,2.5-2.2,3-4.4,3.3
	c-1.9,0.2-4.5,0.5-6.4,0.2c-2.2-0.4-3.5-4.1-2.1-5.9c1.1-1.4,4.4-0.5,6-0.5c-0.3,0-3.4,0.9-3.1,1.7c0.1,0.3,1.1-0.5,1.3-0.6
	c-0.8,0.8-1,0.7-0.3,1.4s2.4,0.8,3.3,0.7c0.5-0.1,2.2-0.4,2.5-0.8c0.5-0.7-0.1-0.6-0.6-1.3c0.1,0.1,1.5,1.3,1.7,1c0.4-0.5-3-2-3.3-2
	C266.8,37,270.5,36.8,270.1,39.8C270.4,37.2,270,40.6,270.1,39.8z M276.2,37.8c-1.5,2.9,4.5,0.9,1.4-0.5c1.5-0.2,3.1,1.5,1.1,2.2
	C277.5,39.9,273.7,39.2,276.2,37.8z M283.4,42.2c-0.6,1-4.3,0.7-5.3,0.6c-1.5-0.1-0.6,0,0,0c-1.3-0.1-2.6-0.2-3.3-1.4
	c-0.9-1.4-0.9-3.2,0.8-3.7c0,0-1.2,1.2-0.9,1.3c0.2-0.1,0.3-0.2,0.5-0.4c-0.4,1.6,2,1.5,3.1,1.3c0.9-0.2,2.7-0.6,1.8-1.6
	c0.2,0.2,0.5,0.2,0.7,0.2c0.1-0.1-1.7-1.4-1.9-1.4c1.3-0.2,2.6-0.2,3.9-0.3c-0.2,1-0.1,2.1,0.1,3.1
	C282.9,40.2,283.5,41.9,283.4,42.2z M285.8,39.5c0,0.1,0,0.1,0,0.2c0,0,0,0,0,0.1s0,0.1,0,0.1c0,0.1,0,0,0,0l0-0.1v-0.1
	C285.8,39.6,285.8,39.6,285.8,39.5c0-0.1,0-0.1,0-0.2l0-0.1v0c-0.2,1.2-1,2.3-2.1,2.8c-0.2-1-1.3-4.5-0.3-5.3
	c0.3-0.2,2.1,0.1,2.4,0.4c0.3,0.4,0.1,1.7,0,2.1v0l0,0.1C285.8,39.4,285.8,39.4,285.8,39.5L285.8,39.5z"/>
<path d="M264.6,37.5"/>
<polygon points="264.6,37.5 264.6,37.5 264.6,37.5 "/>
<path d="M292.7,74.2c0.1,0.1,0.1,0.2,0.1,0.3C292.8,74.4,292.8,74.3,292.7,74.2z"/>
<path d="M264.6,37.5L264.6,37.5L264.6,37.5z"/>
<path d="M285.8,39.7l0,0.1C285.8,39.8,285.8,39.8,285.8,39.7z"/>
<path d="M292.7,74.1l0.1,0.1C292.7,74.2,292.7,74.2,292.7,74.1z"/>
<path d="M292.9,74.6"/>
<path d="M292.7,74.1c0-0.1-0.1-0.2-0.1-0.3l0,0L292.7,74.1z"/>
<path d="M292.9,74.6C292.9,74.6,292.9,74.6,292.9,74.6C292.9,74.6,292.9,74.6,292.9,74.6z"/>
<path d="M292.9,74.5L292.9,74.5L292.9,74.5z"/>
<path d="M276.2,37.8C276,37.9,275.6,39,276.2,37.8z"/>
<path d="M278.1,42.8L278.1,42.8C278.7,42.8,278.5,42.8,278.1,42.8z"/>
<path d="M264.7,37.5L264.7,37.5L264.7,37.5z"/>
<path d="M270.1,39.8C270,40.6,270.4,37.2,270.1,39.8z"/>
<path d="M285.8,39.5c0,0.1,0,0.1,0,0.2C285.8,39.6,285.8,39.6,285.8,39.5z"/>
<path d="M285.8,39.3c0,0.1,0,0.1,0,0.2C285.8,39.4,285.8,39.4,285.8,39.3z"/>
<path d="M285.8,39.3"/>
<path d="M264.7,37.6L264.7,37.6L264.7,37.6z"/>
<path d="M264.7,37.5L264.7,37.5L264.7,37.5z"/>
<path d="M285.8,39.3L285.8,39.3z"/>
<path d="M264.8,37.6L264.8,37.6L264.8,37.6z"/>
<path d="M264.8,37.6"/>
<path d="M121.7,73.2c-1.4,0-0.7-4.9-3-6.2c-1.3-0.7-10.3-4.7-10.3-4.1c0-0.7,5.6,0.4,6.1,0.5c2.1,0.6,4.2,1.4,5.5,3.2
	c1.3,1.6,1,3.9,1.7,5.8C121.7,72.7,122.1,73.2,121.7,73.2z"/>
<path d="M105.3,48.2c-1.6-1.1-0.6,1.1-0.6,0.8c0-0.2,0.1-0.3,0.2-0.5c0.4-0.3,1.2,1.2,0.9,2.1c-0.1,0.4-0.6,0.8-0.9,0.5
	c-0.1-0.1,0-0.3-0.2-0.3c-0.3-0.2-1.1,1.4-1.5,1.6c-0.8,0.4-1.3,0.1-2-0.2c-0.1-0.1-3.4-1.8-3.1-0.3c0,0.3,1.8,0.1,2.1,0.1
	c0.9,0.2,1.2,1.1,2.3,1.1s2-1.5,2.4-1.6C106.9,51.2,106.6,49,105.3,48.2z"/>
<path d="M103.2,44.7c-0.2,0-0.7-2.8-0.7-3.2c0-0.4,0.9-3.8,1.6-3c0,0-1.2,2.4-1.2,3C102.9,41.9,103.8,44.7,103.2,44.7z"/>
<path d="M103.1,38.4c-0.6,0-0.3-0.9-0.2-1.1c0.2-0.4,1-0.9,1.6-1c0.8-0.1,0.6,1,1.1,0.5c0.4-0.4,0.3-1.3,1.6-0.6
	c1,0.5,0.9-0.7,2.2-0.8c0.3,0,2.1,0.4,2,0.8c0,0.1-1.6-0.3-1.7-0.2c-1.3,0.3-1.6,1.4-3,0.9c-0.4-0.1-1.2,1.1-1.7,0.5
	c-0.1-0.1-0.4,0.5-0.6,0.5c-0.3,0,0.2-0.6-0.3-0.7C103.3,37.1,103.6,38.4,103.1,38.4z"/>
<path d="M97,39.2c-0.6,0,0.2-0.9,0-0.8c-2.1,1-1.1-1.2-2.3-0.2c-0.7,0.6-0.6-0.5-2.5-0.9c-1-0.2-2.4-0.5-3.5-0.6
	c-0.6,0-2.9,0.9-2.9,1c-0.7-0.6,2-1.8,2.3-1.8c0.9-0.1,2.4,0.7,3.3,0.7c1.8,0.1,1.6-0.2,2.8,0.7c0.5,0.4,0.6-1.2,1.3-0.8
	c0.5,0.3,0.1,1.1,0.6,1.3c0.3,0.1,2.4-2.1,1.6,0.3C97.8,38.3,97.4,39.2,97,39.2z"/>
<path d="M116,34.7c0.5-1.2,0.6-2.9,0.5-4.2c-0.3-2.7-1.7-5-2.7-7.5c-0.5-1.1-0.3-2.6-1.1-3.5c-0.6-0.7-2.1-0.9-2.4-1.7
	c-0.6-1.4,0.5-2.5-0.8-3.8c-0.9-0.9-3.5-0.9-4.6-0.5c0.1-0.6,0.1-1.2,0.1-1.8c-0.1-1.4-0.6-2.6-1.8-3.4c-2.1-1.5-4.8-2.1-7.3-1.5
	c-5.9,1.4-10.6,5.8-15.1,9.5c-5,4.2-8.7,8.3-9.9,14.9c-0.5,2.7-1.3,4.1-2,6.6c-0.3,1.2,0.7,3.4,1.1,4.5c0.4,1,3.3,3,4.8,3
	c0.7,0-1-1.6-1.1-1.7c-0.5-0.7-0.7-1.7-0.6-2.6c0.4-2.2,1.3-2.4,3.1-3c1.1-0.4,2.5-0.5,3.1-0.2c0.5,0.2,0.2,0.4,0.1,1.4
	c-1,1.2-3.6,1.9-3,2.6c1,1.2-0.6,4.5,0.9,5c0.6,0.2-0.7,0.4-0.5,1.2c0,0.2,0.7,0.9,0.8,1c0,0,0.1,0.1-0.3,0.4
	c-0.2,0.2-0.4-0.1-0.4-0.3c-0.2-0.7-0.5-1.2-0.6-1.4c-0.3-1.2-0.3-2.6-0.5-3.9c-0.1-0.9-0.6-2.4-0.2-3.3c0.2-0.4,0.9-0.7,0.9-0.9
	c0-0.9-1.4-0.2-1.5,0c-0.4,0.9,0.1,2.7,0.3,3.6c0.1,0.9,0.4,7.1,2,7.1c0.2,0,0.4,0,0.5-0.1c0,0.1,0,0.3,0.1,0.3
	c0.1,0.7,0.7,2.3,0.9,3c0.5,2.4,2.2,3,3.9,3.2c1,2.1,2.5,3.8,4.3,5.4c1,0.8,5.6,4.4,6.7,4.8c0.2,0.7,0.4,1.3,0.8,1.9
	c1.2,2.2,3.3,4.1,6,4.1c4.9,0,10.1-4.7,8.1-9.6c-0.1-0.2-0.4-1.5-0.2-1.7c1.4-1.2,2.4-3.7,2.8-4.6c0.4-0.9,0.7-1.9,1-2.9
	c0,0,0.1,0,0.1,0c1.7,0,2.8-5.6,2.8-6.5c0-0.6-1.4-6.8-0.9-8.1C114.2,38.7,115.8,35.3,116,34.7z M81.5,55.8
	c-0.8-0.2-1.6-1.2-1.7-1.4c-0.6-0.7-1.4-3-1.5-3.9c-0.1-0.7,0-1.3-0.1-1.9c0-0.3-0.5-0.2-0.5-0.7c0-1.1,2-2-0.2-1.9
	c0.1-0.3,0.8-2.3-0.2-3.7c-0.8-1,2.1-2.6,1.9-0.8c-0.3,2.7-0.1,3.4-0.1,3.7c0.3,3.2,1.5,6.4,2.5,9.5C81.7,55.3,82.1,55.9,81.5,55.8z
	 M107.8,67.4c-1.2,2.8-3.3,4.4-6.6,4.9c-2.9,0.4-5.1-1.2-6.4-3.6c-0.9-1.6-1.2-2.8,0.1-4.3c1-1.2,1.8-2,2.9-3.5
	c0.4-0.5,1.8-0.3,2.7-0.3c0.6,0.1,2.3,0.8,2.3-0.2c0.5,0.2,2.6,1.3,3.4,0.1C106.7,59.8,108.8,65.1,107.8,67.4z M113.8,47.9
	c0,1.2-0.5,3.4-1,4.6c-0.1,0.1-0.5,0.6-0.9,1c0.2-0.8,0.3-1.6,0.4-2.5c0.5-4.3,0.3-8.6,0.2-12.9c-0.1-4.7-0.6-9.3-2.5-13.6
	c-0.7-1.5-1.1-3.6-2.1-4.9c-0.3-0.4-4-2.6-4-1.4c0-0.3,3.2,2.1,3.6,2.6c0.9,1.2,1.3,2.9,1.9,4.2c1.9,4.4,2.3,8.8,2.4,13.5
	c0.1,4.2,0.4,8.5-0.2,12.7c-0.3,2.2-0.7,4.4-1.6,6.4c-0.3,0.7-1.3,3.2-2.1,3.2c-1,0.1-1.3-1.1-2.1-1.2c-0.9-0.1-0.1,0.6-0.6,0.6
	c-1.2,0.1-1.9-0.5-2.8-0.8c-0.4-0.1-0.4,0.8-0.5,0.8c-1.1,0.1-3.1-0.8-4.4,0.1c-0.9,0.6-0.8,1.4-1.9,2.2c-1.6,1.3-2.2,1.9-2.4,3
	c-0.1,0.9-2.3-0.7-2.5-0.8c-1.3-0.9-2.5-2.1-3.7-3.2c-2.2-1.9-3.7-3.7-4.8-6.5c-1.1-3.1-2.5-6.6-2.8-9.9c-0.1-0.9,0.9-8.4,1.1-8.8
	s5.4-1.8,7.6-3.8c3.5-3.3,4.1-8.3,6.4-12.2c1-1.8,2.5-3.2,4.7-3.3c0.7-0.1,1.8,0,2.4,0.3c0.3,0.1,1.6,1.2,1.6,1.2
	c0.9,0-0.6-1.3-0.7-1.4c-0.6-0.4-1.7-1.1-2.4-1.1c-2-0.2-3.6,1-4.9,2.5c-3.2,3.5-3.8,8.8-7.1,12.4c-3.2,3.4-8,4.2-12.2,5.7
	c-1.7,0.6-2.8,1.2-3.7,2.9c-0.4,0.7-0.3,1-0.5,2c-0.2,1.2-1.1-0.1-1.3-0.3c-0.7-1.2-1.3-2.2-0.9-3.6c0.7-2.5,1.5-3.9,2-6.5
	c1.1-6.1,3.9-9.7,8.5-13.5c4.7-3.9,9.1-8.4,15.2-9.9c2.2-0.5,4.5-0.4,6.6,0.8c1.2,0.7,1.9,1.3,2.1,2.7c0.1,0.4,0,3.8,0.2,3.8
	c0.2,0,0.4-0.4,0.5-0.9c1,0.3,3.6,0,4.3,0.8c0.9,0.9,0.1,2.1,0.6,3.3c0.4,0.9,1.6,0.9,2.2,1.7c0.8,0.9,0.9,2.5,1.4,3.6
	c1.1,2.7,2.5,5.1,2.6,8.1c0.1,1.4,0,2.7-0.7,3.9c-0.2,0.3-2.1,3.3-2.1,3.8C113.1,41.1,113.8,47.4,113.8,47.9z"/>
<path d="M102.4,69.7c0.2,0,1.4-3.5,1.2-4.2c-0.9,1-1.5,2-1.8,0.4c-0.2,0.3-2,3-2.4,2.5c0.4,0.5,1.1-5.2,0.6-4.8
	c0.8-0.6,0.7,2.9,0.7,3.2c0.7-1,1.3-2.6,1.7-0.6c0.3-0.3,0.8-1.2,1.2-1.4C104.1,64.6,104.3,69.7,102.4,69.7z"/>
<path d="M105.7,51.8c0,0.8,4,0.8,4.2,2.7c0.2,1.4-0.6,0.3-1.3,0.9c-1.1,1-1.8,0.8-2.3,0.1c-0.3-0.4-1.1-1.3-0.7,0.1
	c-0.3-0.1-3.5-0.1-4.5,0.5c-1.2,0.2-3,0.7-3.1,0.7c-2.2,0.5-3.1,0.5-4,2.1c-0.1,0.2-0.8-0.5-1-0.5c-0.3,0-0.7,0.3-0.9,0.6
	c-0.3,0.4-0.5,1.2-1,1.2c-1.4,0.2,1-2,0.1-2.8c-0.8-0.7-2.9,1-2.9-0.1c0-0.5,2.7-2,4-3.1c0,0,2-0.1,2.4,0.1c0.5,0.2,1.5-0.9,1.7-0.5
	c0.3,0.6,1.2-0.4,1.8-0.9l0,0c0,0,0,0,0,0c0,0,0.1,0,0.1,0h0c0.2,0,2,0,2-0.4c0-0.1-2.8-0.1-3.2-0.4c-1.4-1,0-1.8-0.5-2.2
	c-0.7-0.7-0.8,1.4-0.7,1.6c0.2,0.6,0.9,1.1,1.6,1.3c-0.3,0.3-0.7,0.6-1,0.3c-0.4-0.3-1-0.3-1.4,0.1c-0.3,0.2-1.8,0.3-2.3,0.2
	c-0.8,0-4.9,3-5.1,3.8c-0.6,1.8,2.2,0.2,2.7,1.2c0.2,0.5-1.1,2.5,0.5,2.5c0.3,0,1.3-1.5,1.7-1.6c0.5-0.2,0.5,0.7,1.1,0.5
	c0.3-0.1,0.8-1.3,1.1-1.5c1-0.9,3-1.2,4.3-1.5c0.2,0,2.2-0.1,2.8-0.5c1-0.1,2.1-0.2,3.2-0.3c-0.8,0.3-2.2,1-2.5,1
	c-0.7,0.1-3.3,0-3.3,0.3c0,0.4,2.8,0,3.3,0.1c0.4,0.1,1.4-0.5,2.6-1.1c-0.3,0.5-0.7,1.3-0.9,1.5c-0.7,0.7-2.1,0.9-3.1,1.1
	c-0.7,0.1-4-1.1-4.3-1.1c-0.9-0.1,3,1.6,3.5,1.6c1.2,0,2.6-0.1,3.6-0.9c0.3-0.2,1.7-1.8,1.7-2.5h0c0.2,0.2,0.4,0.3,0.6,0.4
	c0.3,0.2,0.2,0.4,0.7,0.4c0.5,0,0.9-0.7,1.2-0.9c0.6-0.2,0.8,0.2,1.5-0.1c0,0,0.7-1,0.6-0.8C110.9,53,105.7,50.9,105.7,51.8z"/>
<path d="M91.7,43.3"/>
<path d="M95,41.3c0.1,0,0.3-0.1,0.4-0.1c0.5,0-2.3-1.5-3-1.6c-1-0.2-4.8-0.2-5.7,1.1c-0.2,0.3,0.6-0.1,1.6-0.2
	c-0.4,0.4-1.2,1.5-0.8,1.6c0.7,0.3,3,1.2,3.8,1.2c1,0,4-0.3,4-1.6C95.3,41.6,95.2,41.5,95,41.3z M89.9,40.3c-0.6,1-0.5,1.7-0.2,2.1
	c-0.7-0.3-1.3-0.1-1.4-0.7C88.2,41.5,89.2,40.3,89.9,40.3L89.9,40.3z M91.8,42.7c0.6-0.3,1.4-1.1,0.8-2.4c0.2,0.1,0.5,0.2,0.7,0.3
	c0.5,0.5,1,1.1,1,1.2C94.3,42.2,93.1,42.9,91.8,42.7L91.8,42.7z"/>
<path d="M106.5,39.1c-0.7,0.2-1.7,0.5-2.2,1.1c-0.1,0.1-1.2,1.5-0.5,1.5c0.1,0,0-0.4,0.5-0.3c0.2,0,0.2,0.1,0.3,0.2
	c0.3,0.4,1.8,0.5,1.9,0.5c0.2,0,3.1-0.3,3.5-1.5c0.1-0.3-0.9-1.2-0.5-1.2s1.2,0.6,1,0.2C110.2,38.3,106.9,39,106.5,39.1z
	 M104.9,40.6c0.1-0.1,0.2-0.3,0.4-0.4c0.1,0,0.1-0.1,0.2-0.1c0,0.7,0.4,1.3,0.9,1.5c-0.4,0-0.8-0.1-1.2-0.2
	C104.8,41.3,104.9,40.9,104.9,40.6z M109.2,40.7c-0.2,0.4-0.6,0.5-1.2,0.6c0.4-0.4,0.3-1.3,0.1-1.8
	C108.3,39.6,109.8,39.8,109.2,40.7z"/>
<path d="M80.9,64.3c-0.6,0,0.7-2.7,0.7-3c0.1-0.5-0.7-3.9-0.2-3.9C82.3,57.4,82.3,64.3,80.9,64.3z"/>
<path d="M101.7,73.2c0.2,0.5-5.2,1-5.8,0.9c-2.2-0.5-4.6-1.3-6.7-2.2c-2.6-1.2-4.7-3.1-7-4.8c-0.7-0.5-1.9-1-2.1-1.9
	c-0.1-0.4,0.2-1.7,0.3-2.2c0.5-0.4,0.7-0.7,0.5-0.8c-0.4-0.3-4.7,3.4-5.3,4c-1.4,1.4-3.3,2-5.1,2.8l0,0c-1.9,0-1.8,1.6,0,0.9
	c0.4-0.2,0.8-0.4,1.1-0.5c2.1-0.9,3.2-1.3,4.8-2.8c0.6-0.5,1.3-0.9,2-1.3c0.7-0.4,0.8,0.2,0.9,0.4c0.2,0.7,1.2,1,1.7,1.5
	c1.5,1.4,3.4,3,5.1,4c3,1.9,7.7,4.3,11.4,4.3C98,75.3,102,73.9,101.7,73.2z"/>
<path d="M98.8,79.4c-4.2,0-8.8-2.4-12.3-4.6c-0.8-0.5-9-7.1-7.9-7.9c-0.1,0.1,5.5,5.3,6.1,5.8c2.6,2,5.5,3.5,8.5,4.6
	c2.3,0.9,5,1.6,7.5,0.7c1.1-0.4,2-0.9,2.7-1.7c0.3-0.3,1.7-2.5,1.8-2.5c1,0-1.6,3.3-1.7,3.4C102.2,78.5,100.7,79.4,98.8,79.4z"/>
<path d="M400.3,34.8c0.3-0.7-1-2-1.7-1.7c-0.2,0.1,0.1,0.5-0.1,0.6c-0.6,0.4-1.4-1.5-1.9-0.8c-0.1,0.1-0.1,0.3-0.2,0.4
	c-0.4,0.2-1.6-1.2-2.1-0.5c-0.1,0.2,0,0.4-0.1,0.6c-0.6,0.8-3.4-1.6-3.5-0.3c0,0.2,0,0.2,0,0.4c-0.1,0.9-3.3,0.2-2.9,1.5
	c0.2,0.7,1.1-0.5,1.8-0.7c0.7-0.2,1.5,0.1,1.7-0.3c0.1-0.2-0.2-0.4-0.2-0.7c0.3-0.8,2.8,1.7,3.6,0.6c0.2-0.3-0.2-0.3-0.1-0.6
	c0.5-0.8,2.1,1.7,2.5,0.8c0.1-0.3-0.1-0.3,0.1-0.4c0.4-0.1,1,1.5,1.7,0.9c0.3-0.2,0-1,0.2-0.7C399.4,34.3,400.1,35.1,400.3,34.8z"/>
<path d="M407.3,35.3c-0.2-0.2,0.2-0.7-0.1-0.7c-0.6,0.1-0.8,1.2-0.5,1.7c0.2,0.3,1.1-0.9,1.1-0.6c0,0.4-0.3,0.6,0.1,0.8
	c0.3,0.2,1.2-0.1,1.9-0.2c1.5-0.1,2.8,1.7,2.6,1c-0.1-0.3-1-2.1-2.5-1.4c-0.4,0.2-0.6-0.4-1-0.6c-0.1,0-0.5,0.5-0.6,0.3
	c-0.3-0.4,0.4-0.6,0.2-1.1C408.4,34.1,407.5,35.5,407.3,35.3z"/>
<path d="M397.1,37.5c-1-0.4-0.6-0.7-0.6-1.7C397.2,36.3,396.8,36.8,397.1,37.5C396.8,37.4,396.9,37.2,397.1,37.5z M391.3,36.6
	c0.7-0.5,2-1.3,2.8-1.3c-0.3,0.3-0.4,1.7,0.1,1.9C393.1,37.3,392.3,36.9,391.3,36.6C392.1,36.1,392.2,36.9,391.3,36.6L391.3,36.6z
	 M399.1,37.9c-1.5-1.4-2.3-3.1-4.6-3.1c-0.4,0-5.3,1.5-4.9,2.3c-0.2-0.4,3.4,0.8,3.7,0.9c0.8,0.1,2-0.2,3.1,0
	c0.7,0.2,0.9,0.5,1.7,0.4c-0.1-0.6-0.8-1.2-0.9-1.9c0.4,0.3,1.6,2.1,2.2,1.9C399.4,38.1,399.3,37.9,399.1,37.9
	C398,36.8,399.2,38,399.1,37.9z"/>
<path d="M404.2,36.6c1.1,1.7,0.9,4.5,1.4,6.6c0.6,2.7,2.9,3.9,1.2,6.5c-1.5,2.3-3.6,2.3-5.9,0.4c-0.6-0.5-0.2-0.6-0.8-1
	c-0.5-0.3-1.5,0.1-2-0.2c-0.4-0.2-0.9-1.1-1.8-2c-0.3-0.3-0.3-0.7,0.2-0.9c0.4,0.3,0.5,0.8,0.8,1.2c0.4,0.5,0.8,0.7,1.5,1
	c1.3,0.6,5.3,0,4.3,2c-0.2,0.5-1-0.4-1.6-0.6c0,0.6,2.4,1.7,3.4,1.3c1.1-0.4,2.2-2.3,2.1-3.1c-0.1-1.5-1.6-2.7-1.9-4.4
	C404.5,41.5,404.2,38.5,404.2,36.6"/>
<path d="M400.4,45.5c-0.5-0.2-0.9-0.8-1.4-1c0.9-0.2,2.5,0.3,1.9,1C400.9,45.7,400.5,45.6,400.4,45.5z"/>
<path d="M406.8,56.2c-0.2-0.4-0.6-1.1-0.8-1.2c-0.6-0.4-3-0.3-3.4-0.5c-0.5-0.2-3.3-1.2-4.6-1.4c-0.2,0-2.6,0.1-2.3,0.2
	c0.1,0.1,2.7,0,2.8,0.1c1,0.5,3.1,1.2,3.8,1.4c0.9,0.2,2.1,0.1,3,0.3c0.6,0.2,1.1,1,0.7,0.9s-1.3-0.6-2-0.5
	c-2.1,0.3-3.2-0.6-5.2-1.2c-0.7-0.2-8.2-1.4-7.9,0.5c2.5,2.1,6.2,5.9,9.6,5.9c1.7,0,2.9-0.1,4.1-1.4c0.7-0.7,1.7-2.5,2.2-2.4
	C407.4,56.8,407.3,56.5,406.8,56.2z M402.7,59.4c-3.2,0.6-7.9-1.5-10.8-4.8c-0.5-0.6,5.8-0.6,6.3-0.4c1.1,0.4,2.1,1.3,3.2,1.6
	c1.6,0.5,3.2-0.6,4.7,0.6C405.2,57.4,404.2,59.1,402.7,59.4z"/>
<path d="M405.3,59.4c0.1-0.9-1.2,2.3-1.9,2.7c-0.9,0.5-1.5-0.4-2.4-0.5c-0.8-0.1-2.1,0.4-2.8,0.1c-1.1-0.4-1.9-1.6-2.9-2.2
	c-1-0.8-1.3-0.6-0.1,0.2c0.9,0.6,1.5,2.1,2.4,2.6c0.9,0.4,1.6-0.1,2.5,0c0.8,0.1,2.3,1,3.1,0.7C404.1,62.8,405.2,60.3,405.3,59.4z"
	/>
<path d="M405.5,71.7c0,3-2.5,4.8-3.8,7.4c-1.3,2.6-1.3,4-3.9,5.3c-2.2,1.1-6.3,3.2-8.7,2.8c-1.9-0.3-3.8-3-5.1-4.2
	c-1.8-1.7-3.3-3.7-4.5-5.8c-1.4-2.4-0.7-4.9-1-7.6c-0.3-3.8-1.7-10.5-2.5-14.2c-0.5-2.4-0.7-3.5,0.3-2.2c0.7,0.9-0.2,10.4,6.1,11.8
	c-1.1-1.6-2.7-2.3-3.6-4.1c-0.7-1.6-1.3-3.3-1.6-5c-0.3-1.5,0.3-6-0.7-6.8c-0.4,1,0,2.3-0.1,3.3c-1.2-1.3-0.7-2.1-2.6-2.4
	c-1-0.2-1.4,0-2.2-0.7c-1.3-1.2-1.7-4-1.7-5.6c0-1.3,0-5,1.7-5.5c1.6-0.5,1.8,2,3.3,1.3c0,0.7-0.1,2.1,0.3,2.8
	c0.1,0.2,0,0.7,0.2,0.9c0.1,0.2,0.9,0,0.9-0.1c0.3,0.4,0.6,3.1,1.3,3.4c1.1,0.4,1.8-10.2,2.2-11.6c0.7-3,1.6-1.9,3.8-3.2
	c1.5-0.9,3.5-3.4,3.6-5c0.1-1.2-1.4-0.5-0.5-1.9c0.4-0.6,1.6-0.4,2-1c0.4-0.6-0.1-1.4,0.3-2.1c0.5-0.9,1.5-1.1,2.4-1.3
	c1.9-0.4,3.8,0.2,5.7,0.3c2.3,0.1,4.4-0.6,6.6,0.4c1.8,0.8,4.4,2,5.7,3.5c1.3,1.5,1.9,4.4,2.3,6.3c0.3,1.2-0.1,2.6,0.2,3.8
	c0.3,1,0.9,1.7,1.1,2.7c0.3,2.8-1.4,5.4-1,8.4c0.8,5.7,0.5,9.5-2.5,14.7c-1.3,2.3-4.1,4.7-5.2,7.1c-1,2.3-0.5,4.7-3.3,5.7
	c-2.2,0.8-3.3-0.6-5.9-0.9c-1.5-0.2-3.5-0.8-4.3-2c-0.4-0.6-1.8-4.2-1.7-3.5c0.3,1.9,1,3.8,2.4,5.1c1.3,1.1,3.5,1.4,5.2,1.8
	c-0.4,2.7-3.4,1.7-5.4,5.1c-0.2,0.3,1.5-1.1,2.6-1.8c0.6-0.4,1.6-1,2.2-1.3c0.8-0.5,1.2-1.6,1.8-1.7c1.5-0.2,2.7,0.3,4.2-0.7
	c1.4-0.9,2.1-2.7,2.5-4.2C405.3,69.5,405.6,71,405.5,71.7C405.5,72.6,405.5,70.7,405.5,71.7z M371,34.2c0.2-0.8,0.1-2.1,0.1-3
	c0-1.8-0.8-2.9,0.5-4c0.3-0.2,1.7-0.4,1.8-1c0.2-1.1,1.4-3.5,1.9-4c0.7-0.7,0.4-1.5,0.7-2.3c1.3-3.6,6.4-2.9,9.7-3.9
	c1.4-0.4,1.6-2.3,3-2.8c1.3-0.5,2.9-0.1,4.3-0.6c2.2-0.8,2.9-0.4,5.2,0c0.9,0.2,1.4,0,2.1,0.6c0.9,0.8,0.2,1.3,1.4,1.8
	c0.7,0.2,1.7-0.6,2.5-0.4c0.8,0.2,1.3,1.2,1.8,1.7c1.2,1.2,2,2.2,3,3.4c1,1.2,2.3,1.8,3,3.3c0.6,1.3,1.5,3.4,1.6,4.8
	c0.2,1.9-0.9,3.7-0.2,5.5c0.3,0.8,0.6,1,0.6,1.9c0,0.8-0.6,1.9-0.7,1.1c-0.2-0.9-0.5-0.9-0.8-2c-0.3-1.1,0-3-0.2-4.1
	c-0.3-1.8-1.2-3.8-1.9-5.5c-1.1-2.8-6.7-5.1-9.5-5.2c-2.3-0.1-4.5,0.2-6.9,0.1c-1.5-0.1-4.8-0.5-6,0.8c-0.7,0.8,0.7,2,0.2,2.8
	c-0.3,0.6-1.9,0.5-2.2,1.1c-1.1,1.6,0.7,1.8-0.1,3.5c-1.6,3.4-5.8,2.9-6.8,6.3c-0.6,2.2-0.3,4.8-0.5,7c0,0.6-0.2,2.1-0.6,2.6
	c-0.4,0.4-0.6-0.8-0.9-1.2c-0.7-1.1-1,0.4-1.5-1.3c-0.1-0.2,0.1-2.4,0-2.5c-0.4-0.6-1,0.5-1.7-0.3c-1-1.2-1.3-2-2.6-0.9
	c-0.5,0.4-1.2-0.4-1-1C370.5,35.9,370.9,35,371,34.2z M413.3,72.8c-2.2-1.2-5.3-2.4-7.4-3.9c-1.2-0.9-1.1,0.2-0.9-1.5
	c0.1-0.5,1-1.5,1.2-1.8c1.1-1.4,2.3-2.7,3.2-4.3c1.6-2.8,2.9-6,3.2-9.2c0.5-4.2-0.7-7.8,0.3-12c0.4-1.5,1-2.8,1.4-4.2
	c0.4-1.4,0-1.6-0.5-2.8c-0.6-1.5,0.5-3.5,0.5-5.1c0.1-1.7-0.9-2.5-1.5-4.1c-0.6-1.7-0.8-1.7-2.2-3.1c-0.7-0.7-1.1-1.6-1.7-2.4
	c-0.9-1.3-1.8-2.8-3.2-3.9c-1.6-1.2-2.1-0.1-3.7-0.7c-1.1-0.4-1.2-1.6-2.2-2.3c-0.8-0.6-2.6,0.2-3.6,0.1c-1.8-0.2-2.1-0.6-3.7-0.1
	c-1.4,0.4-3.1,0.2-4.5,0.6c-1.4,0.4-1.5,1.8-2.7,2.4c-0.9,0.5-3.1-0.1-4.3,0.2c-1.4,0.4-2.4,1.7-3.7,2.3c-1.6,0.7-1.6,1.1-2.1,2.5
	c-0.6,1.6-0.7,1.5-2,2.9c-0.9,0.9-0.8,1.3-1.1,2.2c-0.2,0.5,0,0.7-0.3,1.2c-0.3,0.4-1.1,0.4-1.4,0.9c-0.7,1-0.3,2.8-0.4,4
	s0.2,2.6,0,3.8c-0.2,1.2-1,1-0.7,2.5c0.1,0.5,0.5,1,0.5,1.4c0.1,0.8-0.4,1.6-0.6,2.5c-0.1,0.9-0.2,1.9-0.1,2.8
	c0.1,1.3,0.3,2.7,0.8,4c0.9,2.3,2.3,1.8,3.7,3.3c1.8,1.9,1.8,6.9,2.3,9.3c0.8,4,1.9,8.8,1.4,12.9c-0.2,1.3-0.8,2.8-1.6,3.9
	c-1.1,1.4-4.7,3.2-3.3,2.7c1.4-0.5,1.8-1,2.4-1.4c0.9-0.7,2.9-2,3.2-1.3c0.7,1.3,4.8,6,5,6.2c1.9,2,4.3,5,7.3,4.3
	c2.7-0.6,7.3-2,9.4-3.7c1.9-1.6,2.6-4.8,4.1-6.9c0.9-1.3,2.1-2.6,2.4-4.2c0.3-1.4,0.2-1.2,0.1-2.5c3.4,1.9,5.7,2.4,8.7,5.1
	c3.2,2.8,7.3,5.3,12.6,5.1c3.1-0.1-6.2-1.3-8.8-3.1C416.9,76.1,414.7,73.6,413.3,72.8z"/>
<path d="M410.3,40.4c-0.1,0-0.5-0.1-0.3-0.2c0.3-0.2,0-0.8,0.3-0.3C410.5,40.1,410.6,40.5,410.3,40.4z M406.2,39.3
	c0.1-0.6,1.8-0.3,2.1-0.3c-0.1,0.4-0.1,0.5,0.1,0.9C407.6,39.9,406.9,39.4,406.2,39.3z M411.9,39.7c-0.1-0.8-2.3-1.5-2.9-1.7
	c-1.3-0.5-3.4-0.9-3.7,0.5c-0.1,0.4,0.4-1.2,3,0c0.5,0.2-2.9-0.2-2.8,0.9c0.1-0.1,1.7,0.9,3.1,1.2c1.1,0.3,2.2,0.2,2.3,0.3
	c0.1-0.8-1.1-2.1-0.5-1.8c0.5,0.2,1.1,0.2,1,1.9C411.9,40.7,412,40.2,411.9,39.7C411.8,38.8,412,40.1,411.9,39.7L411.9,39.7z"/>
<path d="M372,46.8c-0.1-0.9,0.7-1,1.1-1.7c0.1-0.2,0.9-1.4,1-1.5c0.4,0.1,0.2,3,0,3.2c-0.4,0-0.3-1.1-0.3-1.3c-0.9,0.3-1.9,1-0.9,2
	c0.3,0.3,1.3,0.3,1.6,0.1c0.6-0.4,0.3-1.5,0.2-2.3c-0.1-1.4-0.1-3.1-1.2-4.1c-0.8-0.8-1.9-0.5-1.9-1.6c3.6,1.1,4.3,4.9,3.6,8
	C374.9,48.7,372.1,48.3,372,46.8z"/>
<path d="M390.8,93.1c-1.5,0-10.8-6.9-10.6-7.1c0.8-1.1,7.1,4.6,8.6,4.8c1.8,0.3,4.7,0.1,6.2-0.9c0.6-0.4,5.8-4.2,6.1-3.7
	C401.8,87.5,392.1,93.1,390.8,93.1z"/>
<path d="M20.7,40.5c-0.6-0.5-2.2,1.6-1.6,2.2c0.5,0.5,0.7-0.6,0.7-0.7c0.2-0.3,0.2,0.4,0.5,0.5c0.7,0.2,0.9-1.1,1.5-0.7
	c0.3,0.2,0.2,0.8,0.6,0.9c0.8,0.2,1.3-0.8,1.8-0.6c0.2,0.1,0.2,0.4,0.4,0.5c0.6,0.7,1.5-0.2,2.2-0.1c1.1,0.2,2.6,2.1,2.4,1.4
	c-0.1-0.6-1.4-1.7-2.1-1.9c-0.8-0.3-1.8,0.3-2.2,0c-0.2-0.2-0.3-0.5-0.5-0.6c-0.5-0.2-1.5,0.7-1.8,0.4c-0.4-0.4-0.2-0.7-0.6-0.8
	c-0.6-0.1-1.1,0.6-1.4,0.5C20.3,41.4,21,40.7,20.7,40.5z"/>
<path d="M25.1,46.7c0.4-0.2,0.6-0.8,0.5-1.1C25.4,45,27.1,46,27.3,46C28.3,46.1,26.5,46.7,25.1,46.7z M26.6,45.3
	c-0.6-0.3-1.1-0.9-1.7-1c-0.9-0.1-1.5,0.4-2.2,0.6c-0.3,0.1-0.9,0-0.9,0.4c0.3,0,0.7,0.2,1,0.1c-0.1,0.4,0.1,0.5,0.2,0.8
	c-0.3-0.1-0.4-0.4-0.8-0.4c0.2,1.8,5.5,1.7,6.3,0.2C28.1,45.6,27.4,45.7,26.6,45.3L26.6,45.3z"/>
<path d="M18.8,58.5c0-0.4,0.8-0.5,1.2-0.8c1.7-1.2,0.3-2.7-1.4-3.1c0.3-0.5,0.8-0.1,1.2,0.1c0.8,0.3,1.7,0.7,2.3,1.2
	c0.8,0.8,0.9,2.4,1.7,3.3c0.8,1,1.8,1.2,2.6,2.2c0.1,0.2,0.9,1.2,0.6,1.3s-0.5-0.7-0.9-1.1c-0.2-0.2-1.9-1.4-2.6-2.1
	c-1.1-1.3-2.1-4.2-2.2-3.1C21.1,57.8,20.1,58.4,18.8,58.5"/>
<path d="M16.9,57.1c0.1-0.3,0.7,0.2,0.7-0.2c0-0.3-1.3,0.3-2,0.3c-0.6,0,1-0.9,1.9-0.9c0.5,0,1.3,0.4,1.3,0.8
	C18.7,57.8,16.6,57.9,16.9,57.1z"/>
<path d="M23,64.9c-1.7-0.2-4-0.9-5.9-0.4c-0.5,0.1-1,0.4-1.5,0.3c-0.5-0.1-0.7-0.6-1.2-0.8c-0.6-0.2-0.6,0-1.2-0.3
	c0.6-0.2,0.9-0.7,1.7-0.7c0.6,0,1.2,0.9,2,0.8c3-0.2,4.5,0.8,4,0.1c-0.7-1-2.9-0.4-4.1-0.7c-0.8-0.2-1.4-1-2.1-0.9
	c-0.8,0.1-2,0.9-2.4,1.5c0.5,0.5,1.1,0.1,1.9,0.4c0.5,0.2,0.7,1.1,1.3,1.2c0.6,0.1,1.3-0.4,1.8-0.4c1.4-0.2,2.4-0.2,3.5-0.1
	c0.1,0,0.7,0.1,0.8,0.1c-0.8,0.3-2,1.6-2.6,1.7c-0.6,0.1-1.3-0.4-2.2-0.3c-1,0.1-1.6,0.5-2.1,0.1c-0.4-0.4-0.7-0.8-0.9-1.2
	c-0.1-0.2-0.4-0.3-0.3,0.2c0.2,0.5,0.1,1.4,0.8,1.8c0.6,0.4,1.4,0,2.2-0.1c1.1-0.1,2.4,0.3,2.9,0c0.4-0.3,2.3-1.7,2.8-1.9
	C22.6,65.2,23.4,65,23,64.9z"/>
<path d="M19.2,71c-0.5,0.2-1.1-0.2-2-0.4c-1-0.2-1.5,0.1-2.2,0.3C15.7,69.2,18.7,69.8,19.2,71"/>
<path d="M70.5,72.4C67.9,71,57,70.8,57.6,69.1c0.9-2.2,2.5-3.5,3.9-5c1.6-1.6,4.8-3.3,5-6.1c0.1-2.8-2.1-5.6-3.6-7
	c-1.6-1.6-6.6-4.3-6.2-5.1c0.8-1.5,2.1-8.5,1.9-10.7c-0.1-1.3-1.3-3.4-1.8-4.6c-0.5-1.3-0.1-2.6-0.5-3.9c-0.7-2.8-1.4-4.1-3.2-5.9
	c-3.5-3.6-8.5-6.5-14.3-7.1c-4-0.4-11.7,0.6-14.6,1.6c-6.3,2.1-12,5.4-14.6,13.6c-0.4,1,0,2.1,0.9,2.6c-1,3.3-1.7,6.7-2.4,10.3
	C8.4,42,8.6,42.6,8.6,43c-2.1,0.1-3.7,0.9-4.2,2.4c0.2,0.1,0.6-0.2,0.8,0c0,3,1.5,3.9,4.1,4.3c0,2.3-0.3,4.8-0.1,7.3
	c0.1,1.9,0.6,4.2,1,6.4c0.3,2,0.4,3.3,0.7,5.3c-2.7-0.3-7.4,1.1-9.2,2.1c-1.7,1.1-0.7,1.4,0.5,0.5c1.5-1.1,4.5-1.9,7-2
	c0.5,0,1.9,0.4,2,0.3c0.5,3.1,1.4,5.9,3.6,7.3c0.3,0.2,1.8,0.9,2.4,0.9c0.8,0-0.4,1.8,0,2c4.4,2.4,7.8,7.7,14.3,8
	c2.3,0.1,7.2-0.9,7.9-1.1c0.6-0.2-0.3,1.6-0.3,1.6c-1,2.6-0.9,3.1,0.2,1.2c1-1.8,3.6-8.3,2-7.5c-1,0.5-1.3,0.5-0.4-0.9
	c0.3-0.4,1.3-2.1,1.8-6.4c0.5-4.2,0.1-7.1,2.2-9.8c0.6-0.7,2.4-4.2,2.4-5.6c0.6-0.6,1.2-0.8,1.6-1.8c1-2.5,4.8-5.2,5.1-8
	c0.2-2.3-0.8-4.3-2.1-4.9c-1.1-0.5-2.5,0-3.4,0.3c-0.3,0.1-0.6,0.2-0.8,0.4c-1.1,1.6-2.9,1.1-2.9,1.5c0.4,4.2-0.8,1.9-0.9,2.6
	c-0.3,1.7-0.9,4.4-0.9,3.4c0-0.8,0.3-3-0.2-3.2c-0.6-0.2-1.4,1-1.7,1.3c-0.4,0.6-0.8,1.6-0.9,1c-0.1-1.4,1.4-3.9,1.2-4.8
	c-0.1-0.5,0.4-0.7,1-0.7c0.6-0.1,1.3-0.2,1.5-0.7c-1.1-0.2-1.8-0.2-2.8-0.3c0.1-1.2,0.4-2.4,0.4-3.8c0-0.9-3.6-3.9-3.2-5.2
	c0.1-0.5,2.3-2.2,1.1-2.3c-3.9-0.4-8.1-1.1-11.2-2.9c-1.6-0.9-3.6-2.8-4.1-3.2c-0.6-0.6-2.8-1.7-2.6-2.4c0.3-1,2-2.6,1.7-3.4
	c-0.8-1.9,1.2-1.8,2-2.1c0.3-0.1,2-1,1.7-1.2c-0.3-0.1-1.7,0.2-2.5,0.5c-0.6,0.3-2.3,0.9-2.1,1.5c0.6,2.4-1.3,4.8-2.4,4.9
	c-1.8,0.1-3.3,0.5-5.4,1.1c-2.1,0.6-3.2,1.9-3,1.1c0.1-0.5,2.4-6.7,7.8-9.4c4.2-2.1,8.5-3.5,12.4-4c2.6-0.3,7.5,0.2,10.1,0.8
	c6.5,1.6,12.3,5.1,13.8,11.9c0.3,1.2-0.1,3.5,0.3,4.6c0.6,1.4,2,2.1,1.8,4.1c-0.4,3.4-0.9,8.3-2.1,9.7c-1.8,2.1,0.3,1.4,0.7,1.6
	c1.3,0.5,6.5,3.9,8,6.1c0.9,1.2,1.8,3.9,0.1,6.1c-1.3,1.7-4.1,4.2-5.7,5.7c-2.7,2.7-3.2,6.5-3.3,9c-0.2,4.9,6.4,13.7,3.5,7.6
	c-0.5-1.1-1.7-3.2-2-4.4c-0.8-3.2-0.6-6.8,0.2-6.6c3.4,0.7,11,0.8,13.3,2.1c1.3,0.7,2.9,4.1,3.1,2.9C73.6,75.4,71.9,73.1,70.5,72.4z
	 M9.5,48.9c-2.7-0.2-3.8-1-3.8-3.7c1.2-0.1,3.4-0.3,3.3-1c-0.1-0.3-1.1,0-1.5,0.1c-0.6,0.1-1.2,0.1-1.7,0.2c0.1-0.4,0.5-0.5,0.9-0.7
	c0.7-0.3,1.4-0.2,2.3-0.2C9.6,45.1,9.5,46.6,9.5,48.9L9.5,48.9z M9.5,41.8c-0.3-0.6,0.7,0.4,1,0.3c0.1,0-0.1-0.2,0.1-0.4
	c0.1-0.1,0.6,0.1,1.3,0.4c-0.5,0-0.9,0.1-1.4,0.2c-0.3,0.1-0.8,0.1-0.8,0.4c1.8-0.3,6.1-1.3,5,1.9c-1.3-1.2-3.1-1.5-5.6-1.6
	C9,42.8,9,42.5,9,42.3c0-0.3,0.2-0.1,0.5,0C9.6,42.4,9.6,42.1,9.5,41.8L9.5,41.8z M12.4,41.7c0.2-0.2,0.4,0.3,0.6,0.2
	c0.3-0.1,0-0.3,0.2-0.3c0.3,0,0.2,0.1,0.4,0.5c-0.4,0-0.7-0.1-1.4,0C12.5,42,12.2,41.9,12.4,41.7L12.4,41.7z M9.9,45.9
	c0.1-0.2,0.4,0.4,0.7,0.4c1.3,0.2,2.7-0.5,3.6-0.8l0.2-0.1c-0.4,2-1.8,3.3-4.3,3.6C10.1,47.9,10,46.9,9.9,45.9z M12,44.5
	c0.8,0,1.7-0.1,2.1,0.4c-0.8,0.6-2.2,0.8-2.1,0.8C12.1,45.5,12.4,44.9,12,44.5z M9.8,44.1c0.1,0.4,0.9,0.4,0.8,0.4
	c-0.2,0.2-0.2,0.4-0.2,0.6c0,0.2,0.1,0.3,0.2,0.5c0.1,0.1-0.3-0.1-0.5-0.1c-0.3-0.7-0.7-1.1-0.8-1.9c1.6,0,2.7,0.1,3.8,0.5
	C12.1,44.1,10.7,43.7,9.8,44.1z M39.8,50.2c-0.4,1.2-0.4,2.8,0,3.3c1.4,0,1.2-1.6,2.3-1.8c0.1,1.5,0,2.7-0.2,4.3
	c-0.1,0.6,0,1.3,0.3,1.7c0.4-1.2,1-2.1,1.3-3.2c0.2-1,0.7-4.1,1.4-3.6c0.7,0.5,1-1.7,0.6-3.2c-0.1-0.4,1.7-0.1,2.3-1.3
	c1.3-0.4,2.1-1.7,3.8-1.1c1.4,0.5,2.1,2.2,1.9,4.2c-0.2,2.7-3.3,4.7-4.8,6.7c-0.6,0.8-0.9,1.9-1.5,2.6c-1.3,1.6-4.1,0.7-3.8-1.2
	c0.1-0.7,0.4-0.8,0.7-1.3c-0.5,0-1.1,0.6-1.3,1.1c-0.1,0.3-0.1,0.6,0,0.9c-1.3,2.3-2.9,5.7-4.3,8.1c-0.4,0.6-1.5,2.4-1.5,2.9
	c0,0.3,0,0.8,0.3-0.1c1.8-2,3.3-5,4.5-7.5c0.4-0.8,1.6-1.3,2-2.1c0.5,0.4,0.8,0.8,1.6,0.7c0.4-0.1,0.3,1.4-0.5,2.7
	c-1.8,3.3-2.8,6.9-3.2,10.7c-0.3,3.8-0.6,6.2-2.6,8.4c-0.6,0.6-0.7,2.2,1,1.4c0.8-0.4,0.4,1.7-0.2,2.1c-0.4,0.3-1.7,0.7-2.1,0.8
	c-1.6,0.3-3.4,0.5-5.2,0.5c-7.2-0.1-10.3-4.6-14.9-7.1c-0.6-0.4,0.8-1.7,1.2-1.7c3.1,0,6.5-0.7,8.1-1.9c0.4-0.3,0.7-1.1,0.5-1.7
	c-0.4,0.4-0.6,0.8-1,1.1c-2.2,1.7-8.4,2.6-11.4,0.8c-2.3-1.4-3.2-5.4-3.8-9.2c-0.7-3.8-1.6-7.5-1.7-10.8c-0.1-2.4,0.2-4.6,0.3-6.7
	c2.1-0.1,3.6-1.6,3.8-1.9c0.4-0.5-0.4,2.3-1,3.9c-0.6,1.4-1.5,3.1-1.3,4.7c0.1,1.3,2,2,2.3,2.1c0.8,0.1-0.9,1.7-0.4,1.7
	c0.6,0,1-0.8,1.2-1.3c0.1-0.3,0.5-0.2,0.9,0c0.4,0.1,1.4,0.2,1,0c-1.9-1.1-4.6-0.6-4.3-3.6c0.2-1.6,1.2-3,1.6-4.8
	c0.5-1.9,0.6-3.7,1.1-5.2c0.7,0,1.5-0.3,2.2-0.3c0.3,0.1,0.7,0.2,0.9,0.4c-0.4,0.5-0.6,1.2-0.4,1.8c0.4,2.2,3.4,3.8,6.2,3.9
	c2.8,0.1,5.4-1.2,5.4-3.9c3.1,1.3,7.7,0,10.9-0.5C40.7,47.6,40.1,49.1,39.8,50.2z M18.2,46.2c0.4,0.3,0.6,0.9,1.2,0.7
	c0.4-0.1-0.4-1.1-0.4-2c0.7-0.5,1.9-0.7,3.2-0.8c2.7-0.2,7.8,0.4,6.4,4c-1,2.7-6.3,2.7-8.9,0.8C19,48.4,18,47.3,18.2,46.2z
	 M11.6,29.9c1.3-1.6,8.7-3.3,9.8-2.2c7.7,7.8,15.2,7,16.7,7.8c0.7,0.3-1.6,1.2-0.7,2.4c0.7,1,2.8,3.3,3,4.1c0.3,1.5,0.2,2.5-0.2,4.1
	c-3.3,0.4-7.9,1.5-10.9,0c-0.4-1.6-3.2-2.6-6-2.6c-1.9,0-3.5,0.3-4.5,1.2c-0.2-0.1-0.4-0.2-0.6-0.3c-0.7-0.4-2.2,0.1-3.1,0.2
	c0-0.7,0.1-1-0.1-1.5c-0.2-0.4-0.4-0.7-0.7-1c-0.5-0.6-0.9-1.7-1.6-1.6c-0.2,0-0.1,0.4-0.3,0.5c-0.3,0.1-0.6-0.4-0.7-0.1
	c0,0.1,0,0.4-0.1,0.5c-0.3,0.1-1-0.3-1.6-0.4c-0.3,0-0.1,0.5-0.1,0.5c-0.2-0.1-0.7,0-0.9-0.2c0.4-3,1.4-6,2-8.8
	c0.1-0.3,0.2-0.7,0.1-0.9C11.3,31.2,11.4,30.3,11.6,29.9L11.6,29.9z"/>
<path d="M46.6,55.2l-0.3-0.3c-0.3-0.8-0.1-2.8,0.7-3.6c0.3-0.3,0.7-0.4,1-0.3l0.1,0l0,0.1c0.1,0.3,0.1,0.6,0,0.9l0,0.1H48l-0.2,0
	c-0.3,0-0.6,0-0.9,0c-0.3,0.8,0.1,1.5,0.2,2.1c0.8-0.4,2.4-1.7,2.7-2.3c0.4-0.9,0.7-2.1,0.1-2.8c-0.3-0.4-0.5-0.7-1-0.6l-0.3-0.1
	c0.7-0.1,1.5,0,1.9,0.4c0.7,0.8,0.4,2.4,0,3.3c-0.3,0.7-3,2.8-3.7,3L46.6,55.2z"/>
<path d="M30.4,93.5c-4.1,0-6.9-2.6-9.9-5.4c-0.4-0.4-3.6-3.1-2.8-3.4s3.9,3.5,4.6,4.1c2.6,2.3,5.2,3,8.6,3c1,0,5-0.8,4.9,0
	C35.8,92.5,30.9,93.5,30.4,93.5z"/>
<path d="M202.2,41l-0.2,0l0,0L202.2,41z"/>
<path d="M202.2,40.9"/>
<path d="M202.2,41L202.2,41L202.2,41z"/>
<path d="M238,68.3L238,68.3C237.6,68.2,237.9,68.3,238,68.3z"/>
<path d="M202,41L202,41l-0.4,0.1L202,41z"/>
<path d="M224.4,61.9c-0.8-0.5-2.2-0.8-2.2-1.7c0-1,1.5-2.6,2-3.6c1.1-2.6,1.7-5.7,2.1-8.5c0.7,0.5-0.3,3.8-0.5,4.7
	c-0.2,0.9-0.6,2.8-0.9,3.8c-0.1,0.4-0.4,0.7-0.4,1c0,0.6,0.9,1.5,1.4,1.8c0.4,0.2,2.3-3,2.1-3.5c-0.4-1.6-0.7-5.1-0.6-7.3
	c0-0.6,1.2-0.6,1.3-2.8c0.1-1.8,0.2-4.2,1.8-4.9c1.9-0.9,1.9-1.8,3.3-2.3c0.6-0.2,1.8-0.1,2.3-0.2c1.4-0.1,0.1-1.4-0.9-2.4
	c-0.6-0.6-1.5-1.7-1.2-2.2c0.4-0.6,1.5,0.2,1.3-0.9c-0.1-0.7-2-2.4-2.4-3.2c-2.2-4.2-2.4-9-4.3-13.3c-1.5-3.4-5.4-7.2-9.4-7.4
	c-1,0-2.1,0.4-3,0.5c-1.1,0.2-2.3-0.4-2.7-0.6c-2.6-1.1-5.5-1.5-8.4-1.1c-4.7,0.7-8.8,3.6-11.6,7.4c-2.5,3.4-4.3,8-5.9,11.9
	c-1.3,3.2-2.6,8.1-1.8,11.5c0.3,1.1,1.1,2,1.3,3c0.1,0.8,0,1.7,0.1,2.5c0.3,2.5,1.9,4.3,2.1,6.8c0.1,0.9,0,3.5,0.9,2.6
	c1.7-1.6,0.9-6.5,2.7-8.2c-0.1,1.1,0.4,2,0.4,2.9c0.1,1.1-0.8,4.6-1.1,5.5c-0.1,0.3-0.3,0.4-0.2,0.6c0.1,0.9,1.1,2.3,1.4,2.8
	c0.2,0.3,1.8-1.1,1.8-1.4c-0.1-1-1.7-7.1-0.6-7.7c0.5,2,0.5,4.1,0.9,6.2c0.1,0.9,0.4,1.9,0.7,2.8c0.1,0.3,1.2,1.9,1.1,2.1
	c-0.2,0.7-2.2,0.8-3,1.1c-1.5,0.4-2.9,1.2-4.4,1.5c-0.9,0.2-6,1.9-5.5,2.9c0.2,0.5,2.8-1.1,3.6-1.3c-0.4,3.1,0.7,3.5,0.6,6.6
	c0,2.3,1.9-1.1,1.1-5.6c-0.3-1.8-0.1-1.9,1.7-2.6c1.9-0.7,3.9-0.9,5.9-1.1c-0.1,1.2-0.4,2.4-0.7,3.5c-0.1,0.3-1.6,1.8-0.8,1.9
	c1.2,0.1,2.8-5,2.8-5.8c1.6,1.9,2.8,3.1,4.4,4.9c1.5,1.6,2.8,2.7,5.1,3.1c5,0.8,9.3-3.1,13.1-6.9c0,0.5,1.2,5.5,2.2,5
	c0.3-0.1-1-3.8-1-4.5c1.4,0.6,2.5,1,3.8,1.8c1,0.6,2.3,1.1,3.3,1.8c1.2,0.7,1-0.4-0.2-0.6C227.5,64.1,226,63,224.4,61.9z
	 M226.9,49.7c-0.1,2.8,0.5,5.9,0.4,6.2c-0.2,0.3-1.4,0.7-1.8,0.9C225.8,55.2,226.7,50.3,226.9,49.7z M227.5,56.4
	c-0.5,0.9-1,1.7-1.6,2.4c-0.1-0.1-0.6-0.9-0.9-1.1C225.7,57.2,226.8,56.8,227.5,56.4L227.5,56.4z M191.4,45.4
	c-0.3,1.6-0.7,6.3-1.2,4.7c-0.4-1.3-2-3.8-2.1-6.9c-0.1-1.3,0.1-2.3-0.5-3.5c-0.8-1.7-1.3-3.1-1.1-4.9c0.8-6,3.4-10.9,6.1-16.3
	c3.2-6.4,10-10.8,17.3-9.5c1.6,0.3,3.7,0.3,5,1.4c0.3,0.3,0,1.2,0.8,0.9c0.1,0,1-0.8,1.2-1c2.7-1.7,5.9,0.8,7.9,2.5
	c6.1,5.2,3.8,15.6,9,19.3c1.6,1.2-4.2,0.3,0.7,4.6c1,0.9-0.8,0.5-1.7,1.2c-0.8,0.6-1.5,2.3-2.7,1.5c-0.6-0.4-0.4-1.1-1.3-1.3
	c-1-0.2-1,1.4-1.5,0.9c-0.8-0.9,0.2-1.4-0.1-3c-0.2-1-0.9-1.6-1.4-2.4c-1.6-2.3-0.9-5.5-2-8c-0.7-1.6-3.2-3.8-3.9-5.4
	c-0.3-0.7-0.4,1.6-0.7,1.9c-0.3,0.5-0.8,0.9-1.2,1.2c-0.9,0.7-1.8,1.3-2.8,1.8c-4.9,2.9-11.6,1.7-14.9,7c-2.7,4.3-1,9.9-1.7,11.2
	c-0.4,0.7-0.2-0.6-0.5-1.9c-0.2-1.2-0.4-3.1-0.4-4.3c-0.1-1.2-0.3-2-0.9-0.5c-0.8,1.9-0.6,3.9-1.8,5.7
	C193.8,43.9,191.8,42.9,191.4,45.4L191.4,45.4z M202,41L202,41c0.9-0.2,1.6-1.2,1.1-2c0.9-0.1,2.1,1.5,1.6,1.6
	c-1,0.2-1.7,0.5-2.8,0.6c-0.5,0-1.4,0-1.9-0.3c-0.9-0.5-0.7-0.7-0.7-1.8c0.3,0,0.7,0,1,0C200.1,40.1,201,41.2,202,41L202,41z
	 M193.5,56.7c-0.3-0.4-0.7-1.3-0.9-2c0.7,0.3,1.4,0.6,2,1.1C194.3,56.1,193.8,56.4,193.5,56.7L193.5,56.7z M194.6,55.2
	c-0.5-0.3-1.5-0.9-2-1c0.1-0.9,0.9-3.9,1.2-5.4C193.9,50.5,194.2,53.5,194.6,55.2L194.6,55.2z M218.6,62.6c-2.7,2.1-6.2,5.6-9.9,5.2
	c-3.1-0.3-4.2-2.3-6.3-4.4c-2.8-2.9-5.8-5.3-6.4-9.4c-0.3-1.9,0-3.8-0.4-5.7c-0.1-0.3-0.3-2.8-0.9-2.6c-0.6,0.2,0,1.5-0.4,1.8
	c0-0.2-0.2-1.1-0.6-0.6c-0.1-0.5-0.3-1.7,0-2.2c0.2-0.5,1.3-0.9,1.7-1.3c1.2-1.4,1.9-4.8,2.1-3c0.1,1.2,0.4,3.3,0.3,5
	c-0.1,0.9-0.3,4.7,0.9,2.1c0.9-2,0.9-4.1,0.8-6.2c1.1,0.4,7.5,0.4,6-1.6c0.1,0.2,0.9,0.4,0.7-0.1c-0.2-0.6-0.8-1-1.3-1.2
	c-1.5-0.6-3.8,0-5.4,0c0-1,0.5-1.3,2-1.1c0.9,0.2,1.4,0.5,2.3,0.4c0.7-0.1,0.8-0.6,1.3,0.2c0.2,0.3,0.3,0.6,0.7,0.6
	c1,0-0.3-1.9-1.1-1.9c-0.5,0-1,0.2-1.4,0.4c-0.4,0.2-0.9,0.2-1.2-0.1c-0.9-0.5-1.4-0.8-2.5-0.3c1.9-10.9,15.2-6.2,20.5-13.6
	c2,2.2,3.1,3.2,3.6,6.2c0.3,2.3,0.8,3.6,1.9,5.4c0.5,0.8,0.8,1.8,0.8,2.8c0,0.7-0.8,3.6,0,4.1c1.2,0.9,1.5-2.7,2.4-2.5
	c1,0.2,0.1,2.5-0.1,3.3c-0.4,1.4,0,3.7-0.9,4.8c-0.3-0.8-0.8,0.2-0.9,0.4c-0.8-0.3,0.7-5-0.6-3c-1,1.6-0.8,4.9-1.2,6.8
	C223.8,56.4,220.2,61.3,218.6,62.6L218.6,62.6z"/>
<path d="M238,68.3L238,68.3C238,68.3,238,68.3,238,68.3z"/>
<path d="M201.6,41.1"/>
<path d="M201.6,41.1L201.6,41.1z"/>
<path d="M223.7,39.6c1.1,0-1.4-2-1.5-2.1c-1.1-0.7-2.5-1-3.8-0.8c-1.2,0.1-2.2,0.7-3.4,0.6c-0.9-0.1-1.8-0.9-2.7,0
	c-0.3,0.3-0.5,1.1-0.3,1.4c0.4,0.6,1-0.6,1.3-0.7c0.4-0.2,1.4,0.4,2,0.4c0.4,0,1.1-0.4,1.4-0.6c1.3-0.4,2.7-0.4,4,0
	C221.7,38,223.1,39.6,223.7,39.6z"/>
<path d="M207.7,42.5c0.4-0.9-0.1-2.5-0.4-2.2c-0.3,0.2,0.2,1-0.1,2.1c-0.1,0.4-0.3,1.6,0.1,2.1C207.6,45,207.3,43.4,207.7,42.5z"/>
<path d="M222,40c-2.2,0-3.6-2-6-1.6c-0.8,0.1-2,0.5-2.5,1.1c-0.2,0.2-1,1.2,0.2,0.6c-1.5,1.5,4.3,2.2,5.3,2c1.1-0.2,1.7-1.1,2.2-1.3
	C221.4,40.9,223.1,40,222,40z M220.4,40.3c0.9,0.5-2,1.4-2.3,1.4c-1.2,0-2.5-0.1-3.6-0.7c-0.6-0.3,0.6-1.7,1.5-1.8
	c-1.6,2.3,4.2,3.2,3,0.3C219.4,39.6,219.9,40,220.4,40.3L220.4,40.3z"/>
<path d="M215.5,55.8c-0.3-0.3-0.8,0.2-1.3,0.2c-0.9,0-2-0.5-2.9-0.4c-0.7,0-1.5,0.3-2.1,0.3c-0.6,0-1.4-0.3-2.1-0.3
	c-0.9,0-1.6,0.5-2.5,0.5c-0.7,0-1-0.7-1.6-0.3c-0.9,0.5,0.4,0.3,0.5,0.4c0.4,0.2,0.8,1.5,1.2,2c0.3,0.4,0.8,0.7,1.2,0.9
	c1.2,0.5,2.5,0.6,3.8,0.6c1,0,2.2-0.1,3-0.7c0.7-0.5,1-1.8,1.8-2.3C215.5,55.9,216.4,56.5,215.5,55.8z M209.4,56.5
	c0.6-0.1,1.5-0.4,2-0.5c0.7-0.1,1.3,0.3,2,0.4c-2.5,1.1-5.4,0.8-8.4-0.1c0.3-0.1,1.4-0.2,1.8-0.3C207.5,56,208.2,56.7,209.4,56.5
	L209.4,56.5z M211.9,58.6c-1,0.5-2.8,0.6-4.4,0.3c-1.4-0.2-1.9-0.7-2.6-1.9c1.2,0.6,2.3,0.6,4.2,0.6s3.3,0.1,4.1-0.3
	C212.8,57.8,212.5,58.3,211.9,58.6C211.5,58.8,212.3,58.4,211.9,58.6L211.9,58.6z"/>
<path d="M203.3,72.6c-0.1-0.4-0.7-3.1-1.6-2.6c-0.6,0.3,0.7,1.4,0.9,1.9c0.2,0.7,0.1,2.6,1,2.9C204.4,75.3,203.3,72.9,203.3,72.6
	C203.2,71.7,203.4,73.3,203.3,72.6z"/>
<path d="M215.9,70.9c-1,0.8-1.1,1.6-1.5,2.7c-0.2,0.4-1.5,2-0.5,2c0.8,0,1.2-2.4,1.5-2.9c0.1-0.3,1-1.2,1-1.3
	C216.3,71.2,216.3,70.6,215.9,70.9C214.9,71.7,216,70.8,215.9,70.9z"/>
<path d="M206.4,50.8c-0.3,0.1-0.3,0.5-0.2,0.8c-1.2-0.4-1.2-1.3-1-2.2c0.2-1.2,0.8-0.5,0.7-1.2c-0.1-0.9-0.9,0-1.1,0.8
	c-0.3,1.3-0.5,2.6,1.1,3.1c0.5,0.1,1-0.2,1.4-0.1c0.7,0.1,0.9,0.8,1.8,0.8c0.7,0,1-0.5,1.6-0.7c0.4-0.1,0.9,0,1.4-0.1
	c1.6-0.3,1.8-1.2,1.5-2.6c-0.1-0.5-0.9-2.5-1.1-1.4c-0.2,0.6,0.5,0.4,0.7,1.6c0.2,1,0.2,1.8-0.9,1.9c0.7-0.8-0.9-0.7-1.1-0.6
	c-0.6,0.2-0.6,0.9-1.5,1.1C207.9,52.5,207.6,50.5,206.4,50.8L206.4,50.8z"/>
<path d="M165.3,84.4c-0.9,0-1.9-0.6-2.5-1.1c-0.4-0.3-2.1-1.4-2.2-1.9c-0.2-0.9,1.2,0.1,1.4,0.2c1.2,0.8,1.2,1,2.4,1.7
	c0.6,0.2,2-2.4,4.4-2.7c1.5-0.1,2.9,0.3,4.4,0.2c0.3,0,2,0,0.7,0.4c-2,0.7-4.6-0.9-6.4,0.4C166.7,82.3,165.8,84.4,165.3,84.4z"/>
<path d="M158.7,64.9c-0.7,0,0.8-0.5,0.8-0.6c0,0,2-0.3,2.2-0.3C163.8,63.9,159,64.9,158.7,64.9z"/>
<path d="M159.4,40.3c-1.2,0,1.6-2,1.9-2.1c0.8-0.3,4.8,0.3,5.8,0.7c0.9,0.4-3-0.2-3.5-0.2c-0.8-0.1-1.6,0.2-2.3,0.5
	C160.9,39.4,159.9,40.3,159.4,40.3z"/>
<path d="M143.1,44.9c-1.1,0,2-2.3,2.3-2.4c0.8-0.4,4.4-2.2,4.7-0.3c0.1,0.4-2.1-0.1-2.8,0.2c-0.9,0.3-1.7,0.7-2.5,1.3
	C144.4,43.9,143.5,44.9,143.1,44.9z"/>
<path d="M166.3,41.5c-0.3-1.2-4.8-0.5-5.9,0.3c-0.8,0.5-2.5,2.3-1.6,1.8c0.4-0.2,0.5,0.1,0.4,0.3c-0.2,0.3,0.5,0.5,1.1,0.4
	c1.8-0.5,4.4-0.2,5.1-1.9c0-0.1,0-0.2,0-0.4C166.2,42,166.5,42.1,166.3,41.5z M161.4,42.1c0.1,0.9,0.6,1.3,1.2,1.3
	c-0.8,0.1-2.1,0.2-2.7,0.3c-0.1-0.2,0.1-0.9,0.4-1.1C160.6,42.4,160.9,42.1,161.4,42.1z M164.1,43c-0.3,0.2-0.7,0.3-1.1,0.3
	c0.6-0.2,1.2-0.8,0.8-1.5c0.3,0,0.7,0.1,1.1,0.1C164.6,42.3,164.3,42.9,164.1,43L164.1,43z"/>
<path d="M157.9,49.4c-0.4-0.8-0.6-2.1-1.2-3.3c-0.5-1-0.7-2-0.8-3.1c-0.1-0.4-0.3-0.3,0.8-1.1c0.8-0.6,0,0.8,0,1
	c-0.2,0.7,0.1,1.7,0.4,2.6C157.8,47,158.7,50.9,157.9,49.4z"/>
<path d="M151.5,44.9c0.5,0,1.1-0.5,0.7-0.5c-0.7,0-2.7-0.5-3.6-0.3c-0.7,0.1-2,0.6-2.6,0.9c-0.6,0.3-2,1.6-0.4,2
	c0.2,0,0.2,0,0.5-0.3c0.2,0.7,0.6,0.8,2,0.6c0.9-0.2,3.2-0.5,4.3-1.6C152.5,45.4,151.9,45,151.5,44.9z M148,46.8
	c-1.8,0.2-1.1-0.1-1.5-0.6c0.2-0.2,1-0.9,1.2-1c-0.6,2.9,3.5,0.6,2-0.5c0.2,0,0.5,0,0.8,0c-0.1,0.1,0.1,0.4,0.8,0.8
	C150.5,46.1,149,46.7,148,46.8L148,46.8z"/>
<path d="M167.2,55c-0.6,0.1-1.3,0.1-1.9,0.3c-0.9-0.1-2.9,1.1-5.8,1.7c-0.2,0-0.5,0.6-0.7,0.6c-0.1,0-0.6-0.2-0.8-0.2
	c-1.8,0.3-4.2,0.9-5.4,1.6c-0.8,0.5,0.2,0.4,0.5,0.7c0.3,0.2,0.9,0.4,1.2,0.7c0.1,0.2,0.3,0.4,0.5,0.5c1.1,1.1,2.2,2.4,3.9,2.1
	c3.3-0.6,4.7-0.6,6.3-3.3c0.3-0.4,1.2-2,1.5-2.5C167.2,56,168.8,54.8,167.2,55z M163.1,60.9c-1.1,0.9-3,1.4-4.3,1.5
	c-0.8,0-1.6,0.1-2.3-0.3c-0.3-0.2-0.6-0.6-0.8-0.9c0.8,0.3,1.5,0.6,1.7,0.6c2.4,0,4.7-0.8,6.7-2.1C163.9,60.1,163.6,60.5,163.1,60.9
	z M161.8,60c-1.3,0.4-3.1,1.1-4.4,1c-1.5-0.1-2.5-1.4-4-1.7c-0.4-0.1,3.2-0.5,4.8-0.7c1.4-0.2,2.8-0.7,4.1-1.3
	c1.4-0.6,3.1-1.6,4.6-1.6C165.3,57.5,164.2,59.3,161.8,60z"/>
<path d="M169.4,58.2c-0.6,1.5-0.5-2.8-0.1-3.8c0.2-0.4,0.1-1.6-0.6-1.6c-0.5,0.1-0.2-0.4,0.4-0.6c1-0.3,0.7,1.8,0.4,2.4
	S169.7,57.1,169.4,58.2z"/>
<path d="M193.7,76c-0.6-0.9-2-1-3-0.6c-0.8-0.2-2.2-0.5-2.3-0.5c-1.1-0.3-2.2-0.3-3.3-0.6c-1.1-0.3-5.2-2-6.8-1.9c0,0,0,0,0,0
	c0.1-0.1,0.6-0.4,0.7-0.6c0.2-0.3,0.2-0.9,0.2-1.3c0-1.5-0.6-2.8-0.5-4.3c0.3-2.9,1.6-6,2-8.9c0.4-3,0.8-6.3,0.6-9.3
	c-0.5-9.6-7.5-17.4-12.8-24.9c-1.3-1.8-2.7-3.6-4.6-4.7c-0.3-0.2-3.4-2.3-4.2-1.8c0.3-5.1-6.6-4.9-10.2-3.6
	c-11.8,4.2-17.6,18.8-21.3,29.5c-2.1,6.1-5,13.1-3.9,19.6c0.3,1.8,2.2,3.5,2.8,5.2c0.6,1.6,0.6,3.3,0.4,5c-0.1,0.6-1.2,5.3-0.9,7.1
	c-0.7,0.4-1.4,0.8-2.1,1.3c-0.2,0.1-1.4,1.1-0.9,1.5s0.7-0.5,1-0.7c1.4-0.9,2.9-1.5,4.4-2.3c0.1,0.6-0.7,3.5-0.4,3.5
	c1,0,1.5-3.3,0.9-3.9c-0.4-0.4-1.4-0.2-2.3,0.2c0.3-2,1.9-6.5,2-7.2c0.3-4-3-6.7-3.4-10.4c-0.8-7.3,2.3-14.9,4.6-21.6
	c1.9-5.5,3.8-11,7.2-15.8c3.3-4.7,8.3-9.4,14.2-10.1c2.1-0.3,5.8-0.2,7,2c0.6,1.1-0.4,2.4,0,3.4c0.5,1.1,0.2-0.5,2.4-0.5
	c0.9,0,2.3,0.7,3,1.2c1.8,1.3,3.3,2.6,4.5,4.5c5.5,8.2,11.4,15.9,11.3,26.3c-0.1,2.8-0.3,5.7-0.7,8.5c-0.4,2.5-1.4,5.2-1.4,7.7
	c0,1.2,0.6,2.4,0.6,3.6c0,1.7-1.4,0.1-1.7,0.7c-0.4,0.8,0.3,7.1,1.8,7.1c0.7,0-0.4-2.5-0.4-2.7c-0.3-1-0.3-1.8-0.2-2.6
	c0.6,0.2,1.7,0.4,1.8,0.4c1.1,0.4,2.4,0.6,3.5,1c1.8,0.5,4.5,1.4,6.5,1.4c-1,1-1.5,2.8-2.2,4c-1.6,2.8-4.2,4.5-6.9,6.2
	c-3.3,2-6.7,3.9-10.4,5.2c-1.8,0.6-3.6,1-5.5,1.3c-0.5,0.1-2.7-0.1-2.9,0.2c-0.1,0.1-0.7,0.7,0,0.7c7.7,0,14.8-3.8,21.1-7.9
	c2.6-1.7,4.5-3.8,5.9-6.6c0.5-1.1,1.1-2.9,2.5-3C191.7,75.8,194.6,77.2,193.7,76z"/>
<path d="M151.4,64.5c2.5,2.4,5.2,6.1,9,6.1c3.2,0,5.6-2.6,7.5-4.9c0.4-0.5,2.3-2.4,2.3-0.6c0,0.6,0.9,5.6,1.2,4.1
	c0.1-0.4,0.1-3.4,0.1-4.7c0-0.5,0.3-3.9,0.9-4.9c0.8-1.2,1-2.1,1.2-3.6c0.2-1.4,0.3-2.6,0.4-4c0-0.4-0.1-2.1-0.2-2.7
	c0.2-0.4,0.4-0.7,0.5-0.9c0.6-0.9,0.9-1.6,0.7-2.8c-0.2-0.9-0.5-3.2-1.5-3.4c-1-0.2-2.3-0.3-2.6-3.2c-0.3-3.1-3.6-3.9-5.5-6.2
	c-1.7-1.9-2.2-4.2-2.9-6.6c-0.2-0.8,0-2.2-0.7-2.7c-0.4-0.3-2.5-0.5-2.2,0c0.5,0.8,0.6,1.6-1.7,1.4c-0.8-0.1-1.6-0.3-2.4-0.2
	c-1.6,0.2-3,1-4.6,1.6c-2.4,0.9-5.1,0.8-7.3,2.1c-2.5,1.5-4,4.5-4.1,7.3c-0.2,3.6,1.6,6.4,2.8,9.6c0.3,0.9,2,11.1,2.2,11.6
	c0.9,1.9,2.7,4.4,4.1,5.8c0.6,0.7,0.5,4.5,0.6,5c0.2,1.7,0.6,3.5,0.9,5.3c0.5,2.4,2.1,4.2,3.5,6.3c1.4,2.2,3,4.4,4,6.9
	c0.6,1.4,1,2.8,1.2,4.3c0.1,0.7,0.3,5.1,0.8,5.1c1.1,0-0.7-7.7-1.1-8.8c-0.9-2.5-2.3-4.7-3.7-6.9c-1.3-2-2.6-4-3.3-6.3
	c-0.4-1.5-0.7-3.1-0.6-4.7c0-0.5,0.5-3.2,0.5-4.4L151.4,64.5z M146.5,57.8c-0.2-0.4-1.1-2.3-1.4-3.1c-0.9-2.4-1.8-8.8-2.1-9.6
	c-1.4-3.7-2.7-6.8-1.9-10.9c0.5-2.7,1.9-4.3,4.6-5.2c1.3-0.5,3.2-0.5,4.5-0.8c1.6-0.4,3-1.5,4.5-2c1.7-0.6,2.3-0.7,4-0.5
	c0.3,0,2.1,0.4,2.9,0.2c0.3,0.8,0.7,1.8,0.9,2.6c0.4,1.4,1,2.7,1.8,3.9c1.6,2.2,4.3,3.4,5.4,5.9c0.4,0.9,0.8,7,1.1,7
	c0.5,0,0.6-1,0.6-2.2c0.6,0.3,1.8,0.4,2.1,0.7c0.6,0.5,1,1.8,1,2.6c0,0.6-2.8,4.5-1.8,4.5c0.1,0,0.2-0.2,0.4-0.4
	c-0.2,2.4-0.2,6.6-0.4,7.3c-0.5,1.3-1.2,2.4-2.1,3.4c-0.1,0.1-0.9,1.1-1.2,1.7c-0.6,0.6-1.1,1.2-1.5,1.9c-1.6,2-3.6,4.4-6.2,5
	c-3.4,0.8-6.1-2.1-8.3-4.3C150.8,62.9,148.1,60.9,146.5,57.8z"/>
<path d="M153.7,53.1c-0.5,2.2,1,2.6,1.8,2.4c1.3-0.3,2.2,1.1,3.5,0c0.4-0.4,0.6-1,1.1-1.4s1.3-0.5,1.7-0.9c0.8-0.6,0.7-2.3-0.5-2.7
	c-1-0.3-1.4,0.5-0.8,0.3c0.6-0.2,1.5,0.5,1,1.7c-0.3,0.6-1.3,0.5-1.9,0.8c-0.6,0.4-0.4,1.2-0.9,1.6c-1.1,1-1.8-0.1-3-0.3
	c-0.5-0.1-1.3,0.3-1.6-0.2C154.2,54.4,154,52.4,153.7,53.1z"/>
<path d="M333.4,60.9c0.2-0.2-3.6-2.3-4-2.5c-3.8-2.3-4.4-0.5-5.4-0.4c-1,0.1-2.3-0.8-3.5,0.9c-0.3,0.4-1.5,2.5-1.6,2.5
	c0.9-0.2,1.9-2.1,2.8-2.6c1.3-0.7,1.8,0.2,2.8-0.3c0.8-0.4,2.2-1.3,5,0.8c0.2,0.2,3.2,1.5,2.6,1.5c-0.2,0-2,0.1-2.6,0.3
	c-1.5,0.5-2.6,1.3-4.3,1.3c-0.9,0-1.8-0.2-2.6-0.7c-0.1-0.1,0.5-0.6,1.6-0.8c0.2,0,0.6,0.1,0.8,0c0.4,0,0.8-0.2,1.1-0.1
	c1.5,0.3,1.8,0.1,1.8,0c0-0.1-1.8-0.7-1.9-0.7c-0.4-0.1-0.9,0.3-1.1,0.4c-0.3,0-0.6-0.4-1.3-0.2c-0.2,0.1-1.7,0.9-2.5,0.9
	c-0.4,0-2.7,0.4-2.7,0.5c0,0,0.5,0.2,0.5,0.2c0.1-0.1,2.6,2.8,2.8,3.2c1,1.9,2.7,1.5,4.4,1.5c1.7,0,3-0.9,4.1-2.1
	C330.6,64.1,333.2,61,333.4,60.9z M329.4,64.5c-1.1,1.1-2.1,1.2-3.7,1.2c-1.4,0-2.7,0.4-3.3-0.7c-0.4-0.7-2.2-2.6-2.5-2.8
	c-0.3-0.3,1.3-0.2,1.4-0.2c1.1,0.5,2.2,1.2,3.7,1.2c1.9,0,2.9-1.2,4.6-1.6c0.7-0.2,1.8-0.3,2.1-0.3
	C332.3,61.5,329.8,64.1,329.4,64.5L329.4,64.5z"/>
<path d="M321,55.7c0.2,0,1.4-0.1,1.3-0.3c0-0.1-1.2-0.1-1.4-0.2c-0.6-0.1-1-0.9-1.2-1.4c-0.5-1.2,0.2-2,0.9-3.4
	c0.6-1.1,0.8-2.3,1.1-3.5c0.1-0.5,0.1-2.9-0.3-3c-0.1,0-0.1,2.2-0.1,2.6c-0.2,1.1-0.6,2.2-1.1,3.3c-0.6,1.3-1.6,2.4-1.2,3.9
	C319.3,54.4,320.2,55.8,321,55.7z"/>
<path d="M320.9,54.6c0.1,0.3,0.2-0.1,0.5-0.1c0.5-0.1,2.2,0.6,2.7,0.6s0.7-0.5,1-0.8c0.4-0.3,0.8-0.5,1.2-0.6c0.2,0-0.1,0.1-0.1,0.1
	c0,0.2,1.5,0,1.4-0.3c-0.2-0.9-2.3-0.2-2.8,0.2c-0.3,0.2-0.4,0.7-0.7,0.8C323,54.9,320.5,52.6,320.9,54.6z"/>
<path d="M327.8,53.3c-0.1,0.1,0.2,0.3,0.4,0.2c0.4,0,0.7-0.1,1-0.4c0.3-0.3,0.4-0.7,0.5-1c0-0.4-0.2-0.8-0.5-1.1
	c-0.1-0.1-0.2-0.1-0.2,0c0,0.1,0,0,0.2,0.2s0.2,0.5,0.2,0.9c0,0.3-0.2,0.7-0.4,0.9c-0.2,0.2-0.4,0.3-0.7,0.4
	C328.1,53.4,327.9,53.3,327.8,53.3z"/>
<path d="M328.1,49.6c0.7,0.7,2.6,1.6,2,3.5c-0.4,1.1-2.2,1.2-2.9,1.1c-0.3,0,0.4,0.2,0.9,0.2c1.2,0,2-0.2,2.3-0.7
	c0.5-0.9,0.5-1.9-0.1-2.7c-0.3-0.5-1.5-1.1-2-1.7C327.2,47.9,327.9,49.3,328.1,49.6z"/>
<path d="M318.1,35c-0.5,0.4-1.4,0.5-2.2,0.3c-1.9-0.4-3.3,0.3-3.7,0.8c-0.2,0.2-1.6,1.4-1.3,1.6c0.1,0,1.4-0.8,1.5-0.8
	c0.4-0.2,0.9-0.9,3.2-0.4c0.8,0.2,1.8-0.6,2.8-0.4c0.4,0.1,1,1.3,1.4,0.8C320.3,36.2,319.3,33.9,318.1,35z"/>
<path d="M335.4,43.2L335.4,43.2L335.4,43.2L335.4,43.2z"/>
<path d="M339.1,77.8c0-0.1-0.1-0.1-0.2-0.1l0,0c-0.3-0.1-0.9,0.6-1,0.7c-0.3,0-0.5,0-0.7,0.2c-0.1,0.1-0.2,0.3-0.2,0.6
	c-0.2,0-0.4,0.2-0.6,0.3c-0.2-0.1-0.3-0.1-0.5,0c-0.2,0.1-0.3,0.3-0.4,0.6c-0.4,0.1-0.8,0.4-1.1,0.6c-0.6-0.2-1.1-0.1-1.5,0.4
	l-0.1,0c-0.3,0-0.7,0.1-1,0.2c-0.6-0.3-1-0.2-1.5,0.1c-0.6-0.2-0.8-0.2-1.4-0.1c-0.4-0.4-0.8-0.4-1.1-0.1c-0.4-0.2-0.8-0.3-1.2-0.3
	c-0.2-0.2-0.6-0.3-0.9-0.2c-0.3-0.2-0.6-0.2-0.9-0.3l-0.1,0c-0.4-0.4-0.6-0.7-1.3-0.7c-0.4-0.4-0.9-0.7-1.3-0.9
	c-0.3-0.6-0.5-1.1-1.2-1.3c-0.1-0.1-0.2-0.2-0.2-0.3c-0.1-0.2-0.3-0.5-0.5-0.6c-0.1-0.6-0.3-0.9-0.8-1.1c-0.1-0.1-0.1-0.3-0.2-0.4
	c-0.1-0.2-0.2-0.4-0.3-0.7c0.1-0.4,0-0.5-0.1-0.6c-0.1,0-0.2,0-0.3,0c-0.1,0.1-0.1,0.3,0,0.6c-0.1,0.5,0.1,1,0.6,1.3
	c0.2,0.4,0.4,0.8,0.8,1.1v0.1c0,0.6,0.1,0.9,0.9,1c0.3,0.5,0.6,0.9,1.2,1.2c0.3,0.8,0.8,1.1,1.5,1.1c0.4,0.3,0.7,0.5,1.2,0.6
	c0.4,0.4,0.6,0.6,1.1,0.4c0.2,0.2,0.5,0.2,0.8,0.2l0.1,0.1c0.4,0.3,0.8,0.6,1.2,0.3c0.3,0.1,0.7,0.2,1,0.1c0.3,0.2,0.6,0.4,0.9,0.4
	c0.2,0,0.5-0.1,0.7-0.3c0.6,0.2,0.9,0.2,1.4-0.1c0.6,0.3,0.9,0.2,1.3-0.3l0.1,0c0.5,0,1-0.1,1.4-0.4c0.4,0.1,0.6,0.1,0.8,0
	c0.2-0.1,0.4-0.4,0.5-0.8c0.3-0.1,0.5-0.2,0.7-0.4c0.3,0.1,0.5,0.1,0.6,0c0.2-0.1,0.2-0.3,0.2-0.5c0.3-0.1,0.5-0.3,0.6-0.5l0.1-0.1
	l0.1,0c0.3,0,0.5,0,0.7-0.2C339,78.4,339.2,78,339.1,77.8z"/>
<path d="M357.6,80L357.6,80L357.6,80L357.6,80z"/>
<path d="M298.3,67.6c0.1,0,0.1-0.1,0.2-0.1C298.4,67.5,298.4,67.5,298.3,67.6z"/>
<path d="M342.6,43.3L342.6,43.3L342.6,43.3L342.6,43.3z"/>
<path d="M302.8,56.8C302.8,56.8,302.8,56.8,302.8,56.8C302.8,56.8,302.7,56.9,302.8,56.8L302.8,56.8z"/>
<path d="M343.9,11.5C343.9,11.5,344,11.5,343.9,11.5C344,11.5,343.9,11.5,343.9,11.5z"/>
<path d="M366.1,39.8c-0.5-0.5-0.8-1.1-1.1-1.7c-0.2-0.3-1.1-0.6-1.4-0.9c-0.3-0.4,0.5-1.7-0.2-2.5c-0.2-0.3-0.9,0.2-1.2-0.1
	c-0.4-0.5,0.1-0.9,0.1-1.3c0.1-1.5,0-1.5-1.5-1.7c-0.9-0.1-1.6-0.1-1.4-1.4c0.1-0.8,0.9-1.1,0.5-1.9c-0.3-0.5-2.5-0.2-2.6-1.6
	c0-0.6-1-0.8-1.1-0.9c-0.4-0.7,0.1-0.7,0.1-1.2c-0.2-1.9-0.9-0.7-2.1-1.2c-0.6-0.3-0.7-0.8-0.8-1.3c-0.1-0.5-0.8-0.1-1.1-0.1
	s-0.2-0.7-0.4-0.9c-0.2-0.3-0.9-0.5-1-0.7c-0.2-0.3,0.2-0.6-0.1-1c-0.4-0.3-0.9-0.3-1.2-0.5c-0.6-0.5,0.3-0.6,0-1
	c-0.2-0.3-0.6-0.8-0.9-1.1c-0.5-0.6,0.7-1,0.2-1.9c-0.4-0.8-3.1-1.4-3.2-2.2s-1.3-1.2-1.9-1.2c-0.6,0-1.1,0-1.5-0.4
	c-0.4-0.3-0.1-0.6-0.3-1c-0.6-1.3-2.4-1.5-3.5-1.1c-0.3-0.1-0.7-0.2-0.9-0.5c-0.7-0.1-1.4,0.3-2,0.3c-0.5-0.1-1-0.5-1.6-0.4
	c-0.2,0.3-0.4,0.5-0.7,0.7c-0.4,0.1-0.7-0.1-0.9-0.4c-1-0.2-1.6-0.7-2.4,0.3c-1.8-2-3.7,0.2-5,1.6c-0.5,0.5-2,1.7-2.1,2.5
	c-0.2,0.7,0.3,1.4,0.3,2.1c0,0.7-0.5,1.7-0.4,2.4c0.2,0.9,0.5,0.5,1.2,1.2c0.6,0.5,0.1,1.7,0.5,2.3c0.4,0.5,1.8,0.3,1.4,0.6
	c-0.8,0.5,0.4,1.1,0.5,1.6c0,0.4-1.1,1-1.2,1.4c0,0.7,1.2,0.7,1.3,1.1c0.1,0.4-0.7,1.6,0.5,1.6c-1.1,0.9-0.4,2.8,0.9,2
	c0.8-0.5-1.6,0,0.1-1.3c1.5-1.2-0.5-0.8-0.6-1.7c-0.1-0.5,0.6-0.7,0.1-1.2c-0.9-0.9-0.6-1.2-0.4-1.6c0.1-0.2-0.9-1.4-0.1-2.1
	c0.8-0.8-1.2-0.4-1.5-1.3c-0.2-0.5,0.6-0.7,0.3-1.4c-0.3-0.8-1.4-0.3-1.9-1c-0.3-0.4-0.2-1.6,0-2c0.1-0.3,0.7-0.7,0.7-1.1
	c0-0.5-0.5-0.4-0.6-0.9c0,0,0.9-1.4,1-1.5c0.3-0.3,0.8-0.4,1.1-0.8c0.1-0.2,0.4-0.9,0.5-1.1c-0.1,0.1,0.8-0.5,0.8-0.5
	c0.3-0.3,0.1-0.7,0.7-0.9c0.4-0.1,2.1,0.8,2.3,0.5c0.6,0.1,0.9-0.5,1.5-0.4c0.4,0.1,0.7,0.5,1,0.6c1,0.2,1.8-0.7,2.7-0.2
	c0.6-0.1,1.3-0.6,2-0.4c0.6,0.2,0.6,1.5,1.6,0.6c1.4,0,1.7,0.2,2.3,1.4c0.8,1.6,1.9,1,2.8,1.3c0.6,0.2,0.5,0.7,0.8,1.3
	s2.4,0.9,2.9,1.8c0.4,0.8-0.9,1.7-0.3,2.1c0.5,0.3,1.2,0.8,1.3,1.5c0,0.3,0.7,0.7,0.9,0.9c0.5,0.7,0.1,1.4,0.6,1.4
	c0.6-0.1,1.4,0.4,1.2,1.1c-0.1,0.7,1.2,0.6,1.5,0.9c0.3,0.4,0.1,0.7,0.5,0.9c0.4,0.2,1.2-0.1,1.6,0.2c0.6,0.4-0.3,1.5,0.1,2
	c0,0,1.1,0.5,1.1,0.6c0.4,0.5,0.4,1.3,1.1,1.4c0.9,0.2,1.7,0.7,1.3,1.7c-1.1,3,1.7,1.3,2.6,3.1c0.4,0.8,0.1,1.4,0.6,2.1
	c0.3,0.3,0.6,0.7,0.9,0.9c0.5,0.4-0.2,0.9,0.1,1.6c0.2,0.4,0.9,0.5,1.2,0.8c0.5,0.5,0.8,1.1,1,1.7C365.1,40.8,366.5,40.2,366.1,39.8
	z"/>
<path d="M351.4,76.9c-0.8,0.4-1.7,1-2.5,0.4c-0.4-0.3,0.4-1-0.5-1.2c-0.9-0.2-1.2,1.2-2,1.1c-0.2,0-2.1-1.9-1.3,0
	c0.8,1.6,1.9-0.3,2.8-0.2c0.4,0.2,0.3,1,0.8,1.3c0.4,0.2,1.6-0.2,1.8,0.1c0.2,0.3-1,1.3-1,1.5c-0.1,0.4-0.1,7.6,0.2,7.7
	c0.1,0,0.4-0.7,0.4-1.3c0.3-1.8,0.5-5.8,0.1-6.3C350.9,79.5,353.7,76,351.4,76.9z"/>
<path d="M319.7,9.6c-0.8-0.4-1.7,0.5-2.5,0.3c-0.6-0.1-1.2-0.7-1.8-0.8c-2.1-0.4-1.5,0.5-2.3,1.8c-0.8-0.1-0.7,0-1.4,0.2
	c-0.2,0.3-0.4,0.5-0.7,0.5c-0.3,0.1-0.9-0.4-1.5-0.3s-0.7,1.2-1.4,1.7c-0.7,0.5-1.3,0-1.8,0.6c-0.3,0.3,0,0.6-0.3,1
	c-0.3,0.5-0.9,0-1.6,0.6s-0.3,1.7-1.1,2.1c-0.6,0.3-1.4,0.2-1.6,0.9c-0.2,0.6,0.4,1.3,0.1,1.8c-0.3,0.1-0.7,0.2-1,0.4
	c-0.1,0.3-0.4,1-0.5,1.2c-0.5,0.5-2.2,1.2-2.5,1.6c0,0.4,0.4,0.8,0.7,1c0.3,0.2,0.3,0.4,0,0.6c-0.2,0.2-0.5,0.4-0.7,0.6
	c-0.5,0.6-0.6,0.7-0.7,1.4c0,0.7,0.6,0.3,0.4,1.1c-0.2,0.7-1.9,0.9-1.8,1.7c0,0.7,1,0.6,0.8,1.2c-0.3,0.8-1.7,0.7-1,1.7
	c0.8,1.3-1.7,1.6-1.6,2.3c0.1,0.9,2.1,0.2,1.2,1.8c-0.5,0.8-3,1-2.2,2.1c0.5,0.6,1.2-0.4,1,0.9c-0.1,0.9-1.1,0.7-0.7,1.8
	c0.2,0.4,1.2,0,0.7,1c-0.2,0.4-1.3,0.3-1.4,0.8c-0.1,0.5,1.1,0.2,1.3,0.4c0.7,0.6,0.3,1.5-0.3,2c-0.4,0.3,0.3,0.9,0.8,0.3
	c0.7-0.8,0.8-1.9,0.2-2.8c-0.2-0.3,0.6-0.7,0.5-1.3c-0.1-0.5-0.6-1-0.6-1.4c0-0.4,1.1-1.4,0.1-1.9c-0.9-0.5,1.2-0.9,1.6-1.6
	c0.5-0.9-0.2-1.5-0.7-2.2c0.3-0.4,0.9-0.5,1.1-0.9c0.5-0.9-0.3-1-0.1-1.7c0.1-0.7,1.4-1,1.3-1.7c0-0.6-0.6-0.6-0.6-1
	c0-0.5,0.1-0.6,0.4-0.8c0.4-0.2,0.7-0.5,1-0.9c0-0.4-0.1-0.7-0.3-1c0.3-1,1.7-1.2,1.8-2.1c0.1-0.5-0.9-0.7-0.7-1.2
	c0.1-0.4,1.2-0.6,1.5-0.9c0.5-0.4,0.7-1.1,1.1-1.4c-0.1,0.1,1-0.8,1-0.8c0.5-0.7-0.1-0.6-0.1-1.4c0-0.7,0.6-1.2,1.3-1.6
	c0,0,3-0.9,1.4-1c0.2-0.8,0.9-0.6,1.3-0.8c0.4-0.3-0.1-1.8,1.8-2c1-0.1,0.9-1,1.5-1.2c0.6-0.2,0.9,0.6,1.4,0.5
	c0.4,0,0.8-0.4,0.8-0.9c0-0.2,0.1-0.4,0.3-0.5c0.2,0,0.4,0.1,0.6,0.1c0.2,0.1,0.5,0.2,0.7,0.1c0.2-0.2,0.2-0.5,0.1-0.8
	c0.4-0.7-0.2-0.8,0.9-1.1c0.5-0.1,1.6,0.1,2,0.4c0.2,0.2,0.5,1,0.7,1c0.7,0.2,0.5-0.5,1.1-0.7c0.9-0.3,1-0.2,1.8,0.2
	c0.1,0,0.5,0.8,0.5,0.8C322,11.8,320.2,9.9,319.7,9.6z"/>
<path d="M344.2,50.2c0.3-0.7,1-1.3,1-2.1c0-0.1-0.2,0.1-0.2,0.1c-0.1,0.8-1.4,1.4-1.6,2.1c-0.3,0.9,0,2.1,0,3c0,3.1,0.1,6.4-1.8,9
	c-0.9,1.2-2.6,2-3.7,2.9c-1.1,0.9-1.7,2.6-2.6,3.6c-1.3,1.5-2.4,2.5-4.4,3c-2.3,0.6-5.3,0.6-7.6,0c-2.1-0.6-3.1-2.8-4-4.6
	c-0.3-0.7-0.7-1.4-1.2-2.1c-0.2-0.3-2.3-2.7-3-3.7c-0.8-1.4-0.6-3.4-1.2-4.9c-0.5-1.3-1.3-1.8-1.5-3.1c0.6,0.1,1.3,0.2,1.9,0.1
	c0.7,0,3.9-1,3.5-1.5c0,0-0.8,0.4-1.2,0.5c-2.8,0.6-4-0.1-4.2-0.1c-0.2-1.7-0.7-2.8-0.6-4.6c0.1-1.7,0.6-3.1-0.3-4.9
	c-0.3-0.6-0.4-1.4-0.6-1.8c1.7-0.4,3.5-0.4,5.2,0.1c1.1,0.3,1.8,1,2.7,1.6c0.9,0.5,0.8,0.5,1.1,1.4c0.1,0.2,0.4,0.6,0.7,0.7
	c0.4,0.1-0.7-1.1-0.3-2c0.2-0.5,0.3-0.5,1.1-0.6c0.1,0,2.4,0,2.2-0.3c-0.1-0.2-3.3-0.1-3.5,0.2c-0.1,0.2-1.2,0.3-1.5,0.1
	c-1.3-0.8-2.5-1.6-4-1.8c-1.3-0.2-2.6,0-4,0.3c0-0.1-0.1-0.3-0.1-0.5c0.8-0.2,1.6-0.3,2.4-0.3c2.4-0.1,4.2,1.2,6.5,1.5
	c0.5,0.1,4.4-0.1,5.4-0.6c1-0.5,4-2.8,5.5-3.4c1.2-0.5,4.9-0.7,5.9-0.6c2,0.1,5.2,0.5,6.5,0.4c0.4,0,0.8-0.1,0.9,0.7
	c0.1,0.3,0.3,0.9-0.3,1.2c-0.2,0.1-0.9,0.1-1.2,0.7c-0.3,0.7-0.1,1.8-0.1,2.5c0,0.2,0,1.2-0.1,1.4c-0.1,0.9-1,2.8-0.5,1.4
	c0.4-1.4,0.3-4.5-1.1-6c-1.6-1.9-4.9-1.5-7.1-1.3c-1.7,0.2-3.4,0.5-4.9,1.4c-0.4,0.2-3,1.8-3.1,2.4c0,0.1,2.9-1.9,4.2-2.4
	c2-0.8,4.9-1.2,7-1.1c3.5,0.1,5.2,3,4.5,6.5c-0.9,4.1-6,6.2-9.7,5.4c-1.7-0.4-3.2-1.1-4.3-2.3c-0.9-0.9-1.3-1.9-1.6-2.1
	c-0.4-0.2,1.1,2,2.1,3c0.9,0.8,1.9,1.6,2.7,1.9c0.9,0.3,2.3,0.4,3.8,0.5c1.5,0.1,7.1-1.4,8.2-5.8c0.2-0.9,0.3-1.7,0.3-2.6
	c0-0.8,0-1.6,0.3-2.3c0.2-0.6,1.3-1,1.4-1.4c0.1-0.3,0.1-0.6,0-0.9c-0.1-0.9-0.7-1.2-1.4-1.2l0,0c-0.1,0-0.1,0-0.2,0l0,0
	c-0.6,0-1.3,0.1-2,0.1c-1.9,0-3.7-0.2-5.6-0.2c-0.7,0-2.4,0.1-3.2,0.2s-2.2,0.5-3,1c-0.4,0.2-4.3,2.8-4.9,3
	c-0.6,0.2-3.9,0.5-4.5,0.4c-1.8-0.4-3.5-1.4-5.4-1.4c-1.3,0-2.5,0-3.7,0.2c-0.1-0.6-0.2-1.1,0-1.9c0.2-0.7,2.3-7.6,1.6-7.5
	c-0.4,0-1.5,4.7-1.7,5.3c-0.5,1.5-0.5,2.9-0.3,4.3c-0.7,0.1-1.2,0.5-1.9,0.8c-1.7,0.7-3.1,1.9-4.7,2.4c-0.5,0.2-1,0.2-0.8,1
	c0.1,0.3,0.2,1.8,0.6,1.8c1-0.1,1.8,1.7,2.5,2.8c1.5,2.2,3.2,3.9,5.6,4.5c0.1,0.7,1.5,3.1,1.7,3.8c0.7,2.4,0.4,3,1.6,4.9
	c0.6,1.1,1.7,2.4,2.5,3.4c0.8,0.9-0.3,3.2,0.5,3.3c-0.6,1.1,0.4,1.4,0.2,2.4c-0.7,0.9-3.6-0.6-4.1,1c-0.2,0.7,1.8-0.3,2.3-0.1
	c-0.7,1.2,1,0.1,1.2,0c0.8-0.4,1.1,0.3,1.3-1c0.1-0.7-1.1-1.2-0.2-1.8c0.9-0.6-0.3-0.6-0.3-1c0-0.2,0.4-1,0.6-0.9
	c0.2,0.1,0.3,0.7,0.7,1.4c0.5,1.1,1.1,2.4,2.6,3.2c1.8,0.9,4.1,1.3,6,1.3c2.9,0,5.4-1.2,7.4-3.2c1.1-1.1,1.8-2.7,3.1-3.7
	c1.1-0.9,3.5-2.6,3.5-1.9c0,0.7-0.5,0.8-0.7,1.5c-0.2,0.8,0.3,0.7,0.3,1.2c0.1,0.7,0.2,0.4,0,1.2c-0.4,1.3-0.9,1.8,0.9,1.5
	c-0.4,0.7-2.3,3.6-0.6,3.9c-1.2,1-1.1,2.2,0.7,2c-0.8,1.5-0.3,3.4,0,2c0.1-0.3,0.7-2.1,0.6-2.3c-0.3-0.7-1.1,0-1.5-0.2
	c-0.7-0.5,2.3-1.6,2.1-2.2c-0.2-0.5-1.4,0.4-1.7,0.1c-0.7-0.5,0.1-1.5,0.5-2.1c0.2-0.3,1.2-1.4,0.9-1.8c-0.2-0.3-1,0.1-1.3-0.1
	c-0.1-0.9,2.2-0.9,1.5-1.9c-0.2-0.3-1,0.1-1.3-0.5c-0.3-0.8,0.7-1.1,0.9-1.7c0.7-1.8-1.2-1.7-0.6-2.5c1.3-1.7,1.2-5.1,1.2-6.5
	c-0.1-1.4,0-2.4,0-3.5C343.9,51.5,344,50.9,344.2,50.2z M307,49.3c-0.9-1.2-1.9-3.8-2.7-3.8c-0.5,0-0.6-1-0.5-1.6
	c0.4-0.3,0.8-0.5,1.2-0.7c0.9-0.6,1.9-1.2,2.9-1.7c1-0.5,1.7-0.9,2.7-1.1c0,0.1,0.1,0.3,0.1,0.5c-1.2,0.3-2.2,0.6-3.1,1.4
	C304.9,44.3,307.3,49.7,307,49.3z M308.6,50.4c-1.8-2.4-3.3-7.5,1.2-9.1c0.3-0.1,0.6-0.2,0.9-0.2c0.1,0.2,0.2,0.4,0.3,0.6
	c1.4,3.5-0.3,6.4,0.7,10.4C310.3,51.8,309.3,51.3,308.6,50.4L308.6,50.4z"/>
<path d="M320.2,16.3c-0.2-0.1-0.4-0.1-0.6,0c-0.2,0.3,0.4,0.5,0.4,0.7c0,0.1-0.3,0.6-0.4,0.9c-0.2,1,0.1,0.8-0.7,1.1
	c-0.4,0.2-1.7-0.4-1.8,0.6c0,0.2,1.2,0.1,1.3,0.5c0.1,0.4-2,0.3-2.5,1.1c-0.3,0.5,0.3,0.4,0.3,1.2c0,0.8-2.8,1.6-2.5,2.1
	c0.3,0.4,3.6-0.8,1.1,0.9c-0.5,0.3-0.9,0.9,0,1.2c0.7,0.2,0.1,0.5,0.2,0.9c0.1,0.5,1.1-0.3,1.1,0.3c0.1,0.7-0.6,0.4-0.4,1.1
	c0.2,0.6,0.9-0.3,0.8,0.7c0,0.3-0.6,0.4-0.7,0.6c-0.2,0.7,1,0.5,1,0.7c0.1,0.4-1.2,0.4-0.7,1.1c0.1,0.2,0.4-0.2,0.7,0
	c0.3,0.2-0.2,0.4-0.1,0.6c0.3,0.6,2.2-0.9,0.5-1.2c0.4-0.4,0.5-1.1-0.2-1.2c0.4-0.5,0.4-1.3-0.3-1.5c0.3-0.2,0.4-0.6,0.2-1.1
	c-0.4-0.9-1.7-1.2-1.2-1.8c0.8-0.9,1-1.4,0.3-1.7s2.2-0.9,1.7-1.8c-0.5-0.9,0.9-0.9,1.4-1.5c0.3-0.3,0.5-0.7,0.5-1.1
	c0.2-0.1,0.4-0.3,0.6-0.5C320.5,18.3,321.5,16.7,320.2,16.3z"/>
<path d="M336.2,27.4c-0.4-0.6-1.1,0-1.2-0.5c-0.2-0.6,1.2-1.1,0.9-1.5s-1.3-0.1-1.2-0.8c0.1-0.7,2-0.8,1.7-1.5
	c-0.3-0.6-2.9,0.9-2.9,1.9c0,0.4,1.3,0.6,0.9,1s-0.8,1-0.6,1.5c0.1,0.3,0.9,0.2,1,0.4s-0.2,0.6-0.1,0.8c0.2,0.5,1.5,0.9,1.6,0.6
	c0.2-0.4-0.8-0.4-0.8-0.8C335.4,28.1,336.6,28,336.2,27.4z"/>
<path d="M366.9,58.8c0.2-0.4-1.9-0.7-2.3-1.2c-0.7-1.1,2.3-1.5,0.6-2.5c-0.7-0.4-1.2,0.3-1.1-0.7c0-0.5,0.7-0.7,0.7-1.3
	c0-0.6-0.9-0.8-0.9-1.1c-0.1-0.8,0.8-1.1,1-1.8c0.8-2.4-2.3-0.2-2.3-2.1c0-0.8,0.4-1.3-0.2-2.1c-0.3-0.4-0.3-0.3-0.5-0.8
	c-0.2-0.5,1.8-1.3,1.7-1.9c-0.2-1.2-3.7,1.4-3.2,2.3c0.3,0.6,1.1,0.5,1.3,1.2c0.3,1-1.1,1.7,0,2.7c0.6,0.6,1.3,0.7,2.1,0.6
	c-0.4,0.7-0.7,1-0.7,1.8c0,0.9,0.8,0.8,0.9,1.3c0.1,0.5-0.5,0.6-0.6,1.2c-0.3,1.1,0.5,1.4,1.5,1.4C361.2,58.7,366.7,59.2,366.9,58.8
	z"/>
<path d="M362.2,72.4c-0.1-0.7,0.5-0.7,0.5-1.4c0-1.2-1-0.6-1.6-1c-0.9-0.6-0.1-1,0.7-1.4c3.7-2.2-0.5-0.4-0.7-1.8
	c-0.1-1,1.9-0.7,1.1-2c-0.2-0.3-1.9-0.3-1.8-0.8c0.1-0.4,1.9-0.4,2.2-0.9c0.6-0.8,0.5-1.2-0.1-1.8c-0.8-0.8-1.7-0.5-1.6-1.8
	c0.1-0.7,1.6-1.5,1.5-2.3c-0.2-1.8-2.6,1.8-2.4,2.8c0.3,1.3,2.8,1.6,1.2,2.7c-0.5,0.3-1.2,0.4-1.5,1.1c-0.5,1,0.8,1.3,1.4,1.5
	c-1.5,0.8-2,2.7,0.2,2.7c-0.7,0.4-1.9,1.1-1.6,2.1c0.3,1,1.3,0.5,2,0.9c-0.9,1.5,0,2.2,0.2,2.6C362.2,73.9,362.2,72.7,362.2,72.4z"
	/>
<path d="M359.5,72c-1-0.3-2.7,0-3.5,0.6c-2,1.4,1.1,1.4,1.9,2.2c-1.3,0.5-5.1,1.5-2.5,3c0.7,0.4,1.4,0.2,0.8,0.9
	c-0.6,0.7-2,0.3-1.9,1.4c0,0.5,1.3,2.6,1.8,2.8c1,0.3-0.1-1-0.2-1.2c-0.3-0.4-0.9-1.2-0.8-1.7c0.2-0.7,1.4-0.6,1.8-1.1
	c1.1-1.4-3.2-1.8,0-3c0.6-0.2,2-0.5,1.5-1.4c-0.3-0.6-2.8-0.5-2.3-1.3c0.4-0.9,3.6-0.1,3.8-0.8C359.8,72.1,359.6,72,359.5,72z"/>
<path d="M299.3,60.7c-0.6,0.3,1.9,1,2.4,1.5c0.5,0.5,0.8,0.6,0.8,1.1c0,1.1-2.6,1-2.4,1.7c0.2,0.7,2.1,0,2.6,0.5
	c1.5,1.4-1.9,1.1-2,1.8c-0.2,1,2.4,0.5,1.1,1.9c-0.3,0.4-1.2,0.2-1.4,0.7c-0.3,1,0.5,0.5,0.7,1c0.3,0.7,0.5,0.4,0.2,1.1
	c-0.1,0.3-0.9,0.5-1,0.7c-0.5,1.3,0.9,0.3,1.1,1.3c0.1,0.5,1.6-1,0.2-1.1c1-0.8,0.8-2.1-0.2-2.7c0.8-0.5,2.1-2,0.9-2.8
	c1.6-0.6,1.8-2.4,0-2.8c0.8-0.6,1.3-1.2,0.6-2.6C302,60.7,300.1,60.2,299.3,60.7z"/>
<path d="M311,71.2c0,0,0.1-1.2,0-1.4c-0.3-0.5-1.3-0.6-1.8-0.8c0.4-0.3,1.4-0.7,1.1-1.3c-0.4-0.7-1.6-0.1-0.9,0.3
	c-0.5,0.3-3.5-0.2-3,0.5c0.4,0.6,3.2,1.1,3.7,1.5c1.8,1.6-3.9,0.6-3,1.8c0.5,0.7,4-0.8,4.1,0.4c0,0.6-2,0.8-2.3,1.1
	c-1.2,1.1,0.4,0.3,0.9,1c0,0-0.1,1.3-0.1,1.3c0,0.1,0.3,0.3,0.3,0.5c0,0.2-0.2,0.3-0.2,0.4c0,0.7,0.2,2.2,0.2,3
	c-0.1,2.9-0.4,3.4-0.4,6.3c0,1.1,0.7,1.8,0.7-0.5c0.1-2.6,0.1-3.5,0.1-6.1c0-0.9,0.1-1.7,0.2-2.4c0-0.5,0-0.6-0.1-1.2
	c-0.1-0.3-0.2-0.5-0.2-0.7c-0.1-0.5,0.6-0.5,0-1.1C311.3,73.1,312.7,72.3,311,71.2z"/>
<path d="M349.8,50.4c1.4-0.9,0-1.5-0.3-1.7c0.9-0.9,2.4-3.6,0.3-4.1c0.5-0.7,1.1-2.6,0-3.1c1.4-1.3,0.9-4-0.9-4
	c1.5-1.7-0.3-2.9-1.4-2.4c0.7-0.6,1.6-0.7,1.7-2.2c0.1-1.3,0-2.1-0.9-2.2c0.8-1.1,0.8-2.2-0.5-3.3c-0.9-0.7-1.8-0.3-2.5,0.2
	c-0.1-1.6-1.6-1.1-2.2-1.1c0.4-1.4,2-4.2,0.4-3.5c-1.4,0.6-1.7,2.2-0.6,1.8c-0.3,0.6-1,1.7-0.2,2.5c0.4,0.4,0.7-0.2,1.1,0.1
	c1.4,0.9-0.1,1.2,0.7,1.9c0.9,0.9,1.4-1.5,2.4-1.2c2.5,0.6,0.4,2.3-0.2,2.6c-0.9,0.4-1.9,1-0.5,1.5c0.6,0.2,2-1.1,2.6,0.1
	c0.5,1.2-2,2-2,2.9c0,1.3,1.5,0.8,2.1,1.1c-0.5,0.5-1.7,0.5-1.3,1.8c0.4,1.2,1.9,0,2.3,1.2c0.6,2.2-3.7,1.7-1.1,3
	c1.1,0.6,1.7-0.2,0.4,1.6c-1,1.4-1.2,1.1,0.2,1.8c1.6,0.8,1.1,0.6,0,1.9C348.6,48.3,348,51.4,349.8,50.4z"/>
<path d="M335.5,32.6c-1.9,0.5-4.4-1.1-6.9,1.1c-0.7,0.6-2.2-0.5-1.7,1.6c0.3,1.4,2.8-1.3,3.8-1.7c1.3-0.5,2.7,0.2,4.1-0.2
	c2.4-0.8,4.2,1,3.9,0.3C338.4,33,337.1,32.2,335.5,32.6z"/>
<path d="M336.9,40.8c-1.7-0.8,0.6-1-1.8-1.1c-0.6,0-2.2-0.2-2.8-0.1c-1.3,0.2-1,0.6-1.6,0.9c-0.4,0.2-2.1,1.2-2,1.9
	c0,0.2,4.2,0.7,4.8,0.7c2.3,0.1,2.8-1.1,3.7-1.7C337.3,41.3,337.3,40.9,336.9,40.8z M329.8,42.1c-0.4-0.2,1.6-1.5,1.9-1.6
	c0.3,0-0.1,0.4,0,1c0.1,0.5,0.4,0.7,0.4,0.9S330.1,42.3,329.8,42.1z M334.6,42.1c0.1-0.2,0.3-0.4,0.3-0.7c0-0.5-0.3-1.1,0.2-0.9
	c0.1,0,0.8,0.5,0.8,0.6C336.1,41.4,335.1,42.3,334.6,42.1z"/>
<path d="M318.5,42.9c-0.1-0.2-0.3-0.4-0.5-0.4l-1.4-0.4c-0.4-0.1-0.8-0.2-1.1-0.2c-0.3,0-0.6,0-0.9,0c-0.3,0-0.6-0.1-0.8,0.1
	c0,0.1-0.1,0.2-0.2,0.3l-1.3,1.5c0.3,0.2,0.5,0.4,0.8,0.6c0.1,0.1,0.2,0.3,0.4,0.5c0.1,0.2,0.3,0.3,0.5,0.4c0.3,0.2,0.7,0.3,1.1,0.3
	c0.2,0,0.4-0.1,0.5-0.2c0.3-0.1,0.5-0.3,0.7-0.4l0.9-0.5c0.3-0.2,0.7-0.4,1.1-0.5c0.2,0,0.3,0,0.3-0.2
	C318.7,43.3,318.6,43.1,318.5,42.9z M315.1,44.6c-0.2,0-0.5,0-0.7-0.1c-0.4-0.2-0.8-0.5-1.2-0.6c0,0,0,0-0.1,0c0,0,0-0.1,0.1-0.1
	c0.2-0.1,1.2-1,1.4-0.6c0.1,0.1,0.1,0.5,0.2,0.7c0.1,0.2,0.2,0.4,0.4,0.6c0,0,0.1,0.1,0.1,0.1C315.3,44.5,315.2,44.6,315.1,44.6z
	 M318.4,43.5c0,0-0.3,0.1-0.3,0.1c-0.2,0-0.5,0.4-0.5,0.2c0.1-0.2,0.1-0.3,0.1-0.5c0-0.2-0.1-0.4-0.2-0.5c-0.2-0.2,0.5,0.1,0.7,0.2
	C318.3,43.1,318.4,43.3,318.4,43.5L318.4,43.5z"/>
<path d="M294.9,57.1c0.1-1-0.4-1.8-1.5-2.2c0.5-0.4,0.7-1.4,0.8-2.6c0.1-0.5,0-1.4,0-1.7c0-0.4,1.2-0.6,0.8-1.1
	c-0.4-0.6-1.1,0-1.2-0.5c-0.2-0.6,1.2-1.1,0.9-1.5c-0.3-0.5-1.3-0.1-1.2-0.8c0.1-0.7,1.3-0.7,0.6-1c-0.5-0.3-1.8,0.4-1.8,1.4
	c0,0.4,1.3,0.6,0.9,1c-0.4,0.4-0.8,1-0.6,1.5c0.1,0.2,0.5,0.2,0.8,0.3c-0.1,0.7,0.1,2.2,0.2,2.6c0.1,0.6-0.3,1.7-0.9,2.2
	c-1.2,1,0.7,0.9,1.5,1.5c0.9,0.7-1.1,2,0.7,2.4c0.4,0.1,0.8-0.7,1.3-0.4c0.8,0.4-0.1,0.7-0.4,0.9c-0.2,0.2,1.3,0.5,1.4-0.4
	C297,57.2,296,57.3,294.9,57.1z"/>
</svg>
