<svg
  data-face="olu"
  xmlns="http://www.w3.org/2000/svg"
  aria-hidden="true"
  focusable="false"
  viewBox="0 0 500 500"
  width="500px"
  height="500px"
>
  <path d="M159.19 301.39l-.01.06c-.58 4.62-3.42 9.03-6.16 13.29-4.64 7.2-5.18 18.81-2.14 21.64 3.05 2.83 11.92 2.35 12.71 2.27 3.14 1.94 8.04 2.53 11.92 2.12 3.88-.41 7.16-3.33 10.48-4.49 4.33-1.51 18.79 1.97 25.34-6.39 1.39-1.77.35-7.58-1.89-8.24-6.02-1.78-1.8 3.47-2.27 5.24-1.01 3.73-5.11 7.08-13.48 5.92s-11.64 1.09-15.79 3.74c-5.92 2.79-9.43-.92-14.09-2.31 0 0-6.77 1.45-9.44.19s-2.41-12.87 1.93-20.13c4.5-7.52 9.15-15.3 4.84-24.11l-.04-.19c-.36-1.83-.61-3.14-1.51-3.65-.48-.27-1.06-.26-1.78.01l-.32.12v.34c-.01 1.64.44 3.57.91 5.61.71 3.07 1.45 6.25.79 8.96zM202.34 271.99c4.65-3.05 2.7-7.43 21.06-8.85 11.39-.88 20.59 3.83 20.06 2.34-.8-2.26-17.93-5.53-28.41-3.36-4.77.99-8.56 2.62-11 5.34-.78.81-6.36 7.58-1.71 4.53z"/>
  <path d="M200.49 280.18c2.3.09 7.31.41 10.55.35 8.44-.17 17.17-.33 24.88-4.93.87-.6 7.92-4.34 10.21-6.03 1.68-1.23-1.48-.87-1.48-.87s-9.21-4.25-15.19-3.75-16.53.21-23.07 6.29c-2.14 1.96-9.33 8.8-5.9 8.94zm37.31-8.4c-1.89 1.13-3.72 1.79-5.91 2.47-.36.11-.84.11-.56-.14.74-.66.86-2.64.57-3.4-.17-.44.42-.53.88-.44 1.41.28 3.32.13 4.68.15.73 0 .98.98.34 1.36zm-28.78 3.89c3.69-2.35 6.43-4.02 9.46-4.97a.9.9 0 011.09.48c.23 2.03 1.06 3.42 1.48 3.94.68.86.36 1.32-.73 1.42-4.38.41-7.97.45-10.48.63-.83.06-1.53-1.05-.82-1.5zM138.9 274.38c4.4.14 7.25 1.41 11.57 3.69 1.44.76 6.41.02 4-1.31-4.45-2.44-12.07-4.78-19.36-4.25-11.06.81-21.64 5.68-21.17 6.99.36.99 12.06-5.54 24.96-5.12z"/>
  <path d="M153.22 284.96c.56-1.35-1.46-2.04-2.72-2.61 0 0-5.68-6.18-8.35-6.28-2.66-.1-15.42 1.1-21.88 5.88-1.09.81-3.78 2.38-4.57 3.02-.23.19-.17.63.13.63 6.84.04 13.5 3.6 21.59 3.6 3 0 9.57-1.01 12.82-4.37l2.98.13zm-29.94-.59c-.85-.09 2.8-1.93 7.92-1.9-.23 1.21.12 2.34.39 3.2-3.6-.71-6.58-1.11-8.31-1.3zm20.17.59c.18-.57.02-1.89 0-2.5 0 0 2.69.89 2.69 1.66-.49.84-2.07.68-2.69.84z"/>
  <path d="M484.06 464.86c-12.02-8.12-4.69-22.4-35.34-28.75-2.97-.62-6.95-2.48-6.11-5.4 2.66-9.28-6.4-15.42-16.08-14.25-12.76.23-31.25-12.36-42.4-11.77-5.09.27-7.78-12.28-16.97-14.2s-13.94-9.31-22.46-4.14c-.72-.32-2.71-1.54-4.79-2.83-4.9-3.01-12.28-7.56-17.61-9.53-1.3-1.13-2.85-2.09-4.35-3.02-3.86-2.39-11.74-5.55-7.49-27.87 1.22-6.42.28-24.92.96-34.95.52-4.95 2.69-5.43 1.16-9.27-1.92-4.81-8.61 5.49-9.21 7.73-.52 5.13 2.41 14.29 2.25 19.56-.42 13.87.21 24.81-6.52 36.51-1.52 3.52-23.73 30.55-23.73 30.55-2.98 3.42-23.57 17.45-28.2 21.44-9.53 8.23-18.38 19.73-29.41 24.59-11.97 5.72-21.75 7.09-29.9 4.18-8.65-3.09-14.87-10.13-21.53-24.4-7.72-16.55-11.2-23.76-24.21-32.74-15.7-10.84-16.92-24.75-20.42-30.18-14.8-22.94-19.28-35.63-10.83-60.73 2.64-7.83-5.25-27.24-4.71-33.8s2.71-16.61-1.97-22.91c-4.49-6.05-1.54 11.25-2.43 14.28-3.26 11.17 3.69 27.12 3.45 35.66s-8.31 26.87-5.05 40.5c.66 2.14 2.15 5.11 4.01 8.39-16.73 6.2-28.6-6.97-30.01 4.23-.18 1.39-1.08 2.54-2.47 2.47-57.53 7.52-40.19 7.24-71.15 27.76-4.2 5.7 17.31-2.32 22.85-7.92 5.54-5.6 15.19-7.55 21.85-7.86 7.26-.33 27.81-9.38 26.38-1.61-1.69 9.2 5.12 32.68 3.4 39.54-1.69 6.73.36 13.7 2.17 8.67 5.37-14.94 1.63-22.88 1.73-33.84.08-8.82.25-12.5 1.57-21.46.61-4.13 20.8-1.61 23.31-1.48 1.77.09 6.08 1.87 7.02 3.36 3.45 5.52 6.04 8.62 7.1 11.05 2.35 5.4 4.35 15.19 18.84 28.64 5.65 5.24 13.09 11.74 16.75 17.5 3.67 5.76 7.69 20.75 1.21 43.09-6.19 21.32-1.21 28.62.01 21.97 1.1-6.05 2.77-17.39 5.47-22.7 3-6.92 4.63-19.66 8.4-14.56 5.7 7.71 13.51 13.44 23.93 15.24 1.33.1 2.64.15 3.94.15 0 0 8.67-.03 18.55-3.69 8.09-3 21.43-11.18 35.18-25.16 27.93-18.95 37.39-32.37 42.45-40.39 2.76-4.38 12.24-9.17 19.74-4.41 9.33 3.81 27.74 16.3 27.23 18.17-3.11 4.77-2.6 11.58-8.71 14.95-1.97-.41-5.14 3.66-6.2 6.41-1.64 4.04-7.32 46.17-11.76 62.51-1.96 4.83-4.34 10.64-.15 13.07 9.36-26.2 10.75-64.1 30.77-82.69 1.18-5.35 5.15-14.39 10.36-13.78 1.02 1.16 10.22 1.82 12.73 2.27 7.71 4.71 10.45 16.54 17.97 16.19 11.7-.54 29.65 10.21 39.78 11.78 6.03.14 12.25 1.36 10.19 5.41-7.89 15.56-.25 24.23-8.72 35.92-7.74 10.69-4.75 14.11-2.45 9.69 6.31-12.13 13.33-11.94 13.1-23.8-.21-10.9 5.87-11.33 7.73-10.36 5.9 3.08 15.35-.66 10.95 21.47-.34 1.7-6.71 15.49-4.86 14.23 8.69-9.89 12.26-9 11.8-14.44-.89-14.26 8.39-2.1 11.92.77 5 6.19 34.12 20.01 9.99.99z"/>
  <path d="M271.31 345.46c2.08-1.03 3.95.01 4.2 2.31.58 5.33 6.43 1.15 4.64-1.16-.59-.77-.91-1.72-.82-2.68.75-8.38-.88-5.67 3.64-14.19.53-1-.62-2.11-1.57-1.48-3.85 2.53-10.33 14.65-14.65 14.75-3.97.09-5.39 7.36 4.56 2.45zM233.45 347.1c.01 2.35.59 5.64 3.04 9.55-2.57-.9-26.17-1.83-34.3-2.34-9.32-.58-18.89-1.89-27.34 1.88-4.98-2.97-9.94-.17-15.23.62-2.15.32-7.68 1.04-8.92 1.31-10.61 2.29-11.81-2.27-11.9-3.84-.08-1.35.59-6.04-.63-4.95s-2.42 2.75-2.23 5.9c.89 8.53 9.4 6.71 10.56 15.92 1.46 11.57 3.47-.22 3.96-2.18s2.48 6.14 4.88 11.05c3.43 7.01 6.29 17.09 11.75 22.12 7.54 6.94 19.46 6.91 26.42 6.58 18.16-.85 34.28-12.2 42.25-30.93 1.51-3.9 6.22-10.35 7.81-11.97.52-.53.89-1.12 1.14-1.7 4.3 2.44 5.43 4.61 6.64 10.97.56 2.94 2.23-4.74 1.27-7.29-1.59-4.25-4.2-7.11-9.01-8.85-5.76-2.07-10.18-16.16-10.16-11.85zm-76.04 15.02c1.43-2.62 13.29-2.74 17.87-.92 8.38-3.03 14.86-4.33 25.61-3.46 5.52.45 11 .49 12.94 1.49s-23.28 2.32-23.28 2.32c-4.16.42-4.55 3.11-10.12 3.57-5.57.46-9.04-1.07-13.09-1.64-6.74-.94-10.56-.21-9.93-1.36zm73.43 15.82c-5.94 11.58-21.44 22.05-34.62 23.39-12.42 1.26-21.7.82-28.07-6.24-4.25-4.71-6.71-10.2-9.58-16.4-.85-1.83-3.65-10.28-2.49-10.86 3.76-1.86 2.99 7.95 4.58 10.7.92 1.6 7.14 12.91 21.26 15.39 18.5 3.27 50.71-19.89 48.92-15.98zm2.68-10.27c-1.3 1.32-2.54 2.56-3.42 3.21-17.04 11.8-30.67 16.62-41.12 16.69-6.37.04-12.01-1.18-16.07-2.97-11.52-7.65-11.07-13.65-11.23-17.64 8.58 2.02 19.78 2.43 21.95 2.34 4.61-.18 6.14-3.34 10.06-3.82 3.29-.4 7.93-1.37 10-1.56 11.58-1.07 20.3-4.71 34.6-4.7.67.76 1.01 1.65 2.68 2.81-2.41 1.16-5.33 3.49-7.45 5.64zM307.35 244.21c.79.23 3.13-1.7 3.13-1.7 4.37-2.03 5.72-1.88 6.53-1.42 1.5.85 2.09 1.41 1.27 6.16-.91 5.23-1.45 12.17.04 15.56 3.02 4.84-.63 15.98-1.53 16.81-.53.65-1.03 1.42-.82 2.15.15.5.59.87 1.36 1.13l.22.07.2-.12c2.32-1.36 5.26-13.58 3.58-20.16 0 0-.72-8.66.38-13.34 1.37-5.81.99-12.22-1.56-14.75s-11.38 4.87-13.72 7.91c0 .01.45 1.56.92 1.7zM301.41 239.01c.37-.3-.01-.88-.43-.67-16.92 8.12-34.68 22.63-52.26 29.13-10.79 3.58-12.84-9.45-21.66-12.57-.03-.01-.06-.02-.08-.04-16.48-11.88-41.95-8.22-52.15 10.66-5.73 6.79 2.9 26.63-9.98 18.94-.03-.01-.05-.03-.07-.05-8.99-8.57-8.81 7.75-17.96-4.6-.01-.01-.02-.03-.04-.04-32.08-32.43-46.13-19.78-61.04 10.02-.04.08-.06.16-.04.25.39 2.02 2.73 7.8 3.54 7.03.83-.79 1.72 0 2.28 1.3 1.88 4.39 2.18 11 6.36 14.77.02.02.05.05.06.08 8.23 13.87 25.64 23.32 40.38 14.31.01-.01.03-.02.04-.02 14.71-5.84 19.05-25.53 18.87-28.57-.45-7.23-2.84-9.68-3.13-10.96-.03-.12.02-.24.1-.33 8.41-9.64 12.36 4.83 19.65.96.23-.12.52-.01.58.25 5.43 23.57 36.36 41.82 57.76 25.88.01-.01.03-.02.05-.03 15.16-7.38 16.01-28.83 12.03-39.71-.08-.21.03-.42.23-.5 18.78-6.74 42.25-23.64 56.91-35.49zm-149.14 64.34c-5.26 40.51-53.77 26.4-57.74-7.35-.01-.05 9.9-10.14 13.45-14.7-1.46-3.02-1.03.83-2.81-.63a.42.42 0 00-.51-.02c-22.61 17.22-4.79-17.83 9.65-15.12 18.5 1.79 39.26 16.66 37.96 37.76v.06zm91.58-16.27c1.71 46.81-59.61 32.5-60.85 7.39-.69-14.01-7.41-3.8-7.03-14.6 1.53-43.56 65.88-32.14 67.88 7.21z"/>
  <path d="M189.62 251.86c-2.62-.16-4.01-5.66-2.46-7.81.28-.39 1.07-3.13 3.97-2.52 2.9.61 8.99-4.47 10.85-3.9s6.8-3.51 10.93-2.83c4.13.69 7.86-2.91 10.77-2.45 4.28.69 11.01-1.76 13.68-.69s7.21-.06 10.94 2 5.71-.4 6.54 4.66c-.21 2.56-8.69-2.83-12.51-1-3.82 1.83-7.77-1.07-10.34.5-2.57 1.57-9.83-.5-11.93 1.95-1.95 2.6-9.89 1.38-12.8 5.12-1.03 1.32-13.33 2.67-14.82 5.81-.24.47-2.08 1.1-2.82 1.16zm3.13-5.86zm5.25-1.26zM103.92 260.73c-1.9-2.43 3.91-7.93 9.29-10.2 3.16-1.34 5.82.29 7.92-1 2.39-1.45 5.01.83 7.5-.22 3.01-1.27 4.44.88 6.17.03 5.93-2.91 9.03 5.95 9.47 8.87.03 2.59-2.3 1.96-4 0-1.53-1.76-5.44-3.17-8.31-1.71-1.19.6-4.56-2.29-7.53-.74-1.22.64-5.98-.67-7.74-.34-7.28 1.37-11.71 6.66-12.77 5.31zm27-11.82zM221.53 446.64c11.85 9.2 23.01 5.94 16.54 3.77-8.75-2.93-10.31-6.59-15.75-9.89l-11.96 5.02c3.81.62 8.06-1.31 11.17 1.1zM152.53 339.69c-7.59 2.34-9.3-13.48-2.43-9.94-1.32 2.16-3.76 4.52-.37 7.08 1.49 1.8 4.06-1.2 5.46.4.81 1.61-1.7 2.25-2.66 2.46zM174.08 345.72c-4.59-.46-8.55-4.41-6.35-6.43 2.29.76 2.22 4.39 6.12 4.39 4.57.4 5.35-2.7 5.62-5.94 5.43 1.58-1.28 9.1-5.39 7.98z"/>
  <path d="M315.66 405.69c-3.49-2.08 1.55-7.38-1.15-11.28 1.92-2.2-4.81-6.58.18-8.88 1.08-1.64 1.1-2.28-.37-3.55-1.52-2.55 4.5-2.71 1.67-4.76-1.98-5.4 2.06-8.74-.87-13.42-.77-2.42 3.3-5-.18-7.16.36-3.06-.21-2.62-1.08-5.56 4.51-4.85 7.73-10.2 5.34-15.41-1.86-.85-.56-2.36-.19-3.45-2.99-.47-1.78-6-1.04-7.55-1.18-2.48-3.97-6.32-4.11-9.02 2.01-3.5-2.05-6.25 2.2-9.25-5.55-.57-.79-5.07.36-7.23-3.36-.57-1.15-4.46-1.62-4.78-1.46.3-3.49.22-3.44-1.61 1.54-2.9 2.31-1.67-2.25-3.71-2.01-3.39 2.97-10.7-.73-13.79-2.27-3.96 5.59-5.01-1.5-6.04-2.76-4.42 5.85-6.05-3-7.56-1.98-1.56 2.9-6.86-1.04-6.65-4.15.46-3.11-3.24-4.94-5.46-6.43-.64-8.57-7.97-8.92-13.14-4.77 2.98-3.95-3.43-.84-5.45 1.07-2.28-7.25-3.78-3.77-7.81-5.26-3.95-1.93-7.37-5.18-7.22-3.85.17.15-6.66-5.5-9.8-2.78-1.55 2.77-5.43-1.95-6.43-2.37-5.12-3.68-7.4-5.08-12.29-1.99.36-3.85-2.16-2.84-4.1-3.72 1.72-6.37-.97-6.75-5.15-.77-5.89-8.87-5.47-12.16-8.77-1.58-3.27 7.77-5.95 4.43-.87 3.87.89 7.28 2.34 10.49 4.78 1.65 5.3.18 7.61 6.03 7.46 1.4 4.69 2.36 2.64 3.9 6.3 3.13-.68 5.24 5.38 4.56 7.4.8 3.24 4.13 3.3 6.21 6.57-1.09 3.53.97 5.07 1.62 8.13 4.16-.5 1.54 3.56 1.15 4.05 7.35-1.4.45 5.06 5.25 6.32 4.81 1.77.88 5.63 2.75 7.16 5.41 2.89 1.18 8.45 3.93 13.1 1.44 9.22 16.86 3.5 10.01 11.4-.68.12 8.03 3.56 4.45 8.23 1.94.32 5.74.46 4.74 3.59-5.11 6.52 2.63.94-.98 9.38 4.73-.33.71 4.11-1.05 4.57 2.51 2.58 1.16 6.63.75 9.86 10 .41 5.28.83 5.35 7.98-1.1 2.45 4.03 5.38-1.32 8.34 4.04-.18 3.37 4.42.45 5.87 5.07.81-1.02 4.9.57 6.68-1.44 4.96 4.58 6.99 3.27 12.31-.6 2.07 2.92 1.8 1.29 5.44-.64 2.31 2.18 3.89 1.58 7.18-2.59 6.99-6.77 12.14-3.44 18.67-2.75 3.54-2.8 4.94.98 7.59-6.1 13.09 3.32 5.13 1.61 11.05-2.81 2.01-2.73 2.02-2.5 4.86-2.49 1.11-2.95 4.45-4.98 5.63 1.57 1.63 4.52 3.77 1.56 6.44 1.67 4.05 2 8.7-1.91 10.81zm.34-41.24zm4.66-12.84zm-8.72-75.44s0 .01.01.01c-.01 0-.01 0-.01-.01zm1.63-3.78h-.04.04zm-4.31-4.16zm-16.49-25.33zm-26.2-58.06z"/>
  <path d="M330.31 395.27c-9.83-4.72-2-6.07-3.71-9.5-7.56.21 1.09-5.93-2.72-10.85 3.39-3.69 1.86-6.87-1.35-10.13.9-2.46 5.33-8.63 1.02-8.97-1.68-1.99 4.49-11.82 1.6-13.88-2.16-5.19 2.79-9.34-2.69-14.99-.04-2.66 3.23-4.61.09-6.55-.85-2.69 3.11-5.23-.28-6.66-.95-2.62 1.61-6.03 1.86-9.06 1.71-2.28-2.18-3.51-.53-5.96-7.5-1.02 3.57-8.43-.25-13.22-4.01 1.35-.11-15.46 2.9-8.91-1.08 3.77-.03 6.35 1.54 9.62.95 1.64-2.89 3.59.2 4.12 2.92 3-2.67 2.72-1.47 10.07 3.51 3.29-2.12 10.1 1.98 11.44-.4 6.63-.53 12.29-.77 18.08 2.13 2.12 2.84 7.25.2 9.11 1.08 2.25 3.03 4.06.71 6.26-.89 2.39 3.21 5.4-.76 7.76 1.84 1.01 1.87 5.16-.01 6.21 2.68 4.25-.68 8.34 2.51 12.36.88 3.47-4.46 6.71-1.09 8.7-.49 3.44 3.37 7.08-.68 9.96 2.82-.95 4.98 3.98 1.7 4.99zm-2.35-8.64zm-1.91-17.65c.01 0 .01 0 0 0 .01 0 .01 0 0 0zm-.01-.22zm1.24-8.85zm-2.15-38.59zm1.08-21.09zM104.54 148.99zM104.36 144.02zM95.11 111.97zM113.36 90.66zM122.31 83.55zM129.17 82.07zM128.72 81.93c.01 0 .01 0 0 0 .01 0 .01 0 0 0zM258.17 190.73c-2.51-.01-5.56-6.46-8.89-6.74-2.95-.25-2.57-4.04-4.46-5.92-3.44-3.42-7.76-3.93-9.94-9.71-1.72-1.8-2.63-.94-2.58-3.6-.8-2.94-5.42.35-3.76-2.18 3.64-7.05-4.57-4.19-8.27-2.28.06-3.73-4.1-2.13-5.91-3.29-4.9-1.12-4.94-8.39-8.78-5.67-2.33 4.19-4.26-.66-7.94 2.39-3.29-.28-9.9 6.66-10.57.81.43-1.31.02-2.69-1.39-3.02-7.92 2.19-2.36-3.63-7.24-5.61-1.73-2.98 2.49-6.57-.33-9.26-4-.77-8.99 7.32-3.68 9.39-.31 1.27.74 3.74 2.3 3.79-.17 1.9-.7 4.54 1.53 5.95 11.75 4.04 6.18 8.89 22.05 1.03 1.79 3.09 4.69 1.7 6.13-.16 2.12 2.65 5.07 3.18 8.16 4.89 4.63 4.83 8.61-.13 9.62 5.03 8.36 4.55 16.81 12.6 20.23 19.63 8.02 3 9.41 7.2 15.14 7.48 5.95.29.82-1.93-1.42-2.95zM173.6 158.68v-.37a2.5 2.5 0 00-5 0v.41c0 .27.01.89-.02 1.39-.6-.24-1.43-.45-2.41-.21-1.2.3-1.9 1.23-2.08 2.74-1.07.55-3.1 1.46-3.42 1.57-1.39.35-3.74.65-4.72.57l-.31-.1c-1.09-.35-2.03-.65-3.05-.14-1.3.63-1.39 1.76-1.49 2.86l-.02.2s0 .01-.01.01c-.54-.28-1.14-.5-1.85-.5-1.67 0-3.08 1.26-4.32 2.36l-.12.11c-.18.16-.34.31-.48.41-1.87 1.41-3.99 2.34-6.25 3.34-1.04.46-2.12.94-3.19 1.48-1.75.87-1.91 2.68-2.01 3.77-.03.34-.09.97-.15 1.08-.21.15-.69.3-1.15.43-1.07.31-2.68.79-3.82 2.3-.71.95-.89 2.01-1.03 2.79-.03.19-.12.69-.16.78-.31.41-.51.65-.64.78-.6.07-1.43.21-2.1.89-.72.72-.92 1.59-1.01 2.18-.36.17-.67.39-.93.65-.71.7-1.04 1.6-.99 2.62-1.57.76-4.01 2.03-3.39 4.51.13.52.31.97.46 1.33.11.27.2.5.25.68-.56.39-1.42 1.11-1.75 2.43-.17.68-.16 1.35-.16 1.92v.47l-.02.01c-.64.41-1.83 1.17-2.2 2.65-.33 1.34.37 2.33 1.01 3.09-.52.9-.9 1.86-1.16 2.87-.17.68-.08 1.25.04 1.66-.13.46-.23.93-.32 1.41-.06.31-.23 1.12-.27 1.23-.25.34-1.74 1.61-2.27 1.97-.15.1-.31.21-.51.35-.2.14-.5.35-.78.53-.67-.3-1.34-.34-1.98-.13-.87.29-1.57.97-1.95 1.87-.37.89-.35 1.86.06 2.66.43.85 1.28 1.38 2.24 1.38.39 0 .76-.09 1.12-.26.17-.09.33-.19.48-.31.27-.01.53-.03.79-.09 1.05-.26 2.08-.98 2.91-1.55l.41-.28c.03-.02 2.9-2.08 3.73-3.47.53-.88.74-1.91.94-2.9.08-.42.19-.95.28-1.18.27-.67.29-1.37.09-2.12.21-.63.52-1.22.92-1.76.61-.81.81-1.77.58-2.71-.12-.5-.36-.92-.6-1.27.09-.07.17-.15.25-.23 1.27-1.27 1.25-2.95 1.24-3.96v-.32c.51-.35 1.46-1.04 1.8-2.38.36-1.45.04-2.67-.25-3.47.14-.07.27-.13.38-.18.98-.47 1.75-.85 2.28-1.55.46-.62.66-1.34.59-2.14.19-.12.36-.26.51-.42.5-.5.83-1.12 1-1.89.15-.05.3-.11.43-.17 1.04-.52 1.86-1.49 2.52-2.37.75-1 .94-2.11 1.08-2.92.03-.15.11-.62.11-.65.14-.18.69-.34 1.22-.5.81-.24 1.81-.53 2.74-1.23 1.83-1.37 2.03-3.49 2.14-4.71v-.02c.75-.36 1.52-.7 2.27-1.03 2.39-1.06 4.87-2.16 7.19-3.9.24-.18.57-.46.94-.79.25-.22.67-.6 1.02-.87.78.47 2.59 1.45 4.29.18.84-.63 1.59-1.78 2.04-2.75 2 .14 4.81-.32 6.29-.69.8-.2 4.93-2.08 5.72-2.71.34-.27.62-.6.84-.97.46.08.91.07 1.36-.02 3.83-.8 3.79-5.11 3.78-6.73zM298.52 73.67c1.17 1.91 4.62 5.52 7.9 4.78.37 4.06 5.77 4.59 8.17 6.61 4.67-.77 4.22.53 5.33 3.82 15.75 4.9 3.74 15.24 14.83 17.05 4.35-.09-.9-14.11-1.53-14.84-4.27-.3-2.28-4.29-3.87-6.73-3.34-1.45-6.12 1.11-7.2-3.93-7.41.08-4.91-3.76-10.4-3.7.4-6.73-8.44-3.3-9.92-9.07-8.39 3.09-5.24-3.34-11.61-.19-1.11-1.89-3.68-1.69-5.62-.76.47-6.3-5.68-2.33-8.96-.88-.97-4.03-9.25 2.41-4.5 2.74 1.73 5.04 7.85-.35 9.46 2.69 6.23-.39 12.14 5.62 17.92 2.41zM274.25 37.66c2.6 1.02 2.2 5.54 6.27 4.2.17 1.93 1.47 3.59 3.6 4.58-1.79 4.75 3.45 4.4 5.26 6.88 1.4 1.68 1.28 4.82 4.56 5.01 8.67-5.04-19.87-33.43-25.7-26.26-.41-3.35-4.93-4.92-7.78-2.85-.26-6.21-7.35-2.27-10.48-3.17-5.84 5.92-13.77 3.4-17.89 11.22-1.03 2.79-5.27-.94-6.59.83-4.25 1.72-5.71 10.81-1.08 12.99 4.14.21 1.75-5.94 2.66-8.11 7.12 3.85 8.79-5.44 14.66-5.12.57.18.83-.85 1.16-1.13 1.34-2.03 1.68-1.99 4.74-1.9 2.51-2.66 6.77-4.36 8.85-2.42 6.51 4.66 3.87-1.82 9.8 4.87 3.2 1.47 5.87-3.74 7.96.38zM226.08 10.27c3.53 2.23 5.03 10.12 10.5 6.65 2.34-1.75 6.3 5.41 7.55.25.92-11.99-11.3-3.02-13.04-10.1-3.55-6.55-9.9-.13-14.61-3.72-4.21-2.11-10.07-3.29-14.6-1.54-1.41.91-2.14-2.31-4.16-1.75-2.81 1.9-3.82 2.37-7.09 3.06-3.16 7.91-15.22 14.38-5.5 23.14 4.54-6.29-.12-9.47 8.56-14.33.11-8.34 15.73-6.06 20.57-2.99 4.04 4.18 7.71.33 11.82 1.33z"/>
  <path d="M224.38 10.87c-.89.37-.11 1.23.61.99v-.5c0-.32-.31-.56-.61-.49zM355.14 160.51c-6.22 1.4-5.22-6.15-11.68-3.14-1.18-3.33-5.86-2.05-8-.55-1.73-3.63-5.36-2.73-7.89-.35-2.84-1.59-4.61-3.5-8.33-1.54-1.34-3.56-4.33-4.32-7.34-2.02-.94-6.09-5.52-3.49-8.99-1.61-1.46-5.48-7.6-1.63-7.6 1.31.07.67.6 1.74 3.26 1.6 1.39 3.7 6.06 3.5 8.48.82 1.83 5.6 7.9 1.61 12.5 4.62 3.77 1.41 8.03 3 11.64.43 1.64 2.2 6.17 2.56 8.12.56 1.28 2.19 4.51 2.24 6.72 1.29 1.67 4.32 8.38 3.74 10.96 6.98-5.53 2.93 2.35 8.91.33 13.14-2.49 3.62-4.71 9.01-9.7 7.78-3.33 1.96-3.45 15.42 1.14 13.22 4.73-14.69 6.02-5.38 13.18-19.03 1.17-8.87 3.42-19.01-6.8-23.51zM322.14 113.92c-1.2-2.09-2.84.32-2.94 2.09-.12 6.11 7.77 4.18 8.47-.32 17.63 4.33 4.42 6.93 14.89 11.75-1.35.96-2.81 1.95-5.07 4.07 2.17 4.81 4.63 14.83 11.44 13.48-.38 4.38 5.91 2.81 5.29 6.31-.88 4.85 5.1 7.32 5.51 1.4-.07-4.78-6.62-12.81-9.06-13.59-3.68.63-4.98-1.23-5.59-5.18-2.55-2.02 5.42-4.53 2.53-7.97-.33-10.96-17.91-19.18-25.47-12.04zM178.84 32.86c-1.19.46-1.09-.19-1.39-1.87-2.12-1.14-2.41-2.75-2.47-4.44-.15-6.09-7.19-10.53-12.21-14.08-2.06-.39-6.83 3.14-8.24 5.28-2.47-1.59-6.81-3.31-7.88.95-2.03-1.27-5.55-3-6.53.38-16.07-6.69-21.99 16.44-11.57 9.76 6.66-11.95 16.22 1.24 22.34-7.21 7.45 12.59 8.49-9.33 14.84-1.06 3.78 4.93 1.06 14.36 7.85 17.33 8.94 6.62 12.55-4.96 5.26-5.04zM159.04 52.29c-8.04.47-4.81-6.14-10.5-9.61-5.97 1.79-7.34.67-7.84-.68-1.14-2.99-11.46-3.12-14.02.46-3.43-3.91-9.98.79-10.15 5.64-6.03 1.3-9.89 9.24-5.68 14.04-3.7.87-3.86 7.17.44 7.19-.79 3.85-6.05 11.67-.21 13.25 5.07-2.46 2.41-8.16 6.8-10.95 2.13-6.29-5.19-11.95-1.62-17.88 5.19 3.8 4.23-5.34 6.66-7.48 9.09 6.05 6.62-7.89 18.48 3.32 7.63-4.14 5.85 2.11 8.95 6.88 3.33 1.62 6.13-1.98 7.34 2.84 3.75 7.47 4.31-2.61 1.35-7.02zM333.78 205.58c-.94.28-1.84.54-2.6.67.91-4.34-2.9-3.72-5.52-4.03-1.57-1.17-2.66-.61-3.46-.2-.78.51-1.42.45-2.19-.51-4.23.53-7.88 1.01-6.14 4.73 2.5 2.33 3.71-.17 5.56 2.15.89.57 2.41.17 3.26.23 6.31-.02 5.47 5 13.62 1.51.16 4.35-3.88 9.82-1.45 13.72.83 1.66.82 1.94-1.33 2.53l-.02-.05.02.05c-3.41-.14-3.37 3.49-1.56 5.16-1.98 3.08-2.87 7.06-.95 11.34-2.95.21-3.03 4.58-5.71 4.55-3.87 8.36 1.15 13.67 5.65 3.97 1.13-2.15 2.31-4.14 4.8-5.5 2.11-2.21-2.15-7.33-.46-9.68 1.37-4.38 7.85-9.5 4.39-14.23 2.29-2.02 3.11-3.99.73-5.58 4.6-6.25 1.95-14.92-6.64-10.83zM146.83 91.93c-2.72-.27-6.23 4.16-9.32 3.6-1.05 1.64-2.3 3.01-2.95 3.02-2.09-.44-2.83-3.23-6.19-1.3-5.48-5.78-12.68-8.13-19.62-5.28-2.62.6-5.57 1.28-7.32 4.41-3.99-.81-6.95 2.18-5.42 6.04-2.81.43-5.15 4.74-3.79 7.09-3 2.2-5.77 7.16-1.52 9.75-3.25 2.32-.92 4.93-.82 7.81-2.85 2.52.39 6.01.42 8.95 1.91 5.97 12.96 3.77 6.87-1.32-3.48-1.83-.52-7.78-2.14-8.94-2.06-3.49 7.07-6.6-.74-10.9 2.16-1.55 4.27-4.66 3.44-5.62-.62-2.09 5.69-2.48 3.56-7.15 4.1.18 4.22-4.32 7.78-4.86 1.06 1.16 3.68 1.42 4.88.17.94 1.93 3.72 2.18 4.98.5.82 1.15 2.66 2.13 3.99 1.24 1.31 1.51 2.37 3.24 4.57 3.83 4.18-1.57 3.98 2.45 8.47 1.81 4.59-5.21 6.29 1.21 8.89-5.85 1.41-1.59 5.31-5.19 1.98-7zM126.2 140.67c-5.69 1.85-20.95-2.25-21.82 6.03.71 1.58-3.05 5.03-.24 6.74-2.4 1-3.06 4.53-1.63 6.58-5.84.22-10.46 2.44-3.43 7-4.36 3.76-4.58 6.49-7.39 10.59 3.02 4.73-5.06 7.22-.65 11.9-5.62 4.84 2.67 6.54 3.3 11.06-2.52 1.77-7.31 3.17-8.04 6.31-.64 2.29 2.01 4.11.98 6.79-.29 1.79-.62 3.8 1.18 4.95-2.07 4.66-6.23 2.57-7.2 7.54.25 3.16 2.82 4.22 4.77 5.79-1.65 2.77.55 5.06 3.23 5.36-1.48 3.39 8.39 17.67 10.06 9.43-1.57-5.5-5.87-5.83-5.14-12.09-.74-1.23-1.59-1.6-2.2-1.87-1.86-1.58.24-3.38-4.32-5.81.01-.19 1.6-.25 2.29-.75 6.97-10.28 1.98-6.66 2.56-15.53-3.51-5.64 11.05-5.22 6.15-12.32 1.34-2.4-1.6-4.96-3.39-5.96.97-.88 2.3-2.67 1.42-4.59-2.25-2.86 4.29-6.04 1.58-9.61 8.17-2 1.5-5.15 4.37-7.51.92-.92 2.18-2.17 1.68-4.72 2.66-1.64 6.28-4.23 3.3-7.6 11.05-3.02-4.23-8.86 5.89-11.93.61-.68 1.94-.23 4.54.93 3.07-3.3 9.14 2.12 11.29-3.58 1.91-3.59.17-4.35-3.14-3.13zM289.94 132.88c-.25.03-.52.02-.81-.04-1.96-.37-2.79-1.77-3.29-2.6-.13-.21-.32-.54-.41-.61-.13-.02-.82.06-1.23.1-.79.09-1.68.18-2.52-.01-.82-.18-1.41-.69-1.86-1.17-1.13 1.47-2.49 1.87-4.08 1.19-1.9-.81-2.19-2.99-2.27-4.84h-.01c-.73-.31-1.46-1-2.56-2.17l-.18-.2c-.41-.43-.76-.99-1.16-1.65-.15-.25-.37-.6-.59-.93-.41.59-.88 1.36-1.22 1.91-1.54 2.5-2.64 4.31-4.49 4.27-2.11-.05-2.91-1.46-3.21-2.82-1.08-.06-2.49-.34-4.42-.76-.18-.04-.37-.08-.57-.12-.08 1.09-.42 2.73-2.21 3.13-2.23.51-3.24-1.61-3.7-2.66-.95.25-2.28.39-3.77-.78-.24-.19-.42-.4-.56-.6-.92.2-2.37.46-3.68-.57-.46-.36-.77-.86-1.06-1.4-1.07.89-2.89 2.21-5.59 1.6-2.37-.53-3.04-1.99-3.28-3.11-.16.05-.35.08-.52.11-2.05.23-5.08-1.69-6.06-3.05-.73-1.03-.61-2.36-.41-3.68-.46.36-.96.69-1.55.87-1.5.46-2.79-.37-3.94-1.11-.89-.57-1.81-1.17-2.6-1.11-.44.24-1.42 1.19-2.02 1.78-1.81 1.76-3.86 3.75-5.83 2.21-2.16-1.7-1.1-4.26-.47-5.8.14-.33.34-.82.45-1.19-.23-.01-.49-.01-.7-.01-1.05 0-2.36-.01-3.45-.7-.9-.57-1.31-1.32-1.56-1.84-.76.07-2.38.08-3.11-1.48-1.02-2.16-.54-4.52-.12-6.61.19-.93.37-1.81.38-2.53a2 2 0 114 .1c-.02 1.08-.25 2.18-.46 3.24-.23 1.15-.47 2.33-.39 3.25.77-.03 1.92.08 2.68 1.14.28.39.45.77.58 1.05.06.12.13.29.17.33.17.06.89.07 1.32.07 1.22.01 2.75.01 3.82 1.13 1.19 1.24 1.07 2.75.68 4.07 1.16-1.1 2.23-1.97 3.39-2.13 2.32-.32 4.11.84 5.44 1.7.25.16.56.36.8.49.15-.12.34-.27.48-.39.93-.77 2.33-1.93 4.11-1.54 2.67.6 2.2 3.62 1.94 5.25-.06.38-.15.98-.17 1.33.47.42 1.5 1.03 2.07 1.18l.18-.12c.56-.38 1.4-.95 2.48-.73.62.13 1.16.51 1.51 1.06.56.89.67 1.77.75 2.41.02.13.04.3.06.41.06.02.14.04.25.07.9.2 1.39-.12 2.38-.96.72-.61 1.62-1.38 2.87-1.35 1.54.04 2.29 1.42 2.83 2.43l.17.31c.15-.02.32-.06.46-.09.68-.15 1.53-.33 2.44-.01.92.33 1.33 1.06 1.53 1.49.08-.03.28-.09.43-.14.28-.09.58-.18.89-.25 1.01-.23 1.74.14 2.27.68.56-.95 1.44-1.19 2.21-1.17.53.01 1.26.17 2.62.46.73.16 1.97.43 2.92.58.05-.63.3-1.42 1.22-1.82.8-.36 1.74-.16 2.38.51.7.74.84 1.69.87 2.62.17-.27.34-.54.47-.77 1.6-2.61 2.98-4.86 5.15-4.38 1.61.36 2.6 1.97 3.47 3.39.21.34.52.85.65.98l.2.22c.12.13.37.39.62.64.36-.15.82-.23 1.34-.09.7.19 1.24.72 1.46 1.43.17.57.19 1.23.21 2.06.01.23.01.54.03.87.57-.67 1.49-1.35 2.82-.98 1.03.28 1.69 1.04 2.18 1.6.08.09.19.22.28.31.27 0 .71-.05 1.02-.08 1.12-.12 2.4-.26 3.54.35 1.03.54 1.55 1.41 1.94 2.05.58-1.04 1.63-2.45 3.57-2.4 1.41.03 2.2 1.04 2.62 1.58.04.06.09.12.13.17.94.18 2.06.23 3.06.25a2 2 0 11-.1 4c-1.28-.03-2.78-.1-4.11-.4-.81-.18-1.37-.67-1.76-1.1-.05.1-.1.19-.14.27-.35.69-1.1 2.18-2.59 2.35zm-73.74-22.81zm-13.15-8.72z"/>
  <path class="eyes" d="M224.04 275.83c.42.27 2.16.65 3.13.05 1.44-.89 1.72-1.75 2.42-3.19.36-.73.56-1.54.36-2.24-.14-.47-.48-.88-.98-1s-1.81.41-2.05.9c-.51 1.01 1.03 2.14-1.4 2.72-1.98.48-.53-3.06-1.66-3.33-1.03-.25-1.87.67-2.04 1.5-.39 1.81.52 3.51 2.22 4.59zM135.61 286.92c.4.24 2.03.57 2.96-.01 1.37-.85 1.64-1.66 2.32-3.01.35-.69.55-1.45.36-2.1-.13-.43-.44-.81-.92-.92-.48-.11-1.71.42-1.95.87-.49.95.96 1.97-1.36 2.56-1.88.48-.47-2.85-1.54-3.08-.98-.21-1.77.66-1.95 1.44-.36 1.7.48 3.27 2.08 4.25z" class="st0"/>
</svg>
