<svg
  data-face="patricia"
  xmlns="http://www.w3.org/2000/svg"
  aria-hidden="true"
  focusable="false"
  viewBox="0 0 500 500"
  width="500px"
  height="500px"
><path d="M114.65,203.55c-3.05,25.32-5.54,35.39-1.48,60.93,3.08,19.36,7.68,55.58,19.44,72.85C139,349.65,145.5,356.8,153,369.1c9.64,14.19,28.81,16.68,42.34,18,16.17,2,25.66-1.79,39-13,2.21-1.51,15.27-10.72,8.85-10.39-25.27,17.88-28.92,22.18-62.3,14.11-11-1.67-23-9.95-28.1-21-10.09-14.45-20.08-28-25.61-44.85-11.56-51.59-14.82-55.4-6.08-110.72,1.45-12.58,1.43-22.13,3.52-33.54-.85-7,8.77-41,12.49-53,6.57-21,20.69-30.89,28.6-36,17.62-11.36,38.35-1.49,56.89,1.34,1.26.25,1.24-3.32-9.35-6.65-21.55-6.78-40.71-12.14-61.38,9.39-7.87,8.2-16.48,14.59-18.34,25.93-2.52,8.36-7.55,18.22-7.79,26.75C121,158.32,118.24,180.12,114.65,203.55Z"/><path d="M255.34,491.12c-2.8,7.53,11.57-7.82,6.35-32.61-2.82-13.44-30.57-14.32-45.17-51.63-1.89-3.86-4.67-17.45-5.52-21.61-2.08-1.23-14.57-2.21-12.48-.12,12.91,12.9,11.71,24.92,18,36.34,16.3,29.58,41.1,26.49,42,51.41A47.51,47.51,0,0,1,255.34,491.12Z"/><path d="M233.88,319.43c-6.74,1.59-28.61-18.14-47.59-12.61-7.28,2.12-19.8-9.59-29.67-2.89-2.33,2-10.31,2.54-8,3.39,5.79,2.15,8.24,13.22,8.88,14.8,2.54,8.38,9.39,17.76,17.9,16.84,9.48-1,15.54,3.37,24.21,3.61,15-.13,21.21-7.3,29.86-15.54.9-.86,4.43-2.76,6.33-4.49C238.28,320.26,238.71,318.29,233.88,319.43Zm-12.14,10.19c-7.49,5.8-11.4,8.05-24.21,6.85-8.09-.82-9.74-4.12-22.48-3-7.4.66-10.87-5.68-14.07-13.45-2.42-5.86,19.53,3.33,22.79,2.5,3.54-.9,14,2.75,18,3.67,5.93,1.4,12.27-.66,18.62-.71C224,325.45,224.65,327.36,221.74,329.62Zm.84-9.26c6.35,3.35-11.6,1.09-18.05,1.48-5.2-.33-17.23-5-19.34-4.79-13.31,1.24-19.52-4.94-24.12-5.8-5.8-1.08,1.37-6.54,10.37-3.79,3.94,1.2,10.39,5,13.05,4.05C198.87,306.21,215.18,316.45,222.58,320.36Z"/><path d="M213.07,262.29c-1.16-2.32,1.09-7.88-2.16-7.13-1.25.29-2.23,4.68-2,8.82.13,2.84,5.21,8.81,5.12,4.32,0-2.16,2.59-1.36,3.48,0,4.73,7.3,1.22,17-8.88,19.74-3,.82-5.24-4.14-11.45-.14-10.12,6.52-17.93,3.66-23.8-5.1-4-6-10.78-3.34-9.16-12.94.44-2.58,2.72-7.89,4.84-8.49.54-.15.67-1.24.52-1.77-3.49-3.26-10.4,9.87-14.09,12-1,3.24,1.94,1.66,3.79-.23A1,1,0,0,1,161,272c-.41,12,8.54,10.73,10.41,13.58,9.77,14.89,20.69,8.58,27.56,5.45,1.65-.75,4.84-.2,6.33.17,7.67,1.88,13.32-2.24,16.23-7.93,1.46-2.85,6.28,2.34,7.65,3.88.82.94,3.38.18,1.78-2.5-2.72-4.56-5.52-5.3-7.65-12.39C220.78,263.81,214,264.19,213.07,262.29Z"/><path d="M272,225.92c2.58-1,9.27-2.66,10.5-5.26,1.19.36,9.76,1.11,7.87-.58-11.63-10.41-33.07-22.17-47.54-19-5.17,1.12-13.39,7-10.84,9.18,1.48,1,4.81-2.34,6.38-3.41,6.22-4.25,10.75-3.68,15.46-2.59,1.8.42,1.31,1.6-.22,1.58-7.66-.11-13,2.29-19.67,7-3.86,2.48-5,4.6-2.31,5.21C245.81,215.71,257.48,232.08,272,225.92ZM243.43,216c-2.38.2-2.88-1.57-2.63-3.27a1.12,1.12,0,0,1,.55-.77c2.79-1.64,4.69-1.77,7.2-2.35,1-.23,1.79.13,1.46,1.11-1,3-.42,5.65,1.34,8.49a.26.26,0,0,1-.32.37C248.35,218.43,246.41,216.77,243.43,216Zm25.68,5.07c2.1-2.46,3.23-5.11,2.79-8.12a.31.31,0,0,1,.43-.34c2.36,1,3.05,1.91,4.78,3.63a2,2,0,0,1-.91,3.33c-2.56.64-4.07,1.41-6.84,2A.28.28,0,0,1,269.11,221.11Z"/><path d="M149.52,192.1c-9.81,1.24-9.45,5-14.44,6.05-4.75,1,10.09,6.75,14,8.6,4.62,2.69,13.83,2.33,19.9,2.11,2.94.59,6.33,2.72,9.6,1,1-1.81-1.28-5.2-4.37-8.33-.23-.24-.07-.45.13-.33.75.43,1.31.44,1.56,0-4.6-10.48-15.23-13.95-26.2-13.61-2.55,0-9.46,2.45-7.48,3.2,1.09.42,6.84-.65,9.06-.41C152.63,190.58,151.77,191.71,149.52,192.1Zm-6.78,7.65c-1.06-.7-.06-1,1.07-1.6,2-1.06,6.14-3.72,5.77-2.3-.61,2.42-.85,3.59-.06,6.17a.37.37,0,0,1-.53.46C147.27,201.44,144.48,200.9,142.74,199.75Zm30.59,5.75a1.25,1.25,0,0,1-1.1.92c-.54,0-1.28-.22-2.57-.5a.34.34,0,0,1-.23-.51,8.64,8.64,0,0,0,1.2-3.5.28.28,0,0,1,.47-.17,16.18,16.18,0,0,1,1.79,1.59A2.47,2.47,0,0,1,173.33,205.5Z"/><path d="M223.92,209.25c-2.46,1.59-5.48,4.23-5.49,6.86,0,3.37,3.64,6.71,6,7.71a1,1,0,0,0,.42-1.35C217.62,212.21,229.76,209.33,223.92,209.25Z"/><path d="M470.28,480.28c-28.46-29.68-70.68-42.66-52.35-101.52,9.24-29.66,16.06-55.13,3.7-75.36-3.62-7.64-12.36-15.54-14.46-28.07-3.73-25,5.61-38.44,1.37-65.3-3.41-23.49-10.87-44.68-17.47-62.16C374.89,104.33,350.52,33.54,289.19,27.36c-2.35-.24-20.92-9.29-40.68-10.3-32.19-1.65-85.24,22.29-119.86,73.71-4.67,6.93-13.54,22.11-11.15,23.65,2.14,1.38.21,3.94-1.15,6.1-1.23,2-3.78,5.24-1.55,7,3.25,2.5-2,5.7-2.86,9.49-1.35,3.91-7.87,67.54-9.14,73.69-1.68,8.07-7.14,29-6.24,39.26,1.19,13.62,3.52,18,5.82,29,6.5,31-2.3,64.19-10.88,86.58a.89.89,0,0,1-.68.55c-3.86.68-10.39,2.89-19.4,5-10,2.34-16.57,9.13-22.64,12.55l-.07,0c-9.43,6.47-12.43,9.89-21.9,16.43A1,1,0,0,0,28,401.67c11.85-8.39,28.68-16,39.6-22.12,8.24-4.6,14.56-4.35,18.79-4.52a.9.9,0,0,1,.87,1.24c-2.87,7.15-5.25,13.09-6.29,17.66-4.36,19.14-6.43,34.4-6.44,40.5s9,51.56,9.09,40.45c.14-11.6-6.79-46.55,3.15-78,7.67-24.25,31.45-58.51,22.08-114.64-1.08-6.49-3.82-22.51-4.7-32.55-.66-7.67,4-34.64,5.46-40.57s5.89-68.67,10.94-74.9c1.86-2.72,2.7-5.88.72-8.63s5.45-9.65,3.87-12c-1-1.46-1-6,10.26-22.52l0,0C156.13,63.24,200,49.37,227.12,49.6h.13c43.25-7.32,87.31,31.73,110.22,77.87a1,1,0,0,0,0,.1c4.93,14.27,21.1,38.29,20.85,47.59s1.54,11.28,1.85,20.57,2.9,6.85,2.48-3.79c0-23.54,3.5-46.5-2.64-69.65a.68.68,0,0,0,0-.14c-.66-10.16-9.62-22.89-10.87-29.46C346.54,79,335.46,64.92,322,52.88c-7-6.27-29.21-19.64-19.86-17.72,27.34,5.59,46.22,34.37,59,59.25,9.52,18.81,15.11,35.22,22.07,54.43,7.09,19.57,15.49,40,18.44,62.5,4.22,26.8-5.26,39.22-1.45,64.32,2.14,12.81,10.95,20.83,14.62,28.59,12.11,19.86,6.84,42.95-3.81,79.31s-3.63,58.89,30.69,81.75c5.17,3.63,17.11,10.93,27,19.08C475.17,489.74,475.82,486.06,470.28,480.28ZM344,93s10.08,26.9,12.26,41.36c.78,5.21-6.86,7.78-8.79,2.88-17-43.15-38.86-71.5-73.77-85.17s-63.47-12-89.41.41c-14.06,7.06-16.92.83,0-9.51,25.61-15.62,71.15-29.57,99.56-9.61C315.19,55.41,332.6,61.2,344,93Z"/><path d="M335.28,291.11c-4.22-12.28-2.79-27.74-.39-35.81s5.21-33.38,2.89-34.94c-7.06-5.26-4.89-15.87-5.34-23.33-.47-17-11.27-26.58-14.31-42-3.66-19.43,6.46-32,.74-49-14-21.29-53.26-37.77-76.45-30.88-3.34,1-5.88-3.09-7.89-1.39s-6.57.79-7.23-1.89c-1.17-4.78-2.1-9.64-3.54-5.32-2.09,6.25.91,11.65,4.12,12.87s5.67.94,7.13.06c2-1.19,5.32,1.76,8.07,1,20.83-5.31,42.8,7.55,59.17,18.16,24.8,14.13,4.43,34,8.9,56.63,2.93,15.48,15.82,26.81,16.29,43.79.4,8.05-2.9,22.71,4.14,29.83,5.61,5.66-5.73,38.85-4.37,46.17,4.42,23.84-6.48,16.53-7.32,12.34-1.77-8.87-4.93-2.22-5.08,2.21-.28,7.81-3.88,15.63-8.49,21.54-5.69,7.3-13.94,11.26-19.28,16.79-3.59,3.71-1,3.19,8.15-1.82,3.14-1.73.73,19.46-6.79,48.89-5.63,22-.74,50,5.45,64.54,6.09,14.34-31.71,14.52-16.78,16.12,11.45,1.22,20.1-5.33,27.6,3,14.6,16.2-2.95,42,5.9,35,6.89-5.46,8.24-17.2,2.58-30.6-4.06-9.58-11.41-14-16.46-33.82-3.72-14.59-8.8-30.67-3.6-53.49,5-22,24.05-62.89,27.68-74.2,1.73-.5,3.29-.37,3.65,1,.24.85.44,2.54,1.05,3.29.93,1.14-.79,2.75.09,5.94a9.71,9.71,0,0,1-.19,6c-1.7,3.65,0,5.78-.69,8.62-.51,2-2.48,3.07-3,8.55-.51,5.11-5.72,12.06-6.82,14.68-1.38,2.45-2,7.86-.54,12,2,5.51,11.17,9.2,12.82,9.93h.09c4.46-3.36,10.72-6.73,11.28-12.76s-3.86-11.21-5.55-16.68c-1.95-3.29-1-11.74-3.29-12.73-1.26-.54,1.15-5.82-1.19-8.21-1-1,.36-3.81.57-5.1.47-3-1.26-5.67-.13-8.51,1.24-3.13-2.29-7.67,1.47-8.09,1.33-.15,2.36.77,3.26,1.76,6.42,7,12.65,13.18,16,19.85,7.27,14.64,1.86-7.59-3.24-12.39A43.43,43.43,0,0,1,335.28,291.11Zm-5.08,71.2c-3.61,2.91-5.7,2.65-8.14.78-5.6-4.31-4.86-8.21-2.9-12.6,0,0,5.09-6.28,5.66-13.4h0c.42.08,2.49-2.44,2.72,1C328.53,353.32,340.36,354.14,330.2,362.31Z"/><path d="M248.27,183.39c-14.13.17-20.29,2.14-18.56,7.28s15-.59,19.65-.85c6.06-.33,23.6.42,30.19,2,5.06,1.21,15.09,8.51,20.69,13.28,6.71-.58-15.91-21.33-23.55-21.54C272.67,183.45,254.17,183.32,248.27,183.39Z"/><path d="M125.37,174.74c-.19,1.55,5.9.39,9.07-1.19,7.52-3.76,28.29,6,32.87,7.2,3.89,1,6.5,6.59,11.77,5.54,3.51-.71-1.81-6.91-3.85-8.71-1.51-1.33-13.7-4.58-17.65-6.34-10-4.47-17.52-5.19-21.84-3.67C133.9,168.21,125.56,173.2,125.37,174.74Z"/><path class="eyes" d="M253.52,215.54c.09,3.72,4.08,4.69,7.37,5.5a4.53,4.53,0,0,0,5-2.35c1.42-2.49,1.89-4.13,1-6.1-1.94-1.38-4.44-2.25-4.78.75-.54,3.32-3.63,2.17-2.87-1.51.13-.65-.61-1.12-1.16-1.33C254.76,209.24,253.43,211.09,253.52,215.54Z"/><path class="eyes" d="M153.62,199.82c-.29,5.25,4.53,4.49,7.91,4.76,5.42-.69,5.81-9.81.51-8.88-2.51.79-1,6.55-4,5.38a1.72,1.72,0,0,1-.58-2.28C160.22,192.89,152.61,194.16,153.62,199.82Z"/></svg>
