<svg
  data-face="sana"
  xmlns="http://www.w3.org/2000/svg"
  aria-hidden="true"
  focusable="false"
  viewBox="0 0 500 500"
  width="500px"
  height="500px"
>
  <path d="M289 151.84c-.87 1-5.61 1.53-11 .94-11.51-1.26-11.68 5.9-20.21 5.53-4.14-.18-2.34 4.23-12.46 4.51-5.7 1.12 8.41 20.92 13.24 5.06 1.89-3.23 8.95-2.29 10.77-4.53 8.07-10 16.43.3 25.24-7.89 1.14-1.06 7 .8 9.06 1.26 10.17-1.24-10.36-9.98-14.64-4.88Zm-92.6 27.34c-1.38 2.74-7.24 2.95-11.07 2.43-4.15-.57-5.31 5.73-10.83 5.67-5.8-.06-14.07 2.86-16.26 9.61-2 6.2.55 4.56 3 1.61 7.73-9.45 16.5-3.06 20.74-7.81 3.59-4 8.61.64 13.18-2.95s9.89 4.34 11.31-.39c1.96-6.7-7.73-12.83-10.07-8.17Zm78.66 143.87c9.2-3.66 15.31-4.35 18.28-7.85 10.48-12.39 14.28-25.27 17.33-27.45s8.83-4.65 3.53-5.29c-3.59-.44-8.16 2.88-9.31 3.37-9.31 4-24 7.13-28.4 7.22-8.92.19-10.92 7.87-22 5.94-4.8-.83-15.73 6.58-28.62 9.72-3.78.92-5.47-.49-4.9 1.22.28.85 3.43 1.58 5.94 2.27 1.76.48 18.22 8.78 25.87 12.46 5.38 2.59 14.77 1.34 22.28-1.61Zm-23-20c3.21-1.12 8.2.67 10.91-.32 3.54-1.28 9.3-5.91 14.61-5.94 5 0 19.59-6 15.05-2.35-2.76 2.22-17 12.89-26.07 13.47-11.73.79-46.56 4.86-14.47-4.83Zm-15.64 9.48c10.18.27 20.09-.68 29.09-.68 11.06 0 25.43-16 35-16.37 3.9-.14-8.16 15.43-11.65 17.92-8.86 5.38-26.86 12.6-36.48 7.43-3.54-1.9-22.62-8.45-15.93-8.27Zm73.73-127.3c-8.79-2-24.57-9.11-38.65 7.76-2.4 2.87-8.62 6.33-8.08 9.49a1.13 1.13 0 0 0 1.93.86c10.49-5.25 20.11 1.08 33.23-8.66 3.85-2.85 7.16-6.91 9.74-6.91 4.51 0 5.5-1.69 1.83-2.54Zm-29.51 12.83c-.87.2-7.87.6-8.92.61-3.24 0 .89-.8 4.34-4.71 4.25-4.82 3.27-.8 4.22.61 1.55 2.29 2.85 2.94.36 3.49Zm22.32-9.7c-3.21 1.66-5 4.57-4.42 2.6.21-.76.07-3.87-1.38-4.83s1.19-1.09 4.34-.12c2.42.74 4.5.8 1.5 2.35Zm77.81 178.46c0-2.67-1.41-11.27-5.2-7s1.39 5.3.7 7.79c-11.55 41.8-59.7 62.71-82.67 98.7-4.36 6.89-16 20.63-19.05 31.2-.42 1.48 5.62-1 6.29-2.36 10.46-21.57 27.39-40.84 45.52-56.55 23.04-19.93 54.28-42.22 54.41-71.78Z"/>
  <path d="M452.11 432.83c-4.93-7.3-10-4.1-12-7.44-3.8-5.15-21.13-30.19-36.73-27.54-1.91.32-5.5-30.56-12.45-45.59 11.79-13.84 8.79-57.25-1.16-73.61 4.56-6.52-6.31-19.94-3-38.84.41-2.3 1.64-.2 2.5-1.71C437.48 153.28 362.62 53.72 274 35.52c-6.84-1.41-11.55-3.4-14.58-6-6.25.81 9.27 8.49 14.08 9.48 73.29 15.87 150.19 108.71 116.82 188 1.8-6.15 3-10.66.84-15.13-.76-1.57-2.14-3.12-2.73-4.78-1.61-5-6.91-1.75-5.51 3.69 1.17 4.05-2.13 1.52-2.32 5.45 0 0-.81 6.26-.82 6.31-1.12 5.58-2.78 3.11-3.69 8.81-3.17 19.91-5.23 9.09-5.38-8.92-.22-25.3-5.81-32.36-17.32-45.29-1-1.11.39-3 .52-4.43.47-5.12 1.81-12.1-.72-16.19-8.87-9.21-38.14-.6-55.05 4.34-20.3 6.28-54.49 25.34-53.75 48.14-3-.84-14.78 3.79-18.14 5.74-16.45-20.07-48.25-12.74-72.2-5.15.95-63.92-19.87-42.46 20.29-94.51 19.7-6.07 41.49-11.36 53.88-29.37 38.54-6.49 23.9 51.18 63 53.72 3.9 1.28 12.49.21 16.16 2 6.46 3.72 8.66 8 16.71 9.36a.9.9 0 0 0 .16-1.78c-7.44-1.38-7.68-9-14-12.47-5.25-2.59-12.93-1.87-18.42-3.79-35.22-8.69-23.07-57.17-61.12-51.85-2.86.4-13.4 3.64-11 4.57a9.44 9.44 0 0 0 3.05.47c-12.46 20.2-46.36 18.17-67.67 27.06-24.14 10.13-29 30.82-31.42 47.28a.94.94 0 0 0 .86 1.15c5.15-17.86 19.29-40 41.49-45.85-6 13-17.76 21.48-22.1 34.88-1.93 6.06 2.32 13.79 3.44 23.61 1.06 9.23 3.07 23.16 2.48 37-4.84 2.17-29.29 12.86-30.35 20 1.63 15.5 28.3 41.49 43.36 46.66 2.42 19.32 10 30.2 20.73 48.67-19 10-28.21 37.58-21.48 54.47-22.74 9.72-62.34 11.53-82 27.93-13.52 21.88-28 31.57-37.91 54.78.7 3.27 5.39 1 6.48-2.68 9.17-20.82 18.34-25.55 32.55-43 19.73-23 61.68-20.92 84-30.15 2.77 5.48 5.73 9.07 10.73 12.26-2.08 2.85-10.15 82.29-1 67.26-1.57-23.85 2-43.44 8.18-65.07a28.4 28.4 0 0 0 15.54 2.1c-7 10.88-10 43.57-11.4 59.57.69 5.63-4.51 13.06-5.89 20-.46 2.27 4.52 13 5.22 10.81 7.06-22.24 6.35-79.89 18.07-88.36s16-31.35 23.76 16.74c1.24 7.73 7.23-.14 5.78-2.32-9.84-23-3.52-37.6-8.08-57.6-.24-1.35 14.83 3 16.69 2.77 1.11-.14-.72-4.79-5.18-5.67s-15.84-4.12-23.22-8.44c-4.09-2.39-19-17.71-21.93-22.07C184 322 166 279.66 168.73 278.6c33.15 9.45 70.34-25.29 59.85-58.91a68.13 68.13 0 0 1 16.55-5.53c3.21 11.49 13.71 20.94 24.59 25.56 8.06 12.22 20 8.29 16.67 21.66-.58 1.56-2.94 4-4.16 3.34s-.72-4.37-1-6.16c-.38-2.51-3.07-6.32-4.3-6.42-2.92-.23 2.06 4.71 2.5 7.24.32 1.85-1.09 7.4-3 7.84-2.89.67-9 .42-10.07 4-1.45 13.56-14.7 12.63-23.06 7.26-5.93-3.73-7.24-4.47-14-.2-2.29 1.44-6.61 1.47-6.79-6.76.33-5.14 6-7.66 5.18-13.44-1.21-8.82-2.46 3.79-5.18 6.39-7.64 7.28 1.2 25.08 13.4 16.56 5.1-.85 9.63 4.7 16.9 4.7 15.52 0 17.63-16 26.54-15.87 2.44.05 12.39-2.49 9.37-15.09-2.51-8-11.64-7.27-15-13.42 18.45 7.05 42.35 4.19 56.85-8.74s17.71-32.68 21.92-50.42c19.23 21.61 8.67 44.72 18.22 68.53.32.72 2.74.35 3.23-.27 3.71-4.72 2.53-19 6.18-20.11a8.26 8.26 0 0 0 1.31-1.84c1.61-3.21.71-11.71 4.54-13.3 1.48-.66-1.08-6.1.7-5.07 1.17.68 2.55 5.34 2.36 6.66C386 238 377.94 242 387.41 274.2a1.32 1.32 0 0 1-2.15 1.07c-1.39-1.13-4.9-3.22-4.11-1 .56 1.55 14.11 11 14.7 44.63.41 22.92-9.51 44.27-24.27 24-2.83-3.91-6.06-26.6-5.85-30.32.77-2.15 3.66-5.83 4.61-8.43a79 79 0 0 0 4.84-14.78c.07-.31.87-.48 1.84.51.74.7 3.05.29 3.38.21 1.11.21 2.59 5.9 2.76 7.46 1 13.56 7.35 35.67-2.88 44.5-7-12.33-4.63-26-3.9-38.89 0-.57-1.94-1.31-2.23-.81-3.36 3.78-4.39 19-1.47 30 3.53 13.38 11.88 21.2 16.37 1.74 2.07-11.58-.1-42.34-9.88-49.86-1.66 0 1 2.46-.41 2.77-.91.16-2.81-.38-2.84-1.3-.57-7.73 1.35-16-2-22.65-1.25 1.57-1.36 6.4-1.36 7.75 0 4.52-1.9 10.83-1.83 14.51s-4.51 17.06-6 19.58c0 .67-18.2 29.22-13.07 29.13 3.68-5.39 6.46-10.06 10.82-15.92.33-.45 1.85 2.21 1.82 2.78-.61 11 2.28 24.89 2.08 30.25 1.12 5.43 1.3 32.58 6 22.71 1.42-3-2.14-9.83-1.73-12.63-.65-4.67-.33-15 .6-13.71 4.18 5.95 9.18 11.3 15.59 7.39 2.25 1.69 6.89 15.16 7.28 20.9a188.75 188.75 0 0 0 5.19 31.55c4.85 20.14-22.76 39.35-39.16 49.42-20.28 14.55-51.05 19.93-68.22 40.34-.5 1 5.78-1.16 6.63-1.92 7.66-14.32 110.31-36.79 109.12-81-.09-3.23-.65-7.22 2.61-7 15.3.84 17.7 24.56 29.25 27.36 8.58 2.01 17.61 4.19 12.57-1.71Zm-235.25-74.22c3.95 18.72-16.26 41.26-32.35 31.85 2-16.2 13.69-27.29 24.67-38.45 3.98 3.12 5.53 3.68 7.68 6.6Zm-25-22.47c2.62 2.59 6.35 6.9 11.14 10.53-4.48 4.62-11.85 15.5-17.4 26.05a42.51 42.51 0 0 0-11.71 4c-4.5-14.61 2.19-39.24 17.99-40.58Zm-2.79-3.25c-21.62 6.83-27.83 48.76-7.27 60.66 19 8.59 38-11.09 37.91-29.89.08-1.66.78-4.06 2.36-4.17 3.77 14.13-3.73 29.6-15.25 37.21-44.05 22.25-59.24-51.18-21-67.36.4.49 2.98 3.05 3.27 3.55Zm-35.8-112.53c6.73 11.73 8.74 18.11 8.84 32.36 0 5.76-5.06-6.46-6.3-10.86-6.1-11.37-19.18-9-2.54-21.5Zm-10.82 13.37a25.31 25.31 0 0 0 4.64 4.86q-2.44-.5-5.31-1.26a17.17 17.17 0 0 1 .67-3.6Zm15.7 35.34a121.21 121.21 0 0 1-15.6-25.75 49.58 49.58 0 0 0 9.82 1.21c1.17 2.6 3.37 9.42 6.88 13.9 2.88 4.35 2.89 9.75 3 14.45a26.38 26.38 0 0 1-4.1-3.81Zm64.08-28.52c-.88 24.87-31.46 43.48-53.81 35.2-1.5-11.4-1.62-22.42-3.21-33.8-.83-5.86-7.64-19.34-8.26-24a61.2 61.2 0 0 1 25.66-7.89c-5.8 3.46-11 11.14-10.85 17.76.24 4.59 5.51-14.56 16.68-18.06 8.52-.35 18.8 1.25 25 6.16-11.89-5.52-35.81 1.34-39.32 18.65.28 2.54 2.91-4.63 5.5-3.53 5.72 1.47 13.89.61 20.74-1.83 5.56-2 9.05-6.47 16.52-10.24 5.29 5.29 5.83 13.61 5.35 21.58Zm-18.31-23.86c7.93 1.21 9.79 3 2 7.2.71-2.51-.53-5.09-2-7.2Zm-17 12.08c-8.45-1.15-5.57-2.74-.53-6.78-1.08 3.62 6.55 8.01.51 6.78Zm37.46-11.28Zm115.12-16.2c.45 45-69.21 56.68-84.65 15.28-4.87-9.81.87-20.79 8.53-28.14-1.58 3.53-1.36 6.28.52 6.39 2.58.16 2-2.91 2.68-4.23a30.33 30.33 0 0 1 7.62-9.45c10-8.33 28.26-5 34.36-1.35 3.53 2.12 6.75 6.1 9.38 6.45 4.23.56 7.05-2.56 2.67-2.56-13.36-3-7.21-11.75-30.43-11.15 28.47-11.2 52.6-8.31 49.3 28.76Z"/>
  <path d="M245.91 360.74c12.26 10 24.27 25.52 43.26 24.05 9.93.43 35.61-17.53 39.33-30.82 1.46-5.21 12.72-32.47 7.16-28.45-.87.63-4.58 3.57-4.69 5.41-1.41 22.13-14.44 41-37.54 47.82-29.59 6.54-42.11-26.25-59.43-30.75-8.81-.22-.35 2.79 11.91 12.74ZM305 423.91c7.73-11.55 9.63-21.74-1.79-3.74 0 0-12.06 15.26-20 14.71s-14.06-3.17-16.24-2.8c-2.81.48 3.37 4.94 16.38 8.71 5.65 1.63 15.72-8.02 21.65-16.88ZM121.28 214.74c2.87 6.78 8.34 2 6.06-.73-44.11-52-29.84-109.88 7-132.5C142 76.82 155.42 72 161 72.36c11.83 12.84 31.07 19 49.58 19.16 1.07 0 1.21-1.15.13-1.34C99.52 70.76 190.61-41.64 250 37.53c15.77 21 18.69 20.66 33.1 27.32a.9.9 0 0 0 .62-1.69c-12.49-5.31-20.06-8.42-30.38-31.4s-45-31-65.83-28.3C158.07 5 139.64 41.2 156.2 66.17c-47.06 9.15-76.6 68.35-57.2 110.6 6.48 14.35 16.84 26.1 22.28 37.97Z"/>
  <path d="M207.82 32.84c14.9-2.48 15 24 30.37 22.71 6.83-.7-7.65-2.75-14.09-19.46-6.72-17.41-33.23-5.26-35.86 5.59-.38 2.06 3.68 9.4 6.72 11.28 5.54 3.43-16.5-15.22 12.86-20.12Z"/>
  <path class="eyes" d="M287.23 196.73c.69.31 3.32.44 4.57-.77 1.85-1.8 2-3.23 2.64-5.71a5.6 5.6 0 0 0-.1-3.65 2.15 2.15 0 0 0-1.7-1.32 3.81 3.81 0 0 0-2.74 2c-.46 1.74 2.09 3.11-1.29 4.7-2.75 1.29-1.61-4.72-3.33-4.84-1.57-.12-2.53 1.56-2.55 2.93a7.19 7.19 0 0 0 4.5 6.66Zm-92.73 31.05a5.18 5.18 0 0 0 4.23-1c1.79-1.75 2-3.06 2.71-5.34a5 5 0 0 0 .1-3.31 1.71 1.71 0 0 0-1.5-1.11 4.09 4.09 0 0 0-2.61 2c-.51 1.6 1.76 2.7-1.43 4.34-2.59 1.34-1.24-4.19-2.81-4.2s-2.4 1.57-2.49 2.82a5.63 5.63 0 0 0 3.8 5.8Z"/>
</svg>
