<svg
  data-face="sondra"
  xmlns="http://www.w3.org/2000/svg"
  aria-hidden="true"
  focusable="false"
  viewBox="0 0 500 500"
  width="500px"
  height="500px"
><path d="M344.67,45.12c2-6.18-23.08-22.89-26.86-25.42-17.13-11.46-34-15-54.34-12-21,3.1-45.58,10.45-61.93,24.55-17.86,15.4-29.81,37.83-39.6,58.91-30.75,66.17-34.31,139.69-53.72,209.05C97.69,337.86,68.25,363.56,46,394c-2.39,3.26,16.75-3.51,18.7-4.35,2.9-1.26,24.58-9.06,24.5-12.94,0-1.54-28.89,10.68-31.36,10.57,0,0,6.82-8.31,7.23-8.75,5.88-6.32,11.93-12.48,17.65-18.93,11.72-13.23,21.62-28.49,27.47-45.23,13-37.15,14.95-78.53,23.57-116.93,6.55-29.17,15-61.38,27.92-88.36,8.93-18.66,17.25-41.13,29.54-57.7S223,26,242,19.39c22.87-7.9,45.9-10.92,67.62,1.14C312.67,22.2,345.39,42.9,344.67,45.12Z"/><path d="M205.87,446.5c27,29.94,78.34,57.92,119.66,45.85,17.92-5.24,31-18.1,39.31-34.47,6-11.91,10.77-24.77,12.81-38,.6-3.87,4-24.48-1.23-26.85,2.74,1.25-1.33,27.73-2,30.62-2.46,11.16-7.54,21.95-12.77,32-8.88,17.12-22.85,29-42.14,32.41-21.74,3.87-44.7-2.54-64.35-11.6a157.91,157.91,0,0,1-30.51-18.39c-1.79-1.39-20.44-17.72-20.61-17.32C203.5,442.18,205.06,445.37,205.87,446.5Z"/><path d="M343.88,282.4c-.19-.93-1.49-5.43-3-3.66a5.57,5.57,0,0,0-.46,2.91c-6.7-.81-13.52-4.43-20.37-4.1-3,.15-5.68,1.83-8.55,1.78-3.14-.06-6-2.2-9.17-2.32-6.47-.23-13.53,3.51-19.79,5-3.46.83-21.7,2-20.93,6.31-.59-3.28,12,1.89,13.48,2.76,3.58,2.15,6.79,5.16,10.38,7.38,9.49,5.89,14.54,7.37,25.44,6.26,3.21-.33,8.4.42,11.25-.54,5.38-1.82,6.77-6.6,9.49-11.16,1.07-1.8,11.76-12.86,12.21-10.65ZM288.1,283c3.84-1,8.25-2.62,12.26-2.49,4.93.16,8.91,2.68,13.69,2.35,6.3-.43,15.93-3.54,22.47-.08-8.6,1.63-16.29,6.13-25.32,6-11.46-.11-24.24-1.94-35.7-2.79,3.42.26,9.33-2.17,12.6-3Zm25.43,8.77c-.42,1.45-1.12,1.83-2.08,1.15-.89-.85,2-1.34,2.08-1.15S313.52,291.69,313.53,291.74ZM328,293.31c-3.21,6-4.27,5.14-10.46,5.61-5,.39-11.95,2.58-16.86,2.3-8.13-.47-18.37-8-24.77-12.65,1.38,1,14.41-.2,18.05.35,5.13.77,12.93,3.4,16.16,4.14.41.09,1.08,2.21,3.23,2.2,2.48,0,.68-3.55,1.62-3.9,1.46-.55,17.14-3.42,17.26-4-.45,2.17-3.19,4-4.23,5.95C325.72,297.56,328.37,292.58,328,293.31Z"/><path d="M312.12,306.89q3.35.45,1,2.28C311.05,309.45,312.37,307.25,312.12,306.89Zm-.34-1.49c-2.82.71-1.38,7.85,2.91,5.71C318.32,309.31,314.35,305.56,311.78,305.4Z"/><path d="M299.59,246.88c-6.3,2.68-13.42,3.72-15-4.88-.58-3.18.87-8.5,4-10.18,1.5-.81,6.7,1.12,7.22.19,1.29-2.28-5.06-3.38-6.1-3.27-5.49.57-7.92,7.83-7.57,12.44.36,4.8,2.68,8.68,7.53,9.77,2.18.49,13.07-1.42,13.18-3.95A2.4,2.4,0,0,0,299.59,246.88Z"/><path d="M338,233.92c-1.64-8.26-7.78-1.08-9.11-1.68,3.21,1.46,3.41-2,6,1.48,1.5,2.05,0,7.36-1,9.19-3.25,5.7-6.44,4-12.09,3.36,0,0,6.46-2.05,6-1.5.79-1,6-7.11-1-4.49.82-4.69-.85-10-2.25-14.32-.72-2.23-3-12.21-4.68-13.53.06,0,1.12,10.81,1.38,11.77,1.1,3.94,5,10.32,3.1,14.74-5.78,13.22-25.34-2.85-30.84,2.82-4.6,4.74,3.45,3.35,5.58,3.55,4.08.39,8.66,1.67,13,2.08,11.17,1.06,29.69,5.49,25.92-13.47C337.1,229.56,338.72,237.73,338,233.92Z"/><path d="M287.4,158.31c6-1.22-4.37-6.37-6-6.63-1.11-.18-4.08,1.65-5.76,1.66-2.94,0-7.93-2.84-11.21-3.38a53.13,53.13,0,0,0-16.93.14c-1.16.16-10.94,3.05-11.76,2.58,2.87,1.63,10.53-.89,13.72-1.26,6.8-.78,12.07-.77,18.62,1.75,2,.76,4.56,2.81,6.52,3.21,1.67.34,4.63-.1,5.56.13.58.14,1.65-2,2.85-1.81,3.46.6-2.11,4.92,4.35,3.61Z"/><path d="M432.88,387l-.34-.68.33.66c-12.37-25-24.41-51.13-29.55-78.72a414.52,414.52,0,0,1-6.64-89.92c.31-9.07.21-18.25,1-27.29.61-7.34,2.94-14.34,3-21.85.06-5.34-1.39-8.61-2-13-1.3-9-.92-18.36-2.11-27.43-2.41-18.3-6.18-37.64-14.75-54.17-4-7.66-9.23-15.05-16.3-20.15-.89-.65-16.42-9.22-17.17-6.3.5-2,17.93,12.64,18.62,13.43,8.56,9.89,14.32,22.33,18.27,34.7,4,12.58,6.13,25.71,7.33,38.83.51,5.56,2.66,14.85,1.13,20.43-1.42,5.15.23,3.1-5.42,4.77-2.6.77-6.14.82-8.8,1,3.06-15.72-3.5-37.65-7.83-53-.7-2.48-12.13-29.68-17.14-22.48-2.47,3.56,9.35,19.89,11,23.57,6.18,13.42,11.47,32.1,10.25,46.8-6.86-7.75-17.16-9.17-26.58-6.35-4.6,1.38-8,4.52-12.28,6.27a7.91,7.91,0,0,1-5.76,3,24.86,24.86,0,0,0-2.44-3.64c-4.09.43,0,6.4,2.3,7,3.42.86,9.78-5.43,12.72-6.85,8.35-4,21.37-7.07,29.12.29,8,7.61-8.55,6.28-14.88,6.74-9.11.65-20.45.06-29.07,3.3-8.19,3.09-12.65,6.69-22.42,5.35-5.46-.75-7.8-3.32-12.6-5.3-9.35-3.86-22.61-3.05-32.63-3.72-12.48-.84-26.24-4.48-38.67-3.36,18.07-20.87,40.32-36.1,61.8-53.08,8.26-6.54,16.52-13.09,24.89-19.49,1.24-1,14.55-9.25,14.58-10.08C323.6,82,307.67,93.36,304,96.63c-5.4,4.8-49.84,37.68-46.62,42.14,6.64,9.19,63.86-47.4,71.69-46.56,2.65.29-15.52,19.51-15.61,19.4,4.08,5.49,23.17-12.2,25.16-14.37,4.8-5.25,6.69-14,11-18.58-6.87,7.29-11.95,21.69-22.81,24.47,4.41-1.13,20.64-30.67,16.78-31.51s-24.53,22.74-28.36,25.91a217.53,217.53,0,0,1-21,15.33c-1.77,1.14-7.61,3.41-10.07,5.27a8.76,8.76,0,0,0-1,1,4,4,0,0,1,1-1c7.66-7,57.51-47.62,50.35-53.65-3.16-2.66-30.59,19.33-34.92,22.6-15.91,12-33.18,22-48.93,34.27-17.32,13.45-34.47,28.94-45.43,48.2-13.45,23.62-12.92,43.76-7.72,69.62,7.68,38.19,25.17,75.18,24.06,114.59-.74,26.43-7.25,53.28-20.9,76.1-5.43,9.07-12.19,17.25-19.14,25.18-1.74,2-8,11.44-10.47,12,8.73-1.91,20.24-18.72,25.26-25.46a147.75,147.75,0,0,0,22.28-44.05c.86-2.75,2.62-15.31,5.1-16.07s9.72,6.38,11.69,7.76a42.45,42.45,0,0,0,17,7.56c1.72.35,16.33,4.76,16.78,4.45,2.57-1.78-15.53-7.17-17.45-7.84-9.12-3.17-15.47-8.19-22.09-15.11-8.21-8.6-3.66-20.16-3.65-31.63a168.53,168.53,0,0,0-3.83-36.45c-9.28-42.45-37.67-93.32-11.84-134.95-.51,8.19.33,20.72,6.49,27,6.59,6.75,18.94,5.37,27.8,5.76,13.92.63,28.45.24,42-3.59,10.46-3,11.33-7.06,16.29-15.74,3-5.31,7.66-11.49,14.27-7,4.88,3.3,3.65,12.34,7.19,16.69,9.72,11.9,41,7.38,54.19,4.27,0,17.93-4,36.64-5.21,54.66-1.13,16.49-7,26.27-16.29,39.44-19,26.93-35.14,76.24-79.4,56.39-14.6-6.55-30.12-17.53-40-29.9-1.74-2.19-4.53-8.61-8.49-6-7,4.65,6.5,13.72,9.17,15.43,14.8,9.46,30.15,23.78,47.85,27.06,25.38,4.7,43.28-7.72,55.37-29,3.43-.82,3,33.28,1.83,36.41-2,5.36-7.57,9.57-10.61,14.44-1.66,2.65-2.33,6-4.09,8.5-1.26,1.78-4.34,2.81-4.94,4.86-.47,1.58,6.11-2.73,6.84-3.49,2.77-2.91,3.56-7.54,6.33-10.64,2-2.25,7.76-7.33,10.94-7.48,5.33-.25,10.1,5.44,14.47,8.83,9,7,16.57,6.47,27.52,8.55a56.13,56.13,0,0,1,13.11,3.66c2.54,1.17,5.36,4.67,8.36,4.56,1.2-.05-7.42-7-8.52-7.56-4.44-2.18-9.75-3.05-14.55-3.94-10.44-1.95-17.13-2.74-26-9.16-13.73-10-15.24-17.26-16-33.63-.64-13.43-.35-22.62,6.68-34.32,11.81-19.66,21.93-32.59,24-56,.77-8.94.92-17.93,1.8-26.85.62-6.32.39-15.79,2.42-21.77,1.45-4.25.22-2.17,3.38-5.16,2.61-2.46,5.79-3.46,8.31-6.26-1.33,46.08-2.82,92.22,10.86,136.89,5.6,18.3,13.57,35.38,22.12,52.42a96.58,96.58,0,0,1,9.42,29.54c.38,2.53,3.75,16.57,2,18.69.81-1-9.82-15.31-12.36-13.82,1.58-.92,13.65,30.39,18.89,28.62C450,444.47,435.51,392.3,432.88,387ZM259.36,182.61c5.44.35,10.3-4.3,9-9.93-.5-2.08-3.1-4.05-3.1-4.05a5.48,5.48,0,0,0-2.72-1.14,13.6,13.6,0,0,1,2.61.27,47.13,47.13,0,0,1,5.67,1.92,10.52,10.52,0,0,1,4.7,4.37c3,5.69-.17,6.82-6.76,8.46-4.84,1.21-17.32,2.38-21.11-2.21-2.47-3,2-8.93,8.42-11.54a10,10,0,0,0-1.87,1.35C249.44,174.59,253.2,182.22,259.36,182.61ZM272.54,203c-11.55,1.16-26.83,3.11-38.39,1-12.91-2.37-21.14-24.35-12.28-35.3,6.81-8.41,26.25-3.15,35.67-3.07-1.73.23-20.18,5.09-18.27,10.4.62,1.73,6.76-2.95,7.8-3.49-4.6,4.63-5.82,4.15-1.87,8.23s14.43,4.63,19.56,4c2.88-.35,13-2.31,14.78-4.93,2.7-3.95-.32-3.71-3.76-8,.85.46,9,7.64,10.19,6.09,2.36-3-18.09-11.75-19.78-12.06,12.62.54,35.11,0,33.07,18.22C298.16,193.77,285.48,201.65,272.54,203Zm62.73-31.65.08,0c-.1.16-.21.32-.3.5-4.18,14.83,24.42,6.55,9.53-3.93l-.05,0a8.42,8.42,0,0,1,.87,0c8.27.2,16,9.67,5.18,13.43C342.9,183.9,320.09,179.81,335.27,171.3ZM378,197.48c-3.36,5.92-25.39,4-31.5,3.72-8.81-.44-3.53-.18,0,0-8-.4-15.46-1.31-20-8.6-5.15-8.28-5.63-18.88,4.7-22.11-.19.14-7,7.35-5.18,7.86a13,13,0,0,0,2.79-2.39c-2.12,9.29,12.06,9.06,18.69,7.93,5.46-.92,16.17-3.4,10.76-9.84a6.35,6.35,0,0,0,4.28,1.24c.31-.59-9.89-8.13-11.3-8.64a231.37,231.37,0,0,1,23.38-1.57c-1.08,6.11-.46,12.47.48,18.55C375.43,185.87,378.94,195.85,378,197.48Zm14.93-17.31a21.76,21.76,0,0,1-12.41,16.63c-1.09-5.84-8-26.61-1.85-31.74,1.79-1.48,12.53.48,14.26,2.52,1.87,2.21.39,9.9,0,12.59"/><path class="eyes" d="M339.77,176.94a3.58,3.58,0,0,0,2.94.05c1.36-.84,1.61-1.64,2.28-3a3.06,3.06,0,0,0,.33-2.1,1.34,1.34,0,0,0-.92-1,2.49,2.49,0,0,0-1.93.84c-.47,1,1,2-1.32,2.56-1.86.45-.49-2.88-1.55-3.13a1.7,1.7,0,0,0-1.92,1.41A4.12,4.12,0,0,0,339.77,176.94Z"/><path class="eyes" d="M258.46,178.87a4.55,4.55,0,0,0,3.66,0c1.71-1.06,2-2.06,2.88-3.74a3.69,3.69,0,0,0,.45-2.59,1.59,1.59,0,0,0-1.14-1.14,3.23,3.23,0,0,0-2.41,1.08c-.61,1.17,1.18,2.44-1.68,3.17-2.33.59-.59-3.52-1.9-3.81a2.18,2.18,0,0,0-2.41,1.78A4.87,4.87,0,0,0,258.46,178.87Z"/></svg>
