<svg
  data-face="stacy"
  xmlns="http://www.w3.org/2000/svg"
  aria-hidden="true"
  focusable="false"
  viewBox="0 0 500 500"
  width="250px"
  height="250px"
><path d="M287.41,428.35c-5.21,0-11.35-3.49-14.71-6.61-2.2-2.05-12.31-8.3-12.91-11.15-1.14-5.44,7,.64,8.06,1.37,6.84,4.91,7,5.75,14.3,10.2,3.57,1.31,11.92-14.38,25.74-15.65,8.56-.79,17.11,2,25.63,1,2-.24,11.68.19,4.4,2.6-12,3.95-27.1-5.23-37.56,2.25C295.82,415.65,290.41,428.16,287.41,428.35Z"/><path d="M248.58,313.87c-4.18,0,4.43-2.91,4.93-3.55.2-.25,11.62-2,12.71-2.05C279.09,307.68,250.74,313.87,248.58,313.87Z"/><path d="M253.16,168.88c-6.89,0,9.41-11.5,11-12.1,4.78-1.75,28.43,1.92,33.94,4.27,5.3,2.27-17.43-1.24-20.38-1.43-4.88-.33-9.12,1.11-13.59,3.08C261.58,163.83,255.93,168.88,253.16,168.88Z"/><path d="M157,196.36c-6.56,0,11.69-13.35,13.51-14.38,4.5-2.55,25.62-12.67,27.53-1.82.38,2.13-12.24-.37-16.26.94a59.34,59.34,0,0,0-14.4,7.52C164.91,190.27,159.81,196.36,157,196.36Z"/><path d="M293.53,176c-2-7.1-28-2.87-34.54,1.63-4.64,3.18-14.46,13.8-9.6,10.77,2.31-1.45,3.17.72,2.47,1.65-1,1.86,2.75,3.07,6.19,2.1,10.68-3,25.7-1,30-11.19a3.35,3.35,0,0,0-.11-2.14C292.69,178.87,294.47,179.4,293.53,176Zm-28.85,3.85c.33,5.37,3.52,7.43,6.88,7.42-4.74.61-12.47,1.25-15.67,1.84-.65-1.08.29-5.2,2.15-6.45C260.21,181.21,261.92,179.74,264.68,179.88Zm15.95,5a19.29,19.29,0,0,1-6.56,2c3.81-1.13,6.87-4.64,4.93-8.56,1.91.16,4.15.33,6.33.42C283.68,180.73,281.71,184.21,280.63,184.87Z"/><path d="M244.37,222.56c-2.37-4.72-3.7-12.55-7-19.18a50.93,50.93,0,0,1-4.71-17.95c-.37-2.45-1.8-1.85,4.58-6.41,4.82-3.45.28,4.46-.06,5.72-1.09,4,.4,10,2.55,15.18C243.34,208.56,248.88,231.55,244.37,222.56Z"/><path d="M206.29,195.92c3.06-.25,6.31-2.7,4.34-2.68-4.29,0-15.68-3-21.1-2-4.1.7-11.73,3.62-15.48,5.36-3.26,1.5-11.85,9.69-2.63,11.5,1.41.27,1-.09,3.09-2,.88,4.19,3.78,4.76,11.61,3.26,5.15-1,18.55-3.18,25.08-9.38C212.52,198.75,208.71,196.68,206.29,195.92ZM186.2,207.51c-10.46,1.32-6.59-.69-8.92-3.39,1-.89,6-5.19,6.81-5.59-3.72,16.79,20.32,3.69,11.7-2.74.92,0,2.74.16,4.8.22-.35.79.79,2.26,4.74,4.6C200.79,203.21,191.91,206.78,186.2,207.51Z"/><path d="M298.83,255.49A110.06,110.06,0,0,0,287.62,257c-5.35-.46-17.3,6.47-34,10.26-1.11.25-2.71,3.51-3.84,3.69-.84.13-3.81-1.34-4.73-1.21-10.81,1.52-24.45,5-32,9.44-4.94,2.89,1.19,2.44,3.18,3.86s5.56,2.14,6.88,4.29c.83,1,1.78,2.1,2.66,3,6.37,6.52,12.71,14,23.1,12.1,19.24-3.56,27.84-3.54,37-19.2,1.48-2.53,7.23-12,8.62-14.64C298.92,261.25,308.37,254.48,298.83,255.49ZM274.89,289.9c-6.3,5.28-17.42,8.25-25.25,8.73-4.6.28-9.14.63-13.3-2a16.62,16.62,0,0,1-4.78-5.4c4.65,2,8.86,3.44,10.23,3.44A71.83,71.83,0,0,0,281,282.28,20.25,20.25,0,0,1,274.89,289.9ZM267.3,285c-7.45,2.23-18.15,6.44-26,5.67-8.8-.86-14.45-8.08-23.23-9.87-2.2-.84,19-2.86,28.09-4.07,8.41-1.11,16.19-4.23,23.91-7.44,8-3.31,18-9.53,27-9.33C287.71,270,281,280.9,267.3,285Z"/><path d="M311.84,274.52c-3.7,8.6-2.79-16.72-.51-22.24,1.08-2.61.78-9.68-3.58-9.21-2.67.3-1-2.3,2.56-3.32,5.75-1.64,3.92,10.44,2.27,14.19S313.26,267.78,311.84,274.52Z"/><path d="M454.59,378.66c-3.78-5-11.75-5.67-17.65-3.6-4.54-1.39-12.8-2.94-13.53-3.13-6.32-1.61-13.05-1.9-19.44-3.55s-30.57-11.65-40.13-11l.12-.23c.39-.69,3.26-2.25,4.13-3.62,1.14-1.79,1-5.47,1-7.56,0-8.69-3.71-16.17-2.89-25,1.6-17.18,9.39-35,11.49-52.17,2.16-17.78,4.52-36.93,3.56-54.84-3-56.16-43.87-102.4-75.3-146.55C298.56,57,290.08,46.31,278.84,39.91c-1.74-1-20-13.28-24.8-10.7C255.68-.84,215.19.44,194,8,124.43,32.75,90.42,118.44,68.7,181.46,56.45,217,39.28,258.61,46,296.89c1.84,10.41,13.13,20.64,16.53,30.47,3.35,9.65,3.69,19.35,2.61,29.44-.38,3.59-7.17,31.11-5.56,41.67a91,91,0,0,0-12.06,7.59c-1.09.85-8.26,6.2-5.35,8.71s3.85-2.79,5.61-4c8.16-5.57,17.18-8.93,26-13.28.79,3.75-4.36,20.68-2.19,20.68,5.67,0,8.77-19.64,5.55-23-2.44-2.52-8-1.17-13.74,1.41,1.83-12,11.32-38.32,11.66-42.37C77,330.9,57.32,315,55,292.91c-4.41-42.85,13.34-87.46,27.27-127,11.28-32.05,22.49-64.72,42.22-92.74,19.38-27.53,48.67-55.36,83.59-59.55,12.47-1.49,34.19-1.45,40.93,11.85,3.26,6.45-2.38,13.93.16,19.77,2.79,6.39,1.35-2.89,14.36-2.89,5.15,0,13.62,4,17.79,7,10.56,7.55,19.35,15.52,26.5,26.16,32.31,48,67.13,93.61,66.32,154.29A381.91,381.91,0,0,1,370,279.58c-2.16,14.92-8.12,30.39-8.16,45.48,0,7.12,3.25,13.85,3.25,20.87,0,9.74-8.45.86-10.19,4.05-2.41,4.42,2,42,10.69,42,3.9,0-2.06-14.73-2.34-15.86-1.46-6.06-2-10.73-.92-15,3.44,1.38,9.73,2.27,10.7,2.62,6.52,2.39,13.91,3.71,20.6,5.75,10.47,3.18,26.63,8,38.25,8.51-6.11,5.66-8.77,16.33-12.81,23.31-9.67,16.69-24.57,26.71-40.68,36.6-19.32,11.87-39.29,23-60.84,30.28a161.26,161.26,0,0,1-32.36,7.52c-2.74.34-15.62-.5-17.09,1.07-.67.71-4,4,0,4,45.22,0,86.89-22.28,123.71-46.57,15.53-10.25,26.57-22.37,34.91-39,3.17-6.31,6.19-16.83,14.64-17.39C442.49,377.82,459.9,385.64,454.59,378.66Z"/><path d="M205.93,311c14.5,14,30.7,35.59,52.92,35.59,18.64,0,33.15-15.37,44.11-28.68,2.59-3.15,13.58-14.09,13.74-3.79.05,3.74,5.15,32.64,7.15,24.05.5-2.15.86-19.75.58-27.48-.12-3.24,1.83-22.91,5.44-28.64,4.62-7.33,6.15-12.49,7.14-21.14,1-8.48,1.89-15.23,2.11-23.72.05-2.13-.35-12.15-1.4-15.95,1.33-2.31,2.47-4.34,3-5.16,3.56-5.36,5.09-9.67,3.85-16.18-1.07-5.59-3-18.68-8.8-20-6.13-1.36-13.62-2-15-19.06-1.48-18.5-21.22-23.14-32.55-36.29-9.86-11.45-13.2-24.51-16.9-38.75-1.16-4.49,0-12.78-4.11-15.58-2.5-1.69-14.69-2.8-13.12,0,2.7,4.85,3.74,9.11-9.8,8-4.8-.38-9.28-1.55-14.1-1.08-9.66.94-17.88,6.07-26.84,9.33-14,5.1-30.18,4.43-43.17,12.49-14.62,9.06-23.34,26.68-24.38,42.89-1.33,20.83,9.5,37.28,16.57,56.27,1.85,5,11.66,65,13.09,68.09,5.12,10.88,15.78,25.8,23.92,33.94,3.58,4.23,3,26.63,3.26,29.63,1,9.77,3.24,20.7,5.53,30.94,3.22,14.37,12.31,24.69,20.28,36.91,8.52,13.05,17.4,25.73,23.28,40.26a131.23,131.23,0,0,1,7.32,25.3c.74,4,1.71,29.74,4.74,29.74,6.75,0-4.33-45.49-6.67-52-5.3-14.66-13.44-27.64-22-40.55-7.74-11.68-15.48-23.43-19.55-37a93.59,93.59,0,0,1-3.71-27.84c0-3.17,2.73-18.71,3-25.61ZM177,271.6c-1.17-2.3-6.53-13.34-8.34-18.37-5.08-14.13-10.84-51.86-12.56-56.47-8.07-21.65-15.6-40.06-11.31-63.76,2.9-16,11-25.19,26.76-30.82,7.71-2.76,18.71-2.7,26.64-4.53,9.15-2.1,17.39-8.71,26.17-11.8,9.77-3.43,13.53-4.4,23.46-2.76,1.75.29,12.23,2.12,17.24,1.11,1.71,4.9,4.05,10.82,5.44,15.51a76,76,0,0,0,10.85,22.67c9.14,12.74,25.08,20.1,31.88,34.5,2.44,5.17,4.87,41.31,6.37,41.31,3.08,0,3.7-5.81,3.32-12.73,3.56,1.48,10.66,2.33,12.51,4,3.35,3,5.93,10.79,5.75,15.22-.15,3.53-16.23,26.59-10.52,26.59.48,0,1.35-1,2.37-2.43-1.09,13.86-1.11,38.59-2.55,42.61-2.64,7.42-7.2,14-12.06,20.11-.56.7-5.55,6.31-7.06,9.91a117,117,0,0,0-9.08,10.9c-9.47,11.92-21.08,25.93-36.7,29.43-19.9,4.47-35.78-12.54-48.48-25.24C202.65,302.1,186.53,290.16,177,271.6Z"/><path d="M219.69,244.28c-3.23,13,5.7,15.11,10.77,14,7.85-1.67,13.07,6.68,20.33-.27,2.49-2.39,3.57-6,6.17-8.28s7.76-3.19,10.27-5.17c4.43-3.51,4.17-13.79-3-15.64-6.12-1.58-8.16,3.18-4.53,2,3.34-1,9,3.14,5.81,9.91-1.72,3.67-7.88,2.66-10.91,4.68-3.29,2.21-2.39,6.82-5.16,9.29-6.36,5.67-10.84-.55-17.91-1.6-2.76-.4-7.35,1.8-9.46-1.42C222.22,252,221.49,240.11,219.69,244.28Z"/><path class="eyes" d="M271,185.2a3.61,3.61,0,0,0,2.92-.32c1.26-1,1.42-1.81,1.94-3.23a3,3,0,0,0,.1-2.12,1.33,1.33,0,0,0-1-.82,2.52,2.52,0,0,0-1.82,1.07c-.37,1,1.18,1.86-1,2.68-1.8.67-.81-2.78-1.89-2.9a1.72,1.72,0,0,0-1.75,1.63A4.05,4.05,0,0,0,271,185.2Z"/><path class="eyes" d="M189.12,204.18c.44.26,2.45-.7,3.21-1.28a3.9,3.9,0,0,0,1.52-4.64,1.77,1.77,0,0,0-1.1-1,1.81,1.81,0,0,0-1.67.87c-.24,1,1.4,2.1-.69,2.67-1.7.47-1.14-3-2.22-3.27s-1.55.65-1.53,1.47C186.69,200.8,187.35,203.12,189.12,204.18Z"/></svg>
