<svg
        data-face="victor"
        xmlns="http://www.w3.org/2000/svg"
        aria-hidden="true"
        focusable="false"
        viewBox="0 0 500 500"
        width="500px"
        height="500px"
>
<path d="M 280.04102 127.26953 C 278.34298 127.1042 276.39023 127.78203 274.09961 130.05078 C 269.62961 134.48078 264.20047 125.07016 259.73047 128.91016 C 251.62047 135.88016 250.24969 125.35039 243.92969 131.90039 C 240.69969 135.25039 238.19055 130.19039 234.31055 132.90039 C 229.49055 136.27039 225.74008 153.47023 234.83008 145.24023 C 241.00008 139.66023 244.20016 145.64086 248.66016 141.13086 C 251.21016 138.55086 257.13992 142.96023 259.91992 140.74023 C 269.39992 133.20023 270.31992 143.92945 275.91992 140.93945 C 277.14992 140.28945 282.14039 136.72938 284.65039 139.60938 C 287.37039 142.73937 289 144.07086 296 140.88086 L 296.00977 140.85938 C 298.82977 139.56938 308.15055 150.66961 306.06055 142.09961 C 305.28055 138.90961 302.45992 134.66031 299.66992 133.32031 C 292.21992 129.73031 292.1407 133.51937 288.4707 132.60938 C 286.28445 132.07313 283.77669 127.63326 280.04102 127.26953 z M 166.77344 131.61328 C 162.94485 131.5148 157.99273 136.32094 155.49023 133.46094 C 151.12023 128.46094 146.95945 139.09039 143.18945 136.40039 C 138.26945 132.89039 134.98969 142.56039 130.17969 139.90039 L 130.18945 139.91016 C 126.07945 137.64016 128.28039 141.53953 131.15039 146.26953 C 132.27039 148.11953 143.44094 146.61023 144.46094 146.49023 C 149.39094 145.90023 151.28047 140.20031 153.23047 142.57031 C 156.02047 145.97031 162.79039 138.8 167.65039 143.5 C 169.37039 145.16 174.29063 140.6093 178.39062 144.5293 C 181.73063 147.7293 191.98984 148.88039 188.58984 140.65039 C 182.73984 126.48039 174.65922 137.91914 169.19922 132.61914 C 168.47922 131.91977 167.65696 131.63601 166.77344 131.61328 z M 261.00195 161.3125 C 260.38348 161.29596 259.8043 161.32742 259.2793 161.41992 C 242.9293 164.26992 263.58906 163.60945 252.53906 165.68945 C 245.40906 167.02945 245.00094 172.05031 240.96094 173.32031 C 236.86094 174.61031 243.91094 176.39922 246.96094 175.69922 C 251.86094 174.57922 257.24922 180.37961 265.94922 180.09961 C 281.53922 179.59961 278.82062 177.16062 285.64062 176.39062 C 293.38063 175.52062 291.58062 186.20023 293.89062 174.74023 C 294.09062 173.73023 291.4707 172.96039 289.2207 170.65039 C 285.8807 167.22039 282.23016 165.80984 275.41016 164.58984 C 271.63016 163.91609 265.33129 161.4283 261.00195 161.3125 z M 169.05469 167.4375 C 166.99625 167.48781 164.9332 167.73195 162.9707 168.18945 C 155.3807 169.95945 147.85937 171.98086 145.35938 173.88086 C 141.18938 177.05086 139.85094 178.49094 139.71094 182.21094 C 139.49094 187.77094 140.67992 183.23906 145.41992 182.78906 C 150.76992 182.27906 160.93969 183.94906 166.42969 183.53906 C 174.61969 182.92906 173.15984 180.43094 181.58984 180.21094 C 189.81984 180.00094 191.32 177.74922 186 174.94922 C 183.81 173.79922 181.98945 173.04055 180.43945 171.81055 C 177.73945 169.66055 185.76055 172.71016 184.56055 171.66016 C 181.35805 168.87766 175.23 167.28656 169.05469 167.4375 z M 258.5293 169.03906 C 258.2393 169.78906 258.08008 170.59945 258.08008 171.43945 C 258.08008 173.10945 258.70023 174.64086 259.74023 175.88086 C 255.78023 174.81086 252.81938 173.20055 250.35938 173.06055 C 247.01937 172.87055 251.0293 170.13906 258.5293 169.03906 z M 262.16016 169.26367 C 262.86766 169.25242 263.68484 169.44547 264.33984 169.73047 C 265.76984 170.35047 263.41039 173.63094 266.15039 173.46094 C 269.51039 173.25094 267.74063 171.39969 268.64062 170.17969 C 269.08062 169.60969 270.44984 169.32937 271.08984 169.60938 C 271.72984 169.88938 272.26008 170.70937 272.33008 171.35938 C 272.44008 172.32938 272.29039 173.03016 271.65039 173.91016 C 270.38039 175.65016 268.2693 176.35086 266.0293 176.38086 C 264.5093 176.40086 262.90039 176.1707 262.40039 175.7207 L 262.38086 175.71094 C 260.38086 173.89094 259.72062 172.32953 260.64062 170.01953 C 260.85562 169.48953 261.45266 169.27492 262.16016 169.26367 z M 274.43945 169.68945 C 281.97945 171.84945 287.08094 174.30023 281.21094 174.49023 L 281.21094 174.48047 C 279.00094 174.55047 276.03008 175.42984 272.83008 176.08984 C 273.99008 174.81984 274.67969 173.19945 274.67969 171.43945 C 274.67969 170.83945 274.59945 170.24945 274.43945 169.68945 z M 159.41992 172.50977 C 158.86992 173.47977 158.56055 174.56094 158.56055 175.71094 C 158.56055 177.65094 159.45063 179.4207 160.89062 180.7207 C 158.13063 180.8507 154.53086 180.86922 149.63086 180.69922 L 149.63086 180.68945 C 145.25086 180.52945 148.96906 177.41945 154.53906 174.68945 C 156.03906 173.94945 157.66992 173.15977 159.41992 172.50977 z M 174.7207 172.65039 C 183.0307 175.28039 186.14062 178.9993 176.89062 178.7793 C 176.07063 178.7593 175.34922 178.76906 174.69922 178.78906 C 175.20922 177.84906 175.5 176.80922 175.5 175.69922 C 175.5 174.58922 175.2207 173.58039 174.7207 172.65039 z M 171.25 172.72852 C 171.36879 172.72658 171.4743 172.73602 171.56055 172.75977 C 172.25055 172.94977 172.67078 173.51063 172.80078 174.14062 C 172.99078 175.08062 172.60023 176.16086 171.99023 177.13086 C 170.79023 179.03086 170.02977 179.78984 168.00977 180.08984 C 166.42508 180.32904 164.54541 180.3979 163.83984 180.25977 C 162.19984 179.92977 160.4993 177.35945 161.2793 174.93945 C 161.6393 173.82945 162.92961 172.63023 164.34961 172.99023 C 165.89961 173.39023 163.36094 178.08977 166.21094 177.50977 C 169.71094 176.79977 167.71055 175.24039 168.56055 173.90039 C 168.9193 173.34039 170.41848 172.74205 171.25 172.72852 z M 183.81641 205.70898 C 183.14277 205.4833 180.90703 209.20078 177.76953 214.05078 C 172.74953 221.81078 165.10078 227.05 166.80078 235.75 C 167.84078 241.07 172.94945 243.18086 175.93945 242.63086 C 191.69945 239.70086 186.84047 253.27914 198.73047 253.36914 C 213.65047 253.47914 213.6693 241.90953 222.7793 241.51953 C 223.5593 241.48953 224.29906 241.36086 225.03906 241.38086 C 229.74906 241.48086 233.22992 241.2807 237.16992 240.4707 C 240.82992 239.7107 245.17992 239.81961 245.66992 228.09961 C 245.81992 224.45961 250.24086 227.79008 249.88086 225.83008 C 249.34086 222.95008 246.21063 222.56094 242.39062 218.46094 C 237.59646 213.32719 233.12224 209.15206 230.75 212.41992 C 222.58 223.73992 234.35969 215.89078 239.67969 220.05078 C 242.84969 222.54078 242.36953 229.30969 242.01953 232.17969 C 241.66953 235.04969 238.83063 238.54906 234.89062 237.28906 C 231.78062 236.29906 228.15039 235.46094 220.40039 236.96094 C 211.58039 238.67094 210.55 249.18039 200 248.90039 C 194.27 248.75039 191.14914 243.67906 186.11914 238.53906 C 183.07914 235.42906 174.30031 241.75008 171.07031 235.33008 C 168.04031 229.32008 182.07922 215.66047 183.19922 210.98047 C 184.06172 207.39922 184.22059 205.84439 183.81641 205.70898 z M 231.31445 268.33203 C 227.54805 268.13187 222.55742 271.97836 219.66992 269.63086 C 216.17992 266.79086 213.30078 274.13016 209.80078 270.41016 C 207.04078 267.48016 203.38945 273.25086 199.43945 269.63086 C 197.59945 267.94086 195.40063 272.94906 192.14062 271.28906 C 189.32063 269.84906 189.08961 276.95992 184.84961 274.91992 C 181.43961 273.27992 180.33031 278.33055 177.82031 277.06055 C 174.54031 275.40055 173.7807 278.20031 172.4707 276.82031 C 169.7807 274.01031 167.14938 274.75969 164.35938 278.17969 C 161.98937 281.11969 164.99922 288.39922 167.69922 289.69922 C 170.10922 290.85922 166.55055 284.62016 169.06055 282.41016 C 172.27055 279.59016 171.84 284.31078 173.75 282.55078 C 175.08 281.32078 177.29086 282.16094 179.13086 282.46094 C 180.24086 283.68094 182.58945 285.38945 186.18945 287.93945 C 189.99945 290.63945 192.92906 290.90977 204.03906 292.50977 C 217.10906 294.39977 221.09 290.43086 235.75 288.63086 C 242.67 287.78086 244.95969 287.41039 243.17969 288.90039 C 239.41969 292.03039 231.48016 298.47023 227.16016 297.74023 C 207.97016 294.50023 207.11023 299.48922 197.49023 297.94922 C 193.27023 297.27922 187.41938 291.8493 182.10938 289.2793 C 171.36937 284.0893 193.69977 304.2393 199.25977 302.7793 C 206.90977 300.7693 217.43094 299.53094 227.71094 301.71094 C 231.89094 302.60094 247.03047 290.49922 250.73047 286.94922 C 256.28047 281.61922 262.38906 279.54094 264.03906 277.96094 C 265.04906 276.99094 266.04023 277.34062 266.49023 277.89062 C 267.48023 279.09062 266.88078 288.69063 267.30078 289.89062 C 268.41078 293.04062 269.51992 289.50039 269.41992 284.15039 C 269.35992 280.64039 272.06086 280.29977 271.63086 277.75977 L 271.65039 277.75 C 270.90039 273.33 266.60031 270.92914 264.57031 272.61914 C 263.11031 273.83914 261.37047 270.50984 259.23047 273.08984 C 258.44047 274.03984 256.11984 271.92953 255.33984 271.01953 C 254.97984 270.58953 254.47039 270.22086 253.90039 270.13086 C 251.33039 269.90086 249.90039 272.07039 247.65039 271.40039 C 239.12039 268.86039 236.80078 273.76977 234.55078 270.25977 C 233.69078 268.91477 232.56992 268.39875 231.31445 268.33203 z M 229.75 273.14062 C 232.87 273.00063 233.13992 276.23992 236.66992 275.91992 C 240.58992 275.28992 243.5 273.58016 246.5 275.66016 C 249.5 277.74016 252.15063 274.5493 253.64062 274.5293 C 254.56062 274.5293 257.02023 276.87086 256.24023 277.88086 C 253.53023 281.39086 242.31055 284.06992 236.31055 284.66992 L 236.28906 284.66992 C 225.39906 285.74992 215.46977 288.81062 206.75977 288.39062 C 195.85977 287.86063 187.25945 284.30992 184.18945 281.91992 C 182.52945 280.62992 185.47086 281.60992 188.63086 280.16992 C 189.79086 279.29992 191.2993 276.28953 192.7793 276.26953 C 196.5493 276.20953 195.41953 273.20953 200.26953 275.01953 C 202.83953 275.97953 207.33938 276.16938 208.85938 276.10938 C 219.35938 275.65938 223.94 273.41063 229.75 273.14062 z M 227.49023 306.01172 C 225.73023 305.95922 223.55914 306.52461 221.61914 308.09961 C 218.12914 310.92961 214.58992 306.15055 212.41992 306.06055 C 208.91992 305.91055 205.02094 311.15922 201.96094 307.94922 C 196.57094 302.28922 187.3707 313.83977 191.9707 313.75977 L 191.98047 313.75 C 196.11047 313.68 198.34906 305.67992 200.53906 310.91992 C 203.54906 318.14992 208.30945 308.95953 212.18945 309.26953 C 213.98945 309.40953 215.68023 313.82922 217.74023 313.19922 C 221.60023 312.01922 222.57016 309.68055 227.41016 310.06055 C 229.39016 310.22055 231.16039 314.91906 234.15039 314.53906 C 237.88039 314.06906 232.56039 312.66086 230.90039 307.63086 C 230.60039 306.73586 229.25023 306.06422 227.49023 306.01172 z " />
<path d="M397.98 382c-3.26-1.39-28.04-16.59-29.09-20.33-1.64-5.83-7.33-3.65-10.98-7.58-4.51-4.86-28.6-19.37-34.41-19.37-2.51 0-7.09-2.05-7.35-10.95-.13-4.51-2.15-11.19 3.37-18.13 8.36-10.5 14.88-19.78 14.68-40.12-.02-2.29 2.62-1.84 3.92-3.06 1.37-1.29 1.45-4.22 3.68-5.3 2.5-1.21 4.28-12.61 8.51-19.12 4.26-6.56 3.07-11.23 4.25-17.1 4.25-21.06 1.5-27.26 3-34.44 1.41-6.74-.66-13.55-4.95-13.65-2.92-.07 2.13-4.18 1.28-6.76-11.33-34.02 8.58-51.36-5.91-61.86-6.15-4.46.6-17-4.58-24.11-5.41-7.44-17.96-25.38-21.07-16.41-2 5.78 21.08 12.22 18.61 34.83-1.03 9.42 11.06 11.67 8.21 22.42-3.46 13.01-6 33.22-.68 43.23 4.54 8.54-13.75 9.96-10.96 23.14 3.5 16.58-6.79 38.22-3.06 39.27 2.26.64-3.06 19.48-4.83 49.65-.94 15.98-14.73 26.43-19.59 34.14-6.11 9.72-12.27 26.53-24.44 26.2-7.84-.22-5.82 18.52-12.93 17.89-5.28-.47-11.89 21.47-16.22 16.56-4.52-5.12-6.14 7.87-10.34 4.16-2.38-2.11-7.05 8.75-13.24 6.4-21.97-8.32-24.66 3.7-32.62-4.18-3.88-3.84-7.44-.64-11.3.76-4.64 1.68-5.89-10.15-9.36-9.72-20.67 2.56-10.57-32.65-23.24-44.17-10.44-9.49-17.31-28.79-21.1-44.09-1.59-6.4-2.8-16.97 3.02-15.47 2.41.62 2.66 6.88 5.54 5.41 4.41-2.24 1.58-8.2 7.49-6.25 4.18 1.38 3.35-5.99 8.08-6.38 4.32-.36 3.94-8.53 7.49-8.92 4.16-.46 2.75 2.62 5.71 3.39 4.53 1.17 4.58-4.03 7.12-2.5 1.92 1.16 4.17-2.1 1.74-2.98-3.44-1.24-2.69-2.88-6.2-1.49-3.02 1.2-5.29-2.55-8.92-1.17-2.04.77-.17-6.24-2.18-5.31-2.11.98-2.36 12.58-6.28 13.21-6.48 1.05-3.78 5.09-9.12 5.75-3.36.42-3.01 3.4-5.71 3.52-3.98.17-1.87-4.15-5.87-4.1-1.75.02-2.59-19.99-2.48-30.25.1-9.4-2.77-11.97-3.32-19.65-.95-13.21 7.28-20.1 1.92-39.75-1.8-6.58.16-12.75-.86-19.94-2.62-18.56-.24-39.66 8.34-56.64 8.65-17.12 24.36-32.42 31.73-33.23 2.53-.28 1.43 4.82 1.12 7.27-.2 1.56 1.52 3.31 2.99 2.51 1.23-.66 2.4-3.44 4.05-3.53 2.41-.13 3.44 4.74 6.52-1.7 1.62-3.39 6.12 3.04 8.95 1.94 3.44-1.34-.22-10.08 3.07-10.3 2.72-.18 1.2-3.38 4.05-3.16 2.8.22 1.45-4.41 4.66-2.92 3.68 1.7 6.19-3.49 10.13-3.49 4.58 0 9.17 1.75 9.87 3.7.96 2.69 3.44 4 5.13 2.27 1.43-1.47.18-2.82 2.76-3.33 2.91-.58 2.59 4.26 7.32 1.98 2.9-1.4.58-9.85 10.39-9.85 7.42 0 15.52 2.4 23.74 5.46 6.84 2.54 4.27 7.94 8.77 9.55 1.7.61 4.82.34 7.23 2.9 7.25 7.7 8.61 17.36 18.41 21.83.94.43 3.57.94 4.83.34 2.18-1.05 1.25 2.33.56 3.62-2.41 4.55-1.48 11.56.28 15.54 1.63 3.68 6.99 8.94 6.89 12.79-.11 4.53-1.78 11.19-.54 16.13 1.35 5.36 6.94 33.16 3.69 51.76-1.17 6.7 5.58 22.26-.54 37.13-2.6 6.33.55 12.55-5.53 13.28-3.64.43-.29 11.55-1.6 15.87-.72 2.36-2.5 4.92-6.55 4.76-3.64-.14-.87 9.19-4.93 7.74-2.72-.97-2.49 7.12-5.56.99-1.82-3.63-5.34.39-6.64.66-4.74.99-7.04-1.8-10.22.32-1.28.86-2.98-2.36-8.22-2.35-2.46 0-2.7-7.65-7.12-7.31-4.57.35-6.76-9.98-10.25-11.14-5.46-1.8 4.95 11.73-2.53 7.92-2.74-1.39-3.92.4-7.51-1.62-5.26-2.96-7.56-.66-10.94-1.35-6.6-1.36-6.76.99-10.22.23-6.13-1.35-3.96 1.24-12.07 2.44-2.94.43-3.9 3.16-.17 3.32 3.72.16 3.59-.57 7.37-1.2 4-.66 7.73 7.86 10.6 1.72 2.19-4.69 5.66.6 11.17-2.01 2.82-1.33 5.77 6.15 10.16 4.06 3.1-1.48 3.47-.89 6.63 1.54 2.16 1.66 6.91-1.42 7.9 1.47 3.66 10.61 8.74 1.1 11.56 11.39.01.05.02.11.03.15 1.17 5.3 1.23 10.26-1.81 14.68-2.92 4.25.61 15.45 3.85 14.85 1.96-.36-2.84-7.78 1.28-15.06 6.48-11.44-2.79-12.76 4.16-16.41 1.47-.77 3.56 1.05 4.7 2.29 3.24 3.55 2.47-1.86 6.74-3.16 2.12-.65 2.69 3.04 2.91 3.79.5 1.67-.29 7.43 2.37 6.41 3.9-1.5.73-9.93 4.01-11.65 1.08-.57 2.54 1.05 3.64.09 2.52-2.19 1.96-4.21 1.58-7.31-.41-3.34 6.12 2.16 7.5-5.14.27-1.42-1.82-18.67 3.72-16.94 2.69.84 1.36-13.45 4.51-15.59 2.77-1.88 1.46-6.78 2.04-17.03.69-12.15-4.33-19.15-1.1-29.53l.03-.1c4.68-20.15-7.36-40.22-3.85-60.39.19-1.09-.21-2.21-.58-3.26-3.17-9.07-9.32-13.46-5.37-25.6 1.78-5.49.3-9.45-1.69-11.42-2.08-2.06-8.38-2.37-8.13-.76.3 1.97 2.77 2.09 3.02 3.19.73 3.21-1.79 1.45-2.94.33-2.29-2.23-4.54-5.38-6.64-7.77-2.18-2.47-4.39-4.93-6.66-7.33-4.44-4.69-9.14-10.16-14.36-14-10.58-7.77-22.87-13.06-35.99-10.68-3.69.67-5.67 3.83-6.92 6.14-1.68 3.1-2.69 1.83-2.83 1.19-.28-1.26-.48-3.54-1.12-5.05-.56-1.31-1.74-1.51-2.66-.76-1.76 1.46-2.23 4.08-3.18 6.12-1.5 3.23-2.23.67-4.1-.54-1.22-.78-2.96.05-4.1-.6-1.2-.68-1.78-2.85-3.25-2.35-2.39.82-3.15 2.24-5.78.68-3.09-1.83-2.67.75-4.33 2.61-1.49 1.67-3.62.97-5.18.03-2-1.21-2.57 3.38-3.97 4.38-1.05.75-2.62.71-3.58 1.37-.48.33-.81.94-1.13 1.36-.12.17-.24.33-.45.34-.54.05-1.04-.49-1.83-.86-1.11-.52-2.02.07-2.23 1.27-.58 3.34 2.56 10.67-1.97 7.08-1.35-1.07-4.19-2.88-4.83-.89-1.92 5.94-7.36 4.71-7.44 2.41-.29-8.77-7.2-5.59-8.63-4.72-18.48 11.21-31.36 25.58-38.15 48.47-3.08 10.38-4.69 21.81-5.29 32.59-.31 5.52.84 13.55-.1 14.47-1.78 1.74-5.34-9.56-5.94-17.52-.65-8.65 13.97-22.71.78-25.74-4.39-1.01 7.13-9.38 4.89-16.56-5.63-18.05 26.08-30.71 38.55-38.13 3.86-2.3 7.81-5.07 7.15-9-1.45-8.61 13.27-8.67 14.14-13.53 1.76-9.79 11.97-11.64 17.89-10.55 4.44.82 19.57 5.27 21.57.68 1.63-3.74 4.14-6.15 7.06-7.24 4.27-1.59 7.86-.86 11.48 2.05 3.15 2.54 4.27 5.68 7.14 8.65.77.79 3.79 2.19 4.67 1.01.84-1.13-2.01-3.53-1.09-4.59.53-.61 2.74-.65 4.41-.08 7.96 2.73 10.11 12.71 15.86 13.26 15.57 1.48 32.71 8.86 41.79 21.66 3.1 4.37-3.55 2.92-2.4 7.15.37 1.36 4.54.57 6.32-.75 1.64-1.22 4.58-2.96 4.27-5.08-.55-3.85-4.38-4.97-8.15-10.53-7.67-11.33-40.41-15.17-43.16-19.48C269.32 17.48 260 8.9 253.73 12.5c-2.91 1.67-4.65-1.32-6.51-3.16-7.71-7.64-17.16-6.74-21.27-2.16-2.01 2.24-3.68 8.79-11.45 6.97-7.84-1.83-14.75-3.83-19.31-2.83-6 1.31-11.08 3.64-14.05 12.83-1.76 5.44-15.39 5.57-15.8 8.92-.51 4.21 2.88 6.73-2.19 10.77-5.13 4.09-51.64 23.02-43.02 38.4 5.33 9.5-17.73 27.02-.91 28.08 6.06.38-5.06 11.12-3.32 18.14 2.41 9.74-2.91 12.45 3.1 16.82 2.96 2.15-.79 13.7 5.73 12.92 3.48-.42 2.23 6.76 2.96 9.98 3.62 15.93-4.89 33.83-.43 42.64 3.12 6.18.34 24.72 4.35 47.35.56 3.13-3.24 3.53-2.68 15.67.42 9.2 4.88 15.79 6.49 24.42 1.97 10.55 12.32 27.3 17.4 29.9 5.71 2.93 7.2 19.41 6.39 26.59-.39 3.45 1.55 5.35-.37 7.55-3.85 4.4-7.28 17.13-8.29 23.01-6.64 39.02 26.72 78.75 63.62 81.11 39.19 2.51 82.15-24.54 106.25-54.29 12.38-15.28 25.34-35.56 20.25-55.37-1.65-6.43-18.31-15.52-11.37-15.52 4.95 0 23.21 11.66 25.25 15.08 3.14 5.25 15.16 3.54 5.26 19.57-7.53 12.2-5.9 28.07-12.97 40.5-2.59 4.56-6.71 8.01-9.5 12.4-3.13 4.93-5.58 10.36-10.03 14.36-21.92 19.68-49.15 32.43-77.34 40.8-4.93 1.46-9.02 4.61-14.22 5.42-22.52 3.5-44.4-3.13-62.4-16.63-11.21-8.41-19.9-17.6-25.25-25.34-4.37-6.31-8.75-16.59-12-23.5-10.9-23.22-5.62-41.64 8.25-63.42 2.14-3.36 6.82-5.42 10.46-6.89 5.27-2.12 2.8-5.31-2.23-3.54-3.32 1.17-6.55 4.17-12.72 6.19-53.79 17.7-38.11 18.69-10.04 7.08 5.67-2.35 6.53.75 4.53 4.07-9.26 15.39-11.18 29.76-6.76 47.7 1.3 5.28 3.57 8 5.41 13.03 12.3 33.61 43.47 60.26 78.28 66.82 8.41 1.58 17.08.93 25.58-.05 7.15-.83 12.83-5.21 19.69-7.16 45.41-12.92 91.24-43.91 102.05-91.26.74-3.24.82-7.07 1.89-10.29 1.91-5.76 4.04-9.56 6.43-14.92 1.59-3.57 4-2.36 5.5.31 1.57 2.8-2.51 9.65 1.57 7.94 5.04-2.11 14.96 2.04 19.93 4.32 17.46 7.99 11.57 1.28 4.12-1.89Zm-56.06-171.16c-4.5.93 2.82-13.29-.89-22.55-1.58-3.94 2.37-9.07 5.48-10.42 10.84-4.72 7.6 12.34 5.72 4.87-1.03-4.06-7.49 1.43-6.69 4.44 3.9 14.68 3.72 1.1 4.89 1.9 5.16 3.54 4 6.27 2.58 20.84-2.04 20.88-10.61 16.62-10.17 23.81.38 6.23 3.69-5.42 4.6-.66.59 3.08-5.75 10.7-5.65 12.93.27 6.16-4.52 8.23-4.79 4.92-1.91-23.39 13.84-41.92 4.91-40.06Zm-188.1 184.45c-.11-9.6 6.76-34.82 10.45-27.8 1 1.9 3.58 5.67 3.31 7.65-5.7 41.58 4.63 54.03 6.72 62.87 2.39 10.11-20.14-14.12-20.48-42.72ZM281 439.15c-29.27 19.09-60.89 26.34-83.23 17.56-4.92-1.93-12.62-4.07-14.67-8.73-2.16-4.92-9.57-22.29-12.57-47.61-1.39-11.75 2.52-14.22 2.21-20.16-.12-2.2 1.19-5.23 3.58-5.97 3.71-1.15 7.11 11.53 12.28 10.89 1.09-.13 4.2-3.2 7.75-3.52 2.65-.24 2.91 6.4 9.04 3.52 14.97-7.03 26.49 4.48 34.01.19 4.57-2.6 5.2-6.1 7.98-4.35 6.14 3.84 3.55-5.44 9.04-3.84 10.51 3.06 9.51-17.99 19.35-17.72 6.42.18 5.9-18.38 11.83-17.04 8.22 1.85 15.01-10.4 21.43-21.08 2.11-3.51 3.66 6.04 5.54 11.62 1.9 5.64 3.19 8.73 5.8 12.41 1.33 1.87 4.13 5.69 5.48 8.34 10.59 20.79-13.37 45.45-25.4 66.31-2.8 4.85-9.6 12.75-19.46 19.18Zm49.44-90.08c3.69 3.37 6.5 8.49 6.79 15.95.82 20.82-26.18 57.67-30.69 54.95-1.11-.67 4.85-9.05 9.61-15.16 10.59-13.6 23.5-37.75 13.11-51.35-2.9-3.79-4.02-9.13 1.18-4.39Z"/>
<path d="M335.76 157.08c-5.05-1.54-14.06-3.8-14.39-4.88-.39-1.28-3.11-1.54-5.18-2.06-15.33-3.8-29.33-5.78-45.12-6.18-15.79-.4-31.9 1.9-46.1 8.77-1.88.91-3.75 1.91-5.8 2.31-1.29.25-2.62.26-3.94.26-4.15.02-8.3.03-12.45.05-1.78 0-3.57.01-5.31-.35-2.4-.5-4.58-1.67-6.8-2.71-13.5-6.36-28.78-8.27-43.72-7.69s-29.12 2.49-43.56 6.31c-1.94.51-2.59 1.24-2.33 3.21.26 1.99-.39 7.06 1.3 7.32 7.06 1.08 8.41 4.27 10.71 9.34 2.44 5.36 3.15 11.35 5.44 16.78 3.68 8.73 11.38 15.51 20.24 19.04s18.78 3.99 28.18 2.3c4.75-.85 9.5-2.29 13.44-5.06 9.28-6.53 12.08-18.64 16.1-29.19 2.1-5.51 6.15-11.73 12.08-11.24 4.15.35 7.27 4.11 8.57 8.04 1.3 3.93 1.28 8.15 2.07 12.21 1.74 8.99 7.63 17.1 15.68 21.59 4.95 2.76 10.56 4.15 16.17 5.08 8.63 1.43 17.56 1.81 26.06-.25s16.56-6.75 21.47-13.92c3.07-4.48 4.81-9.71 6.51-14.87 1.48-4.5 2.55-9.15 4.45-13.49 2.38-5.47 9.9-5.34 10.81-7.14.82-1.62 10.82 2.75 16.41 2.98 1.81.08.99-5.98-.99-6.58Zm-155.47 42.49c-7.69 5.46-17.43 5.71-26.88 5.17-6.18-.36-13.58-2.07-18.79-5.39-6.39-4.08-9.52-9.65-12.07-16.75-1.58-4.4-2.73-9.1-2.71-13.73 0-1.89 6.98.32 8.94.67 1.06.19 1.29-2.81 0-3.85-1.95-1.57-7.52-4.28-7.52-5.99 0-4.81 8.17-8.42 12.54-9.39 14.44-3.21 29.77-2.41 43.79 2.27 3.78 1.26 7.48 3.24 10.15 6.17 2.82 3.09 4.15 6.96 4.62 11.1 1.27 11.13-2.9 23.2-12.09 29.72Zm103.92 2.2c-3.75 1.93-7.7 3.58-12.34 4.25-12.1 1.75-26.05-.51-35.12-6.17-8.55-5.33-12.8-14.15-13.35-24.15-.34-6.17.94-11.97 4.8-16.83 3.86-4.85 9.21-6.5 13.87-7.66 15.46-3.85 31.14-4.96 45.74 1.37 2.87 1.24 5.73 3.17 7.78 5.52 2.82 3.25 3.6 7.28 3.89 11.56.84 12.69-3.87 26.24-15.26 32.1Z" />
</svg>
