<svg version="1.1" id="Layer_1" xmlns="http://www.w3.org/2000/svg" x="0" y="0" viewBox="0 0 1919.2 450" style="enable-background:new 0 0 1919.2 450" xml:space="preserve">
  <style>
    .st4{fill:#282828}.st5{fill:#f0f0f0}.st6{fill:#fff}.st11,.st12,.st7{fill:none;stroke-miterlimit:10}.st7{stroke:#282828;stroke-width:.335}.st11{stroke:#3c3c3c;stroke-width:.7105}.st12{stroke:#282828;stroke-width:1.3398}.st15{fill:#d8ccc5}.st18{fill:#333}.st24{fill:none;stroke:#333;stroke-width:.88;stroke-miterlimit:10}.st26,.st27{opacity:.75;fill:#c1272d;enable-background:new}.st27{fill:#fcee21}.st28{fill:#d7d7d7}.st29{fill:#232323}.st30{fill:#efefef}.st31{fill:#e1e1e1}.st33{fill:#4f4f4f}.st34{opacity:.45;fill:#232323;enable-background:new}.st37{fill:none;stroke:#4f4f4f;stroke-width:.618;stroke-miterlimit:10}.st39{fill:#c8b5ab}.st40{opacity:.5;fill:#e5dcd7;enable-background:new}.st42{fill:#aa897e}.st43{fill:#e5dcd7}.st44{fill:#004025}.st45{opacity:.25;fill:#282828;enable-background:new}.st47,.st50{fill:none;stroke:#004025;stroke-width:.5091;stroke-miterlimit:10}.st50{stroke:#282828}.st51{fill:red}.st53{fill:#2b1432}.st57{fill:#8084be}
  </style>
  <path d="M0 0h1919.2v450H0V0z" style="fill:#a2afce"/>
  <path d="M1919.6 135.3s-34.3-6-41.1-8.4c-6.8-2.4-21.4-3.3-30-5.1s-26.8-7.1-35.9-9.6c-9.1-2.4-15-2.9-20-4.2s-11.8-3.8-23.6-5.8-21.8-1.6-35-3.3c-13.2-1.8-11.4-3.3-28.2-5.1-16.8-1.8-31.4-1-40.9-1.6s-15-1.8-22.3-2.8-12.5-.8-16.4-1.3c-3.9-.6-9.8-2.1-13.9-2.6s-9.8-.1-12.5-.7c-2.7-.6-2.5-1.8-9.1-2.8s-10.2-1.4-14.8-1.4-9.1.1-12-.7c-3-.8-7.7-.4-13.9-1.1s-26.1-4.6-33.6-5.6-14.1.1-18.9 0-23.6 1.9-32.3 2.3c-8.6.4-7.3-1.6-14.1-2.1-6.8-.6-19.8-2.1-24.3-2.1s-10.5-.7-14.5-2.1c-4.1-1.4-21.6-4.8-30.7-5.4-9.1-.7-21.6-3.2-31.8-4.2s-39.5-3.7-48.2-4.4c-8.7-.7-8 .7-13.9 0s-12.3-2.7-21.4-2.3c-9.1.3-10.2 1.6-19.1 2.7s-15.9 1.1-21.8 2-20.2 5.2-25.9 6.1c-5.7.9-20.5 4.8-27.7 5.1-7.3.3-5.5 4-23.4 7.4s-22.7 1-29.5 1.4-35.5 12.3-58.2 13-30-4.3-48-5.4c-18-1.1-32.3.6-45.5.7-13.2.1-18.4-.3-29.3.4-10.9.8-40.9 2.6-57 3.3-16.1.8-22.7-.1-40.5 1.2-17.7 1.3-54.8 7.1-72.7 8.4-17.9 1.3-20.9.1-29.1.3-8.2.2-10.9 1.6-25.7-.6-14.8-2.1-26.8-5.4-40.5-7.8-13.6-2.3-26.6-4.6-33.2-6-6.6-1.4-20.5-5.9-35.5-5.9s-25.2 3.7-32.5 5.2-16.6 4.8-25.9 5.4c-9.3.7-13.6.4-20 1.6-6.4 1.1-22.7 5-46.1 7.9s-34.8 4-37.5 4-10-.6-14.5 1.2-24.5.7-30.2.2-5.2 1.1-8.6 1.1-34.3 1.6-44.3 1.9-9.5 2.6-15.9 2.7-22.5-.4-35.5.2c-13 .7-18.2 2.4-23 2.6-4.8.1-16.4.4-23.2 1.1-6.8.7-36.8 6.1-43.4 8.9-6.5 3-25.5 9.8-40.5 12.1s-26.1.3-38 0c-11.8-.3-22.5-.5-32 1.1-9.5 1.7-32.7 6.3-46.1 7.3-13.5 1-46.9-.4-46.9-.4v245.5h1920V135.3z" style="fill:#e9eff3"/>
  <path d="M1919.6 296.6s-59.3-14.6-86.6-22.3c-27.3-7.7-57.3-22.7-68.2-24.4s-23.2-4.2-33.4-7.3c-10.2-3.1-51.8-21.6-68.9-28.6-17-7-40.2-19.5-55.9-22.3-15.7-2.8-22.5-14-43-19.5-20.5-5.6-19.8-15.3-28-17.4-8.2-2.1-17-.7-25.2-3.1s-20.5 2.1-27.3 0-36.8-20.2-45.7-19.5c-8.9.7-26.6-17.4-32-23-5.5-5.6-25.6-1.2-31.4-.7-16.1 1.5-26.6 10.8-48.4 15.7s-49.1 21.6-64.8 21.6c-15.7 0-40.9 3.5-54.5-1.7s-37.5-24.8-45-28.3-28.3-19-38.9-20.6-34 7.7-49.7 9.1c-15.7 1.3-32.8 4.2-43.7 7.7-10.9 3.5-21.1 8.4-38.9 11.9-17.7 3.5-42.3 8.7-59.3 13.3-17 4.5-44.3 12.9-53.9 14.3s-15 10.1-22.5 10.5c-7.5.3-60.7-.7-105.7-3.5s-77.7.3-87.3-.3c-9.5-.7-21.8-3.8-32-3.8s-24.5 4.5-34.8 2.8c-10.2-1.7-77-13.3-88-19.2-11-5.9-17 0-38.2 7.3-21.1 7.3-39.5 19.2-62 23.7s-53.9 23.4-64.8 23.4-30.7-6.2-46.4-4.4c-15.7 1.7-54.5 4.9-67.5 5.6-13 .7-24.5 8.7-34.1 8.4-9.5-.3-27.3-5.2-44.3-5.2s-21.8-4.2-43-4.5c-21.1-.3-36.1 7.3-49.1 9.1s-27.3 16.1-33.4 17.9S-.4 234.1-.4 234.1v154.7h1920v-92.2z" style="opacity:.2;fill:#3d71d7;enable-background:new"/>
  <path d="M1919.6 327.8s-43-9.3-54.8-11.4-39.5-.9-50.9-1.5-26.8-6-43.2-5.4c-16.4.6-50 7.5-67.7 9.2s-24.1 4.7-38.6 4.7-21.4-1.5-22.7-1.2-14.1 1.8-19.5 1.8-6.8-2.1-17.3 0-20 5.4-28.6 3.9-16.8-3.3-22.3-3.3-13.6.3-19.5-1.2-34.5-9.3-44.1-12c-9.5-2.7-15.5-2.7-23.6-5.7-8.2-3-20.9-12.6-30-12.6s-12.7.9-20.9 0-32.7-7.2-45.9-8.1c-13.2-.9-21.4-.9-25.9 0s-7.7 2.1-7.7 2.1-23.6-7.5-35.9-11.7-25-9.6-28.6-13.2-5-6.9-13.2-7.2-14.1-4.8-19.5-5.7c-5.5-.9-7.3.3-11.8-1.2s-36.8-15.6-47.3-17.2c-10.5-1.5-39.5 2.2-52.3 0-8.6-1.5-25 10.2-35.5 10.2s-17.7 12.3-27.7 13.7-32.7.5-48.6-3.5c-15.9-3.9-39.1-10.2-48.6-10.5s-20.8-6-30.8-7.8-18.2-6.6-27.7-6.3-25.5 4.2-37.3 3.3c-11.8-.9-19.1 3.3-28.6 1.2s-20.5-4.5-27.3-4.5-26.4-1.5-38.6-5.1-10.9.6-19.1-1.8c-8.2-2.4-8.6-3.6-13.6-3.9s-7.3 3.6-12.3 2.4-11.4-3.6-16.4-2.4-2.7 4.5-10.9 4.5-10.5-4.3-22.3-4.9-23.2-.9-34.1-6c-10.9-5.1-13.2-8.1-26.8-9.6s-18.6-4.8-31.8-5.1-20.5-2.1-35-2.7c-14.5-.6-22.3-3-30.9-1.5s-14.5-2.2-20.5-.5-18.6 10.7-30.8 13.4c-12.3 2.7-18.6 6.9-26.8 5.7-8.2-1.2-14.5-2.1-22.3-1.5-7.7.6-16.4-1.2-23.6-.6-7.3.6-19.1 2.4-25.9.9s-14.1-5.4-25.5-5.1c-11.4.3-26.8 5.1-39.5 5.1s-29.5 3.6-38.2 3.6c-8.6 0-15-1.2-23.6-.6s-14.1 3.9-26.4 2.1c-12.3-1.8-22.7.3-36.4.9-13.6.6-36.4 6.3-48.6 5.4s-20-3.6-29.1-3.3c-9.1.3-17.7 6-28.6 6s-24.5-.3-30.5.3c-5.9.6-14.5 3-23.6 3s-12.7 3.9-16.4 4.8c-3.6.9-8 1.2-8 1.2v157.4h1920v-61z" style="opacity:.3;fill:#0a3b9a;enable-background:new"/>
  <path class="st4" d="M490.4 348.8v2.6h5.3l1.4 1.4h6.7l1.3 1.3h6.7l2.7 2.7h26.8l2.6-2.7h28.2l2.7 2.7h28.1l2.7-2.7h24.8v-4l-140-1.3z"/>
  <path class="st4" d="M770.4 348.8v2.6H765l-1.3 1.4H757l-1.4 1.3h-6.7l-2.6 2.7h-26.8l-2.7-2.7h-28.2l-2.6 2.7h-28.2l-2.6-2.7h-24.8v-4l140-1.3zm-276.9-4.1h1.5v2.7h-1.5v-2.7z"/>
  <path class="st5" d="M510.5 355.5h18.8l2.7-4h53.6l2.7 4h19.3l2-4h18.8v-30.8H498.3c-.7 0-1.3.5-1.3 1.2l-2.6 25.6h-.7v.7c0 .4.3.7.7.7h4l2.7 2.7h6.7l2.7 3.9z"/>
  <path class="st4" d="M564 338h-10.7c-1.5 0-2.7-1.2-2.7-2.7v-8c0-1.5 1.2-2.7 2.7-2.7H564c1.5 0 2.7 1.2 2.7 2.7v8c0 1.5-1.2 2.7-2.7 2.7zm18.8 0h-10.7c-1.5 0-2.7-1.2-2.7-2.7v-8c0-1.5 1.2-2.7 2.7-2.7h10.7c1.5 0 2.7 1.2 2.7 2.7v8c0 1.5-1.2 2.7-2.7 2.7zm40.2 0h-10.7c-1.5 0-2.7-1.2-2.7-2.7v-8c0-1.5 1.2-2.7 2.7-2.7H623c1.5 0 2.7 1.2 2.7 2.7v8c0 1.5-1.2 2.7-2.7 2.7zm-77.7 0h-10.7c-1.5 0-2.7-1.2-2.7-2.7v-8c0-1.5 1.2-2.7 2.7-2.7h10.7c1.5 0 2.7 1.2 2.7 2.7v8c0 1.5-1.2 2.7-2.7 2.7zm-39.6 0h-5.3c-1.1 0-2-.9-2-2v-9.3c0-1.1.9-2 2-2h5.3c1.1 0 2 .9 2 2v9.3c.1 1.1-.8 2-2 2z"/>
  <path class="st5" d="M628.4 322h4v28.1h-4V322z"/>
  <path class="st6" d="M628.4 323.3v-2.7h-130c-1.5 0-1.5 1.5-1.5 1.5l-.1 1.2h131.6z"/>
  <path class="st4" d="M765.7 344.8h1.5v2.7h-1.5v-2.7z"/>
  <path class="st5" d="M750.3 355.5h-18.8l-2.7-4h-53.6l-2.7 4h-19.4l-2-4h-18.8v-30.8h130.1c.7 0 1.3.5 1.3 1.2l2.6 25.6h.7v.7c0 .4-.3.7-.7.7h-4l-2.7 2.7h-6.7l-2.6 3.9z"/>
  <path class="st4" d="M696.7 338h10.7c1.5 0 2.7-1.2 2.7-2.7v-8c0-1.5-1.2-2.7-2.7-2.7h-10.7c-1.5 0-2.7 1.2-2.7 2.7v8c0 1.5 1.2 2.7 2.7 2.7zm-18.8 0h10.7c1.5 0 2.7-1.2 2.7-2.7v-8c0-1.5-1.2-2.7-2.7-2.7h-10.7c-1.5 0-2.7 1.2-2.7 2.7v8c0 1.5 1.2 2.7 2.7 2.7zm-40.2 0h10.7c1.5 0 2.7-1.2 2.7-2.7v-8c0-1.5-1.2-2.7-2.7-2.7h-10.7c-1.5 0-2.7 1.2-2.7 2.7v8c.1 1.5 1.3 2.7 2.7 2.7zm77.7 0h10.7c1.5 0 2.7-1.2 2.7-2.7v-8c0-1.5-1.2-2.7-2.7-2.7h-10.7c-1.5 0-2.7 1.2-2.7 2.7v8c.1 1.5 1.3 2.7 2.7 2.7zm39.6 0h5.3c1.1 0 2-.9 2-2v-9.3c0-1.1-.9-2-2-2H755c-1.1 0-2 .9-2 2v9.3c0 1.1.9 2 2 2zm-10.6 5.4h2.4c.8 0 1.5-.7 1.5-1.5v-14.5c0-.8-.7-1.5-1.5-1.5h-2.4c-.8 0-1.5.7-1.5 1.5v14.5c0 .8.7 1.5 1.5 1.5zm-9.4 0h2.4c.8 0 1.5-.7 1.5-1.5v-14.5c0-.8-.7-1.5-1.5-1.5H735c-.8 0-1.5.7-1.5 1.5v14.5c0 .8.7 1.5 1.5 1.5z"/>
  <path class="st6" d="M632.4 323.3v-2.7h130c1.5 0 1.5 1.5 1.5 1.5l.1 1.2H632.4zm-4-1.3h4v2.7h-4V322z"/>
  <path class="st7" d="M632.4 320.6v30.8m-4-30.8v30.8"/>
  <path d="M494.4 345.4h46.9l8-4h162.1l8.1 4h46.9" style="fill:none;stroke:gold;stroke-width:.6699;stroke-miterlimit:10"/>
  <path d="M494.4 346.1h44.2l8-4h167.5l8 4h44.3" style="fill:none;stroke:#ff6e00;stroke-width:.6699;stroke-miterlimit:10"/>
  <path d="M494.4 346.8h41.5l8-4.1h172.9l8 4.1h41.6" style="fill:none;stroke:#ba0000;stroke-width:.6699;stroke-miterlimit:10"/>
  <path class="st11" d="M511.5 352.8h16.7c.4 0 .7-.3.7-.7v-26.8c0-.4-.3-.7-.7-.7h-16.7c-.4 0-.7.3-.7.7v26.8c0 .4.3.7.7.7z"/>
  <path class="st12" d="M519.8 324.6v28.2"/>
  <path class="st7" d="M515.1 324.6v28.2m9.4-28.2v28.2"/>
  <path class="st4" d="M516.4 343.4H514c-.8 0-1.5-.7-1.5-1.5v-14.5c0-.8.7-1.5 1.5-1.5h2.4c.8 0 1.5.7 1.5 1.5v14.5c-.1.8-.7 1.5-1.5 1.5zm9.3 0h-2.4c-.8 0-1.5-.7-1.5-1.5v-14.5c0-.8.7-1.5 1.5-1.5h2.4c.8 0 1.5.7 1.5 1.5v14.5c0 .8-.7 1.5-1.5 1.5z"/>
  <path class="st11" d="M589.5 352.8h16.7c.4 0 .7-.3.7-.7v-26.8c0-.4-.3-.7-.7-.7h-16.7c-.4 0-.7.3-.7.7v26.8c0 .4.3.7.7.7z"/>
  <path class="st12" d="M597.9 324.6v28.2"/>
  <path class="st7" d="M593.2 324.6v28.2m9.4-28.2v28.2"/>
  <path class="st11" d="M671.2 352.8h-16.7c-.4 0-.7-.3-.7-.7v-26.8c0-.4.3-.7.7-.7h16.7c.4 0 .7.3.7.7v26.8c0 .4-.3.7-.7.7z"/>
  <path class="st7" d="M667.5 324.6v28.2m-9.3-28.2v28.2"/>
  <path class="st11" d="M749.3 352.8h-16.7c-.4 0-.7-.3-.7-.7v-26.8c0-.4.3-.7.7-.7h16.7c.4 0 .7.3.7.7v26.8c-.1.4-.4.7-.7.7z"/>
  <path class="st12" d="M740.9 324.6v28.2"/>
  <path class="st7" d="M745.6 324.6v28.2m-9.4-28.2v28.2"/>
  <path class="st4" d="M666.3 343.4h2.4c.8 0 1.5-.7 1.5-1.5v-14.5c0-.8-.7-1.5-1.5-1.5h-2.4c-.8 0-1.5.7-1.5 1.5v14.5c.1.8.7 1.5 1.5 1.5zm-9.4 0h2.4c.8 0 1.5-.7 1.5-1.5v-14.5c0-.8-.7-1.5-1.5-1.5h-2.4c-.8 0-1.5.7-1.5 1.5v14.5c.1.8.7 1.5 1.5 1.5z"/>
  <path class="st12" d="M662.9 324.6v28.2"/>
  <path class="st4" d="M594.4 343.4H592c-.8 0-1.5-.7-1.5-1.5v-14.5c0-.8.7-1.5 1.5-1.5h2.4c.8 0 1.5.7 1.5 1.5v14.5c0 .8-.7 1.5-1.5 1.5zm9.4 0h-2.4c-.8 0-1.5-.7-1.5-1.5v-14.5c0-.8.7-1.5 1.5-1.5h2.4c.8 0 1.5.7 1.5 1.5v14.5c-.1.8-.7 1.5-1.5 1.5z"/>
  <path class="st5" d="M539.9 320.6v-1.3c0-.7.6-1.3 1.3-1.3H576c.7 0 1.3.6 1.3 1.3v1.3h-37.4zm143.4 0v-1.3c0-.7.6-1.3 1.3-1.3h34.8c.7 0 1.3.6 1.3 1.3v1.3h-37.4z"/>
  <path class="st4" d="M623 320.6h-10.7v-1.3H623v1.3z"/>
  <path class="st12" d="m624.3 295.2-10.7 10.7 4 14.1-6.7-14.1 18.8-10.7h-5.4z"/>
  <path d="M297.4 293.8h594.2" style="fill:none;stroke:#282828;stroke-width:.6699;stroke-miterlimit:10"/>
  <linearGradient id="SVGID_1_" gradientUnits="userSpaceOnUse" x1="1246.6" y1="589.732" x2="1310" y2="589.732" gradientTransform="translate(0 -254)">
    <stop offset="0" style="stop-color:#948a84"/>
    <stop offset="1" style="stop-color:#3e332c"/>
  </linearGradient>
  <path d="m1287.1 356.8-40.5-42.2 38.7 12.3 24.7 29.9h-22.9z" style="fill:url(#SVGID_1_)"/>
  <path class="st15" d="m1625 175.5-144.3 51.1v1.7h-5.3l-61.6 22.9 10.6 37 36.9 28.1L1625 175.5z"/>
  <linearGradient id="SVGID_00000032619626814906296040000009452974579094152123_" gradientUnits="userSpaceOnUse" x1="1410.026" y1="550.531" x2="1437.531" y2="598.17" gradientTransform="translate(0 -254)">
    <stop offset="0" style="stop-color:#948a84"/>
    <stop offset="1" style="stop-color:#3e332c"/>
  </linearGradient>
  <path style="fill:url(#SVGID_00000032619626814906296040000009452974579094152123_)" d="M1415.6 356.8H1405l19.4-68.6 36.9 28.1-45.7 40.5z"/>
  <linearGradient id="SVGID_00000013176630597679038670000018310218640579444116_" gradientUnits="userSpaceOnUse" x1="1481.578" y1="551.337" x2="1439.322" y2="624.528" gradientTransform="translate(0 -254)">
    <stop offset="0" style="stop-color:#948a84"/>
    <stop offset="1" style="stop-color:#3e332c"/>
  </linearGradient>
  <path style="fill:url(#SVGID_00000013176630597679038670000018310218640579444116_)" d="m1505.3 311-42.2 3.6-47.5 42.2h56.3l33.4-45.8z"/>
  <path class="st18" d="M1459.7 346.2v10.6h12.2l7.7-10.6h-19.9z"/>
  <linearGradient id="SVGID_00000177483333827911928470000003810203090411224752_" gradientUnits="userSpaceOnUse" x1="1365.592" y1="499.959" x2="1423.454" y2="600.178" gradientTransform="translate(0 -254)">
    <stop offset="0" style="stop-color:#948a84"/>
    <stop offset="1" style="stop-color:#3e332c"/>
  </linearGradient>
  <path style="fill:url(#SVGID_00000177483333827911928470000003810203090411224752_)" d="m1412.1 244.2-74 17.6 44 95h22.9l19.4-68.6-12.3-44z"/>
  <path class="st15" d="m1246.6 314.6 40.5 1.7-1.8 10.6-38.7-12.3z"/>
  <path d="m1290.6 293.4-7 40.5 70.4-7-28.2-47.5-35.2 14z" style="fill:#e0e0e0"/>
  <linearGradient id="SVGID_00000130607650598243803770000008961632022453467538_" gradientUnits="userSpaceOnUse" x1="1306.5" y1="563.332" x2="1382.18" y2="563.332" gradientTransform="translate(0 -254)">
    <stop offset="0" style="stop-color:#948a84"/>
    <stop offset="1" style="stop-color:#3e332c"/>
  </linearGradient>
  <path style="fill:url(#SVGID_00000130607650598243803770000008961632022453467538_)" d="m1306.5 275.8 31.6-14 44 95h-7l-22.9-31.7-26.4-8.8-19.3-40.5z"/>
  <path class="st18" d="M1382.1 356.8h-7l-3.8-5.2h6.4l4.4 5.2z"/>
  <linearGradient id="SVGID_00000145038755246030670810000009189984885945757849_" gradientUnits="userSpaceOnUse" x1="1283.6" y1="595.882" x2="1375.1" y2="595.882" gradientTransform="translate(0 -254)">
    <stop offset="0" style="stop-color:#948a84"/>
    <stop offset="1" style="stop-color:#3e332c"/>
  </linearGradient>
  <path style="fill:url(#SVGID_00000145038755246030670810000009189984885945757849_)" d="m1306.5 356.8-22.9-22.9 70.4-7 21.1 29.9h-68.6z"/>
  <path class="st18" d="m1473.7 228.3-1.8 59.9 5.3-3.6 2.8-44.4-5.2 1.8.6-10.9 5.3-2.8h-7z"/>
  <path d="m1286.5 328.9 6.9-4.6 4-28.1 15.6-6.7-1.3-2.8-19.2 7.5-6 34.7zm54.5-3.5-30.1-9-4.7 8.3 5.8 3.9 29-3.2z" style="fill:#28a0c8"/>
  <path class="st18" d="m1309.3 314 16.5 2.3-7.7-16-13.6 5 4.8 8.7z"/>
  <path class="st24" d="m1296.9 301.1 18.3-6.9m-20.3 21.7 19.4-23.3"/>
  <path d="m1295.3 314.1 19-22.8" style="fill:none;stroke:#ebebeb;stroke-width:.88;stroke-miterlimit:10"/>
  <path class="st24" d="m1286.7 329.1 22.6-15.1"/>
  <path class="st18" d="M1324.1 337.4h24.6v19.4h-24.6v-19.4z"/>
  <path class="st24" d="M1324.1 330.4V355m25-19.3v15.8"/>
  <circle class="st26" cx="1568.6" cy="313.8" r="29"/>
  <circle class="st27" cx="1611.5" cy="302.3" r="34.5"/>
  <path d="M1615.9 356.8s-2.1 0-2.1-2.1v-24.8c0-2.1 8.3-10.3 10.3-10.3h6.2l-4.1-2.1v-4.1l-2.1 4.1-10.3 6.2v-6.8c0-2.1 6.2-4.7 6.2-4.7h4.1l-2.1-2.1V306l-2.1 4.1-8.3 4.7-2.1-6.7 2.1-6.2-4.1 4.1-4.1-2.1 4.1 4.1s2.1 7 2.1 11.1-2.1 4.5-2.1 4.5l-6.2-4.1-2.1-6.2v4.1l-4.1 2.1h4.1s8.3 8.3 8.3 12.4v20.7c0 4.1-2.1 4.1-2.1 4.1l10.5.1zm-49.8-.4s2.5 0 2.5-2.5v-24.7c0-2.5-12-13.2-14.6-13.2h-7.6l5.1-2.5v-5.1l2.5 5.1 14.6 8.9v-6.8c0-2.5-3.4-6.8-3.4-6.8l5.1 1.7 3.4-1.7s-2 1.8-2 6.8c0 5.1 2 10.2 2 10.2l4.3-5.1 2.5-7.6v5.1l5.1 2.5h-5.1s-6.3 5.5-6.3 10.5v20.2c0 5.1 2.5 5.1 2.5 5.1h-10.6v-.1z"/>
  <path class="st28" d="M259 214.7h-69.2v6.1l1.2 1.3v19.8l-1.2 1.2v4.9H259v-4.9l-1.2-1.2v-19.8l1.2-1.3v-6.1z"/>
  <path class="st29" d="M221.9 238.1h4.9v-12.3s0-2.5-2.5-2.5-2.5 2.5-2.5 2.5v12.3h.1zm-13.6 0h4.9v-12.3s0-2.5-2.5-2.5-2.5 2.5-2.5 2.5v12.3h.1zm-11.1 0h4.9v-12.3s0-2.5-2.5-2.5-2.5 2.5-2.5 2.5v12.3h.1zm38.3 0h4.9v-12.3s0-2.5-2.5-2.5-2.5 2.5-2.5 2.5v12.3h.1zm11.1 0h4.9v-12.3s0-2.5-2.5-2.5-2.4 2.5-2.4 2.5v12.3z"/>
  <path class="st30" d="M189.8 243.1H259v4.9h-69.2v-4.9zm0-24.7H259v2.5h-69.2v-2.5z"/>
  <path class="st28" d="M372.7 262.9H76.1l2.4-8.7h291.7l2.5 8.7z"/>
  <path class="st31" d="M170 248h108.8v13.6H170V248z"/>
  <path class="st28" d="M76.1 262.9h296.6v92.7H76.1v-92.7z"/>
  <path d="M78.5 262.9h49.4v93.9H78.5v-93.9zm242.3 0h49.4v93.9h-49.4v-93.9z" style="opacity:.25;fill:#232323;enable-background:new"/>
  <path class="st31" d="M170 262.9h108.8v92.7H170v-92.7z"/>
  <path class="st33" d="M167.5 262.9h113.7l-2.4 2.4H170l-2.5-2.4z"/>
  <path class="st30" d="M167.5 261.6h113.7v1.2H167.5v-1.2zm155.8 1.3h44.5v93.9h-44.5v-93.9z"/>
  <path class="st34" d="M259 322.2h-69.2l-2.5-56.9h74.2l-2.5 56.9z"/>
  <path class="st34" d="M259 355.6h-69.2l-2.5-34.6h74.2l-2.5 34.6z"/>
  <path class="st30" d="M189.8 272.8h4.9v49.4h-4.9v-49.4zm7.4 0h4.9v49.4h-4.9v-49.4zm17.3 0h4.9v49.4h-4.9v-49.4zm14.8 0h4.9v49.4h-4.9v-49.4zm17.3 0h4.9v49.4h-4.9v-49.4zm7.4-54.4h2.5v29.7H254v-29.7zm-6.1 0h2.5v29.7h-2.5v-29.7zm-49.5 0h2.5v29.7h-2.5v-29.7zm8.7 0h2.5v29.7h-2.5v-29.7zm8.6 0h2.5v29.7h-2.5v-29.7zm23.5 0h2.5v29.7h-2.5v-29.7zm-8.6-1.3h2.5v29.7h-2.5v-29.7zm-38.3 1.3h2.5v29.7h-2.5v-29.7z"/>
  <path class="st28" d="M247.9 194.9h-47v1.2l1.2 1.3V211l-1.2 1.2v2.5h47v-2.5l-1.3-1.2v-13.6l1.3-1.3v-1.2z"/>
  <path class="st29" d="M221.9 209.7h4.9V201s0-2.5-2.5-2.5-2.5 2.5-2.5 2.5v8.7h.1zm-9.9 0h4.9V201s0-2.5-2.5-2.5-2.5 2.5-2.5 2.5v8.7h.1zm-7.4 0h4.9V201s0-2.5-2.5-2.5-2.5 2.5-2.5 2.5v8.7h.1zm27.2 0h4.9V201s0-2.5-2.5-2.5-2.5 2.5-2.5 2.5v8.7h.1zm7.4 0h4.9V201s0-2.5-2.5-2.5-2.5 2.5-2.5 2.5v8.7h.1z"/>
  <path class="st30" d="M254 272.8h4.9v49.4H254v-49.4z"/>
  <path class="st29" d="M179.9 277.7h4.9v14.8h-4.9v-14.8z"/>
  <path d="M207.1 277.7h4.9v14.8h-4.9v-14.8zm14.8 0h4.9v14.8h-4.9v-14.8zm14.8 0h4.9v14.8h-4.9v-14.8zm-29.6 24.7h4.9v14.8h-4.9v-14.8zm14.8 0h4.9v14.8h-4.9v-14.8zm14.8 0h4.9v14.8h-4.9v-14.8z" style="fill:#656565"/>
  <path class="st29" d="M179.9 302.4h4.9v14.8h-4.9v-14.8zm0 24.7h4.9v14.8h-4.9v-14.8zm84-49.4h4.9v14.8h-4.9v-14.8zm0 24.7h4.9v14.8h-4.9v-14.8zm0 24.7h4.9v14.8h-4.9v-14.8zm19.8-49.4h4.9v14.8h-4.9v-14.8zm0 24.7h4.9v14.8h-4.9v-14.8zm0 24.7h4.9v14.8h-4.9v-14.8zm9.9-49.4h4.9v14.8h-4.9v-14.8zm0 24.7h4.9v14.8h-4.9v-14.8zm0 24.7h4.9v14.8h-4.9v-14.8zm9.9-49.4h4.9v14.8h-4.9v-14.8zm0 24.7h4.9v14.8h-4.9v-14.8zm0 24.7h4.9v14.8h-4.9v-14.8zm9.9-49.4h4.9v14.8h-4.9v-14.8zm0 24.7h4.9v14.8h-4.9v-14.8zm0 24.7h4.9v14.8h-4.9v-14.8zm-182.9-49.4h4.9v14.8h-4.9v-14.8zm0 24.7h4.9v14.8h-4.9v-14.8zm0 24.7h4.9v14.8h-4.9v-14.8zm9.8-49.4h4.9v14.8h-4.9v-14.8zm0 24.7h4.9v14.8h-4.9v-14.8zm0 24.7h4.9v14.8h-4.9v-14.8zm9.9-49.4h4.9v14.8h-4.9v-14.8zm0 24.7h4.9v14.8h-4.9v-14.8zm0 24.7h4.9v14.8h-4.9v-14.8zm9.9-49.4h4.9v14.8h-4.9v-14.8zm0 24.7h4.9v14.8h-4.9v-14.8zm0 24.7h4.9v14.8h-4.9v-14.8zm168.1-49.4h4.9v14.8h-4.9v-14.8zm0 24.7h4.9v14.8h-4.9v-14.8zm0 24.7h4.9v14.8h-4.9v-14.8zm14.8-49.4h4.9v14.8H343v-14.8zm0 24.7h4.9v14.8H343v-14.8zm0 24.7h4.9v14.8H343v-14.8zm14.9-49.4h4.9v14.8h-4.9v-14.8zm0 24.7h4.9v14.8h-4.9v-14.8zm0 24.7h4.9v14.8h-4.9v-14.8z"/>
  <path class="st30" d="M81 262.9h44.5v93.9H81v-93.9z"/>
  <path class="st29" d="M86 277.7h4.9v14.8H86v-14.8zm0 24.7h4.9v14.8H86v-14.8zm0 24.7h4.9v14.8H86v-14.8zm14.8-49.4h4.9v14.8h-4.9v-14.8zm0 24.7h4.9v14.8h-4.9v-14.8zm0 24.7h4.9v14.8h-4.9v-14.8zm14.8-49.4h4.9v14.8h-4.9v-14.8zm0 24.7h4.9v14.8h-4.9v-14.8zm0 24.7h4.9v14.8h-4.9v-14.8zm64.3 21h4.9v7.4h-4.9v-7.4zm84 0h4.9v7.4h-4.9v-7.4zm19.8 0h4.9v7.4h-4.9v-7.4zm9.9 0h4.9v7.4h-4.9v-7.4zm9.9 0h4.9v7.4h-4.9v-7.4zm9.9 0h4.9v7.4h-4.9v-7.4zm-182.9 0h4.9v7.4h-4.9v-7.4zm9.8 0h4.9v7.4h-4.9v-7.4zm9.9 0h4.9v7.4h-4.9v-7.4zm9.9 0h4.9v7.4h-4.9v-7.4zm168.1 0h4.9v7.4h-4.9v-7.4zm14.8 0h4.9v7.4H343v-7.4zm14.9 0h4.9v7.4h-4.9v-7.4zm-271.9 0h4.9v7.4H86v-7.4zm14.8 0h4.9v7.4h-4.9v-7.4zm14.8 0h4.9v7.4h-4.9v-7.4z"/>
  <path class="st30" d="M189.8 262.9H259v9.9h-69.2v-9.9zm0 60.5H259v32.1h-69.2v-32.1z"/>
  <path class="st29" d="M229.3 355.6h-9.9v-21s0-4.9 4.9-4.9 4.9 4.9 4.9 4.9v21h.1zm14.9 0h-9.9v-21s0-4.9 4.9-4.9 4.9 4.9 4.9 4.9v21h.1zm-29.7 0h-9.9v-21s0-4.9 4.9-4.9 4.9 4.9 4.9 4.9v21h.1z"/>
  <path class="st33" d="M125.5 272.8H170v2.5h-44.5v-2.5z"/>
  <path class="st29" d="M261.5 262.9h-74.2l2.5 2.4H259l2.5-2.4z"/>
  <path class="st33" d="M278.8 272.8h44.5v2.5h-44.5v-2.5zm-202.7 2.4-2.5-2.4H81v2.4h-4.9z"/>
  <path class="st29" d="M78.5 272.8H128l-2.5 2.4H81l-2.5-2.4z"/>
  <path class="st28" d="M73.6 271.5H81v1.2h-7.4v-1.2z"/>
  <path class="st33" d="m372.7 275.2 2.5-2.4h-7.4v2.4h4.9z"/>
  <path class="st28" d="M367.7 271.6h7.4v1.2h-7.4v-1.2z"/>
  <path class="st31" d="M125.5 271.5H170v1.2h-44.5v-1.2z"/>
  <path class="st33" d="M125.5 321h64.3v2.5h-64.3V321zm133.5 0h64.3v2.5H259V321z"/>
  <path class="st31" d="M125.5 319.7h64.3v1.2h-64.3v-1.2zm133.5 0h64.3v1.2H259v-1.2zm19.8-48.2h44.5v1.2h-44.5v-1.2z"/>
  <path class="st30" d="M78.5 271.5h49.4v1.2H78.5v-1.2z"/>
  <path class="st33" d="m76.1 323.4-2.5-2.4H81v2.4h-4.9z"/>
  <path class="st29" d="M78.5 321H128l-2.5 2.4H81l-2.5-2.4z"/>
  <path class="st33" d="m372.7 323.4 2.5-2.4h-7.4v2.4h4.9z"/>
  <path class="st28" d="M367.7 319.8h7.4v1.2h-7.4v-1.2zm-294.1-.1H81v1.2h-7.4v-1.2z"/>
  <path class="st30" d="M78.5 319.7h49.4v1.2H78.5v-1.2z"/>
  <path class="st29" d="M320.8 321h49.4l-2.4 2.4h-44.5l-2.5-2.4z"/>
  <path d="M370.2 319.7h-49.4" style="fill:none"/>
  <path class="st29" d="M187.3 321h74.2l-2.5 2.4h-69.2l-2.5-2.4z"/>
  <path class="st30" d="M187.3 319.7h74.2v1.2h-74.2v-1.2z"/>
  <path class="st29" d="M320.8 272.8h49.4l-2.4 2.4h-44.5l-2.5-2.4z"/>
  <path class="st30" d="M320.8 271.5h49.4v1.2h-49.4v-1.2z"/>
  <path class="st37" d="M170 272.8h108.8m-89-29.7H259m-69.2-22.3H259M76.1 262.9h111.2v-1.3l37.1-19.7 37.1 19.7v1.3h111.2M191 261.6h66.8M76.1 345.7h113.7m69.2 0h113.7"/>
  <path class="st31" d="M187.3 261.6h74.2v1.2h-74.2v-1.2zm0-46.9h74.2v1.2h-74.2v-1.2z"/>
  <path class="st28" d="m90.9 271.5 12.4-6.2 12.3 6.2H90.9zM81 254.2l22.3-6.2 22.2 6.2H81zm242.3 0 22.2-6.2 22.3 6.2h-44.5z"/>
  <path class="st29" d="m93.4 271.5 9.9-4.9 8.6 4.9-8.6-3.7-9.9 3.7z"/>
  <path class="st28" d="m333.2 271.5 12.3-6.2 12.4 6.2h-24.7z"/>
  <path class="st29" d="m335.6 271.5 9.9-4.9 9.9 4.9-9.9-3.7-9.9 3.7z"/>
  <path class="st30" d="m224.4 241.9-37.1 19.7h74.2l-37.1-19.7z"/>
  <path class="st29" d="M261.5 215.9h-74.2l2.5 2.5H259l2.5-2.5z"/>
  <path class="st30" d="M200.9 194.9h47v1.2h-47v-1.2zm17.3-45.7h12.4v1.2h-12.4v-1.2z"/>
  <path class="st29" d="M247.9 196.1h-47l1.2 1.3h44.5l1.3-1.3zm-58.1 65.5 34.6-18.5 34.6 18.5-34.6-17.3-34.6 17.3z"/>
  <path class="st30" d="M200.9 212.2h47v2.5h-47v-2.5z"/>
  <radialGradient id="SVGID_00000128443702812977981790000015043058906646852791_" cx="224.4" cy="432.882" r="18.69" gradientTransform="translate(0 -254)" gradientUnits="userSpaceOnUse">
    <stop offset="0" style="stop-color:#ffe800"/>
    <stop offset="1" style="stop-color:#e0b01d"/>
  </radialGradient>
  <path style="fill:url(#SVGID_00000128443702812977981790000015043058906646852791_)" d="M203.4 194.9V190s4.9-27.2 21-27.2 21 27.2 21 27.2v4.9h-42z"/>
  <path class="st29" d="M230.6 150.4h-12.4l1.2 1.2h9.9l1.3-1.2z"/>
  <path class="st28" d="M219.4 151.6h9.9V164h-9.9v-12.4z"/>
  <path class="st37" d="M218.2 164h12.4"/>
  <path class="st28" d="m219.4 149.2 5-12.4 4.9 12.4h-9.9z"/>
  <path class="st37" d="M218.2 149.2h12.4m-9.9-2.5h7.4"/>
  <path class="st39" d="M837.4 327.9h244.4v20.4H837.4v-20.4zm0-77.4h244.4v73.3H837.4v-73.3zm68.2-11.2h102.8v9.2H905.6v-9.2z"/>
  <path class="st40" d="M1013.6 250.5h22.4v7.1h-22.4v-7.1z"/>
  <path class="st4" d="M951.5 348.2h16.3V335s-3.1-3.1-8.1-3.1-8.1 3.1-8.1 3.1v13.2h-.1zm-2.1-32.5h20.4v-32.6s0-10.2-10.2-10.2-10.2 10.2-10.2 10.2v32.6zm32.6 0h20.4v-32.6s0-10.2-10.2-10.2-10.2 10.2-10.2 10.2v32.6zm-65.2 0h20.4v-32.6s0-10.2-10.2-10.2-10.2 10.2-10.2 10.2v32.6zm67.2 32.5h16.3V335s-3.1-3.1-8.1-3.1-8.1 3.1-8.1 3.1v13.2h-.1zm-65.1 0h16.3V335s-3.1-3.1-8.1-3.1-8.1 3.1-8.1 3.1v13.2h-.1zm130.3 0h16.3V335s-3.1-3.1-8.1-3.1c-5.1 0-8.1 3.1-8.1 3.1v13.2h-.1zm-195.5 0H870V335s-3.1-3.1-8.1-3.1-8.1 3.1-8.1 3.1v13.2h-.1zm195.5-48.8h16.3v16.3h-16.3v-16.3zm-195.5 0H870v16.3h-16.3v-16.3zm195.5-28.5h16.3v16.3h-16.3v-16.3zm-195.5 0H870v16.3h-16.3v-16.3z"/>
  <path d="M910.7 348.2h97.8v8.1h-97.8v-8.1zm-75.3 0h42.8v8.1h-42.8v-8.1zm205.7 0h42.8v8.1h-42.8v-8.1z" style="fill:#956c5e"/>
  <path class="st42" d="M1008.5 348.2h32.6v8.1h-32.6v-8.1z"/>
  <path class="st4" d="M1016.6 335h16.3v21.4h-16.3V335z"/>
  <path class="st43" d="M1024.8 332c8.1 0 8.1 3.1 8.1 3.1h-16.3c0-.1 0-3.1 8.2-3.1z"/>
  <path class="st42" d="M878.1 348.2h32.6v8.1h-32.6v-8.1z"/>
  <path class="st4" d="M886.3 335h16.3v21.4h-16.3V335z"/>
  <path class="st43" d="M894.4 332c8.1 0 8.1 3.1 8.1 3.1h-16.3c.1-.1.1-3.1 8.2-3.1z"/>
  <path class="st44" d="M813 323.8h293.3v4.1H813v-4.1zm65.1 4.1h3.1v9.2h-3.1v-9.2zm29.6 0h3.1v9.2h-3.1v-9.2zm34.6 0h3.1v9.2h-3.1v-9.2zm31.6 0h3.1v9.2h-3.1v-9.2zm34.6 0h3.1v9.2h-3.1v-9.2zm29.5 0h3.1v9.2h-3.1v-9.2zm-198.6 0h3.1v9.2h-3.1v-9.2zm5.1 0h3.1v9.2h-3.1v-9.2zm227.1 0h3.1v9.2h-3.1v-9.2zm5.1 0h3.1v9.2h-3.1v-9.2z"/>
  <path class="st44" d="M1081.8 337h1s0-8.1 2-8.1v-1h-3.1l.1 9.1zm-244.4 0h-1s0-8.1-2-8.1v-1h3.1l-.1 9.1z"/>
  <path class="st45" d="m916.8 327.9-6.1 28.5v-28.5h6.1zm-44.8 0 6.1 28.5v-28.5m124.3 0 6.1 28.5v-28.5m38.7 0-6.1 28.5v-28.5h6.1z"/>
  <path class="st40" d="M910.7 315.7h97.8v2h-97.8v-2zm0-52h97.8v2h-97.8v-2z"/>
  <path class="st43" d="M833.3 257.6h252.5v2H833.3v-2zm2.1-9.1h248.5v2H835.4v-2z"/>
  <path class="st42" d="M927 265.8h32.6s-16.3 0-16.3 16.3c0-16.3-16.3-16.3-16.3-16.3zm-16.3 0H927s-16.3 0-16.3 16.3v-16.3zm97.8 0h-16.3s16.3 0 16.3 16.3v-16.3z"/>
  <path class="st42" d="M958.6 265.8h32.6s-16.3 0-16.3 16.3c0-16.3-16.3-16.3-16.3-16.3z"/>
  <path class="st45" d="m916.8 259.7-6.1 64.1v-64.1h6.1zm-44.8 0 6.1 64.1v-64.1H872zm175.2 0-6.1 64.1v-64.1h6.1zm-44.8 0 6.1 64.1v-64.1h-6.1zm9.1 0 2.1 64.1v-64.1h-2.1zm26.5 0-2 64.1v-64.1h2zm-156.8 0 2 64.1v-64.1h-2zm26.5 0-2.1 64.1v-64.1h2.1zm-26.5-9.2 2 7.1v-7.1h-2zm130.3 0 2.1 7.1v-7.1h-2.1zm-103.8 0-2.1 7.1v-7.1h2.1zm130.3 0-2 7.1v-7.1h2z"/>
  <path class="st40" d="M883.2 259.7h22.4v64.1h-22.4v-64.1zm0-9.2h22.4v7.1h-22.4v-7.1z"/>
  <path d="M837.4 250.5h40.7v7.1h-40.7v-7.1zm203.7 0h40.7v7.1h-40.7v-7.1zm-130.4 0h97.8v7.1h-97.8v-7.1zm0-9.2h97.8v7.1h-97.8v-7.1z" style="opacity:.2;fill:#c8b5ab;enable-background:new"/>
  <path class="st40" d="M1013.6 259.7h22.4v64.1h-22.4v-64.1z"/>
  <circle class="st45" cx="1024.8" cy="254.1" r="3.1"/>
  <circle class="st45" cx="894.4" cy="254.1" r="3.1"/>
  <circle class="st40" cx="1024.8" cy="254.1" r="2"/>
  <circle class="st40" cx="894.4" cy="254.1" r="2"/>
  <path class="st44" d="M1067.5 291.2h3.1v4.1h-3.1v-4.1zm-30.5 0h3.1v4.1h-3.1v-4.1zm-27.5 0h3.1v4.1h-3.1v-4.1zm-102.8 0h3.1v4.1h-3.1v-4.1zm-27.5 0h3.1v4.1h-3.1v-4.1zm197.5 0h3.1v4.1h-3.1v-4.1zm5.1 0h1v4.1h-1v-4.1zm-242.4 0h3.1v4.1h-3.1v-4.1zm9.2 0h3.1v4.1h-3.1v-4.1z"/>
  <path class="st47" d="M841 293.3v30.5m9.1-30.5v30.5m30.6-30.5v30.5m27.5-30.5v30.5m102.8-30.5v30.5m27.5-30.5v30.5m30.6-30.5v30.5m9.1-30.5v30.5m4.6-30.5 21.4 30.5"/>
  <path class="st44" d="M836.4 291.2h1v4.1h-1v-4.1z"/>
  <path class="st47" d="M836.4 293.3 815 323.8"/>
  <path class="st40" d="M937.5 254.5c0 .8.2 1.2.4 1.4.3.3.5.3.8.3s.7-.2.9-.4c.3-.3.3-.8.3-1.4v-1.9c0-.2-.1-.3-.2-.3h-.2 1.3-.1c-.2 0-.2.1-.2.3v1.8c0 .6-.1 1.3-.5 1.7s-.8.4-1.2.4c-.2 0-.8 0-1.2-.4-.3-.3-.5-.7-.5-1.5v-2c0-.2-.1-.3-.2-.3h-.2 1.4-.1c-.2 0-.2.1-.2.3v2h-.3zm4.2-1.6c0-.2 0-.2.1-.2l.2.2c0 .1.8.9 1.6 1.7l1.1 1.1-.1-2.3c0-.3 0-.4-.2-.4h-.3 1.1-.2c-.1 0-.2.1-.2.4v3.1s-.1 0-.4-.3l-1.3-1.3c-.6-.6-1.1-1.2-1.3-1.3l.1 2.2c0 .4 0 .5.2.6h.3-1.2.3c.1 0 .2-.2.2-.6v-2.9zm4.8 1.2v-1c0-.2 0-.2-.2-.3h-.2 1.2-.2c-.2 0-.2.1-.2.3v2.8c0 .2 0 .2.2.3h.3-1.3.2c.1 0 .1-.1.1-.3v-1l.1-.8zm1.6.4c0-.7.6-1.9 2-1.9 1.1 0 2 .7 2 1.8s-.8 1.9-2 1.9c-1.4.1-2-.9-2-1.8zm3.4.1c0-1.1-.7-1.8-1.5-1.8s-1.4.5-1.4 1.5c0 1.1.6 1.8 1.6 1.8.3.1 1.3-.1 1.3-1.5zm1.5-1.7c0-.2 0-.2.1-.2l.2.2c0 .1.8.9 1.6 1.7l1.1 1.1-.1-2.3c0-.3 0-.4-.2-.4h-.3 1.1-.2c-.1 0-.2.1-.2.4v3.1s-.1 0-.4-.3l-1.3-1.3c-.6-.6-1.1-1.2-1.3-1.3l.1 2.2c0 .4 0 .5.2.6h.3-1.2.3c.1 0 .2-.2.2-.6v-2.9zm6.5 3.4c-.1 0-.1-.1-.1-.2v-.7.3c.1.4.5.6.8.6.5 0 .8-.4.8-.7 0-.4-.2-.6-.6-1l-.3-.2c-.6-.5-.7-.8-.7-1.2 0-.6.4-1 1.2-1 .2 0 .4 0 .5.1h.3v.7-.1c0-.1 0-.2-.1-.3 0-.1-.2-.3-.7-.3-.4 0-.7.2-.7.7 0 .3.1.5.7.9l.2.1c.7.5.8.9.8 1.3 0 .2-.1.7-.5.9-.2.2-.5.2-.8.2s-.6 0-.8-.1zm4.4-1.4v1c0 .1 0 .2.2.2h.3-1.3.2c.1 0 .1-.1.1-.3v-3h-.7c-.4 0-.4.1-.5.2s-.1.1-.1.2h-.1c-.1 0 0 0 0-.1 0 0 .1-.4.1-.6 0-.1 0-.1.1-.1 0 0 .1.1.2.1h2.7v.7-.2c0-.2-.1-.3-.7-.3h-.5v2.2zm2.3.1c-.1 0-.1 0 0 0l-.3.7c-.1.2-.1.3-.1.4s.1.1.2.1h.1-1.1.2c.2 0 .3-.2.4-.4l1.1-3 .1-.2s.1 0 .1.2c.1.2.8 2.1 1.1 2.8.2.4.3.5.4.5h.3-1.1s.1 0 0-.1l-.4-1.1h-1v.1zm.9-.2-.4-1.3c0-.1 0-.1-.1 0l-.4 1.2.9.1zm3 .1v1c0 .1 0 .2.2.2h.3-1.3.2c.1 0 .1-.1.1-.3v-3h-.7c-.4 0-.4.1-.5.2s-.1.1-.1.2h-.1c-.1 0 0 0 0-.1 0 0 .1-.4.1-.6 0-.1 0-.1.1-.1 0 0 .1.1.2.1h2.7v.7-.2c0-.2-.1-.3-.7-.3h-.5v2.2zm2.3-.8v-1c0-.2 0-.2-.2-.3h-.2 1.2-.2c-.2 0-.2.1-.2.3v2.8c0 .2 0 .2.2.3h.3-1.3.2c.1 0 .1-.1.1-.3v-1l.1-.8zm1.6.4c0-.7.6-1.9 2-1.9 1.1 0 2 .7 2 1.8s-.8 1.9-2 1.9c-1.5.1-2-.9-2-1.8zm3.4.1c0-1.1-.7-1.8-1.5-1.8s-1.4.5-1.4 1.5c0 1.1.6 1.8 1.6 1.8.3.1 1.3-.1 1.3-1.5zm1.5-1.7c0-.2 0-.2.1-.2l.2.2c0 .1.8.9 1.6 1.7l1.1 1.1-.1-2.3c0-.3 0-.4-.2-.4h-.3 1.1-.2c-.1 0-.2.1-.2.4v3.1s-.1 0-.4-.3l-1.3-1.3c-.6-.6-1.1-1.2-1.3-1.3l.1 2.2c0 .4 0 .5.2.6h.3-1.2.3c.1 0 .2-.2.2-.6v-2.9z"/>
  <path class="st39" d="M878.1 239.3h32.6v9.2h-32.6v-9.2zm130.4 0h32.6v9.2h-32.6v-9.2z"/>
  <path class="st40" d="M1013.6 241.3h22.4v7.1h-22.4v-7.1zm-130.4 0h22.4v7.1h-22.4v-7.1zm-5.1-2h32.6v2h-32.6v-2z"/>
  <path class="st45" d="m881.2 241.3 2 7.2v-7.2h-2zm26.5 0-2.1 7.2v-7.2h2.1z"/>
  <path class="st40" d="M1008.5 239.3h32.6v2h-32.6v-2z"/>
  <path class="st45" d="m1011.5 241.3 2.1 7.2v-7.2h-2.1zm26.5 0-2 7.2v-7.2h2z"/>
  <circle class="st39" cx="959.6" cy="239.3" r="9.2"/>
  <circle class="st42" cx="959.6" cy="239.3" r="7.1"/>
  <circle class="st4" cx="959.6" cy="239.3" r="5.1"/>
  <circle cx="959.6" cy="239.3" r="3.1" style="fill:#535353"/>
  <path class="st39" d="M947.4 239.3v-2h1c2 0 3.1-2 3.1-2v4.1h-4.1v-.1zm24.4 0v-2h-1c-2 0-3.1-2-3.1-2v4.1h4.1v-.1z"/>
  <path d="M905.6 226.1v12.2m102.9-12.2v13.2m-48.9-21.4v12.2m-27.5-10.2v19.4m55-19.4v19.4" style="fill:none;stroke:#282828;stroke-width:1.0183;stroke-miterlimit:10"/>
  <path class="st50" d="M905.6 226.1s21.4-8.1 54-8.1 48.9 8.1 48.9 8.1"/>
  <path class="st50" d="M905.6 230.1s21.4-8.1 54-8.1 48.9 8.1 48.9 8.1"/>
  <path class="st51" d="M912.4 230.2c-2.2.6-3.9-.1-4.6-2.4l-1.4-5.1 2.1-.6 1.3 4.8c.3 1.2 1 1.8 2.1 1.5 1-.3 1.4-.9 1-2.2l-1.4-4.9 2.1-.6s1.3 4.9 1.4 4.9c.8 2.5-.3 4-2.6 4.6zm9.2-11.1 2-.4 1.8 8.5-2.3.5-4.7-4.8 1.1 5.5-2 .4-1.8-8.4 2.3-.5 4.6 4.7-1-5.5zm5.5 7.7-1.4-8.5 2.2-.4 1.4 8.5-2.2.4zm8-1c-2.5.3-4.6-1-5-3.9-.3-2.7 1.4-4.7 3.9-5.1 2.5-.3 4.7 1 5 3.9.3 2.7-1.4 4.8-3.9 5.1zm-1-7.2c-1.4.2-2.1 1.4-1.9 3 .2 1.6 1.2 2.6 2.7 2.5 1.4-.2 2.1-1.4 1.9-3-.2-1.7-1.2-2.7-2.7-2.5zm12-2.7 2-.2.7 8.6-2.3.2-4-5.4.4 5.5-2 .2-.7-8.6 2.4-.2 4 5.3-.5-5.4zm11.6 5.7c0-.6-.6-.8-1.8-1.1-1.3-.3-2.8-.9-2.8-2.6 0-1.6 1.1-2.7 3.3-2.7 1.3 0 2.4.3 3.2.7l-.4 1.8c-.9-.4-1.9-.7-2.8-.7-.8 0-1.1.3-1.1.7 0 .6.8.8 1.8 1 1.3.3 2.7.9 2.7 2.6 0 1.6-1.2 2.8-3.5 2.8-1.3 0-2.5-.3-3.3-.7l.4-1.8c.9.4 1.9.8 3 .8.8 0 1.3-.3 1.3-.8zm7.8-4.3-.2 6.8-2.2-.1.2-6.8-2.7-.1v-1.8l7.7.2v1.8h-2.8zm10.7 7.4-2.2-.1-.5-1.9-3.2-.2-.7 1.8-2.2-.1 3.6-8.4 2.7.2 2.5 8.7zm-3.9-7.2-1.4 3.3 2.2.1-.8-3.4zm8.9 1-.8 6.7-2.2-.2.8-6.7-2.7-.3.2-1.8 7.6.9-.2 1.8-2.7-.4zm3.1 7.2 1.3-8.5 2.2.3-1.3 8.5-2.2-.3zm7.8 1.6c-2.5-.5-4.1-2.5-3.5-5.3.6-2.7 2.8-4 5.3-3.5s4.1 2.5 3.5 5.3c-.5 2.7-2.8 4.1-5.3 3.5zm1.5-7c-1.4-.3-2.5.6-2.8 2.2s.3 2.9 1.7 3.2 2.5-.6 2.8-2.2c.3-1.7-.3-2.9-1.7-3.2zm12.4 1.6 2 .6-2.6 8.3-2.2-.7-1.8-6.5-1.7 5.3-2-.6 2.6-8.2 2.3.7 1.8 6.4 1.6-5.3zm-89.4 19.3v6.3h-2v-6.3h-2.5v-1.7h7.1v1.7h-2.6zm5.7 6.2h-2v-8h3.2c2.1 0 3.2 1 3.2 2.5 0 1.1-.6 1.9-1.6 2.3l2 3.1h-2.3l-1.6-2.7-.9.1v2.7zm.9-4.1c.9-.1 1.3-.4 1.3-1.2 0-.7-.5-1-1.5-1h-.9v2.3l1.1-.1z"/>
  <path class="st51" d="M935.2 247.4h-2l-.6-1.7h-3l-.6 1.7h-2l2.8-8h2.5l2.9 8zm-4-6.4-1.1 3.1h2.1l-1-3.1zm8.7 6.4h-2.5l-2.7-8h2.1l1.9 6 1.9-6h2.1l-2.8 8zm3.6 0v-8h5.8v1.6h-3.8v1.5h3.1v1.6h-3.1v1.6h3.8v1.6l-5.8.1zm7.2 0v-8h2v6.3h3.3v1.7h-5.3zm26.3-6.2v6.3h-2v-6.3h-2.5v-1.7h7.1v1.7H977zm5.7 6.2h-2v-8h3.2c2.1 0 3.2 1 3.2 2.5 0 1.1-.6 1.9-1.6 2.3l2 3.1h-2.3l-1.6-2.5-.9.1v2.5zm1-4.1c.9-.1 1.3-.4 1.3-1.2 0-.7-.5-1-1.5-1h-.9v2.3l1.1-.1zm12 4.1h-2l-.6-1.7h-3l-.6 1.7h-2l2.8-8h2.5l2.9 8zm-4.1-6.4-1.1 3.1h2.1l-1-3.1zm5 6.4v-8h2v8h-2zm9.2-7.9h1.9v8h-2.2l-3.3-5.2v5.2h-1.9v-8h2.2l3.3 5.2v-5.2zm-42 5.8c0-.7.3-1.9.7-3 .7-2 1.7-3.9 3-3.9.5 0 .8.3.8.7 0 .9-1.8 4.4-3.3 4.9-.2.6-.3 1.1-.3 1.5 0 .3 0 .5.1.7.4-.2 1-.9 1-1.7 0-.2-.1-.4-.1-.5.1-.1.2-.1.3-.1.2 0 .5.1.6.4.5-.2.9-.6 1.4-1.6 0 0 .1 0 .1.1 0 .6-.7 1.5-1.4 1.8 0 1.1-1 2.1-1.8 2.1-.5-.2-1.1-.5-1.1-1.4zm1.3-1.8c.9-.8 2.4-3.5 2.4-4.5 0-.1 0-.3-.1-.3-.8.3-1.5 2.2-2.1 4-.1.2-.1.5-.2.8z"/>
  <path class="st51" d="M965.6 248.5c0-.6.4-1.2 1.7-1.5.2-.1.6-.1.9-.2.3-.8.6-1.6.8-2.2-.5 1-1 1.8-1.5 1.8-.3 0-.8-.2-.8-.7 0-1 1.3-3.2 1.4-3.9-.2 0-.3 0-.4.1-.2 0-.3-.1-.3-.2v-.1h.8c.2 0 .5.2.5.7 0 .7-1.3 3.1-1.3 3.6.6 0 1.8-2.4 2.4-4.3h.3c.3 0 .5.1.5.2 0 .3-.4 1.1-.7 2-.1.4-.5 1.4-.9 2.5.6-.5 1.3-1.4 1.6-2.1.1 0 .2 0 .2.1 0 .4-.7 1.8-2 2.4-.1.4-.3.8-.5 1.2-.4 1-1.1 1.6-1.6 1.6-.6.1-1.1-.4-1.1-1zm2.5-1.4c-.1.1-.3.1-.4.2-.7.3-1.2.5-1.2 1.1 0 .4.3.8.7.8.2-.3.6-1.1.9-2.1z"/>
  <path class="st39" d="M1021.7 242.9h6.1v4.1h-6.1v-4.1z"/>
  <circle class="st40" cx="1024.8" cy="244.9" r="1.5"/>
  <path class="st39" d="M891.4 242.9h6.1v4.1h-6.1v-4.1z"/>
  <circle class="st40" cx="894.4" cy="244.9" r="1.5"/>
  <path d="M-.4 355.9h1920v95H-.4v-95z" style="fill:#695c05"/>
  <circle class="st26" cx="1865" cy="313.8" r="29"/>
  <circle class="st27" cx="1822.1" cy="302.3" r="34.5"/>
  <path d="M1817.7 356.8s2.1 0 2.1-2.1v-24.8c0-2.1-8.3-10.3-10.3-10.3h-6.2l4.1-2.1v-4.1l2.1 4.1 10.3 6.2v-6.8c0-2.1-6.2-4.7-6.2-4.7h-4.1l2.1-2.1V306l2.1 4.1 8.3 4.7 2.1-6.7-2.1-6.2 4.1 4.1 4.1-2.1-4.1 4.1s-2.1 7-2.1 11.1 2.1 4.5 2.1 4.5l6.2-4.1 2.1-6.2v4.1l4.1 2.1h-4.1s-8.3 8.3-8.3 12.4v20.7c0 4.1 2.1 4.1 2.1 4.1l-10.5.1zm49.8-.4s-2.5 0-2.5-2.5v-24.7c0-2.5 12-13.2 14.6-13.2h7.6l-5.1-2.5v-5.1l-2.5 5.1-14.6 8.9v-6.8c0-2.5 3.4-6.8 3.4-6.8l-5.1 1.7-3.4-1.7s2 1.8 2 6.8c0 5.1-2 10.2-2 10.2l-4.3-5.1-2.5-7.6v5.1l-5.1 2.5h5.1s6.3 5.5 6.3 10.5v20.2c0 5.1-2.5 5.1-2.5 5.1h10.6v-.1z"/>
  <circle class="st26" cx="93.2" cy="313.8" r="29"/>
  <circle class="st27" cx="50.3" cy="302.3" r="34.5"/>
  <path d="M45.9 356.8s2.1 0 2.1-2.1v-24.8c0-2.1-8.3-10.3-10.3-10.3h-6.2l4.1-2.1v-4.1l2.1 4.1 10.3 6.2v-6.8c0-2.1-6.2-4.7-6.2-4.7h-4.2l2.1-2.1V306l2.1 4.1 8.3 4.7 2.1-6.7-2.1-6.2 4.1 4.1 4.1-2.1-4.1 4.1s-2.1 7-2.1 11.1 2.1 4.5 2.1 4.5l6.2-4.1 2.1-6.2v4.1l4.1 2.1h-4.1s-8.3 8.3-8.3 12.4v20.7c0 4.1 2.1 4.1 2.1 4.1l-10.4.1zm49.8-.4s-2.5 0-2.5-2.5v-24.7c0-2.5 12-13.2 14.6-13.2h7.6l-5.1-2.5v-5.1l-2.5 5.1-14.6 8.9v-6.8c0-2.5 3.4-6.8 3.4-6.8l-5.1 1.7-3.4-1.7s2 1.8 2 6.8c0 5.1-2 10.2-2 10.2l-4.3-5.1-2.5-7.6v5.1l-5.1 2.5h5.1s6.3 5.5 6.3 10.5v20.2c0 5.1-2.5 5.1-2.5 5.1h10.6v-.1z"/>
  <circle class="st26" cx="380.4" cy="319.1" r="25.4"/>
  <circle class="st27" cx="417.9" cy="309" r="30.2"/>
  <path d="M421.8 356.8s-1.8 0-1.8-1.8v-21.8c0-1.8 7.3-9.1 9.1-9.1h5.4l-3.6-1.8v-3.6l-1.8 3.6-9.1 5.4v-6c0-1.8 5.4-4.1 5.4-4.1h3.6l-1.8-1.8v-3.6l-1.8 3.6-7.3 4.1-1.8-5.9 1.8-5.4-3.6 3.6-3.6-1.8 3.6 3.6s1.8 6.1 1.8 9.7-1.8 4-1.8 4l-5.4-3.6-1.8-5.4v3.6l-3.6 1.8h3.6s7.3 7.3 7.3 10.9v18.1c0 3.6-1.8 3.6-1.8 3.6l9 .1zm-43.7-.4s2.2 0 2.2-2.2v-21.7c0-2.2-10.6-11.5-12.8-11.5h-6.6l4.4-2.2v-4.4l2.2 4.4 12.8 7.8v-6c0-2.2-3-6-3-6l4.5 1.5 3-1.5s-1.8 1.5-1.8 6c0 4.4 1.8 9 1.8 9l3.8-4.5 2.2-6.6v4.4l4.4 2.2h-4.4s-5.6 4.8-5.6 9.2V352c0 4.4 2.2 4.4 2.2 4.4h-9.3z"/>
  <circle class="st26" cx="1204.7" cy="318.4" r="26.1"/>
  <path d="M1207 356.8s-2.3 0-2.3-2.3v-22.3c0-2.3 10.9-11.9 13.2-11.9h6.8l-4.6-2.3v-4.6l-2.3 4.6-13.2 8v-6.2c0-2.3 3.1-6.2 3.1-6.2l-4.6 1.5-3.1-1.5s1.8 1.6 1.8 6.2-1.8 9.2-1.8 9.2l-3.9-4.6-2.3-6.8v4.6l-4.6 2.3h4.6s5.7 4.9 5.7 9.5v18.2c0 4.6-2.3 4.6-2.3 4.6h9.8z"/>
  <circle class="st27" cx="1160.8" cy="307" r="33.8"/>
  <path d="M1163.7 356.8s-3 0-3-3v-28.9c0-3 14.1-15.4 17-15.4h8.9l-5.9-3v-5.9l-3 5.9-17 10.4v-8c0-3 4-8 4-8l-6 2-4-2s2.3 2.1 2.3 8-2.3 11.9-2.3 11.9l-5.1-6-3-8.9v5.9l-5.9 3h5.9s7.4 6.4 7.4 12.3v23.6c0 5.9-3 5.9-3 5.9h12.7v.2z"/>
  <path class="st53" d="M1733 300.6s2.4-.6 4.1-1.2 3.2-1.6 5.4-.3 3.5 5.4 4.6 5.9 2.5.7 2.4 1.6c0 .9-2.2 1.2-2.6 1.5s-1.4.5-1.4 1.2c0 .6 1.5 2.2 1.6 2.8.1.5-.3 1.4-.3 1.4s.7.8.2 1.6c-.6.8-1.1.9-1.1 1.6s-.3 1.5-1.2.5c-.9-1-1.2-2.1-1.7-1.9-.6.2.9 2.1.9 2.5s-.5.8-.5 1.1c0 .3.8 1.9 0 2.7s-1.5-.2-2.1.1c-.6.3.1 2.1-.3 2.8-.4.6-.7 1.4-.7 2s-1.5 1-1.9.1c-.5-.9 0-2.6-1.1-2.6s-.5 1.8-1.2 2.3-5.9 6.2-5.9 7.3c0 1.2.8 2.2.3 2.4-.5.2-4.2-1.2-4.2-1.2l-3-11.2 9.7-23z"/>
  <path d="M1735.7 329.1c-1.4-3.2-2.5-6.1-2.7-6.9s-.2-1.4-.1-2.1c0-.7 3.3-4.2 3.7-5.3.5-1.2.3-3.4.4-4.5.1-1.2 1.2-3.1.9-4.1-.3-1-6.8-10.1-8.5-11.8-1.7-1.7-4.7-3.1-7.4-4.6-2.7-1.5-3.2-3-5.3-5.3-2.1-2.3-4.5-6.6-5.5-7.8-1-1.2-.9-2.7-1.5-4-.5-1.4-1-2.7-2.1-6.5-1-3.8.5-9.2.5-16.5-.1-6-5.5-15-10.3-16.1-2.3-.5-4.2.3-5.7.3-1.4 0-4.1-.9-4.1-.9s-.9.3-1.5.6-.6 1.1-1.2 1.6c-.7.5-1.6 1.1-2.2 1.7s-.5 1.7-.5 1.7-1.6 3.1-2.2 4.3c-.6 1.1-2.6 3.7-2.8 5.1-.2 1.4-1.3 2.2-1.1 4.1.2 1.9 1.5 2.9 2.6 2.9s1.6-.7 1.6-.7.1.9.3 1.1c.3.2 1 .5 1.6.5s1.8-1.8 2.2-2.3c.3-.5.4-1.6.7-2.2s3.5-2.4 4.2-2.9c.7-.6 2.2-1.6 3.6-1.5 1.5.1 1.1 2.8 1.2 4.9 0 2.1-3.3 10.6-3.3 10.6s-1.7.5-2.6.9-1.7 1.4-1.7 1.4-2.1-.2-4.5-.8c-2.5-.6-4.6-1.2-4.6-1.2s-11.3-4.9-12.1-4.7c-.8.2-2.1 2.2-2.6 3.4-.5 1.2.1 2.7.7 3.5s1.9 9.6 2.2 11.6c.3 2 .1 5.2.3 6.4.3 1.2 1.3 1.8 1.3 1.8s.9 2 1.9 4c1 2.1 4.8 2.6 6 2.6s2.4-.8 1.7-2.6c-.8-1.8-2.1-3.7-2.5-4.3-.4-.5-.8-.3-1.2-.7s.2-1.3-.1-1.8c-.2-.5-.9-.2-1.2-.6-.3-.4.1-.9 0-1.2s-.6-.2-.9-.4 0-.7-.1-.9c-.1-.3-.9-1-1.1-1.7s.1-2-.2-3-1-8-.2-8c.9 0 4.3 3.4 5.3 5s4 9.2 4.4 10.2.3 2.8.3 2.8.8.5 1.5 1.2c.7.6.5 2 2.5 3.9 1.9 1.9 5 1.2 5 1.2s.2 1.3.9 2.9c.7 1.6 2.3 4.7 4.4 7.1s1.4 2.7 4.2 5.7c2.8 3 5.2 4.7 7 6 1.7 1.3 1.8 3.2 2.4 3.9s1.5 1 1.5 1 .1 1.1.3 2.1c.3 1 1.2 2.1 1.2 2.1s.1 1.2.7 2.2c.5 1 2.4 2.2 2.4 2.2s.5 2.1 1.5 3.8c1 1.7 6.5 6.4 6.6 9.1.1 2.8-1 3.6-2.3 6-1.3 2.3-3.5 5-4.1 6-.6 1.1-.2 1.7-.5 2.6s-4.8 3.3-4.8 3.3h9.5s1.5-1.6 1.7-2.2c.2-.7-.2-.9.5-2.8.7-1.8 3-5.8 3.4-6.4s1.9-2 2.1-2.6 1.3-2.4 1.5-2.8 1-.5 1-2.4-2.5-3.8-3.7-5.5-2.7-7.8-2.7-7.8 3.7 4.3 4.9 5.6 3.9 5.2 4.1 7-.9 3.9-2 6.7-3.4 6.1-3.6 6.9c-.2.7.2 1 .1 1.7s-3.8 3.3-4.2 3.7-.4.9-.4.9h9.2s-.1-.7 0-1.3c.2-.6 1.2-1.1 1.4-2.1.2-1-.2-2.6.1-3.6.2-1 1.1-2.1 1.8-3.6s2.3-3.5 2.9-4.9 2.1-3.2 2.2-5-2.7-3.7-4.2-6.9zm-.8 17.1c.7-1.5 2.3-3.5 2.9-4.9s2.1-3.2 2.2-5m-17.7 20.5h9.2s-.1-.7 0-1.3c.2-.6 1.2-1.1 1.4-2.1.2-1-.2-2.6.1-3.6.2-1 1.1-2.1 1.8-3.6m-52-68.1 1.9 1.9v1.4c-.3-.1-1.9-1.8-1.9-3.3z" style="fill:#2f3494"/>
  <path class="st53" d="M1686.8 229.5c.1-.5.9.8 2.1-.1s1.1-1.8 1.1-1.8 1.3.3 1.7-.6c.5-.9.4-3.3 1.3-3.3s.9 1.7 1.2 1.9c.3.2 1.1-1 1.1 0 0 .9-.2 2.6.6 2.6s1.8-1.7 1.6-3.3c-.2-1.7.9-1.2 1.4.5s-.8 3.5 0 3.8 1.9-3.4 3-3-1.3 4.3.4 4.5c1.7.2 1.6-1.3 2.4-1.3.9 0 0 1.1.6 1.1s1.7-1.3 1.9-2.2c.2-.9 1-.5.9.8-.2 1.2-1.1 2.1-1.1 2.6s1 .6.9 1.3c-.1.7-.9 1.1-.5 1.6.4.4 1.7-.6 2.2-.3s-.3 1.1.1 1.5c.4.3 1.4-1.5 2.2-1.2.8.3-.7 2.8-.6 3.5s.7.7.7 1.1-.5.6 0 .9c.4.3 2.1 0 2.2.5s-1.4 1.4-1.1 2.3 4.5.6 4.5 1.7-2.7 1.6-3.2 2.1-.3.9-.3.9h-1.6s.4.4.2 1.1c-.2.7-1.3 1.4-1 2 .2.6 3.1.9 3.3 1.8s-1.4.9-1.3 1.4 1.9.9 1.9 1.8-3.2 0-3.3 1.1c0 1 2.5 1.1 2.5 2.3s-3.6 0-3.7 1.3 1.6 1.4 1.9 2-.1 1.4.2 1.7c.3.3 2.1-.1 2.2.8s-2.9 1.3-2.9 1.8.9 1.3.5 1.7c-.4.4-1.9.1-2.1.6s1 .8.3 1.5c-.6.7-2.2.3-1.9 1.4.2 1.1 2.1.6 2.4 1.1s-.5.8-.2 1.3.7.6.2 1.2-.7 2.9-.7 2.9-1.9-3.8-2.3-5.7-2-4.8-2.1-7.5 1.2-13.1.8-15.5-1.6-6.9-3.3-9.1c-1.6-2.2-4.1-5.8-7.3-6.1s-2.6.5-4.6.4c-1.9-.1-4.5-1.4-4.5-1.4s.2-1-.2-1.7c0-1.2-.8-1.5-.7-2.3z"/>
  <circle class="st53" cx="1686.6" cy="238.7" r="2.3"/>
  <circle cx="1686.5" cy="238.8" r="7.8" style="opacity:.4;fill:red;enable-background:new"/>
  <radialGradient id="SVGID_00000032646546947690855330000012093657544536531369_" cx="1686.495" cy="492.802" r="1.434" gradientTransform="translate(0 -254)" gradientUnits="userSpaceOnUse">
    <stop offset="0" style="stop-color:#ffebff"/>
    <stop offset=".085" style="stop-color:#fde3f6"/>
    <stop offset=".224" style="stop-color:#f8ccde"/>
    <stop offset=".399" style="stop-color:#efa8b6"/>
    <stop offset=".603" style="stop-color:#e3757f"/>
    <stop offset=".83" style="stop-color:#d43539"/>
    <stop offset="1" style="stop-color:#c80000"/>
  </radialGradient>
  <circle style="fill:url(#SVGID_00000032646546947690855330000012093657544536531369_)" cx="1686.5" cy="238.8" r="1.4"/>
  <path class="st53" d="M1673.9 284.4c1.1-.9 3.4 4.1 3.5 5.2s-.3 2.3-3.1 1.8-2.2-.1-2.8-.5c-.6-.4-3-3.6-3-3.6s1.3-1.7 2.2-2.1c.9-.4 1.8.3 3.2-.8zm0-14.6s-2.6-2.8-3.6-3.3c-.9-.5-.8.9-.8.9s-.3-2.1-.8-1.4-.8 1.2-.8 1.2-.5-2.8 1.2-4 5.5.6 5.5 1.2-.8.7-.9 1.4c-.1.7.2.8.2 1.4v2.6z"/>
  <path class="st57" d="M1676.8 263s-1.8.3-2.2 1.1c-.4.8-.7 1.7-.8 2.1-.2.4.2 2.2.2 2.7 0 .4.1 1.1.1 1.1s.7-.9.7-2-.3-1.5 0-2.1c.3-.7.9-1 1-1.6s1-1.3 1-1.3z"/>
  <ellipse transform="rotate(-64.614 1678.585 251.428)" class="st53" cx="1678.5" cy="251.4" rx="1.4" ry="1"/>
  <path class="st53" d="M1682.8 250.6c.8.2.1 3.5.1 3.5l-.5 1.9s-.3-.5-.7-.6c-.4-.1-.8 0-.8 0l-.1-.9s-.5.6-.8.5-.4-.3-.7-.2c-.3.1-.2.3-.4.3-.7.1-.9-.4-.9-.4s2.4-.3 2.7-1.1c.2-.7 1.2-3.3 2.1-3zm1-8.5s-.3 3.1.5 3.4c.7.3 1.5-.2 2.1.1.6.3 1 2 2.1 2s1.6-.7 1.6-.7-1.1.1-1.9-.7c-.9-.8-.6-1.5-1.4-1.7s-1 .3-1.9-.8c-1.1-1-1.1-1.6-1.1-1.6zm12.2-2.4s.1 3.3-1.2 4.7c-1.2 1.4-2.6 2.7-2.6 2.7s1.5-.2 1.8.2c.3.4.6 2.1 1.6 1.2 2.5-2.3.4-8.8.4-8.8zm-11.6 40s-.4-6.9.7-5.9c1.2 1 3.4 2.5 4.6 2.7s2.4 3 3.2 3.4c.8.4 1.9-.1 3 .6 1.1.6 1.4 3.2 1.4 3.2s.7-2.1-1.2-4.1c-1.9-2-2.2-3.2-5-4.4s-5.6-2.5-7-4c-1.5-1.6-2.5-2.8-3.1-2.7-.6.1 1 7.4 1.3 8.4.4 1.1 2.1 2.8 2.1 2.8z"/>
  <path class="st57" d="M1694.4 248.8s.2 3.7-.4 5.6c-.7 2-1.4 4.4-1.7 5.2-.3.8-.8 2.2-1.1 3-.3.8-1.7 3-1.7 3s1.6.8 2.7 1.1c1.1.3 3.6-3.1 3.6-5.1s.5-1 .4-2.4c-1.5.9-3.4 3.9-3.4 3.9s.4-2.1.9-3.3 1.7-2.2 1.7-5.7c0-3.6-1-5.3-1-5.3z"/>
  <path class="st53" d="M1688.2 284.5c1.1.1 2.8 1.5 3.1 2.1.2.6.5 1.5.8 1.8s.3.9-.4 1.4c-.7.5-4.4 1.4-6.6.4-2.1-1-2.6-3.5-3.1-4.1s-1.6-1.4-1.6-1.4 2.9-.1 3.1-.6.2-1 1-1.1c1.3-.2.5 2.7 2 2.6.8-.1.9-1.2 1.7-1.1zm10.7 3.9s2.1 1.5 2.8 3.3c.8 1.8.8 5.5 3.1 7.2 2.4 1.7 4.8 2.3 6.8 2.3 2.1 0 3.5-4.6 3.5-4.6s-2.3 4-4.6 2.5 2.3-6.3 2.3-6.3-4.3 5.4-5.6 4 2.4-6.1 2.4-6.1-3.2 4.8-4.9 3.3c-1.7-1.5-2.2-3.6-1-4.6s4.3 1.5 4.3 1.5-1-2.8-2.6-3.2-2.5 1.4-3.8.9-2.7-.2-2.7-.2zm16.6 21.1s.2 4.6-.9 4.6-3-3.9-3.3-4.7-1.4-4-1.8-4.5-3-2.9-3-2.9 2.5 2.7 2.6 3.2c0 .5.1 1.3.1 1.3s-2.6-1.6-3.8-2.9c-1.2-1.3-1.6-2.2-1.6-2.2s1.6 3.5 3.1 4.7 3.1 2.4 3.8 3.5c.7 1 1.5 2.6.5 3.3s-6.5-3.4-7.4-3.4c-1-.1-1.2.5-1.2.5s3.1 2.5 3.8 3.3c.8.8 1.2 2.8 1.9 3.4s3.3.7 4.3.7 3.6-.3 4.3.4c.7.7 2.3 2.6 2.5 4.6.2 2.2 4.7 3.1 4.7 3.1s-2-2.1-2.4-2.8c-.6-.9.4-1.5-1.2-2.8-1.6-1.2-1.7-2.2-3.2-4.8-.8-1.3-.6-4.8-.6-4.8l-1.2-.8zm-3.2 46.3c-.4 0-2.1.9-2.1.9h9.5s1.5-1.6 1.7-2.2c.2-.7-.2-.9.5-2.8.7-1.8 3-5.8 3.4-6.4s1.9-2 2.1-2.6 1.3-2.4 1.5-2.8 1-.5 1-2.4c0 0-.3.8-.8 1.3s-1.7 2.7-2.1 3.6-1.5 1.7-2.2 2.8c-.7 1.1-2.1 3.4-3.2 4.6s-3.3.7-4.3 2.3c-1 1.6-.6 2.9-2.1 2.5-1.2-.2-2.5 1.3-2.9 1.2zm22.6-9.6c.7-1.5 2.3-3.5 2.9-4.9s2.1-3.2 2.2-5c0 0-1.1 2.5-2.2 4-1 1.3-1.6 3-2.4 3.8-.7.7-.8 2.8-1.9 3.9s-2.2 2.8-2.8 3.9-.9 2.9-3.4 2.8-4.9 2.1-4.9 2.1h9.2s-.1-.7 0-1.3c.2-.6 1.2-1.1 1.4-2.1.2-1-.2-2.6.1-3.6.2-1 1.1-2.1 1.8-3.6"/>
</svg>
